<svg width="265" height="147" fill="none" xmlns="http://www.w3.org/2000/svg"><g clip-path="url(#a)" fill="#fff"><path d="M-.003 109.413c.161-.487.29-.984.383-1.488.751-6.233 2.876-11.86 7.325-16.429 3.858-3.98 8.683-6.248 13.987-7.49 2.971-.7 6.047-.923 9.066-1.44 4.066-.693 8.124-1.409 12.174-2.213 1.462-.294 1.518-.422 1.47-1.926a63.249 63.249 0 0 0-.44-6.853c-.623-4.203-2.843-7.474-7.676-8.254a20.84 20.84 0 0 0-10.624.692c-3.49 1.242-4.793 3.932-5.096 7.339-.028.47-.028.94 0 1.409.104 2.833-1.67 3.98-3.579 4.584a8.15 8.15 0 0 1-2.069.446c-4.297.215-8.595.39-12.956.573a5.794 5.794 0 0 1-.24-1.034c0-2.945-.128-5.906.128-8.828.799-9.24 5.591-15.624 14.219-19.102 6.39-2.595 13.028-2.969 19.81-2.61 3.77.147 7.503.792 11.103 1.917a22.27 22.27 0 0 1 11.526 8.071 21.646 21.646 0 0 1 3.843 9.75c.465 3.022.716 6.073.75 9.13.072 16.484 0 32.976 0 49.468 0 .589.064 1.178 0 1.767a3.836 3.836 0 0 0 1.597 3.327c3.044 2.611 4.842 5.866 4.794 9.989v5.214c-.551 0-.999.111-1.446.111-5.672 0-11.35-.127-17.022.048-3.132.095-4.945-1.361-6.223-4.02a1.675 1.675 0 0 0-.631.143 24.65 24.65 0 0 1-14.378 4.593 40.603 40.603 0 0 1-10.385-.868c-4.56-1.074-8.666-3.008-11.846-6.582a25.722 25.722 0 0 1-5.096-8.986 36.251 36.251 0 0 1-2.117-10.499 2.153 2.153 0 0 0-.327-.74l-.024-9.209zm44.692-13.897-1.55.286c-3.77.63-7.516 1.473-11.31 1.855a14.407 14.407 0 0 0-7.843 2.951 14.33 14.33 0 0 0-4.858 6.807 22.481 22.481 0 0 0-.136 15.051c1.55 4.641 4.793 7.777 9.825 8.597 1.688.266 3.398.362 5.105.286a12.006 12.006 0 0 0 8.882-4.481 7.577 7.577 0 0 0 1.917-5.301c-.136-7.999-.056-16.006-.056-24.006l.024-2.045zM100.749.552c0 1.942.087 3.892 0 5.826a38.106 38.106 0 0 1-4.553 16.715A24.496 24.496 0 0 1 85.3 33.28c-6.702 3.263-13.827 4.17-21.16 3.98a3.13 3.13 0 0 1-.64-.207c0-1.783-.055-3.59 0-5.389a38.743 38.743 0 0 1 3.3-14.375 24.173 24.173 0 0 1 7.021-9.336c4.993-3.98 10.76-5.914 17.007-6.718 1.078-.135 2.14-.453 3.195-.692l6.726.008zM190.869 146.552c-.799-.239-1.662-.502-2.501-.717a13.356 13.356 0 0 1-7.708-5.542 13.28 13.28 0 0 1-2.061-9.246c1.166-8.596 10.153-13.253 17.885-11.143 5.312 1.424 8.787 4.696 10.001 10.084 1.134 5.054-.343 9.424-4.154 12.934a13.188 13.188 0 0 1-7.988 3.367c-.455.068-.906.164-1.35.287l-2.124-.024zm9.897-13.531a8.101 8.101 0 0 0-2.276-5.911 8.163 8.163 0 0 0-13.457 2.681 8.088 8.088 0 0 0-.555 3.182c0 4.394 3.675 8.142 7.82 8.23a8.012 8.012 0 0 0 6.036-2.232 7.94 7.94 0 0 0 2.424-5.942l.008-.008zM225.265 146.552c-1.646-.366-3.339-.613-4.945-1.123-6.39-2.013-9.953-8.421-8.651-15.067 1.598-8.166 9.386-11.788 16.016-10.809 3.842.573 7.093 2.165 9.426 5.309a13.123 13.123 0 0 1 .105 15.88 13.193 13.193 0 0 1-4.275 3.693 36.785 36.785 0 0 1-4.793 1.775c-.263.095-.511.23-.798.342h-2.085zm.407-5.373c4.417.143 7.988-3.47 8.052-8.238a8.2 8.2 0 0 0-2.192-5.683 8.257 8.257 0 0 0-5.516-2.619 8.097 8.097 0 0 0-5.997 2.112 8.022 8.022 0 0 0-2.598 5.784c-.104 4.959 3.251 8.477 8.251 8.644zM132.325 146.552c-.719-.215-1.43-.47-2.165-.637-6.023-1.377-10.121-7.163-9.937-13.316.24-8.19 6.958-13.762 15.177-13.173 2.976.1 5.835 1.171 8.14 3.048.219.188.424.39.615.605.113.171.215.349.304.534l-3.379 3.749c-1.43-.749-2.78-1.592-4.218-2.181a7.606 7.606 0 0 0-5.842.067 7.571 7.571 0 0 0-4.055 4.191 8.726 8.726 0 0 0 1.03 8.7c2.581 3.629 7.19 3.55 9.842 2.268a33.784 33.784 0 0 0 3.355-2.109l3.442 3.629a12.654 12.654 0 0 1-8.083 4.267c-.687.079-1.374.238-2.061.358h-2.165zM264.997 145.843h-18.94c-.391-1.257-.511-22.947-.136-25.796h5.592v20.694l13.524.12-.04 4.982zM203.649 98.85c1.095.797 2.133 1.441 3.06 2.229 2.54 2.197 2.316 8.31-1.878 10.189a11.718 11.718 0 0 1-4.209 1.225c-4.945.144-9.897.056-14.946.056V86.641c.434-.067.872-.11 1.31-.127 3.843 0 7.685-.08 11.519.04 1.472.03 2.926.318 4.298.851a6.284 6.284 0 0 1 2.633 1.872 6.243 6.243 0 0 1 1.055 6.14 6.261 6.261 0 0 1-1.859 2.638c-.304.215-.607.51-.983.796zm-12.245 8.756h7.892a4.228 4.228 0 0 0 1.701-.406 2.589 2.589 0 0 0 1.598-2.531 2.508 2.508 0 0 0-1.598-2.348 3.943 3.943 0 0 0-1.517-.454c-2.644-.047-5.288 0-8.092 0l.016 5.739zm0-16.173v5.619h5.591a8.018 8.018 0 0 0 2.261-.342 2.584 2.584 0 0 0 1.807-2.604 2.586 2.586 0 0 0-2.087-2.387c-2.476-.613-5-.199-7.572-.262v-.024zM166.905 86.084c3.594.087 7.988 2.165 10.767 7.124a13.207 13.207 0 0 1 1.105 10.067 13.26 13.26 0 0 1-6.353 7.905 14.921 14.921 0 0 1-14.737 0 13.29 13.29 0 0 1-5.297-5.422 13.222 13.222 0 0 1-1.461-7.424c.687-7.053 6.702-12.282 15.976-12.25zm-1.766 5.245c-4.864-.278-7.988 3.9-8.131 7.554-.224 5.571 3.466 8.859 7.884 8.962 5.368.135 8.219-4.083 8.347-7.96.144-4.672-3.69-8.779-8.124-8.556h.024zM119.96 89.586l-3.659 4.322c-.527-.374-1.03-.796-1.597-1.098-3.451-2.245-8.571-2.26-11.463 1.496a8.935 8.935 0 0 0-.655 9.647c1.821 3.072 4.665 4.194 8.108 3.86a17.712 17.712 0 0 0 3.578-.899 1.426 1.426 0 0 0 1.015-1.648c-.072-.859 0-1.743 0-2.73h-5.847v-4.903h11.39c0 .493.08.947.08 1.4v8.828a1.754 1.754 0 0 1-.711 1.663 17.193 17.193 0 0 1-8.786 3.423c-3.196.239-6.391-.048-9.282-1.632a13.18 13.18 0 0 1-5.377-5.692 13.125 13.125 0 0 1-1.19-7.727c.903-7.068 6.734-11.756 13.636-11.828a15.625 15.625 0 0 1 9.098 2.388c.567.318 1.071.708 1.662 1.13zM225.424 58.138h-14.186v5.325h12.381v5.174H211.27v5.516h14.378c0 .979.08 1.775.096 2.57.016.796 0 1.52 0 2.388h-20.218V53.315h19.898v4.823zM166.729 135.496h-11.007v10.347h-5.664v-25.836h5.592v10.101h10.927v-10.037a43.892 43.892 0 0 1 5.688-.12v25.869h-5.592l.056-10.324zM228.412 86.259l11.447 26.266h-6.047c-.591-1.409-1.262-2.841-1.773-4.322a1.808 1.808 0 0 0-2.005-1.496c-3.299.079-6.606 0-9.961 0l-2.541 5.754h-5.823a325.764 325.764 0 0 1 1.941-4.528l7.022-16.142c.631-1.457 1.286-2.897 1.869-4.362a1.72 1.72 0 0 1 .714-.961 1.731 1.731 0 0 1 1.171-.265c1.286.128 2.58.056 3.986.056zm-2.74 6.83c-1.254 3.008-2.396 5.714-3.563 8.572h7.19l-3.627-8.573zM122.588 79.167h-6.007c-.639-1.52-1.342-3.056-1.917-4.632-.248-.693-.512-1.146-1.318-1.146h-10.568l-2.525 5.778h-5.83c3.833-8.755 7.604-17.47 11.414-26.218h5.368l11.383 26.218zM112.06 68.35c-1.199-2.841-2.333-5.516-3.467-8.198l-.408.048-3.283 8.15h7.158zM160.227 71.327v7.84h-5.799v-25.78c.319-.081.645-.135.974-.16 3.667 0 7.333-.08 10.992 0a8.98 8.98 0 0 1 5.99 2.061 8.919 8.919 0 0 1 3.125 5.494 8.903 8.903 0 0 1-1.303 6.18 8.961 8.961 0 0 1-5.081 3.776 16.7 16.7 0 0 1-3.826.573c-1.637.088-3.275.016-5.072.016zm.096-4.99c1.541 0 3.011.04 4.473 0a9.563 9.563 0 0 0 2.396-.406 3.77 3.77 0 0 0 2.397-3.733 3.562 3.562 0 0 0-.67-2.235 3.586 3.586 0 0 0-1.91-1.347c-2.189-.517-4.41-.31-6.718-.334l.032 8.055zM133.587 71.447v7.64h-5.783V53.292c.519 0 .966-.064 1.422-.064 3.714 0 7.436-.135 11.143.072 3.435.199 6.222 1.751 7.66 5.062 1.438 3.311 1.222 6.686-1.158 9.6-1.901 2.331-4.601 3.183-7.517 3.342-1.294.08-2.596 0-3.898 0-.575.032-1.142.096-1.869.144zm0-5.11c1.701 0 3.195.047 4.793 0a8.356 8.356 0 0 0 2.396-.462 3.734 3.734 0 0 0 2.269-3.645 3.775 3.775 0 0 0-2.221-3.503c-1.334-.549-5.52-.628-7.189-.095l-.048 7.705zM94.862 142.158l3.442-3.98a12.794 12.794 0 0 0 5.64 2.866c1.045.146 2.099.221 3.155.223a3.148 3.148 0 0 0 1.039-.183 2.46 2.46 0 0 0 2.013-2.181 2.333 2.333 0 0 0-.439-1.498 2.348 2.348 0 0 0-1.287-.89c-1.382-.509-2.82-.844-4.218-1.313-1.597-.542-3.235-1.075-4.792-1.736-3.994-1.679-4.793-7.8-1.598-11.143a7.822 7.822 0 0 1 4.05-2.388 16.07 16.07 0 0 1 13.268 2.81l-2.86 4.091a44.861 44.861 0 0 0-4.968-2.021 11.494 11.494 0 0 0-3.659-.128 2.26 2.26 0 0 0-1.642 3.312c.231.425.595.766 1.035.97 1.246.518 2.572.796 3.858 1.258 1.726.581 3.483 1.098 5.145 1.815a6.173 6.173 0 0 1 2.964 2.43 6.14 6.14 0 0 1 .95 3.706 7.335 7.335 0 0 1-.913 3.898 7.363 7.363 0 0 1-2.826 2.844 12.18 12.18 0 0 1-6.853 1.361 16.593 16.593 0 0 1-10.504-4.123zM199.991 79.111h-18.932V53.307h5.816v20.742h13.156l-.04 5.062zM250.778 107.463h13.284v5.054h-19.059V86.585h5.775v20.878zM128.203 112.485v-25.86h5.592v20.79h13.371v5.07h-18.963z"/></g><defs><clipPath id="a"><path fill="#fff" transform="translate(-.003 .552)" d="M0 0h265v146H0z"/></clipPath></defs></svg>