<?xml version="1.0" encoding="utf-8"?>
<!-- Generator: Adobe Illustrator 21.1.0, SVG Export Plug-In . SVG Version: 6.00 Build 0)  -->
<svg version="1.1" id="Layer_1" xmlns="http://www.w3.org/2000/svg" xmlns:xlink="http://www.w3.org/1999/xlink" x="0px" y="0px"
	 viewBox="0 0 378 131.7" style="enable-background:new 0 0 378 131.7;" xml:space="preserve">
<style type="text/css">
	.st0{fill:#A31834;}
</style>
<path class="st0" d="M47.4,4.1L14.1,77.9c-1.6,3.6-4.7,5.2-7.4,5.2v1.4h16.6v-1.4c-2.9,0-6-1.5-5.2-3.5c0.3-0.7,0.5-1.1,0.8-2
	l25.6-57.9l28.4,58.2c0.4,0.9,1,1.9,1,2.6c0,2.1-2.9,2.7-5.4,2.7v1.4h25.2v-1.4c-2.6,0-5.5-1.1-7.4-5.2L49,4.1H47.4z"/>
<path class="st0" d="M170.9,87.9l25.2-57.5c1.2-2.8,3.5-3.8,6.3-3.8v-1.4H188v1.4c2.2,0,4.2,0.8,4.2,1.9c0,0.6-0.3,1.2-0.7,1.9
	l-17.9,42l-19.3-42c-0.3-0.7-0.8-1.5-0.8-2c0-1.2,2.3-1.8,4.2-1.8v-1.4h-17.8c0,0,0.8,1.9,2.3,5.2l27.5,57.5H170.9z"/>
<path class="st0" d="M220.8,84.3v-1.4c-2.1,0-4-1.1-4-2.7V29.3c0-1.6,1.7-2.7,4.5-2.7v-1.4h-19.7v1.4c2.5,0,4.5,1.1,4.5,2.7v50.9
	c0,1.6-2,2.7-4.5,2.7v1.4C201.6,84.3,220.8,84.3,220.8,84.3z"/>
<path class="st0" d="M320.7,28.7H338c13.2,0,21,11.6,21,26s-6.5,26-19.1,26h-19.2L320.7,28.7L320.7,28.7z M310,80.2
	c0,1.6-1.8,2.7-3.8,2.7v1.4h35.7c17.5,0,28.2-12.4,28.2-29.6s-12.5-29.6-30.2-29.6h-33.6v1.3c2.1,0,3.8,1.1,3.8,2.7v51.1H310z"/>
<path class="st0" d="M263.9,26.8c-12.2,0.1-18.9,6.4-18.9,16.9v36.5c0,1.6,1.8,2.7,4,2.7v1.3h-18.7V83c2.1,0,4-1.1,4-2.7V47.5
	c0-17.6,12.1-24.1,29.6-24.2c17.5,0.1,29.6,6.6,29.6,24.2v32.8c0,1.6,1.9,2.7,4,2.7v1.3h-18.7V83c2.1,0,4-1.1,4-2.7V43.7
	C282.7,33.2,276,26.9,263.9,26.8"/>
<path class="st0" d="M97.4,52.2c0-3-0.1-6.2,0.9-9.9c3-10.7,13.4-18.4,25.9-19c1-0.1,1.9-0.1,3-0.1c1.2,0.1,2.2,0.1,3.1,0.3l1.9,0.2
	c1.6,0.1,2.9-1.6,3.1-3.7h1.3v18h-1.3c0-2.3-0.7-9.1-5.4-10.5c-0.6-0.2-1.1-0.3-1.7-0.5c-0.7-0.1-1.4-0.2-2.2-0.3
	c-1.6,0-3.2,0.1-4.1,0.3c-11,1.6-13.9,10.8-13.9,19.2v34c0,1.6,2,2.7,4.6,2.7v1.3H93.4v-1.4c2.2,0,4-1.1,4-2.7V52.2z"/>
<polygon class="st0" points="6.7,111.4 19.3,111.4 19.3,114.1 9.7,114.1 9.7,118.7 18.3,118.7 18.3,121.4 9.7,121.4 9.7,128.3 
	6.7,128.3 "/>
<path class="st0" d="M32.2,121.6l-2.9-6.8l-2.9,6.8H32.2z M27.9,111.2h2.8l7.5,17.1H35l-1.7-4.1h-8l-1.7,4.1h-3.1L27.9,111.2z"/>
<path class="st0" d="M40.6,125.8l1.8-2.1c1.6,1.4,3.2,2.2,5.4,2.2c1.8,0,3-0.8,3-2.1l0,0c0-1.2-0.7-1.9-3.8-2.6
	c-3.6-0.9-5.6-1.9-5.6-5.1l0,0c0-2.9,2.4-4.9,5.8-4.9c2.5,0,4.4,0.8,6.1,2.1l-1.6,2.3c-1.5-1.1-3.1-1.7-4.6-1.7
	c-1.7,0-2.8,0.9-2.8,2l0,0c0,1.3,0.8,1.9,4,2.7c3.6,0.9,5.4,2.2,5.4,5l0,0c0,3.2-2.5,5.1-6.1,5.1C45.1,128.5,42.6,127.7,40.6,125.8"
	/>
<path class="st0" d="M356.6,125.8l1.8-2.1c1.6,1.4,3.2,2.2,5.4,2.2c1.8,0,3-0.8,3-2.1l0,0c0-1.2-0.7-1.9-3.8-2.6
	c-3.6-0.9-5.6-1.9-5.6-5.1l0,0c0-2.9,2.4-4.9,5.8-4.9c2.5,0,4.4,0.8,6.1,2.1l-1.6,2.3c-1.5-1.1-3.1-1.7-4.6-1.7
	c-1.7,0-2.8,0.9-2.8,2l0,0c0,1.3,0.8,1.9,4,2.7c3.6,0.9,5.4,2.2,5.4,5l0,0c0,3.2-2.5,5.1-6.1,5.1
	C361.1,128.5,358.6,127.7,356.6,125.8"/>
<polygon class="st0" points="58,111.4 60.9,111.4 60.9,118.4 69,118.4 69,111.4 72,111.4 72,128.3 69,128.3 69,121.2 60.9,121.2 
	60.9,128.3 58,128.3 "/>
<rect x="77.2" y="111.4" class="st0" width="3" height="16.9"/>
<path class="st0" d="M99.3,119.9L99.3,119.9c0-3.3-2.4-6.1-5.8-6.1s-5.7,2.7-5.7,6l0,0c0,3.3,2.4,6,5.8,6
	C97,125.9,99.3,123.2,99.3,119.9 M84.7,119.9L84.7,119.9c0-4.8,3.7-8.8,8.9-8.8c5.2,0,8.8,3.9,8.8,8.7l0,0c0,4.8-3.7,8.8-8.9,8.8
	S84.7,124.6,84.7,119.9"/>
<polygon class="st0" points="106.8,111.4 109.5,111.4 118.6,123.1 118.6,111.4 121.6,111.4 121.6,128.3 119.1,128.3 109.7,116.2 
	109.7,128.3 106.8,128.3 "/>
<rect x="126.8" y="111.4" class="st0" width="3" height="16.9"/>
<polygon class="st0" points="135,111.4 137.8,111.4 146.9,123.1 146.9,111.4 149.8,111.4 149.8,128.3 147.3,128.3 138,116.2 
	138,128.3 135,128.3 "/>
<path class="st0" d="M154.1,119.9L154.1,119.9c0-4.8,3.6-8.8,8.7-8.8c3,0,4.8,0.8,6.5,2.3l-1.9,2.3c-1.3-1.1-2.6-1.8-4.7-1.8
	c-3.1,0-5.5,2.7-5.5,6l0,0c0,3.5,2.3,6.1,5.8,6.1c1.6,0,3.1-0.5,4.1-1.3v-3.2h-4.3v-2.6h7.2v7.1c-1.7,1.4-4.1,2.6-7.1,2.6
	C157.6,128.6,154.1,124.8,154.1,119.9"/>
<path class="st0" d="M192.9,120.2c2.3,0,3.7-1.3,3.7-3l0,0c0-2-1.4-3-3.7-3h-3.5v6.1L192.9,120.2L192.9,120.2z M186.5,111.4h6.7
	c3.9,0,6.4,2.3,6.4,5.7l0,0c0,3.8-3.1,5.8-6.8,5.8h-3.4v5.4h-3v-16.9H186.5z"/>
<path class="st0" d="M217.2,119.9L217.2,119.9c0-3.3-2.4-6.1-5.8-6.1s-5.7,2.7-5.7,6l0,0c0,3.3,2.4,6,5.8,6
	C214.9,125.9,217.2,123.2,217.2,119.9 M202.6,119.9L202.6,119.9c0-4.8,3.7-8.8,8.9-8.8s8.8,3.9,8.8,8.7l0,0c0,4.8-3.7,8.8-8.9,8.8
	S202.6,124.6,202.6,119.9"/>
<path class="st0" d="M223.5,125.8l1.8-2.1c1.6,1.4,3.2,2.2,5.4,2.2c1.8,0,3-0.8,3-2.1l0,0c0-1.2-0.7-1.9-3.8-2.6
	c-3.6-0.9-5.6-1.9-5.6-5.1l0,0c0-2.9,2.4-4.9,5.8-4.9c2.5,0,4.4,0.8,6.2,2.1l-1.6,2.3c-1.5-1.1-3.1-1.7-4.6-1.7
	c-1.7,0-2.8,0.9-2.8,2l0,0c0,1.3,0.8,1.9,4,2.7c3.6,0.9,5.4,2.2,5.4,5l0,0c0,3.2-2.5,5.1-6.1,5.1C228,128.5,225.6,127.7,223.5,125.8
	"/>
<path class="st0" d="M239.7,125.8l1.8-2.1c1.6,1.4,3.2,2.2,5.4,2.2c1.8,0,3-0.8,3-2.1l0,0c0-1.2-0.7-1.9-3.8-2.6
	c-3.6-0.9-5.6-1.9-5.6-5.1l0,0c0-2.9,2.4-4.9,5.8-4.9c2.5,0,4.4,0.8,6.1,2.1l-1.6,2.3c-1.5-1.1-3.1-1.7-4.6-1.7
	c-1.7,0-2.8,0.9-2.8,2l0,0c0,1.3,0.8,1.9,4,2.7c3.6,0.9,5.4,2.2,5.4,5l0,0c0,3.2-2.5,5.1-6.1,5.1
	C244.2,128.5,241.8,127.7,239.7,125.8"/>
<rect x="257.3" y="111.4" class="st0" width="3" height="16.9"/>
<g>
	<path class="st0" d="M273.4,125.7c2,0,3.3-0.8,3.3-2.3l0,0c0-1.4-1.1-2.3-3.5-2.3h-4.7v4.6C268.5,125.7,273.4,125.7,273.4,125.7z
		 M272.5,118.5c1.9,0,3.2-0.8,3.2-2.3l0,0c0-1.3-1.1-2.2-3-2.2h-4.3v4.5H272.5z M265.5,111.4h7.6c1.9,0,3.5,0.5,4.4,1.5
		c0.7,0.8,1.1,1.7,1.1,2.8l0,0c0,2-1.2,3.1-2.4,3.8c2,0.7,3.4,1.8,3.4,4.1l0,0c0,3-2.5,4.6-6.3,4.6h-7.8L265.5,111.4L265.5,111.4z"
		/>
</g>
<rect x="283.9" y="111.4" class="st0" width="3" height="16.9"/>
<polygon class="st0" points="292.1,111.4 295.1,111.4 295.1,125.6 304,125.6 304,128.3 292.1,128.3 "/>
<rect x="308" y="111.4" class="st0" width="3" height="16.9"/>
<polygon class="st0" points="320.4,114.1 315,114.1 315,111.4 328.8,111.4 328.8,114.1 323.4,114.1 323.4,128.3 320.4,128.3 "/>
<rect x="332.8" y="111.4" class="st0" width="3" height="16.9"/>
<polygon class="st0" points="341,111.4 353.6,111.4 353.6,114 344,114 344,118.4 352.5,118.4 352.5,121.1 344,121.1 344,125.6 
	353.7,125.6 353.7,128.3 341,128.3 "/>
</svg>
