<svg xmlns="http://www.w3.org/2000/svg" viewBox="0 0 168.7 81" xml:space="preserve"><style type="text/css">	.st0{opacity:0.6;fill:#441913;}	.st1{fill:url(#i);}	.st2{fill:url(#h);}	.st3{opacity:0.8;fill:#441913;}	.st4{fill:url(#g);}	.st5{fill:url(#f);}	.st6{fill:url(#e);}	.st7{fill:url(#d);}	.st8{fill:url(#c);}	.st9{fill:url(#b);}	.st10{fill:url(#a);}</style><polygon class="st0" points="115.4 7.7 112.9 12 108 11.3 111.3 15 109.2 19.5 113.7 17.5 113.9 16.2 116.8 16 121.2 13.6 116.3 12.6"></polygon><path class="st0" d="m100.2 15.2 2.7 7.1 0.2 0.5h0.5l7.6 0.3-6 4.7-0.4 0.3 0.1 0.5 2.1 7.3-6.3-4.2-0.4-0.3-0.4 0.3-6.4 4.3 2-7.3 0.1-0.5-0.4-0.3-6-4.7 7.6-0.3h0.5l0.2-0.5 2.7-7.2m-0.1-3.2-3.6 9.8-10.4 0.5 8.2 6.4-2.8 10 8.6-5.8 8.7 5.7-2.9-10 8.1-6.5-10.4-0.4-3.5-9.7z"></path><path class="st0" d="m161.8 55.7v-2.5c0-3.4-1-5.8-2.9-7.4-1.8-1.5-4.4-2.2-8-2.2-3.3 0-6.2 0.8-8.2 2.2-0.8 0.6-1.5 1.3-2 2-0.4-0.8-1-1.4-1.7-2-1.8-1.5-4.4-2.2-8-2.2-3.3 0-6.2 0.8-8.2 2.2-0.4 0.3-0.7 0.5-1 0.8l-1.5-1.2c-1.9-1.2-4.4-1.9-7.1-1.9-3.3 0-6.2 1.1-8.3 2.8-1-1.9-3-2.9-5.7-2.9h-0.4c-2.1 0.1-3.8 0.9-4.8 2.3-0.2-0.2-0.4-0.4-0.4-0.5-2.1-2-5.1-3-8.9-3-3.1 0-5.9 0.9-8.1 2.6-1.3 1-2.3 2.2-2.9 3.6-0.5-1.1-1.2-2-2.1-2.8-1.8-1.5-4.4-2.2-8-2.2-3.3 0-6.2 0.8-8.2 2.2-0.3 0.2-0.6 0.4-0.8 0.7-0.2-0.2-0.3-0.4-0.5-0.5-1.6-1.5-3.7-2.3-6-2.3h-0.1c-1.7 0-3.3 0.4-4.8 1.3-1.4-0.9-3.1-1.3-4.8-1.3-1.5 0-3 0.4-4.3 1-0.9-0.6-2.1-1-3.4-1h-1.3c-0.5 0-1 0.1-1.5 0.2 0.2-0.5 0.2-1 0.2-1.5v-0.6c0-2.6-2-5.3-6.4-5.3h-10.5c-4.4 0-6.4 2.7-6.4 5.3v0.6c0 2.3 1.6 4.7 5.1 5.2v8.1c-3.5 0.5-5.1 2.9-5.1 5.2v0.6c0 2.6 2 5.3 6.4 5.3h10.4c1.7 0 3-0.4 4.1-1.1 1 0.7 2.2 1.1 3.6 1.1h0.9c1.9 0 3.5-0.8 4.6-2.1 0.9 1 2 1.5 2.6 1.7 0.9 0.3 1.8 0.4 2.6 0.4 2.1 0 3.7-0.8 4.8-2.2 1.3 1.7 3.4 2.2 5.3 2.2h0.3c1.6 0 2.9-0.6 4-1.5 1.3 0.9 3 1.4 4.9 1.4 2 0 3.6-0.5 4.8-1.1 1.1 0.7 2.6 1.1 4.7 1.1h2c0.5 0 0.9 0 1.3-0.1-0.1 2.4 0.9 4.9 2.9 6.4 1.6 1.2 3.4 2 5.9 2.4 1.1 0.2 2.3 0.3 3.5 0.3 0.7 0 1.4 0 2.2-0.1 2.2-0.2 4.9-0.6 7.3-2.2 2.2-1.5 3.6-3.7 4-6.5v-0.2c0.4 0.1 0.8 0.1 1.2 0.1 2.6 0 4.5-1 5.6-2.8 2.1 1.8 5 2.8 8.3 2.8 2.6 0 5.1-0.7 7.1-1.9 0.3-0.2 0.5-0.3 0.8-0.5 1.4 1.5 3.5 2.4 6 2.4 2 0 3.6-0.5 4.8-1.1 1.1 0.7 2.6 1.1 4.7 1.1h2c1.6 0 3-0.4 4-1.1 1.2 0.7 2.7 1.1 4.4 1.1 2 0 3.6-0.5 4.8-1.1 1.1 0.7 2.6 1.1 4.7 1.1h2c3.9 0 6-2 6-5.7v-0.5c0.1-2.1-0.8-3.8-2.5-4.7zm1.6-3v-2.5c0-3.4-1-5.8-2.9-7.5-1.8-1.5-4.4-2.2-8-2.2-3.3 0-6.2 0.8-8.2 2.2-0.8 0.6-1.5 1.3-2 2-0.4-0.8-1-1.4-1.7-2-1.8-1.5-4.4-2.2-8-2.2-3.3 0-6.2 0.8-8.2 2.2-0.4 0.3-0.7 0.5-1 0.8l-1.5-1.2c-1.9-1.2-4.4-1.9-7.1-1.9-3.3 0-6.2 1.1-8.3 2.9-1-1.9-3-2.9-5.7-2.9h-0.4c-2.1 0.1-3.8 0.9-4.8 2.3-0.2-0.2-0.4-0.4-0.4-0.5-2.1-2-5.1-3-8.9-3-3.1 0-5.9 0.9-8.1 2.6-1.3 1-2.3 2.2-2.9 3.6-0.5-1.1-1.2-2-2.1-2.8-1.8-1.5-4.4-2.2-8-2.2-3.3 0-6.2 0.8-8.2 2.2-0.3 0.2-0.6 0.4-0.8 0.7-0.2-0.2-0.3-0.4-0.5-0.5-1.6-1.5-3.7-2.3-6-2.3h-0.1c-1.7 0-3.3 0.5-4.8 1.3-1.4-0.9-3.1-1.4-4.8-1.4-1.5 0-3 0.4-4.3 1-0.9-0.6-2.1-1-3.4-1h-1.3c-0.5 0-1 0.1-1.5 0.2 0.2-0.5 0.2-1 0.2-1.5v-0.7c0-2.6-2-5.3-6.4-5.3h-10.6c-4.4 0-6.4 2.8-6.4 5.3v0.7c0 2.3 1.6 4.7 5.1 5.2v8.2c-3.5 0.5-5.1 2.9-5.1 5.2v0.7c0 2.6 2 5.3 6.4 5.3h10.4c1.7 0 3-0.4 4.1-1.1 1 0.7 2.2 1.1 3.6 1.1h0.9c1.9 0 3.5-0.8 4.6-2.1 0.9 1.1 2 1.5 2.6 1.7 0.9 0.3 1.8 0.4 2.6 0.4 2.1 0 3.7-0.8 4.8-2.2 1.3 1.7 3.4 2.2 5.3 2.2h0.3c1.6 0 2.9-0.6 4-1.5 1.3 0.9 3 1.4 5 1.4s3.6-0.5 4.8-1.1c1.1 0.7 2.6 1.1 4.7 1.1h2c0.5 0 0.9 0 1.3-0.1-0.1 2.4 0.9 4.9 2.9 6.4 1.6 1.2 3.4 2 5.9 2.4 1.1 0.2 2.3 0.3 3.5 0.3 0.7 0 1.4 0 2.2-0.1 2.2-0.2 4.9-0.6 7.3-2.3 2.2-1.5 3.6-3.8 4-6.5v-0.2c0.4 0.1 0.8 0.1 1.2 0.1 2.6 0 4.5-1 5.6-2.9 2.1 1.8 5 2.9 8.3 2.9 2.6 0 5.1-0.7 7.1-1.9 0.3-0.2 0.5-0.3 0.8-0.5 1.4 1.5 3.5 2.4 6 2.4 2 0 3.6-0.5 4.8-1.1 1.1 0.7 2.6 1.1 4.7 1.1h2c1.6 0 3-0.4 4-1.1 1.2 0.7 2.7 1.1 4.4 1.1 2 0 3.6-0.5 4.8-1.1 1.1 0.7 2.6 1.1 4.7 1.1h2c3.9 0 6-2 6-5.7v-0.5c0.2-2-0.8-3.8-2.5-4.7zm-62.2-8.3z"></path><radialGradient id="i" cx="84.83" cy="55.284" r="85.186" gradientTransform="matrix(1 0 0 .5364 0 25.63)" gradientUnits="userSpaceOnUse">	<stop stop-color="#FBA91C" offset=".096774"></stop>	<stop stop-color="#F37821" offset=".5108"></stop>	<stop stop-color="#EB6C25" offset=".9731"></stop></radialGradient><path class="st1" d="m101.5 47.1zm60.5 7.8v-2.5c0-3.4-1-5.8-2.9-7.4-1.8-1.5-4.4-2.2-8-2.2-3.3 0-6.2 0.8-8.2 2.2-0.8 0.6-1.5 1.3-2 2-0.4-0.8-1-1.4-1.7-2-1.8-1.5-4.4-2.2-8-2.2-3.3 0-6.2 0.8-8.2 2.2-0.4 0.3-0.7 0.5-1 0.8l-1.5-1.2c-1.9-1.2-4.4-1.9-7.1-1.9-3.3 0-6.2 1.1-8.3 2.8-1-1.9-3-2.9-5.7-2.9h-0.4c-2.1 0.1-3.8 0.9-4.8 2.3-0.2-0.2-0.4-0.4-0.4-0.5-2.1-2-5.1-3-8.9-3-3.1 0-5.9 0.9-8.1 2.6-1.3 1-2.3 2.2-2.9 3.6-0.5-1.1-1.2-2-2.1-2.8-1.8-1.5-4.4-2.2-8-2.2-3.3 0-6.2 0.8-8.2 2.2-0.3 0.2-0.6 0.4-0.8 0.7-0.2-0.2-0.3-0.4-0.5-0.5-1.6-1.5-3.7-2.3-6-2.3h-0.1c-1.7 0-3.3 0.4-4.8 1.3-1.4-0.9-3.1-1.3-4.8-1.3-1.5 0-3 0.4-4.3 1-0.9-0.6-2.1-1-3.4-1h-1.3c-0.5 0-1 0.1-1.5 0.2 0.2-0.5 0.2-1 0.2-1.5v-0.6c0-2.6-2-5.3-6.4-5.3h-10.5c-4.4 0.1-6.4 2.8-6.4 5.4v0.6c0 2.3 1.6 4.7 5.1 5.2v8.1c-3.5 0.6-5.1 3-5.1 5.3v0.6c0 2.6 2 5.3 6.4 5.3h10.4c1.7 0 3-0.4 4.1-1.1 1 0.7 2.2 1.1 3.6 1.1h0.9c1.9 0 3.5-0.8 4.6-2.1 0.9 1 2 1.5 2.6 1.7 0.9 0.3 1.8 0.4 2.6 0.4 2.1 0 3.7-0.8 4.8-2.2 1.3 1.7 3.4 2.2 5.3 2.2h0.3c1.6 0 2.9-0.6 4-1.5 1.3 0.9 3 1.4 4.9 1.4 2 0 3.6-0.5 4.8-1.1 1.1 0.7 2.6 1.1 4.7 1.1h2c0.5 0 0.9 0 1.3-0.1-0.1 2.4 0.9 4.9 2.9 6.4 1.6 1.2 3.4 2 5.9 2.4 1.1 0.2 2.3 0.3 3.5 0.3 0.7 0 1.4 0 2.2-0.1 2.2-0.2 4.9-0.6 7.3-2.2 2.2-1.5 3.6-3.7 4-6.5v-0.2c0.5 0.1 0.9 0.1 1.3 0.1 2.6 0 4.5-1 5.6-2.8 2.1 1.8 5 2.8 8.3 2.8 2.6 0 5.1-0.7 7.1-1.9 0.3-0.2 0.5-0.3 0.8-0.5 1.4 1.5 3.5 2.4 6 2.4 2 0 3.6-0.5 4.8-1.1 1.1 0.7 2.6 1.1 4.7 1.1h2c1.6 0 3-0.4 4-1.1 1.2 0.7 2.7 1.1 4.4 1.1 2 0 3.6-0.5 4.8-1.1 1.1 0.7 2.6 1.1 4.7 1.1h2c3.9 0 6-2 6-5.7v-0.5c0.1-2.2-0.9-4-2.6-4.9z"></path><linearGradient id="h" x1="10.67" x2="159.51" y1="31.34" y2="75" gradientUnits="userSpaceOnUse">	<stop stop-color="#E6C558" offset=".010753"></stop>	<stop stop-color="#F3E07B" offset=".1129"></stop>	<stop stop-color="#F6F0BF" offset=".2151"></stop>	<stop stop-color="#DFB427" offset=".3099"></stop>	<stop stop-color="#F2EAAB" offset=".4194"></stop>	<stop stop-color="#F2DE7A" offset=".5376"></stop>	<stop stop-color="#F3E07B" offset=".6293"></stop>	<stop stop-color="#DFB427" offset=".7348"></stop>	<stop stop-color="#F6F0BF" offset=".8467"></stop>	<stop stop-color="#DFB427" offset="1"></stop></linearGradient><path class="st2" d="m102.5 45.2zm60.6 7.9v-2.5c0-3.4-1-5.8-2.9-7.4-1.8-1.5-4.4-2.2-8-2.2-3.3 0-6.2 0.8-8.2 2.2-0.8 0.6-1.5 1.3-2 2-0.4-0.8-1-1.4-1.7-2-1.8-1.5-4.4-2.2-8-2.2-3.3 0-6.2 0.8-8.2 2.2-0.4 0.3-0.7 0.5-1 0.8l-1.5-1.2c-1.9-1.2-4.4-1.9-7.1-1.9-3.3 0-6.2 1.1-8.3 2.8-1-1.9-3-2.9-5.7-2.9h-0.4c-2.1 0.1-3.8 0.9-4.8 2.3-0.2-0.2-0.4-0.4-0.4-0.5-2.1-2-5.1-3-8.9-3-3.1 0-5.9 0.9-8.1 2.6-1.3 1-2.3 2.2-2.9 3.6-0.5-1.1-1.2-2-2.1-2.8-1.8-1.5-4.4-2.2-8-2.2-3.3 0-6.2 0.8-8.2 2.2-0.3 0.2-0.6 0.4-0.8 0.7-0.2-0.2-0.3-0.4-0.5-0.5-1.6-1.5-3.7-2.3-6-2.3h-0.1c-1.7 0-3.3 0.4-4.8 1.3-1.4-0.9-3.1-1.3-4.8-1.3-1.5 0-3 0.4-4.3 1-0.9-0.6-2.1-1-3.4-1h-1.3c-0.5 0-1 0.1-1.5 0.2 0.2-0.5 0.2-1 0.2-1.5v-0.6c0-2.6-2-5.3-6.4-5.3h-10.5c-4.4 0-6.4 2.7-6.4 5.3v0.6c0 2.3 1.6 4.7 5.1 5.2v8.1c-3.5 0.5-5.1 2.9-5.1 5.2v0.6c0 2.6 2 5.3 6.4 5.3h10.4c1.7 0 3-0.4 4.1-1.1 1 0.7 2.2 1.1 3.6 1.1h0.9c1.9 0 3.5-0.8 4.6-2.1 0.9 1 2 1.5 2.6 1.7 0.9 0.3 1.8 0.4 2.6 0.4 2.1 0 3.7-0.8 4.8-2.2 1.3 1.7 3.4 2.2 5.3 2.2h0.3c1.6 0 2.9-0.6 4-1.5 1.3 0.9 3 1.4 4.9 1.4 2 0 3.6-0.5 4.8-1.1 1.1 0.7 2.6 1.1 4.7 1.1h2c0.5 0 0.9 0 1.3-0.1-0.1 2.4 0.9 4.9 2.9 6.4 1.6 1.2 3.4 2 5.9 2.4 1.1 0.2 2.3 0.3 3.5 0.3 0.7 0 1.4 0 2.2-0.1 2.2-0.2 4.9-0.6 7.3-2.2 2.2-1.5 3.6-3.7 4-6.5v-0.2c0.4 0.1 0.8 0.1 1.2 0.1 2.6 0 4.5-1 5.6-2.8 2.1 1.8 5 2.8 8.3 2.8 2.6 0 5.1-0.7 7.1-1.9 0.3-0.2 0.5-0.3 0.8-0.5 1.4 1.5 3.5 2.4 6 2.4 2 0 3.6-0.5 4.8-1.1 1.1 0.7 2.6 1.1 4.7 1.1h2c1.6 0 3-0.4 4-1.1 1.2 0.7 2.7 1.1 4.4 1.1 2 0 3.6-0.5 4.8-1.1 1.1 0.7 2.6 1.1 4.7 1.1h2c3.9 0 6-2 6-5.7v-0.5c0.1-2.1-0.8-3.8-2.5-4.7z"></path><polygon class="st3" points="113.9 22.9 103.7 22.8 100.1 13.2 96.6 22.8 86.4 23.1 87.2 25.1 94.2 30.6 91.7 39.2 92.4 40.8 100.6 35.3 108.8 40.7 108.7 39.1 106.3 31 113.9 25"></polygon><polygon class="st3" points="113.9 22.1 103.7 22 100.1 12.4 96.6 22 86.4 22.3 87.2 24.4 94.2 29.8 91.7 38.4 92.4 40 100.6 34.5 108.8 39.9 108.7 38.4 106.3 30.3 113.9 24.3"></polygon><radialGradient id="g" cx="833.64" cy="-978.91" r="14.15" gradientTransform="matrix(.8891 -.4576 .4576 .8891 -191.8 1279.8)" gradientUnits="userSpaceOnUse">	<stop stop-color="#FBA91C" offset=".096774"></stop>	<stop stop-color="#F37821" offset=".9624"></stop></radialGradient><polygon class="st4" points="114.1 22.3 103.7 22.1 100.1 12.5 96.5 22.2 86.2 22.5 87 24.6 94.1 30.1 91.6 38.8 92.2 40.4 100.6 34.8 109 40.4 108.8 38.8 106.4 30.6 114.1 24.5"></polygon><radialGradient id="f" cx="833.67" cy="-979.83" r="13.827" gradientTransform="matrix(.8891 -.4576 .4576 .8891 -191.8 1279.8)" gradientUnits="userSpaceOnUse">	<stop stop-color="#FBA91C" offset=".096774"></stop>	<stop stop-color="#F37821" offset=".5108"></stop>	<stop stop-color="#EB6D25" offset=".9731"></stop></radialGradient><polygon class="st5" points="105.9 28.7 108.8 38.8 100.1 33 91.5 38.8 94.3 28.8 86.1 22.4 96.5 21.9 100 12.2 103.7 21.9 114.1 22.3"></polygon><linearGradient id="e" x1="819.85" x2="847.5" y1="-979.83" y2="-979.83" gradientTransform="matrix(.8891 -.4576 .4576 .8891 -191.8 1279.8)" gradientUnits="userSpaceOnUse">	<stop stop-color="#E5C151" offset=".010753"></stop>	<stop stop-color="#F6F0BF" offset=".1344"></stop>	<stop stop-color="#DFB427" offset=".2615"></stop>	<stop stop-color="#F2EAAB" offset=".4194"></stop>	<stop stop-color="#F3E07B" offset=".5916"></stop>	<stop stop-color="#DFB427" offset=".7079"></stop>	<stop stop-color="#F6F0BF" offset=".8467"></stop>	<stop stop-color="#DFB427" offset="1"></stop></linearGradient><path class="st6" d="m100.1 15.4 2.7 7.1 0.2 0.5h0.5l7.6 0.3-6 4.7-0.4 0.3 0.1 0.5 2.1 7.3-6.3-4.2-0.4-0.3-0.4 0.3-6.3 4.2 2-7.3 0.1-0.5-0.4-0.3-6-4.7 7.6-0.3h0.5l0.2-0.5 2.6-7.1m-0.1-3.2-3.6 9.8-10.4 0.5 8.2 6.4-2.8 10 8.6-5.8 8.7 5.7-2.9-10 8.1-6.5-10.4-0.4-3.5-9.7z"></path><linearGradient id="d" x1="525.85" x2="538.93" y1="-642.46" y2="-642.46" gradientTransform="matrix(.9567 -.2912 .2912 .9567 -207.58 785.02)" gradientUnits="userSpaceOnUse">	<stop stop-color="#162A51" offset="0"></stop>	<stop stop-color="#162A51" offset=".2665"></stop>	<stop stop-color="#2D5C94" offset=".5263"></stop>	<stop stop-color="#2D5C94" offset="1"></stop></linearGradient><polygon class="st7" points="121 13.8 116.2 12.8 115.4 8 112.9 12.2 108.1 11.5 108.3 12.5 111.1 15.7 109.2 19.5 109.4 20.3 113.7 18.4 117.1 21.7 117.2 21 116.8 16.9 120.8 14.8"></polygon><linearGradient id="c" x1="525.89" x2="538.93" y1="-642.89" y2="-642.89" gradientTransform="matrix(.9567 -.2912 .2912 .9567 -207.58 785.02)" gradientUnits="userSpaceOnUse">	<stop stop-color="#162A51" offset="0"></stop>	<stop stop-color="#162A51" offset=".2665"></stop>	<stop stop-color="#2D5C94" offset=".5263"></stop>	<stop stop-color="#2D5C94" offset="1"></stop></linearGradient><polygon class="st8" points="116.7 16.1 117.2 20.9 113.6 17.6 109.1 19.5 111.3 15.1 108 11.4 112.9 12.1 115.4 7.9 116.2 12.7 121 13.7"></polygon><linearGradient id="b" x1="113.05" x2="116.31" y1="19.26" y2="4.515" gradientUnits="userSpaceOnUse">	<stop stop-color="#E5C151" offset=".026286"></stop>	<stop stop-color="#F6F0BF" offset=".1653"></stop>	<stop stop-color="#DFB427" offset=".2688"></stop>	<stop stop-color="#F2EAAB" offset=".3892"></stop>	<stop stop-color="#F3E07B" offset=".5109"></stop>	<stop stop-color="#DFB427" offset=".6803"></stop>	<stop stop-color="#F2E591" offset=".8135"></stop>	<stop stop-color="#DFB427" offset="1"></stop></linearGradient><path class="st9" d="m115.1 9.5 0.6 3.4v0.2h0.2l3.4 0.7-3.1 1.7-0.2 0.1v0.2l0.3 3.5-2.5-2.5-0.2 0.1-3.2 1.4 1.5-3.1 0.1-0.2-0.1-0.2-2.3-2.6 3.5 0.5h0.2l0.1-0.2 1.7-3m0.3-1.6-2.5 4.2-4.9-0.7 3.3 3.7-2.1 4.4 4.5-2 3.5 3.4-0.5-4.9 4.3-2.3-4.8-1-0.8-4.8z"></path><linearGradient id="a" x1="86.226" x2="85.582" y1="79.159" y2="37.041" gradientUnits="userSpaceOnUse">	<stop stop-color="#162A51" offset="0"></stop>	<stop stop-color="#162A51" offset=".3519"></stop>	<stop stop-color="#2D5C94" offset=".6696"></stop>	<stop stop-color="#2B5C95" offset="1"></stop></linearGradient><path class="st10" d="m100.1 43.7h0.3c2.6 0 3.6 1 3.6 3.8v4.9 5.5c-0.1 2.1-1.2 3.2-3.5 3.2s-3.5-1-3.6-3.2v-11c0.1-2 1.2-3.1 3.2-3.2m-37.7 11.4c0 0.6 0.4 1 1 1 0.3 0 0.6-0.1 0.8-0.2 0.5-0.3 1-0.8 1.3-1.3 0.2-0.3 0.3-0.7 0.4-1 0-0.2 0.1-0.4 0.1-0.6 0-0.1 0-0.4-0.2-0.3-0.1 0.1-0.3 0.2-0.4 0.3-0.2 0.1-0.3 0.2-0.5 0.3-0.5 0.3-1 0.5-1.6 0.7-0.4 0.2-0.9 0.5-0.9 1.1m-6.1-6.5c0-2 2.4-4.9 8.4-4.9 5.7 0 8 1.9 8 6.7v4.8c1.5 0 2.7 0.5 2.7 2.7v0.5c0 1.7-0.5 2.7-3 2.7h-2c-1.9 0-3.6-0.4-4.4-2-0.8 0.9-2.7 2-5.2 2-2.2 0-4.8-1-4.8-4.2 0-3.8 3.6-4.8 6.4-5.5 1.8-0.5 3.4-0.9 3.4-1.9 0-0.6-0.4-1.2-1.5-1.2-2.4 0-2.6 2.7-5.4 2.7-1.8-0.1-2.6-1-2.6-2.4m48.8 3.7c0 5.1 3.9 8.7 9.3 8.7 4 0 8-1.9 8-5.4 0-1.1-0.8-2.4-2.5-2.4-2.8 0-3.1 2.3-5.4 2.3-1.6 0-2.4-1.6-2.4-3.2s0.8-3.1 2.4-3.1c2.3 0 2.6 2.3 5.4 2.3 1.7 0 2.5-1.2 2.5-2.4 0-3.5-3.9-5.4-8-5.4-5.5 0-9.3 3.6-9.3 8.6m-70.5-6.4s-0.1 0 0 0c-0.2-1.1-1.1-2.1-2.7-2.1h-1.3c-1.7 0-3.1 1.1-3.1 3.5v10.4c0 2.3 1.4 3.5 3.1 3.5h0.9c1.6 0 2.9-1 3.1-3v-6.8c0-0.8 0.7-1.5 1.5-1.5s1.5 0.7 1.5 1.5v0.6 0.1 1.2 1.6 2.7c0 1.5 0.4 2.9 2 3.3 2.6 0.8 5 0.1 5-3.5v-2.1-3.9c0-0.8 0.8-1.6 1.6-1.6 0.9 0 1.6 0.8 1.6 1.5v0.7 4.5 0.7c0 2.9 1.1 3.9 4 3.9 1.8 0 3-1.2 3.1-3 0-3 0.1-6 0-9-0.1-3.1-2.5-5.3-5.6-5.3-2 0-3.5 0.8-4.8 2.2-1.2-1.4-3-2.2-4.8-2.2s-3.6 0.6-5.1 2.1m-22.1-9.4c-2.3 0-3.5 1-3.5 2.3v0.6c0 1.3 1.1 2.3 3.5 2.3h1.6v13.9h-1.6c-2.3 0-3.5 1-3.5 2.3v0.6c0 1.5 1.2 2.5 3.5 2.5h10.4c2.3 0 3.5-1 3.5-2.3v-0.7c0-1.3-1.1-2.3-3.5-2.3h-1.6v-13.9h1.6c2.3 0 3.5-1 3.5-2.3v-0.6c0-1.3-1.1-2.3-3.5-2.3h-10.4zm117.5 18.6c0 0.6 0.4 1 1 1 0.3 0 0.6-0.1 0.8-0.2 0.5-0.3 1-0.8 1.3-1.3 0.2-0.3 0.3-0.7 0.4-1 0-0.2 0.1-0.4 0.1-0.6 0-0.1 0-0.4-0.2-0.3-0.1 0.1-0.3 0.2-0.4 0.3-0.2 0.1-0.3 0.2-0.5 0.3-0.5 0.3-1 0.5-1.6 0.7-0.5 0.2-0.9 0.5-0.9 1.1m-6.2-6.5c0-2 2.4-4.9 8.4-4.9 5.7 0 8 1.9 8 6.7v4.8c1.5 0 2.7 0.5 2.7 2.7v0.5c0 1.7-0.5 2.7-3 2.7h-2c-1.9 0-3.6-0.4-4.4-2-0.8 0.9-2.7 2-5.2 2-2.2 0-4.8-1-4.8-4.2 0-3.8 3.6-4.8 6.4-5.5 1.8-0.5 3.4-0.9 3.4-1.9 0-0.6-0.4-1.2-1.5-1.2-2.4 0-2.6 2.7-5.4 2.7-1.7-0.1-2.6-1-2.6-2.4m26.1 6.5c0 0.6 0.4 1 1 1 0.3 0 0.6-0.1 0.8-0.2 0.5-0.3 1-0.8 1.3-1.3 0.2-0.3 0.3-0.7 0.4-1 0-0.2 0.1-0.4 0.1-0.6 0-0.1 0-0.4-0.2-0.3-0.1 0.1-0.3 0.2-0.4 0.3-0.2 0.1-0.3 0.2-0.5 0.3-0.5 0.3-1 0.5-1.6 0.7-0.4 0.2-0.9 0.5-0.9 1.1m-6.2-6.5c0-2 2.4-4.9 8.4-4.9 5.7 0 8 1.9 8 6.7v4.8c1.5 0 2.7 0.5 2.7 2.7v0.5c0 1.7-0.5 2.7-3 2.7h-2c-1.9 0-3.6-0.4-4.4-2-0.8 0.9-2.7 2-5.2 2-2.2 0-4.8-1-4.8-4.2 0-3.8 3.6-4.8 6.4-5.5 1.8-0.5 3.4-0.9 3.4-1.9 0-0.6-0.4-1.2-1.5-1.2-2.4 0-2.6 2.7-5.4 2.7-1.7-0.1-2.6-1-2.6-2.4m-47.8 16.2c-1 3.4-4.5 5.2-7.9 5.4-2.7 0.2-5.7-0.1-8.1-1.5-0.5-0.3-1.2-0.8-1.6-1.2-1.2-1.2-1.9-3.9-0.9-5.7 0.2-0.5 0.6-0.9 0.9-1.3-1.2-0.9-1.7-2.2-1.4-3.7 0.2-1.5 1.1-2.4 2.4-3.1-1.3-0.9-2-2.3-2-4.1 0-3.9 3.8-6.7 8.6-6.7 3.1 0 5.2 0.8 6.6 2.1 0 0 1.4 1.3 1.7 3.8v0.2c0 4.5-3.5 6.1-8.2 6.1-0.9 0-1.7 0-2.4-0.1-0.1 0-0.2 0-0.3 0.1-0.4 0.4-0.3 1.1 0.3 1.3 0.2 0.1 0.3 0.1 0.5 0.1 1.5 0.1 3.1 0.1 4.6 0.2 1.4 0.1 2.7 0.2 4 0.7s2.4 1.3 2.9 2.6c0.7 1.5 0.8 3.2 0.3 4.8zm-11.5-15.9c0 0.9 0.7 1.6 1.6 1.6s1.6-0.6 1.6-1.6c0-0.9-0.7-1.6-1.6-1.6s-1.6 0.6-1.6 1.6zm8.1 13.1-1.2 1.2c-0.4 0.3-0.8 0.6-1.2 0.8-0.3 0.2-0.6 0.3-0.9 0.4-0.2 0.1-0.4 0.1-0.7 0.2-0.2 0.1-0.5 0.1-0.7 0.1-0.3 0-0.5 0.1-0.8 0.1h-0.4c-0.3 0-0.7 0-0.9-0.1h-0.2c-0.2 0-0.4-0.1-0.6-0.1-0.3-0.1-0.7-0.2-1-0.3-0.4-0.1-0.7-0.3-1.1-0.6-0.4-0.2-1.4-1.2-1.4-1.2l-0.5-0.5v0.1 0.2c0 0.2 0.1 0.4 0.1 0.5l0.3 0.6c0.3 0.6 0.7 1.2 1.3 1.7 0.4 0.4 0.9 0.7 1.5 1 0.5 0.2 1 0.4 1.5 0.5 0.3 0.1 0.7 0.1 1 0.1h0.3c0.3 0 0.6 0 0.9-0.1h0.2c0.2 0 0.4-0.1 0.6-0.1 0.3-0.1 0.5-0.2 0.8-0.3 0.5-0.2 1-0.5 1.5-0.9s0.8-0.8 1.2-1.3c0.2-0.3 0.4-0.6 0.5-1-0.1-0.7-0.1-1-0.1-1z"></path></svg>