<?xml version="1.0" encoding="UTF-8"?>
<!DOCTYPE svg PUBLIC "-//W3C//DTD SVG 1.1//EN" "http://www.w3.org/Graphics/SVG/1.1/DTD/svg11.dtd">
<!-- Creator: CorelDRAW 2020 (64-Bit) -->
<svg xmlns="http://www.w3.org/2000/svg" xml:space="preserve" width="753px" height="342px" version="1.1" style="shape-rendering:geometricPrecision; text-rendering:geometricPrecision; image-rendering:optimizeQuality; fill-rule:evenodd; clip-rule:evenodd"
viewBox="0 0 753 341.37"
 xmlns:xlink="http://www.w3.org/1999/xlink"
 xmlns:xodm="http://www.corel.com/coreldraw/odm/2003">
 <defs>
  <style type="text/css">
   <![CDATA[
    .fil2 {fill:#FEFEFE}
    .fil0 {fill:#2B2A29}
    .fil5 {fill:#F7D900}
    .fil3 {fill:#A2D9F7}
    .fil4 {fill:#529DC2}
    .fil1 {fill:#0066A0}
    .fil6 {fill:#F7D900;fill-rule:nonzero}
   ]]>
  </style>
 </defs>
 <g id="Layer_x0020_1">
  <metadata id="CorelCorpID_0Corel-Layer"/>
  <g id="_1948484179408">
   <path class="fil0" d="M228.67 328.79c2.87,-3.5 6.3,-8 10.27,-13.5 3.24,-4.46 5.95,-8.37 8.15,-11.73l0 0c-1.27,-0.06 -2.62,-0.08 -4.04,-0.06l-6.06 0.06c-0.83,0 -1.77,0.05 -2.82,0.15 -1.04,0.1 -1.83,0.21 -2.38,0.33 0.12,-0.51 0.18,-1.09 0.18,-1.73 0,-0.65 -0.06,-1.22 -0.18,-1.73l0 0c0.55,0.11 2.5,0.21 5.87,0.29 3.37,0.09 7.22,0.13 11.56,0.13l0 0c0.85,0 1.76,-0.04 2.72,-0.13 0.96,-0.09 1.72,-0.19 2.28,-0.31l0.26 0.37 0.26 0.4c-2.89,3.5 -6.35,7.99 -10.38,13.49 -3.33,4.51 -6.12,8.46 -8.34,11.84l0 0c1.69,0.08 3.53,0.11 5.53,0.09l3.55 -0.03c1.65,0 3.37,-0.05 5.13,-0.16 1.78,-0.09 3.02,-0.22 3.71,-0.37 -0.12,0.49 -0.18,1.06 -0.18,1.7 0,0.63 0.06,1.2 0.18,1.69 -0.83,-0.09 -2.22,-0.18 -4.17,-0.25 -1.95,-0.07 -3.82,-0.1 -5.59,-0.1l-2.59 0c-4.97,0 -9.11,0.09 -12.4,0.29l-0.26 -0.35 -0.26 -0.38zm34.26 -4.62c0.09,-2.68 0.12,-5.73 0.12,-9.16 0,-3.36 -0.03,-6.38 -0.12,-9.03 -0.03,-1.54 -0.07,-2.65 -0.13,-3.34 -0.05,-0.67 -0.13,-1.26 -0.22,-1.76 0.82,0.12 1.76,0.18 2.83,0.18 1.04,0 1.97,-0.06 2.8,-0.18 -0.14,0.55 -0.24,1.15 -0.3,1.84 -0.06,0.69 -0.1,1.77 -0.12,3.26l-0.09 9.03c0,3.43 0.04,6.48 0.12,9.16 0.04,1.55 0.08,2.66 0.14,3.35 0.05,0.67 0.13,1.26 0.22,1.76 -0.83,-0.08 -1.76,-0.11 -2.81,-0.11 -1.04,0 -1.97,0.03 -2.79,0.11 0.09,-0.5 0.17,-1.09 0.22,-1.76 0.06,-0.69 0.1,-1.8 0.13,-3.35zm2.54 -36.57c0.84,0 1.55,0.29 2.14,0.86 0.58,0.59 0.86,1.3 0.86,2.15 0,0.84 -0.28,1.55 -0.86,2.14 -0.59,0.58 -1.3,0.86 -2.14,0.86 -0.85,0 -1.56,-0.28 -2.15,-0.86 -0.57,-0.59 -0.86,-1.3 -0.86,-2.14 0,-0.85 0.29,-1.56 0.86,-2.15 0.59,-0.57 1.3,-0.86 2.15,-0.86zm12.67 36.57c0.08,-2.68 0.12,-5.73 0.12,-9.16 0.02,-3.36 -0.02,-6.38 -0.12,-9.03 -0.07,-1.7 -0.13,-2.89 -0.18,-3.58 -0.05,-0.69 -0.11,-1.19 -0.18,-1.52 0.79,0.12 1.69,0.18 2.71,0.18 1.03,0 1.93,-0.06 2.72,-0.18 -0.1,0.17 -0.18,0.47 -0.23,0.87 -0.05,0.41 -0.1,1.13 -0.18,2.18l-0.12 1.7 0 0 0 0c0.51,-0.73 1.07,-1.43 1.64,-2.06 2.11,-2.19 4.73,-3.29 7.86,-3.29 2.92,0 5.25,0.91 6.96,2.71 1.72,1.82 2.58,4.27 2.58,7.37l0 13.81c0,0.92 0.03,1.71 0.09,2.39 0.06,0.67 0.17,1.58 0.33,2.72 -0.81,-0.08 -1.74,-0.11 -2.77,-0.11 -1.03,0 -1.95,0.03 -2.77,0.11 0.1,-0.48 0.17,-1.07 0.22,-1.75 0.06,-0.69 0.11,-1.81 0.14,-3.35 0.08,-2.73 0.12,-5.76 0.12,-9.11l0 -3.3c0,-2.59 -0.61,-4.62 -1.82,-6.08 -1.21,-1.46 -2.9,-2.19 -5.05,-2.19 -2.42,0 -4.25,0.79 -5.47,2.38 -1.22,1.58 -1.84,3.96 -1.84,7.13l0 0 0 2c0,3.43 0.04,6.48 0.12,9.17 0.04,1.54 0.08,2.66 0.14,3.34 0.05,0.67 0.13,1.26 0.22,1.76 -0.82,-0.08 -1.75,-0.11 -2.81,-0.11 -1.04,0 -1.96,0.03 -2.79,0.11 0.09,-0.48 0.17,-1.07 0.22,-1.76 0.06,-0.69 0.1,-1.8 0.14,-3.35zm41.87 5.71c-3.51,0 -6.35,-1.35 -8.52,-4.04 -2.17,-2.69 -3.27,-6.2 -3.27,-10.54 0,-4.48 1.18,-8.1 3.53,-10.87 2.35,-2.77 5.42,-4.15 9.19,-4.15 3.52,0 6.37,1.35 8.56,4.04l0.7 0.97 0 0c0.02,-5.75 -0.02,-10.87 -0.12,-15.36 -0.06,-1.7 -0.11,-2.88 -0.16,-3.55 -0.05,-0.69 -0.12,-1.21 -0.2,-1.58 0.83,0.12 1.76,0.18 2.82,0.18 1.03,0 1.96,-0.06 2.78,-0.18 -0.1,0.37 -0.17,0.89 -0.22,1.57 -0.05,0.68 -0.1,1.86 -0.14,3.55 -0.08,4.89 -0.12,10.56 -0.12,17.03l0.12 17.21c0.02,1.44 0.06,2.49 0.11,3.18 0.05,0.67 0.13,1.32 0.25,1.94 -0.73,-0.08 -1.59,-0.11 -2.54,-0.11 -0.93,0 -1.77,0.03 -2.5,0.11 0.07,-0.32 0.13,-0.83 0.19,-1.5 0.06,-0.68 0.13,-1.88 0.22,-3.61l0.05 -1.18 0 0c-0.47,1 -1.07,1.95 -1.76,2.82 -2.22,2.71 -5.21,4.07 -8.97,4.07zm1.89 -27.1c-2.7,0 -4.75,1.09 -6.15,3.24 -1.4,2.16 -2.11,5.31 -2.11,9.45 0,3.82 0.69,6.76 2.06,8.81 1.38,2.07 3.32,3.1 5.85,3.1 2.65,0 4.76,-1.13 6.32,-3.39 1.54,-2.25 2.33,-5.31 2.33,-9.16 0,-3.85 -0.73,-6.81 -2.17,-8.91 -1.43,-2.09 -3.48,-3.14 -6.13,-3.14zm27.85 27.1c-2.46,0 -4.45,-0.7 -5.98,-2.12 -1.54,-1.42 -2.31,-3.26 -2.31,-5.53 0,-2.1 0.7,-3.82 2.09,-5.18 1.38,-1.36 3.41,-2.29 6.09,-2.79l7.36 -1.43c0.87,-0.17 1.46,-0.44 1.76,-0.8 0.3,-0.35 0.45,-0.96 0.45,-1.83l0 -0.4c0,-2.41 -0.59,-4.25 -1.76,-5.5 -1.18,-1.25 -2.9,-1.87 -5.17,-1.87 -1.84,0 -3.4,0.37 -4.67,1.14 -1.26,0.75 -2.25,1.9 -2.94,3.44l-0.68 0 -0.03 -3.36c1.25,-1.02 2.7,-1.85 4.38,-2.45 1.67,-0.61 3.28,-0.92 4.82,-0.92 3.39,0 6.01,0.83 7.84,2.47 1.82,1.64 2.74,3.99 2.74,7.05l0 15.06c0,0.95 0.15,1.66 0.46,2.15 0.31,0.49 0.76,0.73 1.33,0.73 0.43,0 0.78,-0.04 1.04,-0.12l0.32 1.32c-1.1,0.64 -2.53,0.96 -4.28,0.94 -1.14,0 -2.02,-0.51 -2.65,-1.51 -0.34,-0.62 -0.61,-1.41 -0.81,-2.36l0 0c-0.62,0.64 -1.35,1.22 -2.18,1.75 -2.23,1.42 -4.64,2.12 -7.22,2.12zm9.46 -6.67l0 -8.58 0 0 -5.58 1.05c-2.25,0.44 -3.94,1.17 -5.06,2.15 -1.12,0.99 -1.69,2.25 -1.69,3.81 0,1.61 0.46,2.84 1.37,3.71 0.91,0.88 2.21,1.31 3.89,1.31 1.89,0 3.51,-0.43 4.86,-1.31 0.87,-0.57 1.6,-1.3 2.21,-2.14zm17.24 -2.31c0,0.73 0.32,1.27 0.94,1.62 0.64,0.34 1.64,0.51 3.02,0.51l6.1 0c3.28,0 5.81,0.62 7.59,1.86 1.77,1.24 2.66,3.01 2.66,5.29 0,3.14 -1.45,5.79 -4.35,7.95 -2.9,2.16 -6.43,3.24 -10.62,3.24 -3.26,0 -5.99,-0.73 -8.24,-2.19 -2.23,-1.47 -3.35,-3.27 -3.35,-5.4 0,-2.2 1.2,-4.08 3.6,-5.61 1.1,-0.69 2.32,-1.24 3.66,-1.62l0 0c-0.98,-0.16 -1.79,-0.38 -2.44,-0.67 -1.55,-0.68 -2.32,-1.8 -2.32,-3.36 0,-1.08 0.39,-2.06 1.15,-2.93 0.76,-0.89 1.83,-1.55 3.19,-2.02l0 0c-1.14,-0.39 -2.12,-0.93 -2.97,-1.62 -2.07,-1.63 -3.1,-3.78 -3.1,-6.41 0,-2.76 1.08,-4.99 3.24,-6.7 2.16,-1.7 4.98,-2.56 8.47,-2.56 0.56,-0.02 1.09,0 1.6,0.05 0.66,0.07 1.35,0.13 2.09,0.16 0.74,0.04 1.31,0.05 1.71,0.03l3.49 -0.12c1.03,-0.04 1.98,-0.1 2.88,-0.19 0.89,-0.09 1.47,-0.17 1.77,-0.27 -0.08,0.6 -0.12,1.12 -0.12,1.56 0,0.47 0.04,1.02 0.12,1.63l-1.45 -0.12 -4.1 -0.34 0.09 0.05c2.06,1.65 3.08,3.81 3.08,6.45 0,2.75 -1.08,4.96 -3.26,6.67 -2.17,1.69 -5,2.55 -8.49,2.55l-1.69 -0.06c-0.5,-0.02 -1.01,0.02 -1.54,0.1 -0.52,0.09 -0.92,0.2 -1.19,0.34 -0.27,0.15 -0.49,0.31 -0.66,0.48 -0.37,0.39 -0.56,0.93 -0.56,1.65zm5.95 -18.41c-1.82,0 -3.28,0.65 -4.37,1.95 -1.09,1.31 -1.64,3.05 -1.64,5.21 0,2.1 0.53,3.71 1.57,4.84 1.04,1.13 2.52,1.69 4.44,1.69 1.83,0 3.29,-0.64 4.38,-1.94 1.09,-1.29 1.64,-3.02 1.64,-5.16 0,-1.98 -0.55,-3.58 -1.65,-4.8 -1.1,-1.2 -2.56,-1.79 -4.37,-1.79zm-8.09 30.55c0,1.95 0.74,3.46 2.22,4.53 1.48,1.06 3.58,1.6 6.31,1.6 2.68,0 4.96,-0.66 6.83,-2 1.87,-1.34 2.8,-2.98 2.8,-4.92 0,-1.74 -0.81,-3.07 -2.45,-3.98 -1.64,-0.91 -4.03,-1.37 -7.18,-1.37l-0.27 0 0 0c-2.53,0 -4.54,0.56 -6.03,1.66 -1.49,1.1 -2.23,2.6 -2.23,4.48zm29.18 -8.87c0.08,-2.68 0.12,-5.73 0.12,-9.16 0,-3.36 -0.04,-6.38 -0.12,-9.03 -0.04,-1.54 -0.08,-2.65 -0.14,-3.34 -0.05,-0.67 -0.13,-1.26 -0.22,-1.76 0.82,0.12 1.76,0.18 2.83,0.18 1.04,0 1.97,-0.06 2.8,-0.18 -0.14,0.55 -0.24,1.15 -0.3,1.84 -0.06,0.69 -0.1,1.77 -0.12,3.26l-0.09 9.03c0,3.43 0.04,6.48 0.12,9.16 0.04,1.55 0.08,2.66 0.14,3.35 0.05,0.67 0.13,1.26 0.22,1.76 -0.83,-0.08 -1.76,-0.11 -2.81,-0.11 -1.04,0 -1.97,0.03 -2.79,0.11 0.09,-0.5 0.17,-1.09 0.22,-1.76 0.06,-0.69 0.1,-1.8 0.14,-3.35zm2.53 -36.57c0.84,0 1.56,0.29 2.14,0.86 0.58,0.59 0.86,1.3 0.86,2.15 0,0.84 -0.28,1.55 -0.86,2.14 -0.58,0.58 -1.3,0.86 -2.14,0.86 -0.85,0 -1.56,-0.28 -2.15,-0.86 -0.57,-0.59 -0.86,-1.3 -0.86,-2.14 0,-0.85 0.29,-1.56 0.86,-2.15 0.59,-0.57 1.3,-0.86 2.15,-0.86zm33.71 36.57c0.04,1.57 0.09,2.69 0.14,3.37 0.05,0.68 0.12,1.26 0.22,1.74 -0.81,-0.08 -1.74,-0.11 -2.78,-0.11 -1.03,0 -1.94,0.03 -2.76,0.11 0.07,-0.4 0.13,-0.95 0.18,-1.62 0.04,-0.68 0.08,-1.85 0.12,-3.5 0.12,-4.92 0.18,-10.65 0.18,-17.18 0,-6.45 -0.05,-12.14 -0.15,-17.06 -0.04,-1.69 -0.09,-2.87 -0.14,-3.55 -0.05,-0.68 -0.12,-1.2 -0.22,-1.57 0.82,0.12 1.75,0.18 2.8,0.18 1.03,0 1.96,-0.06 2.77,-0.18 -0.08,0.37 -0.14,0.89 -0.19,1.57 -0.05,0.68 -0.11,1.86 -0.17,3.55 -0.09,4.89 -0.14,10.56 -0.14,17.03l0 6.14 0 0 0.48 0c0.49,0 0.85,-0.04 1.07,-0.12 0.22,-0.08 0.49,-0.25 0.81,-0.53 1.42,-1.28 3,-2.81 4.73,-4.58l1.83 -1.88c0.85,-0.86 1.55,-1.64 2.1,-2.32 0.56,-0.68 1.23,-1.6 2.03,-2.78 0.83,0.08 1.76,0.12 2.82,0.12 1.04,0 1.97,-0.04 2.78,-0.12 -0.16,0.08 -2.12,1.78 -5.9,5.1l-3.46 3.11 -4.04 3.74 0 0 4.63 5.34 5.31 6c1.24,1.36 2.21,2.39 2.91,3.07 0.7,0.68 1.5,1.37 2.39,2.04 -1.15,-0.08 -2.45,-0.11 -3.92,-0.11 -1.5,0 -2.82,0.03 -3.98,0.11 -0.49,-0.89 -0.97,-1.67 -1.44,-2.35 -0.48,-0.67 -1.19,-1.6 -2.14,-2.76l-2.22 -2.7c-2.23,-2.72 -4.22,-4.99 -5.94,-6.84l0 0 -0.82 0 0 0c0,3.44 0.04,6.62 0.11,9.54zm26.33 0c0.07,-2.68 0.11,-5.73 0.11,-9.16 0,-3.36 -0.04,-6.38 -0.11,-9.03 -0.04,-1.54 -0.08,-2.65 -0.14,-3.34 -0.05,-0.67 -0.13,-1.26 -0.22,-1.76 0.82,0.12 1.76,0.18 2.83,0.18 1.04,0 1.97,-0.06 2.8,-0.18 -0.14,0.55 -0.24,1.15 -0.3,1.84 -0.06,0.69 -0.1,1.77 -0.12,3.26l-0.09 9.03c0,3.43 0.04,6.48 0.12,9.16 0.04,1.55 0.08,2.66 0.14,3.35 0.05,0.67 0.13,1.26 0.22,1.76 -0.83,-0.08 -1.76,-0.11 -2.81,-0.11 -1.05,0 -1.97,0.03 -2.79,0.11 0.09,-0.5 0.17,-1.09 0.22,-1.76 0.06,-0.69 0.1,-1.8 0.14,-3.35zm2.53 -36.57c0.84,0 1.55,0.29 2.14,0.86 0.58,0.59 0.86,1.3 0.86,2.15 0,0.84 -0.28,1.55 -0.86,2.14 -0.59,0.58 -1.3,0.86 -2.14,0.86 -0.85,0 -1.56,-0.28 -2.15,-0.86 -0.57,-0.59 -0.86,-1.3 -0.86,-2.14 0,-0.85 0.29,-1.56 0.86,-2.15 0.59,-0.57 1.3,-0.86 2.15,-0.86zm42.05 18.71c-0.55,-1.23 -1.31,-2.2 -2.3,-2.87 -0.99,-0.67 -2.13,-1.01 -3.41,-1.01 -1.46,0 -2.65,0.45 -3.57,1.37 -0.92,0.91 -1.38,2.07 -1.38,3.5 0,1.36 0.48,2.46 1.43,3.31 0.92,0.83 2.47,1.5 4.62,2.05 2.87,0.74 4.9,1.67 6.08,2.82 1.16,1.14 1.74,2.75 1.74,4.81 0,2.69 -1,4.97 -3.01,6.82 -2.01,1.85 -4.47,2.77 -7.38,2.77 -1.76,0 -3.29,-0.18 -4.59,-0.53 -1.3,-0.34 -2.38,-0.87 -3.24,-1.58 0.37,-0.8 0.67,-1.49 0.91,-2.08 0.22,-0.59 0.47,-1.3 0.75,-2.13 0.73,1.35 1.7,2.38 2.88,3.09 1.19,0.73 2.53,1.09 4.02,1.09 1.72,0 3.14,-0.5 4.26,-1.49 1.1,-0.98 1.65,-2.27 1.65,-3.81 0,-1.35 -0.47,-2.44 -1.43,-3.27 -0.94,-0.82 -2.51,-1.52 -4.68,-2.07 -2.91,-0.74 -4.95,-1.73 -6.13,-2.99 -1.17,-1.26 -1.75,-3.08 -1.75,-5.46 0,-2.34 0.89,-4.33 2.67,-5.95 1.77,-1.61 3.95,-2.42 6.54,-2.42 1.42,0 2.75,0.18 3.99,0.53 1.24,0.35 2.32,0.84 3.24,1.48 -0.43,0.74 -0.78,1.39 -1.03,1.95 -0.27,0.57 -0.56,1.25 -0.88,2.07zm10.08 17.85c0.11,-4.92 0.17,-10.65 0.17,-17.18 0,-6.45 -0.05,-12.14 -0.15,-17.06 -0.06,-1.67 -0.11,-2.85 -0.16,-3.53 -0.04,-0.7 -0.11,-1.22 -0.19,-1.59 0.79,0.12 1.68,0.18 2.69,0.18 1,0 1.89,-0.06 2.69,-0.18 -0.26,1.3 -0.42,2.81 -0.5,4.52 -0.08,1.7 -0.12,4.47 -0.12,8.3l0 8.1 0 0 0 0c0.53,-0.81 1.09,-1.53 1.69,-2.15 2.1,-2.19 4.72,-3.29 7.86,-3.29 2.96,0 5.29,0.91 7.02,2.71 1.72,1.82 2.59,4.27 2.59,7.37l-0.01 13.81c0,0.92 0.03,1.71 0.09,2.39 0.06,0.67 0.17,1.58 0.32,2.72 -0.82,-0.08 -1.74,-0.11 -2.77,-0.11 -1.03,0 -1.95,0.03 -2.76,0.11 0.08,-0.5 0.16,-1.09 0.21,-1.76 0.06,-0.68 0.11,-1.8 0.14,-3.34 0.09,-2.73 0.13,-5.76 0.13,-9.11l0 -2.79c0,-2.74 -0.58,-4.89 -1.77,-6.45 -1.18,-1.56 -2.81,-2.33 -4.91,-2.33 -2.52,0 -4.4,0.79 -5.67,2.38 -1.25,1.58 -1.88,3.96 -1.88,7.13l0 0 0.17 11.17c0.02,1.43 0.05,2.48 0.09,3.16 0.05,0.67 0.12,1.33 0.2,1.94 -0.8,-0.08 -1.72,-0.11 -2.75,-0.11 -1.02,0 -1.93,0.03 -2.72,0.11 0.07,-0.4 0.13,-0.95 0.19,-1.62 0.03,-0.68 0.06,-1.85 0.11,-3.5zm38.21 -18.18l-0.1 9.02 0 3.48c0,2.57 0.6,4.58 1.81,6.03 1.21,1.45 2.9,2.17 5.04,2.17 2.39,0 4.19,-0.81 5.42,-2.42 1.24,-1.61 1.85,-3.98 1.85,-7.08l0 0 0 -2.18c0,-3.36 -0.03,-6.37 -0.11,-9.02 -0.04,-1.55 -0.08,-2.66 -0.14,-3.34 -0.05,-0.67 -0.13,-1.26 -0.22,-1.76 0.82,0.12 1.74,0.18 2.77,0.18 1.04,0 1.96,-0.06 2.77,-0.18 -0.16,0.87 -0.26,1.98 -0.33,3.35 -0.06,1.36 -0.09,3.65 -0.09,6.86l0 13.08c0,0.9 0.03,1.69 0.08,2.38 0.06,0.68 0.17,1.59 0.33,2.73 -0.74,-0.08 -1.59,-0.11 -2.54,-0.11 -0.93,0 -1.77,0.03 -2.5,0.11 0.09,-0.54 0.17,-1.16 0.22,-1.84 0.06,-0.69 0.12,-1.78 0.2,-3.28l0 -0.03 0 0c-0.55,0.9 -1.17,1.72 -1.89,2.48 -2.11,2.18 -4.74,3.27 -7.9,3.27 -2.87,0 -5.14,-0.91 -6.82,-2.73 -1.69,-1.82 -2.53,-4.27 -2.53,-7.36l0.03 -4.79c0,-3.36 -0.04,-6.37 -0.12,-9.02 -0.03,-1.55 -0.08,-2.66 -0.14,-3.34 -0.05,-0.67 -0.12,-1.26 -0.22,-1.76 0.82,0.12 1.75,0.18 2.79,0.18 1.03,0 1.94,-0.06 2.75,-0.18 -0.14,0.53 -0.24,1.15 -0.3,1.82 -0.05,0.68 -0.09,1.77 -0.11,3.28zm28.2 18.19c0.08,-2.68 0.12,-5.73 0.12,-9.16 0,-3.36 -0.04,-6.38 -0.12,-9.03 -0.04,-1.52 -0.08,-2.63 -0.14,-3.31 -0.05,-0.69 -0.12,-1.29 -0.21,-1.79 0.86,0.12 1.84,0.18 2.94,0.18 1.1,0 2.09,-0.06 2.95,-0.18 -0.1,0.42 -0.19,0.98 -0.27,1.67 -0.08,0.69 -0.16,1.83 -0.26,3.45l0 0.17 0 0 0 0c0.51,-0.9 1.06,-1.68 1.62,-2.36 1.92,-2.36 3.92,-3.53 6.03,-3.53 0.42,0 0.81,0.02 1.15,0.07 0.34,0.05 0.67,0.13 1.02,0.22 -0.37,0.97 -0.62,1.82 -0.77,2.54 -0.18,0.72 -0.28,1.6 -0.3,2.65 -0.5,-0.31 -0.98,-0.52 -1.46,-0.64 -0.48,-0.13 -1.02,-0.19 -1.64,-0.19 -1.92,0 -3.38,0.76 -4.38,2.28 -1.01,1.52 -1.51,3.73 -1.51,6.64l0 0 0 1.18c-0.02,3.43 0.02,6.47 0.12,9.15 0.07,1.71 0.13,2.89 0.18,3.57 0.04,0.67 0.1,1.19 0.17,1.53 -0.82,-0.08 -1.75,-0.11 -2.81,-0.11 -1.04,0 -1.96,0.03 -2.78,0.11 0.09,-0.5 0.16,-1.1 0.21,-1.79 0.06,-0.68 0.1,-1.79 0.14,-3.32zm24.51 -18.19l-0.1 9.02 0 3.48c0,2.57 0.6,4.58 1.82,6.03 1.21,1.45 2.89,2.17 5.04,2.17 2.38,0 4.19,-0.81 5.42,-2.42 1.23,-1.61 1.84,-3.98 1.84,-7.08l0 0 0 -2.18c0,-3.36 -0.03,-6.37 -0.11,-9.02 -0.04,-1.55 -0.08,-2.66 -0.14,-3.34 -0.05,-0.67 -0.12,-1.26 -0.21,-1.76 0.81,0.12 1.73,0.18 2.77,0.18 1.03,0 1.95,-0.06 2.76,-0.18 -0.15,0.87 -0.26,1.98 -0.32,3.35 -0.06,1.36 -0.1,3.65 -0.1,6.86l0 13.08c0,0.9 0.03,1.69 0.09,2.38 0.06,0.68 0.16,1.59 0.32,2.73 -0.74,-0.08 -1.58,-0.11 -2.54,-0.11 -0.93,0 -1.76,0.03 -2.5,0.11 0.09,-0.54 0.17,-1.16 0.22,-1.84 0.06,-0.69 0.12,-1.78 0.2,-3.28l0 -0.03 0 0c-0.55,0.9 -1.17,1.72 -1.89,2.48 -2.11,2.18 -4.74,3.27 -7.9,3.27 -2.87,0 -5.14,-0.91 -6.82,-2.73 -1.68,-1.82 -2.53,-4.27 -2.53,-7.36l0.03 -4.79c0,-3.36 -0.04,-6.37 -0.12,-9.02 -0.03,-1.55 -0.08,-2.66 -0.13,-3.34 -0.06,-0.67 -0.12,-1.26 -0.22,-1.76 0.81,0.12 1.74,0.18 2.79,0.18 1.02,0 1.93,-0.06 2.75,-0.18 -0.14,0.53 -0.24,1.15 -0.3,1.82 -0.06,0.68 -0.1,1.77 -0.12,3.28zm33.46 23.9c-2.47,0 -4.46,-0.7 -5.99,-2.12 -1.54,-1.42 -2.3,-3.26 -2.3,-5.53 0,-2.1 0.69,-3.82 2.08,-5.18 1.38,-1.36 3.42,-2.29 6.1,-2.79l7.35 -1.43c0.87,-0.17 1.46,-0.44 1.77,-0.8 0.3,-0.35 0.44,-0.96 0.44,-1.83l0 -0.4c0,-2.41 -0.58,-4.25 -1.75,-5.5 -1.18,-1.25 -2.9,-1.87 -5.17,-1.87 -1.85,0 -3.41,0.37 -4.68,1.14 -1.26,0.75 -2.24,1.9 -2.94,3.44l-0.67 0 -0.03 -3.36c1.24,-1.02 2.7,-1.85 4.38,-2.45 1.66,-0.61 3.27,-0.92 4.81,-0.92 3.39,0 6.02,0.83 7.84,2.47 1.83,1.64 2.74,3.99 2.74,7.05l0 15.06c0,0.95 0.16,1.66 0.47,2.15 0.31,0.49 0.75,0.73 1.33,0.73 0.42,0 0.77,-0.04 1.04,-0.12l0.32 1.32c-1.1,0.64 -2.53,0.96 -4.28,0.94 -1.14,0 -2.03,-0.51 -2.65,-1.51 -0.35,-0.62 -0.62,-1.41 -0.82,-2.36l0 0c-0.61,0.64 -1.34,1.22 -2.18,1.75 -2.22,1.42 -4.63,2.12 -7.21,2.12zm9.45 -6.67l0 -8.58 0 0 -5.57 1.05c-2.26,0.44 -3.94,1.17 -5.06,2.15 -1.13,0.99 -1.69,2.25 -1.69,3.81 0,1.61 0.46,2.84 1.37,3.71 0.9,0.88 2.2,1.31 3.89,1.31 1.88,0 3.5,-0.43 4.85,-1.31 0.87,-0.57 1.61,-1.3 2.21,-2.14zm19.1 6.67c-2.46,0 -4.46,-0.7 -5.98,-2.12 -1.54,-1.42 -2.31,-3.26 -2.31,-5.53 0,-2.1 0.7,-3.82 2.09,-5.18 1.38,-1.36 3.41,-2.29 6.09,-2.79l7.36 -1.43c0.87,-0.17 1.46,-0.44 1.76,-0.8 0.3,-0.35 0.45,-0.96 0.45,-1.83l0 -0.4c0,-2.41 -0.59,-4.25 -1.76,-5.5 -1.18,-1.25 -2.9,-1.87 -5.17,-1.87 -1.84,0 -3.4,0.37 -4.67,1.14 -1.26,0.75 -2.25,1.9 -2.94,3.44l-0.68 0 -0.02 -3.36c1.24,-1.02 2.69,-1.85 4.37,-2.45 1.67,-0.61 3.28,-0.92 4.82,-0.92 3.39,0 6.01,0.83 7.84,2.47 1.82,1.64 2.74,3.99 2.74,7.05l0 15.06c0,0.95 0.15,1.66 0.46,2.15 0.31,0.49 0.76,0.73 1.33,0.73 0.43,0 0.78,-0.04 1.04,-0.12l0.32 1.32c-1.1,0.64 -2.53,0.96 -4.28,0.94 -1.14,0 -2.02,-0.51 -2.65,-1.51 -0.34,-0.62 -0.61,-1.41 -0.81,-2.36l0 0c-0.62,0.64 -1.35,1.22 -2.18,1.75 -2.23,1.42 -4.64,2.12 -7.22,2.12zm9.46 -6.67l0 -8.58 0 0 -5.58 1.05c-2.25,0.44 -3.94,1.17 -5.06,2.15 -1.12,0.99 -1.69,2.25 -1.69,3.81 0,1.61 0.46,2.84 1.37,3.71 0.91,0.88 2.21,1.31 3.89,1.31 1.89,0 3.51,-0.43 4.86,-1.31 0.87,-0.57 1.6,-1.3 2.21,-2.14zm24.56 5.54c-1.31,0.75 -2.76,1.13 -4.35,1.13 -2.3,0 -3.98,-0.6 -5.08,-1.79 -1.1,-1.19 -1.64,-3.02 -1.64,-5.5l0 -19 0 0c-0.84,-0.02 -1.63,0.01 -2.37,0.09 -0.2,0 -0.42,0.04 -0.68,0.13 -0.25,0.08 -0.46,0.19 -0.64,0.29 0.08,-0.71 0.12,-1.33 0.12,-1.85 0,-0.53 -0.04,-1.14 -0.12,-1.87 0.19,0.12 0.41,0.22 0.66,0.31 0.24,0.09 0.45,0.13 0.63,0.13l2.4 0.15 0 0 0 -1.58c0,-0.87 -0.04,-1.73 -0.13,-2.58 -0.09,-0.85 -0.2,-1.45 -0.34,-1.82 1.13,-0.37 2.09,-0.73 2.86,-1.08 0.78,-0.35 1.69,-0.82 2.72,-1.43 -0.14,0.4 -0.25,1.15 -0.34,2.27 -0.09,1.14 -0.13,2.32 -0.13,3.57l0 2.68 0 0c1.9,-0.02 3.57,-0.08 5.01,-0.18 0.18,0 0.41,-0.04 0.66,-0.13 0.26,-0.09 0.47,-0.19 0.65,-0.31 -0.08,0.73 -0.12,1.34 -0.12,1.87 0,0.52 0.04,1.14 0.12,1.85 -0.18,-0.1 -0.39,-0.2 -0.65,-0.29 -0.25,-0.09 -0.47,-0.13 -0.63,-0.13 -1.46,-0.1 -3.14,-0.16 -5.04,-0.18l0 0 0 19.07c0,1.68 0.35,2.96 1.05,3.85 0.69,0.88 1.7,1.32 3.03,1.32 0.8,0 1.58,-0.22 2.35,-0.66 -0.03,0.32 -0.06,0.6 -0.06,0.82 0,0.24 0.03,0.53 0.06,0.85zm8.9 -5.78c0.97,0 1.79,0.34 2.46,1 0.66,0.68 0.99,1.5 0.99,2.47 0,0.97 -0.33,1.79 -0.99,2.45 -0.67,0.66 -1.49,0.99 -2.46,0.99 -0.98,0 -1.8,-0.33 -2.46,-0.99 -0.67,-0.66 -1,-1.48 -1,-2.45 0,-0.97 0.33,-1.79 1,-2.47 0.66,-0.66 1.48,-1 2.46,-1zm16.45 0c0.98,0 1.8,0.34 2.47,1 0.66,0.68 0.99,1.5 0.99,2.47 0,0.97 -0.33,1.79 -0.99,2.45 -0.67,0.66 -1.49,0.99 -2.47,0.99 -0.97,0 -1.79,-0.33 -2.46,-0.99 -0.66,-0.66 -0.99,-1.48 -0.99,-2.45 0,-0.97 0.33,-1.79 0.99,-2.47 0.67,-0.66 1.49,-1 2.46,-1z"/>
   <path class="fil1" d="M749.48 322.97c0.97,0 1.8,0.34 2.46,1 0.67,0.68 0.99,1.5 0.99,2.47 0,0.97 -0.32,1.79 -0.99,2.45 -0.66,0.66 -1.49,0.99 -2.46,0.99 -0.97,0 -1.8,-0.33 -2.46,-0.99 -0.67,-0.66 -0.99,-1.48 -0.99,-2.45 0,-0.97 0.32,-1.79 0.99,-2.47 0.66,-0.66 1.49,-1 2.46,-1z"/>
   <polygon class="fil0" points="210.69,326.69 3.61,326.69 3.61,324.64 210.69,324.64 "/>
   <polygon class="fil1" points="0,0 753,0 753,250.63 0,250.63 "/>
   <polygon class="fil2" points="3.73,4.06 228.67,4.06 228.67,246.57 3.73,246.57 "/>
   <polygon class="fil3" points="165.36,41.92 187.54,54.37 162.77,68.23 140.87,54.9 "/>
   <polygon class="fil4" points="140.87,28.8 140.87,80.85 116.37,94.96 116.47,69.9 93.53,57.12 93.53,28.25 116.53,42.44 "/>
   <polygon class="fil1" points="93.52,28.25 116.52,42.44 116.46,69.9 93.53,57.12 "/>
   <polygon class="fil1" points="140.87,54.9 162.78,68.24 140.87,80.85 "/>
   <polygon class="fil3" points="117.08,16.12 140.87,28.8 116.52,42.44 93.53,28.25 "/>
   <polygon class="fil3" points="187.84,83.51 209.34,97.46 188.48,107.79 "/>
   <polygon class="fil3" points="162.78,68.23 187.84,83.36 140.87,109.58 116.37,94.96 "/>
   <polygon class="fil1" points="91.81,190.37 116.85,204.35 116.88,236.34 91.82,222.67 "/>
   <polygon class="fil4" points="209.35,97.45 209.04,182.21 188.03,194.61 188.48,107.8 "/>
   <polygon class="fil1" points="188.48,107.8 163.58,123.18 163.31,181.11 188.07,194.62 "/>
   <polygon class="fil1" points="116.37,94.96 140.87,109.58 140.92,190.46 115.79,178.18 116.2,125.53 116.2,125.31 "/>
   <polygon class="fil4" points="162.78,68.23 187.54,54.37 187.75,83.31 "/>
   <polygon class="fil3" points="26.16,70.35 71.75,45 116.47,69.9 91.81,81.26 71.85,70.53 49.87,82.38 "/>
   <polygon class="fil1" points="26.16,70.35 26.16,154.03 47.59,166.18 47.59,197.65 68.85,211.92 69.11,177.92 91.81,190.37 91.82,136.86 49.7,112.37 49.87,82.34 "/>
   <polygon class="fil4" points="68.81,211.95 91.81,190.37 69.09,177.92 "/>
   <polygon class="fil4" points="49.85,82.36 49.7,112.37 71.85,101.58 71.85,70.53 "/>
   <polygon class="fil1" points="91.81,81.26 91.81,112.26 71.85,101.58 71.85,70.53 "/>
   <polygon class="fil4" points="91.81,81.27 116.47,69.9 116.2,125.32 91.82,112.26 "/>
   <polygon class="fil3" points="49.7,112.37 71.85,101.58 116.2,125.32 91.81,136.86 "/>
   <polygon class="fil3" points="115.79,178.18 91.81,190.37 116.86,204.35 140.92,190.45 "/>
   <polygon class="fil4" points="91.81,136.86 116.16,125.31 115.74,178.18 91.81,190.37 "/>
   <polygon class="fil5" points="186.56,82.6 187.84,83.36 188.47,107.8 163.58,123.18 163.17,208.9 116.87,236.35 116.85,204.35 140.91,190.45 140.87,109.58 187.84,83.36 186.56,82.6 "/>
   <polygon class="fil3" points="91.81,112.27 116.32,100.74 116.2,125.31 "/>
   <polygon class="fil5" points="256.68,141.82 256.68,155.2 321.08,155.2 321.08,114.84 269.58,114.84 269.58,101.35 321.08,101.35 321.08,87.86 256.68,87.86 256.68,128.33 308.18,128.33 308.18,141.82 "/>
   <path class="fil2" d="M335.03 87.86l0 67.34 64.41 0 0 -67.34 -12.91 0 0 53.84 -12.9 0 0 -40.35 -12.91 0 0 40.35 -12.9 0 0 -53.84 -12.79 0zm78.36 26.98l0 40.36 64.4 0 0 -67.34 -64.4 0 0 13.49 51.5 0 0 13.49 -51.5 0zm12.9 13.49l38.6 0 0 13.37 -38.6 0 0 -13.37zm65.45 54.71l0 13.8 64.4 0 0 -108.98 -64.4 0 0 67.46 51.5 0 0 27.72 -51.5 0zm12.9 -81.69l38.6 0 0 40.35 -38.6 0 0 -40.35zm65.69 13.49l0 40.36 64.4 0 0 -67.34 -64.4 0 0 13.49 51.5 0 0 13.49 -51.5 0zm12.9 13.49l38.6 0 0 13.37 -38.6 0 0 -13.37zm65.45 -67.46l0 94.33 64.4 0 0 -13.38 -51.49 0 0 -40.47 25.69 0 0 -13.49 -25.81 0 0 -26.99 -12.79 0z"/>
   <path class="fil6" d="M582.17 167.57l-0.97 -0.51c-3.47,1.59 -7.39,2.5 -10.52,2.84l0 2.22c3.13,0 3.41,0.46 3.41,4.27l0 13.31c0,4.27 -0.28,4.67 -3.41,4.67l0 2.39 15.76 0 0 -2.39c-3.53,0 -3.93,-0.68 -3.93,-4.67l0 -14.28c1.94,-2.96 3.36,-4.55 4.73,-4.55 0.91,0 1.36,0.57 1.93,2.39 0.63,1.76 1.71,2.5 3.13,2.5 1.82,0 2.85,-1.42 2.85,-3.41 0,-3.36 -2.96,-5.29 -5.35,-5.29 -2.96,0 -4.96,1.53 -7.34,4.72l-0.12 0 -0.17 -4.21zm34.4 29.94c11.72,0 14.79,-7.24 14.79,-15.43 0,-9.22 -4.55,-15.02 -14.79,-15.02 -9.51,0 -14.74,5.35 -14.74,15.02 0,8.31 3.13,15.43 14.74,15.43zm-0.06 -27.84c1.71,0 3.07,0.74 3.98,2.22 1.25,2.05 1.94,5.41 1.94,10.42 0,5.17 -0.74,8.47 -1.99,10.41 -0.92,1.42 -2.22,2.16 -3.93,2.16 -1.65,0 -3.02,-0.74 -3.93,-2.16 -1.19,-1.94 -1.93,-5.24 -1.93,-10.41 0,-7.4 1.31,-12.64 5.8,-12.64l0.06 0zm51.69 -2.1l-1.02 -0.51c-3.3,1.42 -7.34,2.44 -10.19,2.78l0 2.28c2.56,0 2.85,0.4 2.85,4.33l0 13.54c-1.65,2.22 -3.53,3.52 -5.58,3.52 -4.15,0 -4.15,-5.06 -4.15,-7.22l0 -18.72 -1.08 -0.51c-3.36,1.42 -7.51,2.44 -10.3,2.78l0 2.28c2.73,0 2.96,0.51 2.96,4.44l0 10.75c0,7.29 3.35,10.2 9.1,10.2 4.55,0 7.11,-1.89 8.99,-4.17l0.23 0 0.22 3.77 0.86 0.4c3.92,-0.87 7.28,-0.87 10.47,-0.87l0 -2.21c-3.13,0 -3.36,-0.52 -3.36,-4.61l0 -22.25zm22.16 26.97c1.6,1.71 3.87,2.91 7.34,2.91 7.06,0 12.12,-4.5 12.12,-15.48 0,-9.96 -5.23,-14.91 -11.49,-14.91 -3.64,0 -6.15,1.36 -8.14,3.98l-0.11 0 -0.23 -3.41 -0.91 -0.57c-3.47,1.48 -7.62,2.5 -10.47,2.78l0 2.28c3.19,0 3.41,0.57 3.41,4.55l0 28.01c0,3.98 -0.28,4.55 -3.41,4.55l0 2.39 15.02 0 0 -2.39c-2.9,0 -3.24,-0.51 -3.24,-4.55l0 -10.14 0.11 0zm-0.11 -20.14c1.42,-2.05 3.07,-3.87 5.35,-3.87 5.29,0 5.29,8.99 5.29,11.38 0,3.81 -0.17,12.29 -5.41,12.29 -2.05,0 -3.92,-1.43 -5.23,-3.42l0 -16.38z"/>
  </g>
 </g>
</svg>
