<svg id="Layer_1" data-name="Layer 1" xmlns="http://www.w3.org/2000/svg" viewBox="0 0 253.8 88.22"><defs><style>.cls-1{fill:#ed1c24;}.cls-2{fill:#231f20;}.cls-2,.cls-3,.cls-5{fill-rule:evenodd;}.cls-3,.cls-4{fill:#fff;}.cls-5{fill:#00a651;}</style></defs><title>wonder_masala_logo1</title><rect class="cls-1" width="245.47" height="52.38" rx="5.24" ry="5.24"/><path class="cls-2" d="M75.88,26.46h-.11A1.63,1.63,0,0,1,74.65,26a1.58,1.58,0,0,1-.44-1.12,1.53,1.53,0,0,1,.48-1.15,1.65,1.65,0,0,1,1.19-.47,3,3,0,0,1,2.24,1,3.11,3.11,0,0,1,.94,2.27,3.06,3.06,0,0,1-.9,2.26,3.43,3.43,0,0,1-2.33,1,2,2,0,0,0,1.2-.52,1.46,1.46,0,0,0,.42-1.1A1.55,1.55,0,0,0,77,27a1.64,1.64,0,0,0-1.12-.5Zm0-2.07a.46.46,0,0,0-.47.45.48.48,0,0,0,.47.47.45.45,0,0,0,.32-.14.45.45,0,0,0,.14-.33.45.45,0,0,0-.14-.32.44.44,0,0,0-.32-.13Zm0,3.23a.42.42,0,0,0-.33.14.43.43,0,0,0-.14.32.45.45,0,0,0,.14.33.44.44,0,0,0,.33.13.44.44,0,0,0,.32-.13.46.46,0,0,0,0-.66.44.44,0,0,0-.32-.13Zm0-4.62a3.46,3.46,0,0,0-2.45,5.91,3.46,3.46,0,0,0,5.91-2.45A3.45,3.45,0,0,0,75.83,23Z"/><path class="cls-3" d="M75.83,24.39a.44.44,0,0,1,.32.13.45.45,0,0,1,.14.32.45.45,0,0,1-.14.33.45.45,0,0,1-.32.14.48.48,0,0,1-.47-.47.46.46,0,0,1,.47-.45Zm-1.14-.69a1.53,1.53,0,0,0-.48,1.15A1.58,1.58,0,0,0,74.65,26a1.63,1.63,0,0,0,1.12.49h.11A1.64,1.64,0,0,1,77,27a1.55,1.55,0,0,1,.45,1.12,1.46,1.46,0,0,1-.42,1.1,2,2,0,0,1-1.2.52,3.43,3.43,0,0,0,2.33-1,3.06,3.06,0,0,0,.9-2.26,3.11,3.11,0,0,0-.94-2.27,3,3,0,0,0-2.24-1A1.65,1.65,0,0,0,74.69,23.7Z"/><path class="cls-3" d="M75.5,27.76a.43.43,0,0,0-.14.32.45.45,0,0,0,.14.33.44.44,0,0,0,.33.13.44.44,0,0,0,.32-.13.46.46,0,0,0,0-.66.44.44,0,0,0-.32-.13A.42.42,0,0,0,75.5,27.76Z"/><path class="cls-2" d="M29.32,33.27l3.34-9.64a14.6,14.6,0,0,0,1-4.1A2.81,2.81,0,0,0,33,17.68,8.32,8.32,0,0,0,30.73,16c-.36-.22-.55-.47-.55-.74,0-.52.36-.78,1.09-.78a19.44,19.44,0,0,1,2.59.49,13,13,0,0,0,3,.39,10.73,10.73,0,0,0,3.24-.6,5.53,5.53,0,0,1,1.38-.33,1.64,1.64,0,0,1,.9.25.7.7,0,0,1,.38.56c0,.23-.18.49-.55.76a7.09,7.09,0,0,0-1.53,1.4,2.32,2.32,0,0,0-.37,1.36A9.36,9.36,0,0,0,41,22l4.27,11.23a34.85,34.85,0,0,1,3-4.81,28.19,28.19,0,0,0,2.4-3.55,5.09,5.09,0,0,0,.59-2.32,2.48,2.48,0,0,0-.64-1.76A2.1,2.1,0,0,0,49,20.12c-.93,0-1.42.43-1.47,1.26a1.15,1.15,0,0,1-.25.81,1.25,1.25,0,0,1-.82.2,2.66,2.66,0,0,1-2.06-1,3.48,3.48,0,0,1-.9-2.38,4.34,4.34,0,0,1,1.87-3.54,7.87,7.87,0,0,1,5.06-1.59,8.4,8.4,0,0,1,5.6,1.85,5.06,5.06,0,0,1,2,4,8.16,8.16,0,0,1-1.28,4.14,30.23,30.23,0,0,1-4.2,5.28A34.7,34.7,0,0,0,48.56,34a6.34,6.34,0,0,0-1.05,3.32,4.07,4.07,0,0,0,1.91,3.32c.51.38.76.73.76,1,0,.6-.7.91-2.1.91H39.13c-1.09,0-1.62-.3-1.62-.89,0-.33.27-.73.84-1.19a2.37,2.37,0,0,0,1.06-1.78,7.08,7.08,0,0,0-.58-2.16l-3.56-9.15L31.84,37.2a4.87,4.87,0,0,0-.29,1.59,2.49,2.49,0,0,0,1.14,1.79c.55.44.81.8.81,1.07a.69.69,0,0,1-.47.69,4.92,4.92,0,0,1-1.68.2h-8.7c-1.12,0-1.69-.28-1.69-.85,0-.31.35-.77,1-1.38a2.87,2.87,0,0,0,1.23-2,6.42,6.42,0,0,0-.52-2.06L16.81,21a8.44,8.44,0,0,0-3.65-4.72c-.65-.37-1-.71-1-1a.71.71,0,0,1,.33-.56,1.22,1.22,0,0,1,.73-.25,3.51,3.51,0,0,1,.9.17,20.09,20.09,0,0,0,5.74,1,14.33,14.33,0,0,0,4.56-.78A6.14,6.14,0,0,1,26,14.41a1.29,1.29,0,0,1,.84.28.84.84,0,0,1,.35.65c0,.33-.26.65-.78.95a6.11,6.11,0,0,0-1.66,1.27A2.21,2.21,0,0,0,24.26,19a5.47,5.47,0,0,0,.44,1.89l4.62,12.43ZM75.27,13.84q7.17,0,11.59,3.72a14.65,14.65,0,0,1,4,5.38,13.61,13.61,0,0,1,1.17,5.45,14,14,0,0,1-4.52,10.36c-3.1,3-7.26,4.51-12.51,4.51a18.54,18.54,0,0,1-7.86-1.67A14.63,14.63,0,0,1,60,34.69a13.88,13.88,0,0,1-1.5-6.27,13.65,13.65,0,0,1,2.43-7.78q4.5-6.7,14.38-6.8Zm.13,2.53a6.7,6.7,0,0,0-5.08,2,10.62,10.62,0,0,0-2.6,4.31,18.13,18.13,0,0,0-.94,5.91,16.28,16.28,0,0,0,2,8.2,8.36,8.36,0,0,0,2.86,3,6.65,6.65,0,0,0,3.59,1,6.87,6.87,0,0,0,5-2,10.62,10.62,0,0,0,2.6-4.31,17.94,17.94,0,0,0,.94-5.85,16,16,0,0,0-2-8.26,7.3,7.3,0,0,0-6.32-3.94Zm43.42,15.27-11.2-12.8a2.47,2.47,0,0,1-.79-1.44c0-.36.3-.72.9-1.09s.85-.69.85-1c0-.53-.36-.8-1.06-.8a6.29,6.29,0,0,0-1.55.35,15.3,15.3,0,0,1-4.6.76,22.44,22.44,0,0,1-5.77-1,2.7,2.7,0,0,0-.68-.12,1.22,1.22,0,0,0-.79.29.84.84,0,0,0-.35.64A.63.63,0,0,0,94,16a5.61,5.61,0,0,0,1.18.58,6.54,6.54,0,0,1,3.29,2.55c1.08,1.87,1.63,4.69,1.63,8.47a22,22,0,0,1-.76,6.29c-.44,1.49-1.2,2.24-2.28,2.24a2.7,2.7,0,0,1-1.26-.39,1.76,1.76,0,0,0-.89-.31,3.24,3.24,0,0,0-2,.82,3.56,3.56,0,0,0-1.46,2.89,3.67,3.67,0,0,0,1.45,3,5.72,5.72,0,0,0,3.71,1.17,6.2,6.2,0,0,0,3.7-1A7.17,7.17,0,0,0,103,38.75a26.84,26.84,0,0,0,1-8.49,35.62,35.62,0,0,0-.41-5.77l15.26,17.32a12,12,0,0,0,1.29,1.25,1.9,1.9,0,0,0,1,.2,1.38,1.38,0,0,0,1.55-1.4,5.36,5.36,0,0,1,2-3.85c.55-.43.82-.8.82-1.12,0-.48-.42-.79-1.25-.93-1.13-.15-1.68-.72-1.64-1.71V23.32a10,10,0,0,1,.7-4.36,8,8,0,0,1,3-2.75c.64-.39,1-.72,1-1a.73.73,0,0,0-.28-.56,1,1,0,0,0-.65-.25,6.25,6.25,0,0,0-1,.25,15.13,15.13,0,0,1-4.63.78,14.45,14.45,0,0,1-4.7-.72,3.67,3.67,0,0,0-.89-.2,1,1,0,0,0-.67.22.6.6,0,0,0-.29.5c0,.25.27.56.82.92a10.55,10.55,0,0,1,3.29,2.9,9.84,9.84,0,0,1,.62,4.26v8.32Zm23.09,5.85h3.27a10.15,10.15,0,0,0,6.06-1.69q3.07-2.22,3.07-7.13a10.25,10.25,0,0,0-3.13-7.83,12.09,12.09,0,0,0-4.32-2.51,15.73,15.73,0,0,0-5.19-.84,15.22,15.22,0,0,0-7.1,1.62c-2.45,1.27-3.76,3-3.95,5.13-.05.72-.31,1.07-.79,1.07a1.55,1.55,0,0,1-1.3-.89,4.1,4.1,0,0,1-.54-2.16,6.23,6.23,0,0,1,2.74-4.9,15,15,0,0,1,4.92-2.5,26.16,26.16,0,0,1,17.36,1,15.38,15.38,0,0,1,7.15,5.95,13.35,13.35,0,0,1,2,7.19,13.26,13.26,0,0,1-2.4,7.89,12.23,12.23,0,0,1-5.26,4.17,19,19,0,0,1-7.66,1.46H132.28c-1,0-1.52-.28-1.52-.83a.64.64,0,0,1,.24-.5,4.74,4.74,0,0,1,1-.44,3.36,3.36,0,0,0,2.06-1.34,9.46,9.46,0,0,0,.41-3.51V26.8a1.94,1.94,0,0,0-.29-1.21,1.86,1.86,0,0,0-1-.61c-.71-.21-1.06-.5-1.06-.84s.34-.95,1-1.57a14.28,14.28,0,0,1,4.19-2.49,13.41,13.41,0,0,1,4.88-1c1.21,0,1.82.34,1.82,1,0,.24-.25.52-.76.87a2.71,2.71,0,0,0-1.1,1.23,6.46,6.46,0,0,0-.27,2.17v13.1Zm33.23-10.36a3.37,3.37,0,0,0,3.48-2.62,4.51,4.51,0,0,1,.64-1.4,1.12,1.12,0,0,1,.89-.33c.65,0,1,.52,1,1.58a12.33,12.33,0,0,0,.46,3.51,26.9,26.9,0,0,0,2.1,4.12,1.55,1.55,0,0,1,.27.76c0,.57-.35.86-1.06.86a1.62,1.62,0,0,1-1.17-.59,18.5,18.5,0,0,0-2-2,7,7,0,0,0-1.61-.88,8.55,8.55,0,0,0-3-.47v3.44a6.36,6.36,0,0,0,1,4q1.49,1.86,5.5,1.86,5.63,0,7.13-4.33a4,4,0,0,1,.61-1.28,1.06,1.06,0,0,1,.83-.31.9.9,0,0,1,.81.36,4.88,4.88,0,0,1,.47,1.59,9.27,9.27,0,0,0,3.26,5.61c.81.69,1.22,1.18,1.22,1.47a.79.79,0,0,1-.34.62,1.28,1.28,0,0,1-.8.26,3.22,3.22,0,0,1-.59-.08,13.55,13.55,0,0,0-3-.35H165.52c-1,0-1.53-.28-1.53-.83a.6.6,0,0,1,.25-.5,5.57,5.57,0,0,1,1.19-.51,3,3,0,0,0,2-1.36,13.37,13.37,0,0,0,.35-4V23.79a4.55,4.55,0,0,0-.52-2.56,3.33,3.33,0,0,0-2.11-1.05q-.93-.2-.93-.72,0-1.22,3.89-3.27a19.08,19.08,0,0,1,4.86-1.73,26.34,26.34,0,0,1,5.64-.62,21.65,21.65,0,0,1,4.19.35,45,45,0,0,1,5.3,1.57,7.91,7.91,0,0,0,2.53.51,3.81,3.81,0,0,0,1.82-.46,1.63,1.63,0,0,1,.68-.22c.41,0,.8.31,1.14.95a4.26,4.26,0,0,1,.52,2.06,4.81,4.81,0,0,1-2.53,4.12,8.93,8.93,0,0,1-4.93,1.36A6.26,6.26,0,0,1,183.46,23a2.26,2.26,0,0,1-1.06-1.76.58.58,0,0,1,.65-.66,2.64,2.64,0,0,1,.55.12,2.11,2.11,0,0,0,.62.09,1.84,1.84,0,0,0,1.25-.42,1.41,1.41,0,0,0,.47-1.09,2.19,2.19,0,0,0-1.32-1.87,6.38,6.38,0,0,0-3.25-.76,6.9,6.9,0,0,0-3.34.78,4.88,4.88,0,0,0-2.13,2.16,14,14,0,0,0-.76,5.45v2.1ZM216.89,30a10.58,10.58,0,0,0,5,1.24q.47,0,1.38-.09l.44,0a1.42,1.42,0,0,1,.82.25.71.71,0,0,1,.35.55,2.23,2.23,0,0,1-.24.77,2.07,2.07,0,0,0-.25.82,2.69,2.69,0,0,0,.49,1.28l1.85,3a6.68,6.68,0,0,0,3.92,3c.81.24,1.22.56,1.22,1a.66.66,0,0,1-.49.65,6.1,6.1,0,0,1-1.82.18H218.35c-1.1,0-1.66-.3-1.66-.89,0-.34.3-.62.9-.82.92-.3,1.39-.72,1.39-1.24,0-.7-.55-1.85-1.64-3.45a29.25,29.25,0,0,0-3.72-4.46,18.93,18.93,0,0,1-2.85-3.22,5.55,5.55,0,0,1-1-2.84,4.3,4.3,0,0,1,1.53-3.2A5.16,5.16,0,0,1,215,21.05a4.9,4.9,0,0,1,2.75.75,2.22,2.22,0,0,1,1.14,1.84,1.62,1.62,0,0,1-.64,1.31,2.42,2.42,0,0,1-1.59.53c-.68,0-1-.22-1-.67,0-.19.14-.36.41-.53a.69.69,0,0,0,.43-.58c0-.2-.14-.39-.42-.56a1.83,1.83,0,0,0-1-.26,2.58,2.58,0,0,0-1.7.58,1.7,1.7,0,0,0-.71,1.38,2.09,2.09,0,0,0,1.12,1.8,5.11,5.11,0,0,0,2.79.71,6.13,6.13,0,0,0,3.51-1,3.56,3.56,0,0,0,1.79-3.09,3.76,3.76,0,0,0-1.71-3.09,7.39,7.39,0,0,0-4.59-1.38,8.31,8.31,0,0,0-3.76.84,5.86,5.86,0,0,0-2.53,2.24,10,10,0,0,0-.7,4.52v9.69a8.33,8.33,0,0,0,.43,3.37,4,4,0,0,0,2.26,1.39c.7.23,1.06.52,1.06.86,0,.55-.51.83-1.53.83H199c-1,0-1.52-.28-1.52-.83a.59.59,0,0,1,.24-.5,5.75,5.75,0,0,1,1.23-.51,3.09,3.09,0,0,0,1.89-1.29,9.15,9.15,0,0,0,.39-3.34V24.41a3.57,3.57,0,0,0-.47-2,2.49,2.49,0,0,0-1.62-.89c-.84-.18-1.25-.5-1.25-1s.59-1.22,1.79-2.2q5.45-4.47,14.06-4.47a19.21,19.21,0,0,1,10.52,2.61q4,2.54,4,6.33a6.14,6.14,0,0,1-2.9,5.23,12.2,12.2,0,0,1-7.19,2C217.81,30,217.39,30,216.89,30Z"/><path class="cls-3" d="M30.74,31.14l3.34-9.64a14.6,14.6,0,0,0,1-4.1,2.86,2.86,0,0,0-.62-1.86,8.54,8.54,0,0,0-2.29-1.69c-.36-.22-.55-.47-.55-.74,0-.53.36-.79,1.09-.79a20.35,20.35,0,0,1,2.59.5,13,13,0,0,0,3,.39,10.73,10.73,0,0,0,3.24-.6,5.11,5.11,0,0,1,1.38-.33,1.64,1.64,0,0,1,.9.25.7.7,0,0,1,.38.55c0,.24-.18.5-.54.77a7.21,7.21,0,0,0-1.54,1.4,2.32,2.32,0,0,0-.37,1.36,9.4,9.4,0,0,0,.71,3.3l4.27,11.23a35.83,35.83,0,0,1,3-4.81,28.19,28.19,0,0,0,2.4-3.55,5.09,5.09,0,0,0,.59-2.32,2.48,2.48,0,0,0-.64-1.76A2.05,2.05,0,0,0,50.46,18q-1.4,0-1.47,1.26a1.15,1.15,0,0,1-.25.81,1.25,1.25,0,0,1-.82.2,2.66,2.66,0,0,1-2.06-1,3.48,3.48,0,0,1-.9-2.38,4.36,4.36,0,0,1,1.88-3.55,7.88,7.88,0,0,1,5-1.58,8.35,8.35,0,0,1,5.6,1.85,5.06,5.06,0,0,1,2,4,8.16,8.16,0,0,1-1.28,4.14A30.6,30.6,0,0,1,54.05,27,34.7,34.7,0,0,0,50,31.83a6.31,6.31,0,0,0-1,3.32,4.07,4.07,0,0,0,1.91,3.32c.51.38.76.73.76,1,0,.6-.7.91-2.1.91h-9c-1.08,0-1.62-.3-1.62-.89,0-.33.27-.73.84-1.2a2.34,2.34,0,0,0,1.06-1.77,7.08,7.08,0,0,0-.58-2.16l-3.56-9.15-3.43,9.83A4.87,4.87,0,0,0,33,36.66a2.5,2.5,0,0,0,1.14,1.79c.55.44.82.8.82,1.07a.7.7,0,0,1-.48.69,4.92,4.92,0,0,1-1.68.2h-8.7c-1.12,0-1.69-.29-1.69-.85,0-.31.35-.77,1-1.38a2.87,2.87,0,0,0,1.23-2,6.42,6.42,0,0,0-.52-2.06l-5.9-15.32a8.44,8.44,0,0,0-3.65-4.72c-.65-.37-1-.71-1-1a.71.71,0,0,1,.33-.56,1.22,1.22,0,0,1,.73-.25,3.89,3.89,0,0,1,.9.16,19.79,19.79,0,0,0,5.74,1,14.18,14.18,0,0,0,4.57-.79,6.31,6.31,0,0,1,1.52-.37,1.29,1.29,0,0,1,.84.28.84.84,0,0,1,.36.65c0,.33-.26.65-.79.95a6.11,6.11,0,0,0-1.66,1.27,2.21,2.21,0,0,0-.46,1.39,5.52,5.52,0,0,0,.44,1.89l4.62,12.43Zm46-19.43q7.19,0,11.59,3.72a14.54,14.54,0,0,1,4,5.38,13.61,13.61,0,0,1,1.17,5.45A14,14,0,0,1,89,36.62c-3.11,3-7.27,4.51-12.52,4.51a18.69,18.69,0,0,1-7.86-1.67,14.63,14.63,0,0,1-7.23-6.9,13.91,13.91,0,0,1-1.5-6.27,13.65,13.65,0,0,1,2.43-7.78q4.5-6.71,14.38-6.8Zm.13,2.53a6.7,6.7,0,0,0-5.08,2,10.62,10.62,0,0,0-2.6,4.31,18.13,18.13,0,0,0-.94,5.91,16.3,16.3,0,0,0,2,8.2,8.44,8.44,0,0,0,2.86,3,6.65,6.65,0,0,0,3.59.95,6.92,6.92,0,0,0,5-2,10.69,10.69,0,0,0,2.6-4.31,17.94,17.94,0,0,0,.94-5.85,16,16,0,0,0-2-8.26,7.3,7.3,0,0,0-6.32-3.94Zm43.42,15.27L109,16.71a2.47,2.47,0,0,1-.79-1.44c0-.36.3-.72.9-1.09s.85-.69.85-1c0-.54-.36-.8-1.06-.8a6.29,6.29,0,0,0-1.55.35,15.3,15.3,0,0,1-4.6.76,22.44,22.44,0,0,1-5.77-1,2.7,2.7,0,0,0-.68-.12,1.22,1.22,0,0,0-.79.29.82.82,0,0,0-.35.64.63.63,0,0,0,.23.53,5.61,5.61,0,0,0,1.18.58A6.54,6.54,0,0,1,99.9,17c1.08,1.87,1.63,4.69,1.63,8.47a22,22,0,0,1-.76,6.28Q100.11,34,98.49,34a2.73,2.73,0,0,1-1.26-.4,1.86,1.86,0,0,0-.89-.31,3.26,3.26,0,0,0-2,.83A3.55,3.55,0,0,0,92.89,37a3.67,3.67,0,0,0,1.45,3,5.74,5.74,0,0,0,3.71,1.17,6.2,6.2,0,0,0,3.7-1,7.17,7.17,0,0,0,2.64-3.48,26.84,26.84,0,0,0,1-8.49,35.54,35.54,0,0,0-.41-5.77l15.26,17.32a12,12,0,0,0,1.29,1.25,1.9,1.9,0,0,0,1,.2,1.38,1.38,0,0,0,1.55-1.4,5.36,5.36,0,0,1,2-3.85c.55-.43.82-.8.82-1.12,0-.48-.42-.79-1.25-.93-1.13-.15-1.67-.72-1.64-1.71V21.19a10,10,0,0,1,.7-4.36,8,8,0,0,1,3-2.75c.64-.39.95-.72.95-1a.73.73,0,0,0-.28-.55,1,1,0,0,0-.65-.25,6.25,6.25,0,0,0-1,.25,15.13,15.13,0,0,1-4.63.78,14.45,14.45,0,0,1-4.7-.72,3.67,3.67,0,0,0-.89-.2,1,1,0,0,0-.67.22.6.6,0,0,0-.29.5c0,.25.27.56.82.92a10.31,10.31,0,0,1,3.29,2.9,9.84,9.84,0,0,1,.62,4.26v8.32Zm23.09,5.85h3.27a10.15,10.15,0,0,0,6.06-1.69c2.05-1.49,3.07-3.86,3.07-7.13a10.28,10.28,0,0,0-3.12-7.83,12.22,12.22,0,0,0-4.33-2.51,15.73,15.73,0,0,0-5.19-.84A15.22,15.22,0,0,0,136,17c-2.45,1.27-3.76,3-4,5.13,0,.71-.31,1.07-.79,1.07a1.52,1.52,0,0,1-1.29-.89,4,4,0,0,1-.55-2.16,6.23,6.23,0,0,1,2.74-4.9,15,15,0,0,1,4.92-2.5,26.16,26.16,0,0,1,17.36,1,15.38,15.38,0,0,1,7.15,5.95,13.35,13.35,0,0,1,2,7.19,13.26,13.26,0,0,1-2.4,7.89A12.3,12.3,0,0,1,155.91,39a19,19,0,0,1-7.66,1.46H133.71c-1,0-1.53-.28-1.53-.83a.64.64,0,0,1,.24-.5,4.62,4.62,0,0,1,1-.45,3.28,3.28,0,0,0,2.06-1.33,9.46,9.46,0,0,0,.41-3.51V24.67a1.94,1.94,0,0,0-.29-1.21,1.86,1.86,0,0,0-1-.61c-.71-.22-1.06-.5-1.06-.84s.34-1,1-1.57A14.28,14.28,0,0,1,138.76,18a13.45,13.45,0,0,1,4.88-1c1.21,0,1.82.34,1.82,1,0,.23-.25.52-.76.87a2.66,2.66,0,0,0-1.1,1.23,6.44,6.44,0,0,0-.27,2.16V35.36ZM176.56,25A3.38,3.38,0,0,0,180,22.38a4.44,4.44,0,0,1,.65-1.41,1.12,1.12,0,0,1,.88-.33c.65,0,1,.53,1,1.59a12.33,12.33,0,0,0,.46,3.51,26.9,26.9,0,0,0,2.1,4.12,1.55,1.55,0,0,1,.27.76c0,.57-.35.86-1.06.86a1.63,1.63,0,0,1-1.17-.6,20.75,20.75,0,0,0-2-1.95,7,7,0,0,0-1.61-.87,8.55,8.55,0,0,0-3-.47V31a6.36,6.36,0,0,0,1,4q1.49,1.86,5.5,1.86,5.63,0,7.13-4.33a4,4,0,0,1,.61-1.28,1.06,1.06,0,0,1,.83-.31.92.92,0,0,1,.81.35,5.06,5.06,0,0,1,.47,1.6,9.32,9.32,0,0,0,3.26,5.61c.81.69,1.22,1.18,1.22,1.47a.76.76,0,0,1-.34.61,1.23,1.23,0,0,1-.8.27,3.22,3.22,0,0,1-.59-.08,13.55,13.55,0,0,0-3-.35H166.94c-1,0-1.52-.28-1.52-.83a.58.58,0,0,1,.24-.5,5.57,5.57,0,0,1,1.19-.51,3,3,0,0,0,2-1.36,13.29,13.29,0,0,0,.36-4V21.66a4.64,4.64,0,0,0-.52-2.56,3.39,3.39,0,0,0-2.12-1.05c-.62-.14-.93-.37-.93-.72q0-1.21,3.89-3.28a19.47,19.47,0,0,1,4.86-1.72,26.34,26.34,0,0,1,5.64-.62,20.89,20.89,0,0,1,4.19.35,45,45,0,0,1,5.3,1.57,7.91,7.91,0,0,0,2.53.51,3.93,3.93,0,0,0,1.82-.46,1.63,1.63,0,0,1,.68-.22c.42,0,.8.31,1.14.95a4.26,4.26,0,0,1,.52,2.06,4.81,4.81,0,0,1-2.53,4.12,8.92,8.92,0,0,1-4.93,1.35,6.19,6.19,0,0,1-3.83-1.09,2.23,2.23,0,0,1-1.06-1.75.58.58,0,0,1,.65-.66,2.1,2.1,0,0,1,.55.12,2.16,2.16,0,0,0,.62.09,1.79,1.79,0,0,0,1.25-.43,1.39,1.39,0,0,0,.47-1.08A2.22,2.22,0,0,0,186,15.26a6.48,6.48,0,0,0-3.25-.76,6.9,6.9,0,0,0-3.34.78,4.93,4.93,0,0,0-2.12,2.17,13.74,13.74,0,0,0-.77,5.44V25Zm41.75,2.86a10.58,10.58,0,0,0,5,1.24c.31,0,.77,0,1.39-.09l.43,0a1.35,1.35,0,0,1,.82.25.71.71,0,0,1,.35.55,2.23,2.23,0,0,1-.24.77,2,2,0,0,0-.25.82,2.66,2.66,0,0,0,.49,1.27l1.85,3a6.65,6.65,0,0,0,3.92,3c.81.23,1.22.56,1.22,1a.66.66,0,0,1-.49.65,6.1,6.1,0,0,1-1.82.18h-11.2c-1.11,0-1.67-.3-1.67-.89,0-.35.3-.62.9-.82.92-.31,1.39-.72,1.39-1.24,0-.7-.55-1.85-1.64-3.45A29.25,29.25,0,0,0,215,29.55a18.93,18.93,0,0,1-2.85-3.22,5.52,5.52,0,0,1-.95-2.84,4.29,4.29,0,0,1,1.52-3.2,5.16,5.16,0,0,1,3.69-1.38,4.9,4.9,0,0,1,2.75.76,2.22,2.22,0,0,1,1.14,1.84,1.62,1.62,0,0,1-.64,1.31,2.42,2.42,0,0,1-1.59.52c-.68,0-1-.21-1-.66,0-.19.14-.36.41-.53a.69.69,0,0,0,.43-.58c0-.2-.14-.39-.42-.56a1.73,1.73,0,0,0-1-.26,2.59,2.59,0,0,0-1.71.58,1.69,1.69,0,0,0-.71,1.37,2.09,2.09,0,0,0,1.12,1.81,5.11,5.11,0,0,0,2.79.71,6.11,6.11,0,0,0,3.51-1,3.56,3.56,0,0,0,1.79-3.09,3.76,3.76,0,0,0-1.71-3.09A7.37,7.37,0,0,0,217,16.67a8.31,8.31,0,0,0-3.76.84,6,6,0,0,0-2.53,2.23,10.11,10.11,0,0,0-.7,4.53V34a8.33,8.33,0,0,0,.43,3.37,4,4,0,0,0,2.26,1.39c.71.23,1.06.52,1.06.86,0,.55-.51.83-1.52.83H200.41c-1,0-1.52-.28-1.52-.83a.58.58,0,0,1,.24-.5,6,6,0,0,1,1.23-.51,3.09,3.09,0,0,0,1.89-1.29,9.15,9.15,0,0,0,.39-3.34V22.28a3.64,3.64,0,0,0-.46-2,2.54,2.54,0,0,0-1.63-.89c-.83-.18-1.25-.5-1.25-1s.59-1.22,1.79-2.2q5.44-4.47,14.06-4.47a19.21,19.21,0,0,1,10.52,2.61q4,2.54,4,6.33a6.14,6.14,0,0,1-2.9,5.23,12.2,12.2,0,0,1-7.19,2C219.23,27.9,218.81,27.89,218.31,27.86Z"/><path class="cls-3" d="M62.61,69.77c-.27,1.87-.47,3.81-.6,5.84s-.2,4.13-.2,6.33v2.17a7.09,7.09,0,0,1-.49,3.33,2,2,0,0,1-1.79.71,1.91,1.91,0,0,1-1.83-1,9.85,9.85,0,0,1-.51-3.9q0-3.57.32-7.32t.9-7.4a10,10,0,0,1,1.21-3.84,2.52,2.52,0,0,1,2.15-1,3,3,0,0,1,1.75.46,4.09,4.09,0,0,1,1.2,1.65c.22.43.53,1.14.93,2.11a24.8,24.8,0,0,0,2.56,5,36.58,36.58,0,0,0,2-4.22c.67-1.64,1.05-2.56,1.13-2.74a4.61,4.61,0,0,1,1.3-1.79,3,3,0,0,1,1.81-.54,2.78,2.78,0,0,1,1.93.62,4.32,4.32,0,0,1,1.06,2.12,58,58,0,0,1,1.19,7.84c.32,3.24.47,6.62.47,10.15a5.89,5.89,0,0,1-.51,3,2,2,0,0,1-1.8.76,1.89,1.89,0,0,1-1.6-.65,3.55,3.55,0,0,1-.5-2.13c0-3.08-.07-5.83-.23-8.24s-.39-4.86-.72-7.36a22.75,22.75,0,0,1-2.69,6c-1,1.41-2,2.12-2.9,2.12s-2.09-.7-3.06-2.12a19.37,19.37,0,0,1-2.51-6Zm26.5,4.51a14.22,14.22,0,0,1,4.19.56,8.87,8.87,0,0,1,3.14,1.68,42.7,42.7,0,0,0-1.88-4.46,30.41,30.41,0,0,0-2.25-3.85,26.14,26.14,0,0,0-1.83,3,25,25,0,0,0-1.37,3ZM88,77.84a29.78,29.78,0,0,0-1.38,5.8c-.29,2-.43,3.07-.44,3.1a1.78,1.78,0,0,1-.78,1.05,2.48,2.48,0,0,1-1.42.43,1.89,1.89,0,0,1-1.56-.64,3.17,3.17,0,0,1-.51-2,25.23,25.23,0,0,1,.9-6.08,42.83,42.83,0,0,1,2.48-7,33.83,33.83,0,0,1,3.82-6.89,4.51,4.51,0,0,1,3.33-2A3.59,3.59,0,0,1,95,64.86a21.92,21.92,0,0,1,3,4.63,59.31,59.31,0,0,1,3.87,9.3,25.12,25.12,0,0,1,1.45,7,2.55,2.55,0,0,1-.59,1.81,2.14,2.14,0,0,1-1.64.64,2.23,2.23,0,0,1-1-.24,2,2,0,0,1-.76-.72,8.39,8.39,0,0,1-.58-1.92,9.9,9.9,0,0,0-1-2.69,9.5,9.5,0,0,0-3.77-3.57,11.38,11.38,0,0,0-5.42-1.24ZM112.6,68a3.86,3.86,0,0,0-1.85.35,1.11,1.11,0,0,0-.62,1q0,1.25,4.48,2.05c.36.08.64.12.83.16l.61.11A13.71,13.71,0,0,1,122.26,74a6.11,6.11,0,0,1,1.7,2.33,7.55,7.55,0,0,1,.58,3,8,8,0,0,1-2.69,6.25,10.1,10.1,0,0,1-7,2.4h-5.69a6.07,6.07,0,0,1-3.07-.58,2,2,0,0,1-.94-1.84,1.66,1.66,0,0,1,.84-1.57,7.08,7.08,0,0,1,3-.46h5.9a6,6,0,0,0,3.65-1,3.19,3.19,0,0,0,1.33-2.7,3.32,3.32,0,0,0-.11-.83,4.94,4.94,0,0,0-.32-.8q-1-1.77-4.81-2.52l-.47-.09-1.34-.23a14.74,14.74,0,0,1-5.4-1.71,4.16,4.16,0,0,1-1.5-1.69,5.23,5.23,0,0,1-.53-2.37,5.11,5.11,0,0,1,1.89-4.28,8.71,8.71,0,0,1,5.47-1.48h6.44a4.41,4.41,0,0,1,2.42.53,1.79,1.79,0,0,1,.81,1.6,1.62,1.62,0,0,1-.76,1.43,3.84,3.84,0,0,1-2.12.5ZM134,74.28a14.26,14.26,0,0,1,4.19.56,8.91,8.91,0,0,1,3.13,1.68,42.7,42.7,0,0,0-1.87-4.46,30.44,30.44,0,0,0-2.26-3.85,29.29,29.29,0,0,0-1.83,3,24.94,24.94,0,0,0-1.36,3Zm-1.1,3.56a31.29,31.29,0,0,0-1.38,5.8c-.28,2-.43,3.07-.44,3.1a1.76,1.76,0,0,1-.77,1.05,2.49,2.49,0,0,1-1.43.43,1.89,1.89,0,0,1-1.56-.64,3.17,3.17,0,0,1-.51-2,25.23,25.23,0,0,1,.9-6.08,44.76,44.76,0,0,1,2.48-7A33.83,33.83,0,0,1,134,65.59a4.51,4.51,0,0,1,3.33-2,3.55,3.55,0,0,1,2.58,1.3,21.92,21.92,0,0,1,3,4.63,60.36,60.36,0,0,1,3.88,9.3,25.49,25.49,0,0,1,1.45,7,2.59,2.59,0,0,1-.59,1.81,2.16,2.16,0,0,1-1.65.64,2.19,2.19,0,0,1-1-.24,2,2,0,0,1-.77-.72,9,9,0,0,1-.58-1.92,9.9,9.9,0,0,0-1-2.69,9.44,9.44,0,0,0-3.77-3.57,11.34,11.34,0,0,0-5.41-1.24ZM151.15,66.4a2.94,2.94,0,0,1,.61-2,2.24,2.24,0,0,1,1.74-.68,1.91,1.91,0,0,1,1.59.71,3,3,0,0,1,.58,2V83.81h6.64a3.18,3.18,0,0,1,2,.56,1.86,1.86,0,0,1,.72,1.54,1.9,1.9,0,0,1-.7,1.57,3.06,3.06,0,0,1-2,.57h-8.1a3.58,3.58,0,0,1-2.44-.63,3.05,3.05,0,0,1-.66-2.25V66.4Zm22.92,7.88a14.26,14.26,0,0,1,4.19.56,8.91,8.91,0,0,1,3.13,1.68,42.7,42.7,0,0,0-1.87-4.46,30.44,30.44,0,0,0-2.26-3.85,29.29,29.29,0,0,0-1.83,3,24.94,24.94,0,0,0-1.36,3ZM173,77.84a31.29,31.29,0,0,0-1.38,5.8c-.28,2-.42,3.07-.44,3.1a1.76,1.76,0,0,1-.77,1.05,2.49,2.49,0,0,1-1.43.43,1.91,1.91,0,0,1-1.56-.64,3.17,3.17,0,0,1-.51-2,25.23,25.23,0,0,1,.9-6.08,44.76,44.76,0,0,1,2.48-7,33.28,33.28,0,0,1,3.83-6.89,4.49,4.49,0,0,1,3.33-2,3.55,3.55,0,0,1,2.57,1.3,21.92,21.92,0,0,1,3,4.63,60.36,60.36,0,0,1,3.88,9.3,25.49,25.49,0,0,1,1.45,7,2.59,2.59,0,0,1-.59,1.81,2.15,2.15,0,0,1-1.65.64,2.19,2.19,0,0,1-1-.24,2,2,0,0,1-.77-.72,9,9,0,0,1-.58-1.92,9.9,9.9,0,0,0-1-2.69,9.44,9.44,0,0,0-3.77-3.57,11.34,11.34,0,0,0-5.41-1.24Z"/><rect class="cls-4" x="223.49" y="65.55" width="20.66" height="20.66"/><rect class="cls-4" x="226.4" y="68.46" width="14.85" height="14.85"/><path class="cls-5" d="M233.83,71.43a4.46,4.46,0,1,1-4.46,4.46A4.46,4.46,0,0,1,233.83,71.43Z"/><path class="cls-5" d="M224.92,67h17.81V84.79H224.92V67Zm1.48,1.48V83.31h14.85V68.46Z"/><path class="cls-3" d="M248.25,7.59V4.43h-1.18V4h2.84v.42h-1.18V7.59Zm2.14,0V4h.71l.84,2.53c.08.24.14.42.17.53,0-.13.11-.32.2-.57L253.17,4h.63V7.59h-.45v-3l-1,3h-.43l-1-3V7.59Z"/></svg>