<svg width="20" height="22" viewBox="0 0 20 22" fill="none" xmlns="http://www.w3.org/2000/svg">
<path d="M2 9C2 5.229 2 3.343 3.172 2.172C4.344 1.001 6.229 1 10 1H11.5C15.271 1 17.157 1 18.328 2.172C19.499 3.344 19.5 5.229 19.5 9V13C19.5 16.771 19.5 18.657 18.328 19.828C17.156 20.999 15.271 21 11.5 21H10C6.229 21 4.343 21 3.172 19.828C2.001 18.656 2 16.771 2 13V9Z" stroke="black" stroke-linecap="round" stroke-linejoin="round"/>
<path d="M7.8 10.974C7.373 10.23 7.167 9.623 7.043 9.007C6.859 8.097 7.28 7.207 7.976 6.639C8.271 6.399 8.608 6.481 8.782 6.794L9.175 7.499C9.486 8.057 9.642 8.337 9.611 8.633C9.581 8.929 9.371 9.17 8.951 9.653L7.8 10.974ZM7.8 10.974C8.70011 12.5164 9.98362 13.7999 11.526 14.7M11.526 14.7C12.27 15.127 12.877 15.333 13.493 15.457C14.403 15.641 15.293 15.22 15.861 14.524C16.101 14.229 16.019 13.892 15.706 13.718L15.002 13.325C14.442 13.014 14.163 12.858 13.867 12.889C13.571 12.919 13.33 13.129 12.847 13.549L11.526 14.7ZM3 5H0.5M3 11H0.5M3 17H0.5" stroke="black" stroke-linecap="round" stroke-linejoin="round"/>
</svg>
