<svg width="20" height="20" viewBox="0 0 20 20" fill="none" xmlns="http://www.w3.org/2000/svg">
<path d="M10 0.625C8.1458 0.625 6.33324 1.17483 4.79153 2.20497C3.24982 3.23511 2.04821 4.69929 1.33863 6.41234C0.629062 8.1254 0.443406 10.0104 0.805142 11.829C1.16688 13.6475 2.05976 15.318 3.37088 16.6291C4.682 17.9402 6.35246 18.8331 8.17103 19.1949C9.9896 19.5566 11.8746 19.3709 13.5877 18.6614C15.3007 17.9518 16.7649 16.7502 17.795 15.2085C18.8252 13.6668 19.375 11.8542 19.375 10C19.3723 7.51443 18.3837 5.13145 16.6261 3.37389C14.8686 1.61633 12.4856 0.62773 10 0.625ZM10.375 18.6166V11.875H13C13.0995 11.875 13.1948 11.8355 13.2652 11.7652C13.3355 11.6948 13.375 11.5995 13.375 11.5C13.375 11.4005 13.3355 11.3052 13.2652 11.2348C13.1948 11.1645 13.0995 11.125 13 11.125H10.375V8.5C10.375 8.00272 10.5725 7.52581 10.9242 7.17417C11.2758 6.82254 11.7527 6.625 12.25 6.625H13.75C13.8495 6.625 13.9448 6.58549 14.0152 6.51517C14.0855 6.44484 14.125 6.34946 14.125 6.25C14.125 6.15054 14.0855 6.05516 14.0152 5.98483C13.9448 5.91451 13.8495 5.875 13.75 5.875H12.25C11.5538 5.875 10.8861 6.15156 10.3938 6.64384C9.90157 7.13613 9.625 7.80381 9.625 8.5V11.125H7C6.90055 11.125 6.80517 11.1645 6.73484 11.2348C6.66451 11.3052 6.625 11.4005 6.625 11.5C6.625 11.5995 6.66451 11.6948 6.73484 11.7652C6.80517 11.8355 6.90055 11.875 7 11.875H9.625V18.6166C7.37212 18.5185 5.24724 17.5421 3.70555 15.8964C2.16387 14.2507 1.32801 12.0667 1.37704 9.81217C1.42608 7.55769 2.3561 5.41208 3.96788 3.83497C5.57966 2.25787 7.74499 1.37472 10 1.37472C12.255 1.37472 14.4204 2.25787 16.0321 3.83497C17.6439 5.41208 18.5739 7.55769 18.623 9.81217C18.672 12.0667 17.8361 14.2507 16.2945 15.8964C14.7528 17.5421 12.6279 18.5185 10.375 18.6166Z" fill="white"/>
</svg>
