<svg width="18" height="18" viewBox="0 0 18 18" fill="none" xmlns="http://www.w3.org/2000/svg">
<path d="M11.5 17.214L7.942 13.656L8.65 12.948L11.5 15.798L17.189 10.11L17.896 10.817L11.5 17.214ZM16 7.99999H15V3.61599C15 3.46199 14.936 3.32066 14.808 3.19199C14.68 3.06332 14.5387 2.99932 14.384 2.99999H12V5.22999H4V2.99999H1.616C1.462 2.99999 1.32067 3.06399 1.192 3.19199C1.06333 3.31999 0.999333 3.46132 1 3.61599V16.385C1 16.5383 1.064 16.6793 1.192 16.808C1.32 16.9367 1.461 17.0007 1.615 17H7V18H1.616C1.168 18 0.786667 17.8427 0.472 17.528C0.157333 17.2133 0 16.8323 0 16.385V3.61499C0 3.16832 0.157333 2.78732 0.472 2.47199C0.786667 2.15732 1.168 1.99999 1.616 1.99999H6.252C6.34533 1.60932 6.553 1.28099 6.875 1.01499C7.197 0.748324 7.572 0.61499 8 0.61499C8.436 0.61499 8.814 0.748324 9.134 1.01499C9.454 1.28032 9.66067 1.60866 9.754 1.99999H14.384C14.832 1.99999 15.2133 2.15732 15.528 2.47199C15.8427 2.78666 16 3.16799 16 3.61599V7.99999ZM8 3.22999C8.232 3.22999 8.42467 3.15366 8.578 3.00099C8.73133 2.84766 8.808 2.65499 8.808 2.42299C8.808 2.19099 8.73133 1.99832 8.578 1.84499C8.42467 1.69166 8.232 1.61499 8 1.61499C7.768 1.61499 7.57533 1.69166 7.422 1.84499C7.26867 1.99832 7.192 2.19099 7.192 2.42299C7.192 2.65499 7.26867 2.84766 7.422 3.00099C7.57533 3.15432 7.768 3.22999 8 3.22999Z" fill="white"/>
</svg>
