<svg width="24" height="24" viewBox="0 0 24 24" fill="none" xmlns="http://www.w3.org/2000/svg">
<path d="M12 1.25C6.05747 1.2565 1.24497 6.079 1.25147 12.0215C1.25299 13.8248 1.70812 15.5987 2.57497 17.18L1.74997 22.25L6.81997 21.425C12.025 24.28 18.56 22.3755 21.415 17.17C24.27 11.9645 22.366 5.4305 17.1605 2.575C15.5789 1.70739 13.8039 1.25173 12 1.25ZM6.62497 6.135H9.55497C9.68758 6.135 9.81476 6.18768 9.90852 6.28145C10.0023 6.37521 10.055 6.50239 10.055 6.635C10.0386 7.3018 10.1506 7.96553 10.385 8.59C10.4859 8.79904 10.5081 9.03746 10.4475 9.26154C10.3869 9.48562 10.2475 9.68034 10.055 9.81L9.02997 10.81C9.48445 11.6975 10.0787 12.5062 10.79 13.205C11.4831 13.9278 12.2885 14.534 13.175 15L14.175 13.975C14.675 13.475 14.905 13.475 15.395 13.645C16.0194 13.8794 16.6832 13.9914 17.35 13.975C17.4806 13.9811 17.6043 14.0357 17.6968 14.1282C17.7893 14.2207 17.8439 14.3444 17.85 14.475V17.405C17.8439 17.5356 17.7893 17.6593 17.6968 17.7518C17.6043 17.8443 17.4806 17.8989 17.35 17.905C14.4088 17.7769 11.6208 16.5576 9.52997 14.485C7.45416 12.3964 6.23429 9.60709 6.10997 6.665C6.11116 6.52737 6.16535 6.3955 6.26126 6.29679C6.35717 6.19809 6.48744 6.14014 6.62497 6.135Z" stroke="white" stroke-linecap="round" stroke-linejoin="round"/>
</svg>
