<svg width="20" height="20" viewBox="0 0 20 20" fill="none" xmlns="http://www.w3.org/2000/svg">
<path d="M18.25 0.625H1.75C1.45163 0.625 1.16548 0.743526 0.954505 0.954505C0.743526 1.16548 0.625 1.45163 0.625 1.75V18.25C0.625 18.5484 0.743526 18.8345 0.954505 19.0455C1.16548 19.2565 1.45163 19.375 1.75 19.375H18.25C18.5484 19.375 18.8345 19.2565 19.0455 19.0455C19.2565 18.8345 19.375 18.5484 19.375 18.25V1.75C19.375 1.45163 19.2565 1.16548 19.0455 0.954505C18.8345 0.743526 18.5484 0.625 18.25 0.625ZM18.625 18.25C18.625 18.3495 18.5855 18.4448 18.5152 18.5152C18.4448 18.5855 18.3495 18.625 18.25 18.625H1.75C1.65054 18.625 1.55516 18.5855 1.48484 18.5152C1.41451 18.4448 1.375 18.3495 1.375 18.25V1.75C1.375 1.65054 1.41451 1.55516 1.48484 1.48484C1.55516 1.41451 1.65054 1.375 1.75 1.375H18.25C18.3495 1.375 18.4448 1.41451 18.5152 1.48484C18.5855 1.55516 18.625 1.65054 18.625 1.75V18.25ZM6.625 8.5V14.5C6.625 14.5995 6.58549 14.6948 6.51517 14.7652C6.44484 14.8355 6.34946 14.875 6.25 14.875C6.15054 14.875 6.05516 14.8355 5.98483 14.7652C5.91451 14.6948 5.875 14.5995 5.875 14.5V8.5C5.875 8.40054 5.91451 8.30516 5.98483 8.23483C6.05516 8.16451 6.15054 8.125 6.25 8.125C6.34946 8.125 6.44484 8.16451 6.51517 8.23483C6.58549 8.30516 6.625 8.40054 6.625 8.5ZM14.875 11.125V14.5C14.875 14.5995 14.8355 14.6948 14.7652 14.7652C14.6948 14.8355 14.5995 14.875 14.5 14.875C14.4005 14.875 14.3052 14.8355 14.2348 14.7652C14.1645 14.6948 14.125 14.5995 14.125 14.5V11.125C14.125 10.5283 13.8879 9.95597 13.466 9.53401C13.044 9.11205 12.4717 8.875 11.875 8.875C11.2783 8.875 10.706 9.11205 10.284 9.53401C9.86205 9.95597 9.625 10.5283 9.625 11.125V14.5C9.625 14.5995 9.58549 14.6948 9.51517 14.7652C9.44484 14.8355 9.34946 14.875 9.25 14.875C9.15054 14.875 9.05516 14.8355 8.98483 14.7652C8.91451 14.6948 8.875 14.5995 8.875 14.5V8.5C8.875 8.40054 8.91451 8.30516 8.98483 8.23483C9.05516 8.16451 9.15054 8.125 9.25 8.125C9.34946 8.125 9.44484 8.16451 9.51517 8.23483C9.58549 8.30516 9.625 8.40054 9.625 8.5V9.14406C10.0279 8.68725 10.5602 8.36389 11.1513 8.21697C11.7424 8.07004 12.3642 8.10651 12.9341 8.32153C13.5039 8.53655 13.9949 8.91994 14.3416 9.42071C14.6883 9.92148 14.8743 10.5159 14.875 11.125ZM7 5.875C7 6.02334 6.95601 6.16834 6.8736 6.29168C6.79119 6.41501 6.67406 6.51114 6.53701 6.56791C6.39997 6.62468 6.24917 6.63953 6.10368 6.61059C5.9582 6.58165 5.82456 6.51022 5.71967 6.40533C5.61478 6.30044 5.54335 6.1668 5.51441 6.02132C5.48547 5.87583 5.50032 5.72503 5.55709 5.58799C5.61386 5.45094 5.70999 5.33381 5.83332 5.2514C5.95666 5.16899 6.10166 5.125 6.25 5.125C6.44891 5.125 6.63968 5.20402 6.78033 5.34467C6.92098 5.48532 7 5.67609 7 5.875Z" fill="white"/>
</svg>
