<svg width="20" height="18" viewBox="0 0 20 18" fill="none" xmlns="http://www.w3.org/2000/svg">
<path d="M19.8469 2.60649C19.8185 2.53789 19.7704 2.47926 19.7086 2.43804C19.6469 2.39681 19.5743 2.37485 19.5 2.37492H16.425C16.075 1.70211 15.5485 1.13723 14.9019 0.740857C14.2554 0.344485 13.5131 0.131565 12.7547 0.124925C12.218 0.117219 11.6851 0.217391 11.1879 0.419499C10.6906 0.621607 10.2389 0.921533 9.85972 1.30149C9.46746 1.6856 9.15612 2.14439 8.94406 2.65079C8.73201 3.15718 8.62353 3.70092 8.62503 4.24992V5.29618C4.53284 4.41586 1.12503 1.02117 1.08847 0.983675C1.03825 0.933001 0.974612 0.897704 0.905034 0.881929C0.835455 0.866153 0.76282 0.870553 0.695655 0.894612C0.628346 0.918832 0.569368 0.9618 0.525681 1.01844C0.481993 1.07509 0.455419 1.14305 0.449093 1.2143C0.0553427 5.58492 1.31815 8.49961 2.4469 10.1759C3.06054 11.1061 3.82955 11.924 4.72034 12.5937C3.25034 14.5146 0.645967 15.5121 0.61878 15.5224C0.565326 15.5421 0.517051 15.5736 0.477616 15.6147C0.438181 15.6558 0.408622 15.7054 0.391183 15.7596C0.373744 15.8138 0.368882 15.8713 0.376967 15.9276C0.385051 15.984 0.40587 16.0378 0.437842 16.0849C0.463155 16.1224 0.699405 16.4599 1.33222 16.7749C2.13097 17.1724 3.19691 17.3749 4.50003 17.3749C10.9772 17.3749 16.381 12.3537 16.8647 5.91586L19.7653 3.01524C19.8178 2.96282 19.8536 2.896 19.8681 2.82324C19.8827 2.75048 19.8753 2.67505 19.8469 2.60649ZM16.2347 5.48461C16.1702 5.5493 16.1315 5.63531 16.126 5.72649C15.736 11.8381 10.6294 16.6249 4.50003 16.6249C2.82659 16.6249 1.90972 16.2602 1.45316 15.9809C2.42534 15.529 4.40159 14.449 5.56222 12.7081C5.59044 12.6654 5.60965 12.6175 5.61868 12.5672C5.62771 12.5169 5.62636 12.4653 5.61472 12.4156C5.60343 12.3656 5.58184 12.3185 5.55133 12.2773C5.52082 12.2362 5.48206 12.2018 5.43753 12.1765C5.42534 12.169 4.18222 11.4265 3.04503 9.72492C2.06253 8.25399 0.974093 5.76024 1.14284 2.06086C2.37753 3.15024 5.40659 5.52961 8.93815 6.12024C8.99232 6.1293 9.04781 6.12636 9.10072 6.11162C9.15362 6.09688 9.20264 6.0707 9.24431 6.03493C9.28598 5.99916 9.31929 5.95468 9.34188 5.90462C9.36447 5.85456 9.37578 5.80015 9.37503 5.74524V4.24992C9.37427 3.8003 9.46337 3.35505 9.63708 2.94033C9.81079 2.52562 10.0656 2.14979 10.3866 1.83492C10.6965 1.52523 11.0653 1.28072 11.4712 1.11585C11.8771 0.950967 12.3119 0.869049 12.75 0.874925C14.0813 0.8918 15.3272 1.70555 15.8494 2.90086C15.8784 2.96675 15.9257 3.02291 15.9857 3.06264C16.0457 3.10237 16.1159 3.12399 16.1878 3.12492H18.5944L16.2347 5.48461Z" fill="white"/>
</svg>
