<svg width="19" height="19" viewBox="0 0 19 19" fill="none" xmlns="http://www.w3.org/2000/svg">
<path d="M12.75 8.5C12.75 8.59946 12.7105 8.69484 12.6402 8.76517C12.5698 8.83549 12.4745 8.875 12.375 8.875H6C5.90054 8.875 5.80516 8.83549 5.73483 8.76517C5.66451 8.69484 5.625 8.59946 5.625 8.5C5.625 8.40054 5.66451 8.30516 5.73483 8.23483C5.80516 8.16451 5.90054 8.125 6 8.125H12.375C12.4745 8.125 12.5698 8.16451 12.6402 8.23483C12.7105 8.30516 12.75 8.40054 12.75 8.5ZM12.375 11.125H6C5.90054 11.125 5.80516 11.1645 5.73483 11.2348C5.66451 11.3052 5.625 11.4005 5.625 11.5C5.625 11.5995 5.66451 11.6948 5.73483 11.7652C5.80516 11.8355 5.90054 11.875 6 11.875H12.375C12.4745 11.875 12.5698 11.8355 12.6402 11.7652C12.7105 11.6948 12.75 11.5995 12.75 11.5C12.75 11.4005 12.7105 11.3052 12.6402 11.2348C12.5698 11.1645 12.4745 11.125 12.375 11.125ZM18.375 9.625C18.3723 12.0111 17.4232 14.2987 15.7359 15.9859C14.0487 17.6732 11.7611 18.6223 9.375 18.625H1.5C1.20163 18.625 0.915483 18.5065 0.704505 18.2955C0.493526 18.0845 0.375 17.7984 0.375 17.5V9.625C0.375 7.23805 1.32321 4.94887 3.01104 3.26104C4.69887 1.57321 6.98805 0.625 9.375 0.625C11.7619 0.625 14.0511 1.57321 15.739 3.26104C17.4268 4.94887 18.375 7.23805 18.375 9.625ZM17.625 9.625C17.625 7.43696 16.7558 5.33854 15.2086 3.79137C13.6615 2.24419 11.563 1.375 9.375 1.375C7.18696 1.375 5.08854 2.24419 3.54137 3.79137C1.99419 5.33854 1.125 7.43696 1.125 9.625V17.5C1.125 17.5995 1.16451 17.6948 1.23484 17.7652C1.30516 17.8355 1.40054 17.875 1.5 17.875H9.375C11.5623 17.8725 13.6593 17.0025 15.2059 15.4559C16.7525 13.9093 17.6225 11.8123 17.625 9.625Z" fill="white"/>
</svg>
