<svg width="22" height="22" viewBox="0 0 22 22" fill="none" xmlns="http://www.w3.org/2000/svg">
<path d="M10.9999 11.8736C7.92374 11.8736 5.42114 9.37095 5.42114 6.29475C5.42114 3.21855 7.92374 0.716553 10.9999 0.716553C14.0761 0.716553 16.5787 3.21915 16.5787 6.29535C16.5787 9.37155 14.0761 11.8736 10.9999 11.8736ZM10.9999 1.24635C8.21654 1.24635 5.95154 3.51135 5.95154 6.29475C5.95154 9.07815 8.21654 11.3432 10.9999 11.3432C13.7833 11.3432 16.0483 9.07815 16.0483 6.29475C16.0483 3.51135 13.7833 1.24635 10.9999 1.24635ZM21.0967 21.2834H0.903139C0.832804 21.2834 0.765349 21.2554 0.715615 21.2057C0.66588 21.1559 0.637939 21.0885 0.637939 21.0182V17.594C0.879739 13.2446 4.79834 12.9824 4.83794 12.98L17.1457 12.9794C17.1997 12.9818 21.1195 13.2446 21.3607 17.579L21.3613 21.0182C21.3615 21.053 21.3548 21.0875 21.3415 21.1197C21.3283 21.1519 21.3088 21.1812 21.2842 21.2058C21.2596 21.2305 21.2304 21.25 21.1982 21.2633C21.1661 21.2766 21.1316 21.2834 21.0967 21.2834ZM1.16834 20.7536H20.8315V17.594C20.6167 13.7432 17.2741 13.517 17.1319 13.5092L4.85294 13.5098C4.72574 13.5176 1.38314 13.7558 1.16834 17.6084V20.7536Z" fill="white"/>
</svg>
