<svg width="18" height="18" viewBox="0 0 18 18" fill="none" xmlns="http://www.w3.org/2000/svg">
<path d="M3.385 10.616H5.589L10.858 5.346C10.9433 5.24733 11.0077 5.144 11.051 5.036C11.0943 4.928 11.116 4.82067 11.116 4.714C11.116 4.60733 11.0933 4.50167 11.048 4.397C11.0033 4.293 10.94 4.19133 10.858 4.092L9.938 3.142C9.852 3.056 9.75267 2.99167 9.64 2.949C9.52733 2.90633 9.416 2.885 9.306 2.885C9.19933 2.885 9.092 2.90633 8.984 2.949C8.876 2.99167 8.77233 3.056 8.673 3.142L3.385 8.412V10.616ZM4.269 9.73V8.78L7.717 5.332L8.179 5.82L8.648 6.301L5.219 9.73H4.269ZM8.179 5.82L8.648 6.301L7.718 5.331L8.179 5.82ZM8.809 10.615H14.616V9.615H9.81L8.809 10.615ZM0 17.077V1.616C0 1.15533 0.154333 0.771 0.463 0.463C0.771667 0.155 1.15567 0.000666667 1.615 0H16.385C16.845 0 17.229 0.154333 17.537 0.463C17.845 0.771667 17.9993 1.156 18 1.616V12.385C18 12.845 17.8457 13.2293 17.537 13.538C17.2283 13.8467 16.8443 14.0007 16.385 14H3.077L0 17.077ZM2.65 13H16.385C16.5383 13 16.6793 12.936 16.808 12.808C16.9367 12.68 17.0007 12.539 17 12.385V1.615C17 1.46167 16.936 1.32067 16.808 1.192C16.68 1.06333 16.539 0.999333 16.385 1H1.615C1.46167 1 1.32067 1.064 1.192 1.192C1.06333 1.32 0.999333 1.461 1 1.615V14.645L2.65 13Z" fill="white"/>
</svg>
