<svg width="20" height="20" viewBox="0 0 20 20" fill="none" xmlns="http://www.w3.org/2000/svg">
<path d="M10 5.875C9.18415 5.875 8.38663 6.11693 7.70827 6.57019C7.02992 7.02345 6.50121 7.66769 6.189 8.42143C5.87679 9.17518 5.7951 10.0046 5.95426 10.8047C6.11343 11.6049 6.50629 12.3399 7.08318 12.9168C7.66008 13.4937 8.39508 13.8866 9.19525 14.0457C9.99542 14.2049 10.8248 14.1232 11.5786 13.811C12.3323 13.4988 12.9766 12.9701 13.4298 12.2917C13.8831 11.6134 14.125 10.8158 14.125 10C14.1238 8.90636 13.6888 7.85787 12.9154 7.08455C12.1421 6.31124 11.0936 5.87624 10 5.875ZM10 13.375C9.33249 13.375 8.67997 13.1771 8.12495 12.8062C7.56993 12.4354 7.13735 11.9083 6.88191 11.2916C6.62646 10.6749 6.55962 9.99626 6.68985 9.34157C6.82007 8.68688 7.14151 8.08552 7.61351 7.61351C8.08552 7.14151 8.68688 6.82007 9.34157 6.68985C9.99626 6.55962 10.6749 6.62646 11.2916 6.88191C11.9083 7.13735 12.4354 7.56993 12.8062 8.12495C13.1771 8.67997 13.375 9.33249 13.375 10C13.375 10.8951 13.0194 11.7535 12.3865 12.3865C11.7535 13.0194 10.8951 13.375 10 13.375ZM14.5 0.625H5.5C4.20753 0.626489 2.96842 1.14058 2.0545 2.0545C1.14058 2.96842 0.626489 4.20753 0.625 5.5V14.5C0.626489 15.7925 1.14058 17.0316 2.0545 17.9455C2.96842 18.8594 4.20753 19.3735 5.5 19.375H14.5C15.7925 19.3735 17.0316 18.8594 17.9455 17.9455C18.8594 17.0316 19.3735 15.7925 19.375 14.5V5.5C19.3735 4.20753 18.8594 2.96842 17.9455 2.0545C17.0316 1.14058 15.7925 0.626489 14.5 0.625ZM18.625 14.5C18.6238 15.5936 18.1888 16.6421 17.4154 17.4154C16.6421 18.1888 15.5936 18.6238 14.5 18.625H5.5C4.40636 18.6238 3.35787 18.1888 2.58455 17.4154C1.81124 16.6421 1.37624 15.5936 1.375 14.5V5.5C1.37624 4.40636 1.81124 3.35787 2.58455 2.58455C3.35787 1.81124 4.40636 1.37624 5.5 1.375H14.5C15.5936 1.37624 16.6421 1.81124 17.4154 2.58455C18.1888 3.35787 18.6238 4.40636 18.625 5.5V14.5ZM15.625 5.125C15.625 5.27334 15.581 5.41834 15.4986 5.54168C15.4162 5.66501 15.2991 5.76114 15.162 5.81791C15.025 5.87468 14.8742 5.88953 14.7287 5.86059C14.5832 5.83165 14.4496 5.76022 14.3447 5.65533C14.2398 5.55044 14.1684 5.4168 14.1394 5.27132C14.1105 5.12583 14.1253 4.97503 14.1821 4.83799C14.2389 4.70094 14.335 4.58381 14.4583 4.5014C14.5817 4.41899 14.7267 4.375 14.875 4.375C15.0739 4.375 15.2647 4.45402 15.4053 4.59467C15.546 4.73532 15.625 4.92609 15.625 5.125Z" fill="white"/>
</svg>
