<svg xmlns="http://www.w3.org/2000/svg" xmlns:xlink="http://www.w3.org/1999/xlink" viewBox="0 0 350 350" width="350" height="350" preserveAspectRatio="xMidYMid meet" style="width: 100%; height: 100%; transform: translate3d(0px, 0px, 0px); content-visibility: visible;"><defs><clipPath id="__lottie_element_942"><rect width="350" height="350" x="0" y="0"></rect></clipPath></defs><g clip-path="url(#__lottie_element_942)"><g transform="matrix(1,0,0,1,175,175)" opacity="1" style="display: block;"><g opacity="1" transform="matrix(1,0,0,1,0,0)"><path stroke-linecap="round" stroke-linejoin="round" fill-opacity="0" stroke="rgb(0,0,0)" stroke-opacity="1" stroke-width="2.074" d=" M37.707000732421875,90.34400177001953 C25.086000442504883,91.1989974975586 25.226999282836914,91.55599975585938 18.371999740600586,92.44300079345703 C8.623000144958496,93.68199920654297 -1.059999942779541,95.2760009765625 -10.701000213623047,97.2020034790039 C-16.958999633789062,98.46199798583984 -17.42300033569336,98.47599792480469 -23.6200008392334,100"></path></g></g><g transform="matrix(0.9986815452575684,-0.05133438855409622,0.05133438855409622,0.9986815452575684,170.07742309570312,175.20343017578125)" opacity="1" style="display: block;"><g opacity="1" transform="matrix(1,0,0,1,0,0)"><g opacity="1" transform="matrix(1,0,0,1,0,0)"><path fill="rgb(255,181,28)" fill-opacity="1" d=" M-34.36399841308594,-80.02200317382812 C-35.297000885009766,-80.42400360107422 -36.64500045776367,-80.35900115966797 -37.57600021362305,-80.34500122070312 C-39,-80.3239974975586 -40.42499923706055,-80.302001953125 -41.8489990234375,-80.28099822998047 C-42.54800033569336,-80.2699966430664 -50.237998962402344,-80.1719970703125 -50.237998962402344,-80.15399932861328 C-51.32500076293945,-79.36699676513672 -51.57400131225586,-77.6240005493164 -51.03200149536133,-76.33699798583984 C-50.4900016784668,-75.05000305175781 -49.305999755859375,-74.18399810791016 -48.05500030517578,-73.76699829101562 C-46.80400085449219,-73.3499984741211 -45.474998474121094,-73.322998046875 -44.16699981689453,-73.2979965209961 C-42.04800033569336,-73.25800323486328 -39.92900085449219,-73.21700286865234 -37.810001373291016,-73.177001953125 C-36.42399978637695,-73.1510009765625 -34.86399841308594,-73.1989974975586 -33.91299819946289,-74.28900146484375 C-33.21099853515625,-75.09300231933594 -33.03200149536133,-76.30400085449219 -33.20000076293945,-77.39399719238281 C-33.32500076293945,-78.20099639892578 -33.38399887084961,-79.46600341796875 -34.36399841308594,-80.02200317382812z"></path></g><g opacity="1" transform="matrix(1,0,0,1,0,0)"><path fill="rgb(64,105,255)" fill-opacity="1" d=" M18.822999954223633,-76.1510009765625 C17.889999389648438,-76.5530014038086 16.54199981689453,-76.48799896240234 15.611000061035156,-76.4739990234375 C14.187000274658203,-76.4530029296875 12.76200008392334,-76.43000030517578 11.338000297546387,-76.40899658203125 C10.638999938964844,-76.39800262451172 2.9489998817443848,-76.3010025024414 2.9489998817443848,-76.28299713134766 C1.8619999885559082,-75.49600219726562 1.6139999628067017,-73.75199890136719 2.1559998989105225,-72.46499633789062 C2.697999954223633,-71.1780014038086 3.88100004196167,-70.31300354003906 5.131999969482422,-69.89600372314453 C6.382999897003174,-69.47899627685547 7.711999893188477,-69.45099639892578 9.020000457763672,-69.4260025024414 C11.138999938964844,-69.38600158691406 13.258000373840332,-69.34500122070312 15.376999855041504,-69.30500030517578 C16.76300048828125,-69.27899932861328 18.322999954223633,-69.3280029296875 19.27400016784668,-70.41799926757812 C19.97599983215332,-71.22200012207031 20.1560001373291,-72.43299865722656 19.988000869750977,-73.52300262451172 C19.863000869750977,-74.33000183105469 19.80299949645996,-75.59500122070312 18.822999954223633,-76.1510009765625z"></path></g><g opacity="1" transform="matrix(1,0,0,1,0,0)"><path fill="rgb(21,205,153)" fill-opacity="1" d=" M59.891998291015625,-71.2699966430664 C58.95899963378906,-71.6719970703125 57.611000061035156,-71.60700225830078 56.68000030517578,-71.59300231933594 C55.25600051879883,-71.5719985961914 53.83100128173828,-71.54900360107422 52.40700149536133,-71.52799987792969 C51.70800018310547,-71.51699829101562 44.018001556396484,-71.41999816894531 44.018001556396484,-71.4020004272461 C42.930999755859375,-70.61499786376953 42.68199920654297,-68.87100219726562 43.2239990234375,-67.58399963378906 C43.76599884033203,-66.2969970703125 44.95000076293945,-65.43199920654297 46.20100021362305,-65.01499938964844 C47.45199966430664,-64.5979995727539 48.78099822998047,-64.56999969482422 50.0890007019043,-64.54499816894531 C52.20800018310547,-64.50499725341797 54.32699966430664,-64.46399688720703 56.44599914550781,-64.42400360107422 C57.832000732421875,-64.39800262451172 59.391998291015625,-64.4469985961914 60.34299850463867,-65.53700256347656 C61.04499816894531,-66.34100341796875 61.2239990234375,-67.552001953125 61.055999755859375,-68.64199829101562 C60.930999755859375,-69.4489974975586 60.87200164794922,-70.71399688720703 59.891998291015625,-71.2699966430664z"></path></g></g><g opacity="1" transform="matrix(1,0,0,1,0,0)"><path stroke-linecap="round" stroke-linejoin="round" fill-opacity="0" stroke="rgb(0,0,0)" stroke-opacity="1" stroke-width="2.074" d=" M-79.11900329589844,-70.37000274658203 C-79.11900329589844,-70.37000274658203 -79.11900329589844,58.992000579833984 -79.11900329589844,58.992000579833984 C-79.11900329589844,61.0880012512207 -77.2040023803711,62.6609992980957 -75.14800262451172,62.255001068115234 C-75.14800262451172,62.255001068115234 59.28799819946289,35.72200012207031 59.28799819946289,35.72200012207031 C60.90599822998047,35.40299987792969 62.04600143432617,33.94599914550781 61.96699905395508,32.29899978637695 C61.96699905395508,32.29899978637695 57.59700012207031,-59.0260009765625 57.59700012207031,-59.0260009765625 C57.518001556396484,-60.6870002746582 56.2239990234375,-62.03499984741211 54.56800079345703,-62.180999755859375 C54.56800079345703,-62.180999755859375 -75.5,-73.68299865722656 -75.5,-73.68299865722656 C-77.44499969482422,-73.8550033569336 -79.11900329589844,-72.322998046875 -79.11900329589844,-70.37000274658203z"></path></g><g opacity="1" transform="matrix(1,0,0,1,0,0)"><path stroke-linecap="round" stroke-linejoin="round" fill-opacity="0" stroke="rgb(0,0,0)" stroke-opacity="1" stroke-width="2.074" d=" M-65.85900115966797,-73.1719970703125 C-66.45999908447266,-77.74400329589844 -66.49400329589844,-83.44599914550781 -65.96299743652344,-88.0270004272461 C-65.677001953125,-90.49500274658203 -65.21099853515625,-92.99099731445312 -64.0459976196289,-95.18499755859375 C-62.88100051879883,-97.37899780273438 -60.922000885009766,-99.25700378417969 -58.50299835205078,-99.8239974975586 C-55.1349983215332,-100.61299896240234 -51.56800079345703,-98.65899658203125 -49.59299850463867,-95.81900024414062 C-47.61800003051758,-92.97899627685547 -46.79800033569336,-88.13400268554688 -46.55799865722656,-84.68399810791016"></path></g><g opacity="1" transform="matrix(1,0,0,1,0,0)"><path stroke-linecap="round" stroke-linejoin="round" fill-opacity="0" stroke="rgb(0,0,0)" stroke-opacity="1" stroke-width="2.074" d=" M-12.5600004196167,-68.88800048828125 C-13.16100025177002,-73.45999908447266 -13.194999694824219,-79.16200256347656 -12.663999557495117,-83.74299621582031 C-12.378000259399414,-86.21099853515625 -11.911999702453613,-88.70700073242188 -10.746999740600586,-90.9010009765625 C-9.581999778747559,-93.09500122070312 -7.623000144958496,-94.9729995727539 -5.203999996185303,-95.54000091552734 C-1.8359999656677246,-96.3290023803711 1.7309999465942383,-94.375 3.7060000896453857,-91.53500366210938 C5.681000232696533,-88.69499969482422 6.500999927520752,-83.8499984741211 6.741000175476074,-80.4000015258789"></path></g><g opacity="1" transform="matrix(1,0,0,1,0,0)"><path stroke-linecap="round" stroke-linejoin="round" fill-opacity="0" stroke="rgb(0,0,0)" stroke-opacity="1" stroke-width="2.074" d=" M29.46500015258789,-64.27300262451172 C28.86400032043457,-68.84500122070312 28.829999923706055,-74.5479965209961 29.361000061035156,-79.12899780273438 C29.64699935913086,-81.59700012207031 30.113000869750977,-84.09200286865234 31.277999877929688,-86.28600311279297 C32.44300079345703,-88.4800033569336 34.40299987792969,-90.35800170898438 36.821998596191406,-90.92500305175781 C40.189998626708984,-91.71399688720703 43.75600051879883,-89.76000213623047 45.73099899291992,-86.91999816894531 C47.70600128173828,-84.08000183105469 48.5260009765625,-79.23500061035156 48.76599884033203,-75.78500366210938"></path></g><g opacity="1" transform="matrix(1,0,0,1,0,0)"><path stroke-linecap="round" stroke-linejoin="round" fill-opacity="0" stroke="rgb(0,0,0)" stroke-opacity="1" stroke-width="2.074" d=" M-38.459999084472656,-83.9469985961914 C-39.393001556396484,-84.3489990234375 -40.74100112915039,-84.28399658203125 -41.672000885009766,-84.2699966430664 C-43.09600067138672,-84.2490005493164 -44.520999908447266,-84.22699737548828 -45.94499969482422,-84.20600128173828 C-46.64400100708008,-84.19499969482422 -54.33399963378906,-84.09700012207031 -54.33399963378906,-84.0790023803711 C-55.42100143432617,-83.29199981689453 -55.66999816894531,-81.54900360107422 -55.12799835205078,-80.26200103759766 C-54.58599853515625,-78.9749984741211 -53.402000427246094,-78.11000061035156 -52.1510009765625,-77.69300079345703 C-50.900001525878906,-77.2760009765625 -49.57099914550781,-77.24800109863281 -48.26300048828125,-77.2229995727539 C-46.14400100708008,-77.18299865722656 -44.025001525878906,-77.14199829101562 -41.90599822998047,-77.10199737548828 C-40.52000045776367,-77.07599639892578 -38.959999084472656,-77.1240005493164 -38.00899887084961,-78.21399688720703 C-37.30699920654297,-79.01799774169922 -37.12799835205078,-80.22899627685547 -37.29600143432617,-81.31900024414062 C-37.42100143432617,-82.1259994506836 -37.47999954223633,-83.39099884033203 -38.459999084472656,-83.9469985961914z"></path></g><g opacity="1" transform="matrix(1,0,0,1,0,0)"><path stroke-linecap="round" stroke-linejoin="round" fill-opacity="0" stroke="rgb(0,0,0)" stroke-opacity="1" stroke-width="2.074" d=" M14.72700023651123,-80.07599639892578 C13.793999671936035,-80.47799682617188 12.446000099182129,-80.41300201416016 11.515000343322754,-80.39900207519531 C10.090999603271484,-80.37799835205078 8.666000366210938,-80.35600280761719 7.242000102996826,-80.33499908447266 C6.543000221252441,-80.3239974975586 -1.1469999551773071,-80.22599792480469 -1.1469999551773071,-80.20800018310547 C-2.2339999675750732,-79.4209976196289 -2.4830000400543213,-77.6780014038086 -1.940999984741211,-76.39099884033203 C-1.3990000486373901,-75.10399627685547 -0.2150000035762787,-74.23799896240234 1.0360000133514404,-73.82099914550781 C2.2869999408721924,-73.40399932861328 3.615999937057495,-73.37699890136719 4.923999786376953,-73.35199737548828 C7.043000221252441,-73.31199645996094 9.161999702453613,-73.27100372314453 11.281000137329102,-73.23100280761719 C12.666999816894531,-73.20500183105469 14.22700023651123,-73.25299835205078 15.178000450134277,-74.34300231933594 C15.880000114440918,-75.14700317382812 16.05900001525879,-76.35800170898438 15.890999794006348,-77.447998046875 C15.765999794006348,-78.25499725341797 15.706999778747559,-79.5199966430664 14.72700023651123,-80.07599639892578z"></path></g><g opacity="1" transform="matrix(1,0,0,1,0,0)"><path stroke-linecap="round" stroke-linejoin="round" fill-opacity="0" stroke="rgb(0,0,0)" stroke-opacity="1" stroke-width="2.074" d=" M55.79499816894531,-75.19499969482422 C54.86199951171875,-75.59700012207031 53.51499938964844,-75.53199768066406 52.58399963378906,-75.51799774169922 C51.15999984741211,-75.49700164794922 49.73400115966797,-75.4749984741211 48.310001373291016,-75.4540023803711 C47.611000061035156,-75.44300079345703 39.92100143432617,-75.34500122070312 39.92100143432617,-75.3270034790039 C38.83399963378906,-74.54000091552734 38.58599853515625,-72.7969970703125 39.12799835205078,-71.51000213623047 C39.66999816894531,-70.2229995727539 40.85300064086914,-69.35700225830078 42.104000091552734,-68.94000244140625 C43.35499954223633,-68.52300262451172 44.683998107910156,-68.49500274658203 45.992000579833984,-68.47000122070312 C48.111000061035156,-68.43000030517578 50.22999954223633,-68.38999938964844 52.3489990234375,-68.3499984741211 C53.73500061035156,-68.3239974975586 55.29600143432617,-68.37200164794922 56.24700164794922,-69.46199798583984 C56.94900131225586,-70.26599884033203 57.12799835205078,-71.47699737548828 56.959999084472656,-72.56700134277344 C56.834999084472656,-73.3740005493164 56.775001525878906,-74.63899993896484 55.79499816894531,-75.19499969482422z"></path></g><g opacity="1" transform="matrix(1,0,0,1,0,0)"><path stroke-linecap="round" stroke-linejoin="round" fill-opacity="0" stroke="rgb(0,0,0)" stroke-opacity="1" stroke-width="2.074" d=" M16.20400047302246,92.35099792480469 C7.447999954223633,94.03500366210938 -1.7430000305175781,95.89900207519531 -11.468999862670898,97.34200286865234 C-11.85099983215332,82.08899688720703 -10.593999862670898,64.9469985961914 -10.97599983215332,49.582000732421875 C-10.97599983215332,49.582000732421875 11.777000427246094,44.8489990234375 11.777000427246094,44.8489990234375 C13.284000396728516,60.05799865722656 14.824000358581543,75.84700012207031 16.246000289916992,91.12300109863281 C16.288000106811523,91.5469970703125 16.288999557495117,91.9489974975586 16.20400047302246,92.35099792480469z"></path></g><g opacity="1" transform="matrix(0.9999903440475464,0,0,0.9999903440475464,-0.000331878662109375,-0.000244140625)"><g opacity="1" transform="matrix(1,0,0,1,0,0)"><path stroke-linecap="round" stroke-linejoin="round" fill-opacity="0" stroke="rgb(0,0,0)" stroke-opacity="1" stroke-width="2.074" d=" M-63.20500183105469,-51.763999938964844 C-63.20500183105469,-51.763999938964844 -63.20500183105469,1.3910000324249268 -63.20500183105469,1.3910000324249268 C-63.20500183105469,2.252000093460083 -62.417999267578125,2.8989999294281006 -61.573001861572266,2.7320001125335693 C-61.573001861572266,2.7320001125335693 -6.333000183105469,-8.170000076293945 -6.333000183105469,-8.170000076293945 C-5.668000221252441,-8.300999641418457 -5.199999809265137,-8.899999618530273 -5.23199987411499,-9.57699966430664 C-5.23199987411499,-9.57699966430664 -7.0279998779296875,-47.10300064086914 -7.0279998779296875,-47.10300064086914 C-7.060999870300293,-47.7859992980957 -7.5920000076293945,-48.3390007019043 -8.27299976348877,-48.39899826049805 C-8.27299976348877,-48.39899826049805 -61.71799850463867,-53.125999450683594 -61.71799850463867,-53.125999450683594 C-62.516998291015625,-53.196998596191406 -63.20500183105469,-52.566001892089844 -63.20500183105469,-51.763999938964844z"></path></g><g opacity="1" transform="matrix(1,0,0,1,0,0)"><g opacity="1" transform="matrix(1,0,0,1,0,0)"><g opacity="1" transform="matrix(1,0,0,1,0,0)"><path stroke-linecap="round" stroke-linejoin="round" fill-opacity="0" stroke="rgb(0,0,0)" stroke-opacity="1" stroke-width="2.074" d=" M-51.68000030517578,-13.737000465393066 C-49.992000579833984,-22.239999771118164 -48.30500030517578,-30.742000579833984 -46.617000579833984,-39.244998931884766 C-43.19300079345703,-31.96299934387207 -39.79399871826172,-25.128999710083008 -36.369998931884766,-17.847000122070312"></path></g><g opacity="1" transform="matrix(1,0,0,1,0,0)"><path stroke-linecap="round" stroke-linejoin="round" fill-opacity="0" stroke="rgb(0,0,0)" stroke-opacity="1" stroke-width="2.074" d=" M-48.54800033569336,-25.159000396728516 C-46.15700149536133,-25.31399917602539 -43.76499938964844,-25.468000411987305 -41.374000549316406,-25.62299919128418"></path></g></g><g opacity="1" transform="matrix(1,0,0,1,0,0)"><path stroke-linecap="round" stroke-linejoin="round" fill-opacity="0" stroke="rgb(0,0,0)" stroke-opacity="1" stroke-width="2.074" d=" M-31.785999298095703,-18.781999588012695 C-32.67499923706055,-25.785999298095703 -33.564998626708984,-32.790000915527344 -34.45399856567383,-39.79399871826172 C-30.069000244140625,-41.10300064086914 -24.999000549316406,-40.38800048828125 -21.902999877929688,-37.018001556396484 C-18.80699920654297,-33.64799880981445 -17.983999252319336,-28.316999435424805 -20.093000411987305,-24.256000518798828 C-22.20199966430664,-20.19499969482422 -27.334999084472656,-17.7189998626709 -31.785999298095703,-18.781999588012695z"></path></g></g></g><g opacity="1" transform="matrix(1,0,0,1,-0.647216796875,23.800750732421875)"><g opacity="1" transform="matrix(1,0,0,1,0,0)"><path stroke-linecap="round" stroke-linejoin="round" fill-opacity="0" stroke="rgb(0,0,0)" stroke-opacity="1" stroke-width="2.074" d=" M68.93099975585938,-35.875 C69.99400329589844,-21.14699935913086 71.05500030517578,-6.418000221252441 72.11799621582031,8.3100004196167"></path></g><g opacity="1" transform="matrix(1,0,0,1,0,0)"><path stroke-linecap="round" stroke-linejoin="round" fill-opacity="0" stroke="rgb(0,0,0)" stroke-opacity="1" stroke-width="2.074" d=" M76.78500366210938,-29.47599983215332 C77.56300354003906,-22.15399932861328 78.34100341796875,-14.831999778747559 79.11900329589844,-7.510000228881836"></path></g></g><g opacity="1" transform="matrix(1,0,0,1,0,0)"><path stroke-linecap="round" stroke-linejoin="round" fill-opacity="0" stroke="rgb(0,0,0)" stroke-opacity="1" stroke-width="2.074" d=" M10.02299976348877,-30.91200065612793 C10.057999610900879,-34.12200164794922 12.196999549865723,-37.20899963378906 15.1899995803833,-38.369998931884766 C18.183000564575195,-39.53099822998047 21.8439998626709,-38.69300079345703 24.034000396728516,-36.34600067138672 C25.07699966430664,-35.22800064086914 25.78499984741211,-33.83700180053711 26.785999298095703,-32.680999755859375 C27.78700065612793,-31.524999618530273 29.25200080871582,-30.576000213623047 30.76099967956543,-30.825000762939453 C32.57099914550781,-31.124000549316406 33.64799880981445,-32.92599868774414 34.82099914550781,-34.33700180053711 C38.722999572753906,-39.029998779296875 46.220001220703125,-40.220001220703125 51.382999420166016,-36.9640007019043"></path></g><g opacity="1" transform="matrix(1,0,0,1,0,0)"><path stroke-linecap="round" stroke-linejoin="round" fill-opacity="0" stroke="rgb(0,0,0)" stroke-opacity="1" stroke-width="2.074" d=" M16.319000244140625,-9.598999977111816 C16.466999053955078,-12.404999732971191 18.458999633789062,-15.024999618530273 21.12299919128418,-15.918000221252441 C23.78700065612793,-16.81100082397461 26.954999923706055,-15.920999526977539 28.764999389648438,-13.772000312805176 C29.979999542236328,-12.32800006866455 30.718000411987305,-10.315999984741211 32.45800018310547,-9.585000038146973 C34.37300109863281,-8.779999732971191 36.5620002746582,-9.96500015258789 38.007999420166016,-11.456999778747559 C39.45399856567383,-12.949000358581543 40.57600021362305,-14.807999610900879 42.347999572753906,-15.892999649047852 C44.119998931884766,-16.97800064086914 46.91999816894531,-16.836999893188477 47.76300048828125,-14.937999725341797"></path></g><g opacity="1" transform="matrix(1,0,0,1,0,0)"><path stroke-linecap="round" stroke-linejoin="round" fill-opacity="0" stroke="rgb(0,0,0)" stroke-opacity="1" stroke-width="2.074" d=" M-45.52000045776367,28.166000366210938 C-43.6349983215332,24.011999130249023 -39.624000549316406,20.89299964904785 -35.13399887084961,20.090999603271484 C-30.643999099731445,19.288999557495117 -25.799999237060547,20.823999404907227 -22.593000411987305,24.06800079345703 C-19.570999145507812,27.125 -16.940000534057617,32.00600051879883 -12.685999870300293,31.38800048828125 C-9.61400032043457,30.941999435424805 -7.835999965667725,27.673999786376953 -7.008999824523926,24.68199920654297 C-6.182000160217285,21.690000534057617 -5.689000129699707,18.35300064086914 -3.4200000762939453,16.233999252319336 C-0.06800000369548798,13.102999687194824 5.310999870300293,14.201000213623047 9.60200023651123,15.819999694824219 C13.892999649047852,17.43899917602539 18.726999282836914,19.382999420166016 22.861000061035156,17.398000717163086 C26.847000122070312,15.484000205993652 29.020000457763672,10.321999549865723 33.39099884033203,9.652999877929688 C36.720001220703125,9.144000053405762 39.70100021362305,11.51099967956543 42.73699951171875,12.968999862670898 C45.77299880981445,14.427000045776367 50.402000427246094,14.395000457763672 51.45800018310547,11.196999549865723"></path></g></g></g></svg>