<svg width="39" height="39" viewBox="0 0 39 39" fill="none" xmlns="http://www.w3.org/2000/svg">
<g clip-path="url(#clip0_1453_6709)">
<path d="M21.1443 39.1741C21.0622 37.6079 21.0589 36.0416 21.052 34.4754C21.0476 33.4761 20.9368 33.3738 19.9382 33.4988C16.1159 33.9772 12.294 34.4586 8.47268 34.9445C7.09549 35.1196 6.95442 34.9945 6.95481 33.6214C6.95628 28.3423 6.94909 23.0632 6.95079 17.7842C6.95097 17.2429 6.84294 16.6482 7.5132 16.392C6.72673 14.9951 5.44862 13.9575 3.79682 13.3428C3.46137 14.5971 3.39311 14.6325 2.08767 14.2737C1.89348 14.2204 1.69282 14.1838 1.49272 14.1598C0.349128 14.0226 0.320349 13.9821 0.585238 12.7343C1.08907 12.6867 1.56803 12.6233 1.57569 11.8773C1.58122 11.3393 2.07224 11.4263 2.45044 11.5019C4.94194 11.9999 7.00348 13.2136 8.49194 15.286C8.90134 15.856 9.28404 16.0061 9.93593 15.8124C12.1575 15.152 14.3909 14.5315 16.6182 13.8907C16.7788 13.8445 16.9275 13.7571 17.1812 13.6447C16.3694 11.9438 15.2176 10.6221 13.6144 9.72586C13.0393 9.40435 12.3984 9.16887 11.7594 9.00211C11.114 8.83371 11.2186 8.40942 11.3036 7.99053C11.4072 7.48021 11.7987 7.61036 12.1375 7.69147C14.8528 8.34166 16.76 10.0482 18.0849 12.4154C18.5361 13.2218 18.9632 13.336 19.7978 13.0643C21.6696 12.4549 23.579 11.9615 25.4721 11.4172C25.7446 11.3389 26.0114 11.2406 26.4261 11.1035C25.655 9.25432 24.7116 7.64 23.1099 6.47752C22.7211 6.19532 22.506 6.49708 22.3548 6.77354C22.0838 7.26931 21.765 7.29609 21.2846 7.0566C20.8748 6.85229 20.4146 6.73547 19.9652 6.62741C19.4205 6.4964 19.1801 6.2396 19.3253 5.64572C19.4798 5.01396 19.8796 5.20555 20.2736 5.28696C20.3532 5.3034 20.4428 5.27096 20.5217 5.26177C21.1484 3.99099 21.1595 3.96627 22.5518 4.58982C24.8822 5.63349 26.3193 7.54287 27.3153 9.79285C27.6608 10.5734 27.9842 10.7561 28.7992 10.5056C31.3185 9.73138 33.8578 9.01979 36.4023 8.33193C37.1712 8.12407 37.2908 7.82385 36.9591 7.11111C36.0499 5.1574 34.9207 3.40769 32.9893 2.27316C33.1286 3.15437 32.624 3.62348 31.8812 3.34403C31.4748 3.19116 31.0693 3.03045 30.6523 2.91244C29.7149 2.64711 29.6864 2.60635 29.9801 1.56053C30.3615 1.34432 30.7698 1.6417 31.1567 1.52356C31.6906 0.280994 31.7138 0.256356 33.0473 0.828884C35.7751 2.00013 37.2456 4.28444 38.339 6.88863C38.4842 7.23455 38.5482 7.63657 39.1116 7.64766C39.1741 15.4411 39.1741 23.2215 39.0973 31.085C33.8254 31.8092 28.6328 32.4714 23.4328 33.0695C22.6152 33.1636 22.4435 33.491 22.4597 34.2214C22.4963 35.8715 22.4641 37.5231 22.4598 39.1741C22.0471 39.1741 21.6344 39.1741 21.1443 39.1741ZM8.36138 20.632C8.36138 23.6052 8.36138 26.5784 8.36138 29.6331C8.95789 29.5786 9.39028 29.5609 9.8157 29.4968C13.1345 28.9972 16.4502 28.4761 19.7704 27.9857C25.4115 27.1524 31.0538 26.3272 36.6993 25.5245C37.5179 25.4081 37.7747 25.0615 37.7667 24.224C37.7231 19.6431 37.7462 15.0616 37.739 10.4803C37.7385 10.1725 37.8227 9.84079 37.5901 9.55194C37.3919 9.45657 37.1997 9.53738 37.0069 9.59083C35.1368 10.1091 33.2644 10.6191 31.3974 11.1478C24.6267 13.0653 17.8573 14.9878 11.0886 16.9124C10.2279 17.1571 9.12825 17.1277 8.58222 17.7602C7.99296 18.4428 8.4396 19.544 8.36138 20.632ZM26.6611 31.2714C27.4658 31.1691 28.2694 31.0566 29.0757 30.9691C29.4663 30.9267 29.7532 30.8146 29.7517 30.3554C29.7495 29.7174 29.7574 29.0793 29.7522 28.4412C29.7493 28.0868 29.6064 27.9213 29.2077 27.9809C27.2027 28.2801 25.1936 28.5519 23.1888 28.8526C22.8874 28.8978 22.5078 28.9568 22.5003 29.3842C22.4867 30.1562 22.3887 30.9361 22.6077 31.7683C23.9329 31.6048 25.2192 31.446 26.6611 31.2714ZM32.5946 30.5642C34.0822 30.3586 35.5698 30.152 37.0576 29.9481C37.3813 29.9037 37.7255 29.875 37.7255 29.4343C37.7254 28.575 37.8147 27.711 37.6491 26.7595C35.6395 27.0571 33.6739 27.3458 31.7094 27.6421C31.4332 27.6838 31.2002 27.8221 31.1976 28.1389C31.1911 28.9677 31.0937 29.8026 31.2873 30.6565C31.7032 30.6274 32.0741 30.6014 32.5946 30.5642ZM19.87 32.1468C20.7834 32.1619 21.1927 31.734 21.0614 30.8108C21.0331 30.6119 21.0347 30.403 21.0596 30.2033C21.1649 29.3558 20.7067 29.2197 20.0106 29.3337C18.9257 29.5115 17.8394 29.6825 16.751 29.8378C14.8873 30.1039 14.8965 30.1047 15.0015 32.0129C15.0314 32.5554 15.2154 32.7116 15.7521 32.6358C17.0703 32.4496 18.3956 32.3134 19.87 32.1468ZM13.503 32.6768C13.6327 32.1036 13.5548 31.5237 13.5596 30.9464C13.5633 30.4959 13.3455 30.3149 12.9035 30.3855C11.5914 30.5952 10.2799 30.8099 8.96563 31.0059C8.59746 31.0608 8.36188 31.2076 8.37471 31.6054C8.39401 32.2034 8.28523 32.8107 8.48557 33.501C10.1548 33.3336 11.8133 33.262 13.503 32.6768Z" fill="white"/>
<path d="M11.9275 9.82795C11.4545 9.66937 11.0484 9.50846 10.6271 9.41925C10.0828 9.304 9.92731 9.01925 10.0294 8.48368C10.1509 7.84623 10.5702 7.9843 10.954 8.09327C11.5085 8.25073 12.0618 8.42809 12.5903 8.6556C12.9143 8.79506 13.4825 8.84371 13.1587 9.46998C12.8937 9.98251 12.5426 10.2259 11.9275 9.82795Z" fill="white"/>
</g>
<defs>
<clipPath id="clip0_1453_6709">
<rect width="39" height="39" fill="white"/>
</clipPath>
</defs>
</svg>
