<svg width="13" height="13" viewBox="0 0 13 13" fill="none" xmlns="http://www.w3.org/2000/svg">
<path d="M11.32 1L7.6586 11.1393C7.63389 11.1932 7.59421 11.2389 7.54428 11.2709C7.49436 11.303 7.43628 11.32 7.37696 11.32C7.31763 11.32 7.25956 11.303 7.20963 11.2709C7.1597 11.2389 7.12002 11.1932 7.09531 11.1393L5.12379 7.19621L1.18074 5.22469C1.12681 5.19998 1.08111 5.1603 1.04907 5.11037C1.01703 5.06044 1 5.00237 1 4.94304C1 4.88372 1.01703 4.82564 1.04907 4.77572C1.08111 4.72579 1.12681 4.68611 1.18074 4.6614L11.32 1Z" stroke="#1A91FF" stroke-width="1.5" stroke-linecap="round" stroke-linejoin="round"/>
</svg>
