<svg width="99" height="74" viewBox="0 0 99 74" fill="none" xmlns="http://www.w3.org/2000/svg">
<line x1="10" y1="30.5" x2="90" y2="30.5" stroke="#FFED00"/>
<path d="M0.570624 6.85107H5.34222L9.93673 15.5285H10.1335L14.728 6.85107H19.4996L12.1504 19.877V27H7.91987V19.877L0.570624 6.85107ZM26.5772 27.2952C25.0227 27.2952 23.6847 26.9803 22.5632 26.3507C21.4481 25.7145 20.5889 24.8159 19.9855 23.655C19.3821 22.4875 19.0804 21.1068 19.0804 19.513C19.0804 17.9586 19.3821 16.5943 19.9855 15.4203C20.5889 14.2462 21.4383 13.3313 22.5336 12.6754C23.6355 12.0195 24.9276 11.6915 26.4099 11.6915C27.4069 11.6915 28.335 11.8522 29.1942 12.1736C30.06 12.4884 30.8142 12.964 31.457 13.6002C32.1063 14.2364 32.6114 15.0366 32.9721 16.0007C33.3329 16.9583 33.5132 18.0799 33.5132 19.3654V20.5165H20.7529V17.9192H29.5681C29.5681 17.3158 29.4369 16.7812 29.1745 16.3156C28.9122 15.8499 28.5481 15.4859 28.0825 15.2235C27.6233 14.9546 27.0888 14.8201 26.4788 14.8201C25.8426 14.8201 25.2785 14.9677 24.7866 15.2629C24.3013 15.5514 23.9208 15.9417 23.6454 16.4336C23.3699 16.919 23.2289 17.4601 23.2223 18.0569V20.5264C23.2223 21.2741 23.3601 21.9201 23.6355 22.4645C23.9176 23.0089 24.3144 23.4287 24.826 23.7238C25.3376 24.019 25.9443 24.1666 26.6461 24.1666C27.1117 24.1666 27.5381 24.101 27.9251 23.9698C28.312 23.8386 28.6433 23.6418 28.9187 23.3795C29.1942 23.1171 29.4041 22.7957 29.5484 22.4153L33.4247 22.6711C33.2279 23.6025 32.8245 24.4158 32.2146 25.111C31.6112 25.7997 30.8306 26.3376 29.873 26.7245C28.922 27.1049 27.8234 27.2952 26.5772 27.2952ZM41.5476 6.85107V27H37.3565V6.85107H41.5476ZM50.2043 6.85107V27H46.0131V6.85107H50.2043ZM61.4976 27.2952C59.9694 27.2952 58.6478 26.9705 57.5328 26.3212C56.4243 25.6653 55.5684 24.7536 54.9649 23.5861C54.3615 22.4121 54.0598 21.0511 54.0598 19.5032C54.0598 17.9422 54.3615 16.5779 54.9649 15.4104C55.5684 14.2364 56.4243 13.3247 57.5328 12.6754C58.6478 12.0195 59.9694 11.6915 61.4976 11.6915C63.0258 11.6915 64.3442 12.0195 65.4526 12.6754C66.5676 13.3247 67.4268 14.2364 68.0303 15.4104C68.6337 16.5779 68.9354 17.9422 68.9354 19.5032C68.9354 21.0511 68.6337 22.4121 68.0303 23.5861C67.4268 24.7536 66.5676 25.6653 65.4526 26.3212C64.3442 26.9705 63.0258 27.2952 61.4976 27.2952ZM61.5173 24.0485C62.2125 24.0485 62.793 23.8517 63.2587 23.4582C63.7244 23.0581 64.0753 22.5137 64.3114 21.825C64.5541 21.1363 64.6754 20.3526 64.6754 19.4737C64.6754 18.5948 64.5541 17.811 64.3114 17.1223C64.0753 16.4336 63.7244 15.8892 63.2587 15.4891C62.793 15.089 62.2125 14.889 61.5173 14.889C60.8155 14.889 60.2252 15.089 59.7464 15.4891C59.2741 15.8892 58.9167 16.4336 58.674 17.1223C58.4379 17.811 58.3198 18.5948 58.3198 19.4737C58.3198 20.3526 58.4379 21.1363 58.674 21.825C58.9167 22.5137 59.2741 23.0581 59.7464 23.4582C60.2252 23.8517 60.8155 24.0485 61.5173 24.0485ZM75.3711 27L71.2586 11.8883H75.4989L77.8405 22.0415H77.9782L80.4181 11.8883H84.5797L87.059 21.9824H87.1869L89.4891 11.8883H93.7196L89.617 27H85.1799L82.5826 17.4962H82.3956L79.7983 27H75.3711Z" fill="#FFED00"/>
<path d="M60.973 63.5455C60.973 64.7351 60.7475 65.7472 60.2965 66.5817C59.8491 67.4162 59.2383 68.0536 58.4641 68.494C57.6935 68.9308 56.8271 69.1491 55.8647 69.1491C54.8952 69.1491 54.0252 68.929 53.2546 68.4886C52.484 68.0483 51.875 67.4109 51.4276 66.5763C50.9801 65.7418 50.7564 64.7315 50.7564 63.5455C50.7564 62.3558 50.9801 61.3438 51.4276 60.5092C51.875 59.6747 52.484 59.0391 53.2546 58.6023C54.0252 58.1619 54.8952 57.9418 55.8647 57.9418C56.8271 57.9418 57.6935 58.1619 58.4641 58.6023C59.2383 59.0391 59.8491 59.6747 60.2965 60.5092C60.7475 61.3438 60.973 62.3558 60.973 63.5455ZM58.6346 63.5455C58.6346 62.7749 58.5192 62.125 58.2884 61.5959C58.0611 61.0668 57.7397 60.6655 57.3242 60.392C56.9087 60.1186 56.4222 59.9819 55.8647 59.9819C55.3072 59.9819 54.8207 60.1186 54.4052 60.392C53.9897 60.6655 53.6665 61.0668 53.4357 61.5959C53.2085 62.125 53.0948 62.7749 53.0948 63.5455C53.0948 64.3161 53.2085 64.9659 53.4357 65.495C53.6665 66.0241 53.9897 66.4254 54.4052 66.6989C54.8207 66.9723 55.3072 67.109 55.8647 67.109C56.4222 67.109 56.9087 66.9723 57.3242 66.6989C57.7397 66.4254 58.0611 66.0241 58.2884 65.495C58.5192 64.9659 58.6346 64.3161 58.6346 63.5455ZM73.3064 63.5455C73.3064 64.7351 73.0809 65.7472 72.6299 66.5817C72.1825 67.4162 71.5717 68.0536 70.7975 68.494C70.0269 68.9308 69.1605 69.1491 68.1981 69.1491C67.2286 69.1491 66.3586 68.929 65.588 68.4886C64.8174 68.0483 64.2084 67.4109 63.761 66.5763C63.3135 65.7418 63.0898 64.7315 63.0898 63.5455C63.0898 62.3558 63.3135 61.3438 63.761 60.5092C64.2084 59.6747 64.8174 59.0391 65.588 58.6023C66.3586 58.1619 67.2286 57.9418 68.1981 57.9418C69.1605 57.9418 70.0269 58.1619 70.7975 58.6023C71.5717 59.0391 72.1825 59.6747 72.6299 60.5092C73.0809 61.3438 73.3064 62.3558 73.3064 63.5455ZM70.968 63.5455C70.968 62.7749 70.8526 62.125 70.6218 61.5959C70.3945 61.0668 70.0731 60.6655 69.6576 60.392C69.2421 60.1186 68.7556 59.9819 68.1981 59.9819C67.6406 59.9819 67.1541 60.1186 66.7386 60.392C66.3231 60.6655 65.9999 61.0668 65.7691 61.5959C65.5419 62.125 65.4282 62.7749 65.4282 63.5455C65.4282 64.3161 65.5419 64.9659 65.7691 65.495C65.9999 66.0241 66.3231 66.4254 66.7386 66.6989C67.1541 66.9723 67.6406 67.109 68.1981 67.109C68.7556 67.109 69.2421 66.9723 69.6576 66.6989C70.0731 66.4254 70.3945 66.0241 70.6218 65.495C70.8526 64.9659 70.968 64.3161 70.968 63.5455ZM75.615 69V58.0909H77.9214V62.592H82.6036V58.0909H84.9047V69H82.6036V64.4936H77.9214V69H75.615Z" fill="#FFED00"/>
<path d="M26.9119 42.6925L22.8956 42.9396C22.8269 42.5964 22.6793 42.2874 22.4528 42.0128C22.2262 41.7313 21.9276 41.5082 21.5568 41.3434C21.1929 41.1718 20.757 41.0859 20.2489 41.0859C19.5692 41.0859 18.996 41.2301 18.5291 41.5185C18.0623 41.8 17.8288 42.1776 17.8288 42.6513C17.8288 43.0289 17.9799 43.3481 18.282 43.609C18.584 43.8699 19.1024 44.0793 19.837 44.2372L22.6999 44.8139C24.2378 45.1297 25.3844 45.6378 26.1396 46.3381C26.8948 47.0384 27.2724 47.9583 27.2724 49.098C27.2724 50.1347 26.9669 51.0444 26.3558 51.8271C25.7517 52.6097 24.9209 53.2208 23.8636 53.6602C22.8132 54.0927 21.6014 54.3089 20.2283 54.3089C18.1344 54.3089 16.466 53.873 15.2234 53.0011C13.9876 52.1223 13.2633 50.9277 13.0504 49.4173L17.3654 49.1907C17.4959 49.8292 17.8117 50.3166 18.3129 50.6531C18.814 50.9826 19.456 51.1474 20.2386 51.1474C21.0076 51.1474 21.6255 50.9998 22.0923 50.7045C22.5661 50.4025 22.8063 50.0146 22.8132 49.5408C22.8063 49.1426 22.6381 48.8165 22.3086 48.5625C21.979 48.3016 21.471 48.1025 20.7844 47.9652L18.0451 47.4194C16.5004 47.1104 15.3504 46.5749 14.5952 45.8129C13.8468 45.0508 13.4727 44.0793 13.4727 42.8984C13.4727 41.8823 13.7473 41.007 14.2965 40.2724C14.8526 39.5378 15.6319 38.9714 16.6342 38.5732C17.6435 38.175 18.8243 37.9759 20.1768 37.9759C22.1747 37.9759 23.7469 38.3981 24.8935 39.2425C26.0469 40.087 26.7197 41.237 26.9119 42.6925ZM31.1949 59.9318V38.1818H35.5202V40.8388H35.7158C35.9081 40.4131 36.1861 39.9806 36.55 39.5412C36.9207 39.0949 37.4013 38.7242 37.9918 38.429C38.5891 38.1269 39.3305 37.9759 40.2162 37.9759C41.3696 37.9759 42.4338 38.2779 43.4087 38.8821C44.3836 39.4794 45.1628 40.3822 45.7464 41.5906C46.33 42.792 46.6217 44.299 46.6217 46.1115C46.6217 47.8759 46.3368 49.3658 45.767 50.581C45.204 51.7893 44.4351 52.7058 43.4602 53.3306C42.4921 53.9485 41.4074 54.2575 40.2059 54.2575C39.3546 54.2575 38.6303 54.1167 38.033 53.8352C37.4425 53.5537 36.9585 53.2002 36.5809 52.7745C36.2033 52.342 35.9149 51.906 35.7158 51.4666H35.582V59.9318H31.1949ZM35.4893 46.0909C35.4893 47.0315 35.6197 47.8519 35.8806 48.5522C36.1415 49.2525 36.5191 49.7983 37.0134 50.1896C37.5077 50.5741 38.1085 50.7663 38.8156 50.7663C39.5296 50.7663 40.1338 50.5707 40.6281 50.1793C41.1224 49.7811 41.4966 49.2319 41.7506 48.5316C42.0115 47.8245 42.142 47.0109 42.142 46.0909C42.142 45.1778 42.015 44.3745 41.7609 43.6811C41.5069 42.9877 41.1327 42.4453 40.6384 42.054C40.1441 41.6626 39.5365 41.467 38.8156 41.467C38.1016 41.467 37.4974 41.6558 37.0031 42.0334C36.5157 42.411 36.1415 42.9465 35.8806 43.6399C35.6197 44.3333 35.4893 45.1503 35.4893 46.0909ZM82.7359 38.1818V41.4773H73.21V38.1818H82.7359ZM75.3726 34.392H79.7597V49.1392C79.7597 49.5443 79.8215 49.8601 79.9451 50.0866C80.0686 50.3063 80.2403 50.4608 80.46 50.5501C80.6865 50.6393 80.9474 50.6839 81.2426 50.6839C81.4486 50.6839 81.6546 50.6668 81.8605 50.6325C82.0665 50.5913 82.2244 50.5604 82.3343 50.5398L83.0243 53.8043C82.8046 53.873 82.4956 53.9519 82.0974 54.0412C81.6992 54.1373 81.2152 54.1957 80.6453 54.2163C79.5881 54.2575 78.6612 54.1167 77.8648 53.794C77.0753 53.4714 76.4608 52.9702 76.0214 52.2905C75.582 51.6108 75.3658 50.7526 75.3726 49.7159V34.392Z" fill="#FFED00"/>
<path d="M49.3554 54.0004C49.4921 53.8802 49.6134 53.7388 49.7634 53.694C50.4886 53.4773 51.1581 53.1585 51.7045 52.6319C52.2004 52.1538 52.6242 51.6177 52.7098 50.8964C52.7611 50.4643 52.5115 50.1217 52.3406 49.7617C51.8963 48.8254 51.5919 47.8489 51.5059 46.816C51.4592 46.2561 51.4132 45.6844 51.4742 45.1299C51.5851 44.1218 51.8125 43.1331 52.2617 42.2094C52.7326 41.2411 53.3252 40.3666 54.0936 39.6011C55.0038 38.6943 56.066 38.0443 57.2559 37.5936C58.151 37.2546 59.0792 37.0511 60.042 37.0692C60.6408 37.0805 61.2464 37.0767 61.8357 37.1666C62.7408 37.3046 63.6023 37.611 64.4249 38.0214C65.6341 38.6245 66.6466 39.4705 67.4664 40.5353C68.0743 41.3248 68.5813 42.1841 68.8385 43.1569C69.0264 43.8675 69.2408 44.5889 69.2841 45.315C69.3302 46.088 69.2119 46.8748 69.1231 47.6507C69.0088 48.6505 68.6081 49.5643 68.1076 50.419C67.7751 50.9868 67.3622 51.5194 66.9193 52.0078C66.161 52.8439 65.2513 53.4939 64.2248 53.9762C63.3578 54.3836 62.4501 54.6664 61.5002 54.7516C60.8147 54.8131 60.1171 54.8066 59.4295 54.761C58.4482 54.6961 57.5213 54.3807 56.6223 53.9948C56.336 53.8719 56.1007 53.8831 55.8199 54.0345C54.7826 54.5935 53.6818 54.8962 52.4869 54.9249C51.474 54.9492 50.5214 54.6998 49.5558 54.4832C49.3201 54.4303 49.2548 54.2498 49.3554 54.0004ZM56.3697 42.822C54.6187 45.091 55.0135 48.2448 57.2702 50.0153C59.4584 51.7321 62.6485 51.335 64.4016 49.1275C66.1367 46.9426 65.7683 43.7419 63.58 41.989C61.3682 40.2174 58.1947 40.5709 56.3697 42.822Z" fill="#FFED00"/>
<path d="M62.4337 47.3866C61.6554 48.1995 60.7341 48.4642 59.6889 48.1173C58.7261 47.7977 58.155 47.0878 57.9888 46.0906C57.7974 44.942 58.4328 43.8209 59.491 43.3649C60.5629 42.903 61.8082 43.2135 62.5118 44.118C63.2483 45.0648 63.2523 46.3291 62.5217 47.2777C62.4975 47.3091 62.4725 47.3397 62.4337 47.3866Z" fill="#FFED00"/>
</svg>
