<?xml version="1.0" encoding="UTF-8"?> <svg xmlns="http://www.w3.org/2000/svg" id="Layer_1" data-name="Layer 1" viewBox="0 0 1183.37 353.7"><defs><style>.cls-1{fill:#fff;}</style></defs><title>Kinetic_Logo</title><path class="cls-1" d="M492.47,89.75a20.57,20.57,0,0,1,6.4-15,22,22,0,0,1,16.22-6.4,23.63,23.63,0,0,1,16.52,6.1,19.87,19.87,0,0,1,6.7,15.33,19.86,19.86,0,0,1-6.7,15.33,23.62,23.62,0,0,1-16.52,6.1,22,22,0,0,1-16.22-6.4A20.55,20.55,0,0,1,492.47,89.75Zm5.06,48.52h35.72V281.13H497.53Z"></path><path class="cls-1" d="M561.39,138.26h33.93v22.92h.59q4.76-10.72,16.52-18.9t27.83-8.19q14,0,24,4.91A47.31,47.31,0,0,1,680.6,152,52.49,52.49,0,0,1,690,170.41a77.82,77.82,0,0,1,3,21.43v89.29H657.23V202a101.31,101.31,0,0,0-.89-13.1,35.42,35.42,0,0,0-3.87-12.35,25.69,25.69,0,0,0-8.19-9.08q-5.21-3.57-13.84-3.57a30.55,30.55,0,0,0-14.88,3.42,31.63,31.63,0,0,0-10.27,8.78,38.83,38.83,0,0,0-6.1,12.35,49.19,49.19,0,0,0-2.08,14.14v78.58H561.39Z"></path><path class="cls-1" d="M861.58,211.48v4.76a38.61,38.61,0,0,1-.3,4.76H752.65a35.29,35.29,0,0,0,4,14.14,35.87,35.87,0,0,0,9.08,11,45,45,0,0,0,12.8,7.29,42,42,0,0,0,14.88,2.68q13.4,0,22.62-4.91a42.39,42.39,0,0,0,15.18-13.54l23.81,19q-21.14,28.58-61.32,28.58a87.26,87.26,0,0,1-30.66-5.21,72.17,72.17,0,0,1-24.26-14.73A66.39,66.39,0,0,1,722.73,242q-5.8-13.84-5.8-31.4a82,82,0,0,1,5.8-31.4,69.93,69.93,0,0,1,39.88-39.58,80.21,80.21,0,0,1,29.91-5.51A75.46,75.46,0,0,1,820.06,139a59.8,59.8,0,0,1,21.87,14.59,67.72,67.72,0,0,1,14.44,24.11Q861.58,192.14,861.58,211.48Zm-35.72-16.07a44.11,44.11,0,0,0-1.93-13.1,29.21,29.21,0,0,0-16.67-18.6,37,37,0,0,0-15-2.83q-16.07,0-27.23,9.67a35.25,35.25,0,0,0-12.35,24.85Z"></path><path class="cls-1" d="M869.61,166.83V138.26h25V96.89h35.12v41.37h35.72v28.57H929.74v66.37q0,9.53,3.42,15.77t15.33,6.25a44.07,44.07,0,0,0,7.74-.74,31.07,31.07,0,0,0,7.44-2.23l1.19,28a58.89,58.89,0,0,1-11.31,2.83,80,80,0,0,1-12.5,1q-14.29,0-23.22-4a35.15,35.15,0,0,1-14.14-11A40.69,40.69,0,0,1,896.55,253a93.17,93.17,0,0,1-1.93-19.5V166.83Z"></path><path class="cls-1" d="M986.46,89.75a20.57,20.57,0,0,1,6.4-15,22,22,0,0,1,16.22-6.4,23.63,23.63,0,0,1,16.52,6.1,19.87,19.87,0,0,1,6.7,15.33,19.86,19.86,0,0,1-6.7,15.33,23.62,23.62,0,0,1-16.52,6.1,22,22,0,0,1-16.22-6.4A20.55,20.55,0,0,1,986.46,89.75Zm5.06,48.52h35.72V281.13H991.52Z"></path><path class="cls-1" d="M1159,177.85q-4.17-6-12.5-10a38.72,38.72,0,0,0-17-4,35.77,35.77,0,0,0-17.26,4,37.48,37.48,0,0,0-12.35,10.57,45.52,45.52,0,0,0-7.29,14.73,58.77,58.77,0,0,0-2.38,16.52,55.45,55.45,0,0,0,2.53,16.52,45.9,45.9,0,0,0,7.59,14.73A38.53,38.53,0,0,0,1113,251.51a37.31,37.31,0,0,0,17.71,4,45.25,45.25,0,0,0,16.66-3.27,31.78,31.78,0,0,0,13.4-9.52l22.32,22.62a59.06,59.06,0,0,1-22.77,14.73,84.28,84.28,0,0,1-29.91,5.21,88.09,88.09,0,0,1-29.91-5.06,69.79,69.79,0,0,1-41.38-38.69q-6.1-14-6.1-31.85a77.42,77.42,0,0,1,6.1-31.25,71.64,71.64,0,0,1,16.52-23.81,73.81,73.81,0,0,1,24.26-15.18,82.78,82.78,0,0,1,60.12.6q14.74,6,23.37,16.37Z"></path><polygon class="cls-1" points="467.43 138.26 421.59 138.26 367.42 198.38 366.52 198.38 366.52 65.83 330.81 65.83 330.81 281.13 366.52 281.13 366.52 207.91 367.42 207.91 423.97 281.13 471.3 281.13 405.52 202.85 467.43 138.26"></polygon><path class="cls-1" d="M224.82,307.7c-9.23-5.56-11.49-12.94-11.45-22.25.16-35.94.06-71.88.06-107.81v-1.57c0-35.94.1-71.88-.06-107.81,0-9.31,2.65-17.37,12.17-22.79,22.65-12.88,18.57-22,18-45.33H213.37V34.8c0,12.06-4.32,21.36-15.38,27-11.82,6-15.9,15.34-15.9,28.93,0,27.39-.17,54.42-.22,81.63,0,.14,0,.27,0,.41,0,1.18,0,2.35,0,3.53q0,.27,0,.54t0,.54c0,1.18,0,2.35,0,3.53,0,.13,0,.27,0,.41.05,27.21.22,54.24.22,81.63,0,13.59,4.08,22.89,15.9,28.93,11.06,5.66,15.21,12.77,15.38,27,.15,11.76,0,22.52,0,34.66h30.21C245,325.42,243.26,318.8,224.82,307.7Z"></path><polygon class="cls-1" points="0 176.85 0 353.42 31.53 353.42 31.53 176.85 31.53 0.28 0 0.28 0 176.85"></polygon><path class="cls-1" d="M173,.09C162.41.09,152.36,0,141.14,0V74.55c.41,13.73-3.65,23.09-16.09,29.31a27,27,0,0,0-9.57,7.63c-5.69,7-5.48,17.38-5.48,17.38l0,48,0,48s-.21,10.43,5.48,17.38a27,27,0,0,0,9.57,7.63c12.45,6.22,16.51,15.58,16.09,29.31V353.7c11.21,0,21.27-.09,31.86-.09.18-18.26-.1-35.35,0-52.8.1-17-4.28-25.86-18.2-32.88-9-4.56-13-12.45-12.74-22.71.29-11,.07-22,.07-33,0-11.54,0-23.07,0-34.84v-1.07c0-11.77,0-23.3,0-34.84,0-11,.22-22-.07-33-.27-10.26,3.69-18.16,12.74-22.71,13.93-7,18.3-15.91,18.2-32.88C172.9,35.44,173.18,18.35,173,.09Z"></path><path class="cls-1" d="M102.16,0H70.26c0,3.33,0,6.21,0,9.18,0,36.52-.13,73.24,0,109.77,0,7-.82,15.15-6.91,19.65s-12.81,7.59-17.22,14.33a44.23,44.23,0,0,0-7,23.39c0,.18,0,.36,0,.54s0,.35,0,.54a44.23,44.23,0,0,0,7,23.39c4.41,6.75,11,9.73,17.22,14.33s6.93,12.63,6.91,19.65c-.13,36.52,0,73.24,0,109.77,0,3,0,5.85,0,9.18h31.91v-.27h0V253.55h0c-.39-11.1-4.84-19.26-15-24.43-12-6.09-16.63-14.78-16.72-28.43l-.09-23.85L70.43,153c.09-13.65,4.72-22.34,16.72-28.43,10.2-5.18,14.64-13.33,15-24.43h0V.27h0Z"></path></svg> 