<?xml version="1.0" encoding="UTF-8"?>
<svg xmlns="http://www.w3.org/2000/svg" xmlns:xlink="http://www.w3.org/1999/xlink" width="2395pt" height="413pt" viewBox="0 0 2395 413" version="1.1">
<g id="surface1">
<path style=" stroke:none;fill-rule:evenodd;fill:rgb(23.143005%,27.830505%,31.37207%);fill-opacity:1;" d="M 40.792969 153.121094 C 39.96875 140.355469 39.304688 47.960938 41.222656 40.800781 C 76.421875 40.800781 111.621094 40.800781 146.820313 40.800781 C 172.761719 40.800781 174.347656 36.273438 185.257813 54.820313 C 198.316406 77.015625 198.335938 117.859375 184.660156 140.128906 C 181.871094 144.671875 177.109375 152.644531 171.855469 153.148438 C 162.203125 154.074219 56.371094 153.121094 40.792969 153.121094 Z M 40.621094 193.050781 C 66.691406 193.050781 92.757813 193.050781 118.820313 193.050781 C 137.976563 193.050781 177.429688 195.609375 192.324219 188.78125 C 240.007813 166.914063 249.511719 68.96875 212.160156 20.941406 C 195.511719 -0.464844 178.222656 0.453125 155.820313 0.453125 C 104.183594 0.453125 52.542969 0.453125 0.90625 0.453125 C -0.511719 19.261719 0.707031 42.941406 0.707031 62.28125 C 0.707031 94.121094 -0.609375 299.894531 1.464844 307.671875 C 6.136719 325.152344 29.949219 326.65625 37.847656 312.304688 C 42.78125 303.335938 40.621094 267.367188 40.621094 254.285156 C 40.621094 233.871094 40.621094 213.460938 40.621094 193.050781 "/>
<path style=" stroke:none;fill-rule:evenodd;fill:rgb(23.143005%,27.830505%,31.37207%);fill-opacity:1;" d="M 2002.738281 261.382813 C 2000.878906 241.292969 2002.691406 187.90625 2002.460938 161.277344 C 2002.378906 152.773438 2001.21875 151.992188 2006.449219 147.898438 C 2031.710938 128.144531 2068.46875 124.574219 2097.558594 137.5625 C 2103.121094 140.046875 2115.429688 148.046875 2116.738281 151.53125 C 2118.128906 155.234375 2117.160156 235.617188 2117.300781 251.285156 C 2117.390625 261.464844 2118.839844 262.121094 2104.289063 271.761719 C 2082.628906 286.117188 2047.691406 284.929688 2022.949219 274.171875 C 2010.828125 268.902344 2009.621094 265.742188 2002.738281 261.382813 Z M 1979.058594 412.285156 L 1986.171875 412.285156 L 1987.71875 411.46875 C 1993.660156 408.503906 1999.308594 406.105469 2001.730469 397.144531 C 2003.328125 391.1875 2002.46875 320.5 2002.46875 311.097656 C 2010.230469 313.0625 2017.398438 316.070313 2026.039063 318.078125 C 2051.421875 323.984375 2078.769531 323.625 2103.429688 316.863281 C 2135.210938 308.144531 2157.640625 291.148438 2157.601563 255.289063 C 2157.578125 236.660156 2159.109375 151.644531 2156.078125 139.996094 C 2149.210938 113.558594 2118.75 98.269531 2087.410156 92.695313 C 2053.390625 86.644531 2015.441406 92.390625 1990.308594 107.773438 C 1957.101563 128.09375 1962.550781 151.050781 1962.550781 196.285156 L 1962.550781 370.285156 C 1962.550781 402.960938 1960.511719 402.03125 1979.058594 412.285156 "/>
<path style=" stroke:none;fill-rule:evenodd;fill:rgb(23.143005%,27.830505%,31.37207%);fill-opacity:1;" d="M 2240 186.0625 C 2239.261719 177.414063 2239.660156 166.101563 2239.710938 157.210938 C 2239.75 149.867188 2243.269531 147.464844 2252.238281 141.707031 C 2276.511719 126.144531 2319.058594 126.144531 2343.019531 142.089844 C 2352.71875 148.546875 2354.710938 150.726563 2354.660156 158.21875 C 2354.609375 167.078125 2355.070313 177.21875 2354.429688 186.050781 Z M 2394.929688 226.421875 C 2394.929688 205.042969 2394.921875 183.660156 2394.929688 162.285156 C 2394.941406 151.453125 2395.398438 143.0625 2391.328125 133.769531 C 2365.191406 74.058594 2216.910156 75.988281 2201.230469 140.679688 C 2198.171875 153.308594 2199.871094 187.304688 2199.871094 202.28125 C 2199.871094 221.574219 2198.5 246.542969 2200.109375 265.152344 C 2202.910156 297.757813 2238.679688 314.328125 2271.949219 320.070313 C 2290.378906 323.25 2312.25 322.839844 2330.820313 320.421875 C 2344.320313 318.667969 2371.351563 312.296875 2379.289063 305.757813 C 2392.390625 294.976563 2383.378906 267.464844 2361.980469 271.371094 C 2354.339844 272.765625 2345.578125 276.613281 2336.988281 278.417969 C 2310.890625 283.898438 2279.171875 285.0625 2256.25 272.867188 C 2250.601563 269.859375 2240.238281 264.027344 2239.730469 257.355469 C 2239.109375 249.292969 2239.511719 234.742188 2239.878906 226.421875 L 2394.929688 226.421875 "/>
<path style=" stroke:none;fill-rule:evenodd;fill:rgb(23.143005%,27.830505%,31.37207%);fill-opacity:1;" d="M 927.808594 186.0625 C 926.925781 177.839844 927.414063 165.800781 927.460938 157.21875 C 927.503906 149.941406 929.789063 148.15625 940.144531 141.609375 C 964.636719 126.125 1006.589844 126.203125 1031 142.132813 C 1041.660156 149.09375 1042.421875 150.179688 1042.371094 158.222656 C 1042.308594 167.183594 1042.679688 176.816406 1042.21875 186.039063 Z M 927.695313 226.421875 L 1082.691406 226.414063 C 1082.691406 205.257813 1082.679688 184.269531 1082.691406 163.285156 C 1082.691406 140.207031 1079.550781 127.789063 1066.578125 116.519531 C 1044.578125 97.402344 1006.050781 86.675781 967.8125 91.226563 C 931.824219 95.511719 897.621094 110.539063 889.433594 138.886719 C 886.136719 150.289063 886.578125 247.496094 887.761719 264.308594 C 891.441406 316.433594 969.988281 326.441406 1017.191406 320.578125 C 1030.5 318.925781 1058.421875 312.949219 1066.511719 305.984375 C 1080.269531 294.144531 1071.308594 268.671875 1050.851563 271.144531 C 1039.480469 272.519531 1029.539063 280.101563 998.808594 281.941406 C 979.476563 283.101563 959.796875 281.375 944.726563 273.359375 C 941.464844 271.628906 937.523438 269.089844 934.980469 267.125 C 931.417969 264.375 928.144531 262.828125 927.546875 258.332031 C 926.746094 252.335938 927.289063 233.078125 927.695313 226.421875 "/>
<path style=" stroke:none;fill-rule:evenodd;fill:rgb(23.143005%,27.830505%,31.37207%);fill-opacity:1;" d="M 340.457031 131.183594 C 361.128906 128.285156 379.953125 131.226563 396.257813 139.824219 C 406.148438 145.042969 411.867188 149.070313 411.8125 158.226563 L 411.761719 225.285156 C 411.761719 256.738281 417.910156 261.648438 394.203125 273.65625 C 386.605469 277.507813 378.222656 280.027344 368.890625 281.367188 C 343.625 284.996094 321.226563 279.738281 302.390625 265.695313 C 298.367188 262.699219 296.882813 260.941406 296.902344 254.347656 L 296.960938 154.289063 C 298.382813 142.859375 326.175781 133.1875 340.457031 131.183594 Z M 257.179688 264.285156 C 260.757813 317.433594 350.507813 333.039063 404.394531 313.863281 C 434.949219 302.992188 452.175781 287.691406 452.125 254.285156 C 452.097656 236.617188 452.121094 218.949219 452.121094 201.285156 C 452.121094 149.359375 462.511719 115.535156 396.910156 96.222656 C 366.214844 87.183594 333.859375 88.539063 304.273438 98.734375 C 274.449219 109.011719 256.980469 125.351563 257.015625 158.28125 C 257.042969 182.503906 255.878906 244.929688 257.179688 264.285156 "/>
<path style=" stroke:none;fill-rule:evenodd;fill:rgb(23.143005%,27.830505%,31.37207%);fill-opacity:1;" d="M 1763.179688 260.285156 L 1763.019531 161.269531 C 1762.949219 152.972656 1761.691406 149.636719 1776.519531 141 C 1798.871094 127.984375 1833.730469 126.113281 1858.300781 137.769531 C 1864.480469 140.695313 1876.351563 148.335938 1877.550781 152.539063 C 1878.839844 157.058594 1877.699219 234.996094 1877.851563 251.292969 C 1877.929688 260.378906 1878.988281 259.546875 1873.871094 264.335938 C 1849.949219 286.722656 1801.589844 288.769531 1771.878906 268.21875 C 1769.898438 266.847656 1763.648438 261.613281 1763.179688 260.285156 Z M 1806.949219 90.886719 C 1775.03125 93.988281 1747.519531 104.957031 1732.839844 123.289063 C 1723.308594 135.195313 1723.109375 148.078125 1723.109375 166.28125 C 1723.109375 184.28125 1723.109375 202.28125 1723.109375 220.285156 C 1723.109375 261.746094 1718.75 283.210938 1747.550781 302.550781 C 1795.121094 334.488281 1883.441406 324.625 1908.058594 289.511719 C 1918.898438 274.042969 1918.160156 268.179688 1918.160156 246.285156 C 1918.160156 229.230469 1919.519531 150.980469 1916.75 140.367188 C 1906.25 100.175781 1845.078125 87.183594 1806.949219 90.886719 "/>
<path style=" stroke:none;fill-rule:evenodd;fill:rgb(23.143005%,27.830505%,31.37207%);fill-opacity:1;" d="M 535.65625 173.398438 C 534.972656 153.320313 531.832031 151.109375 549.335938 140.78125 C 559.46875 134.800781 571.339844 131.261719 584.863281 130.390625 C 628.320313 127.578125 649.984375 141.386719 663.5625 143.21875 L 663.46875 102.640625 C 603.90625 78.707031 495.886719 87.777344 495.226563 153.242188 C 495.109375 164.84375 493.738281 180.867188 498.546875 190.53125 C 513.570313 220.71875 575.589844 222.875 616.71875 234.363281 C 619.257813 235.070313 621.820313 235.867188 624.449219 236.679688 C 628.960938 238.066406 629.21875 237.4375 629.804688 241.226563 C 630.316406 244.523438 630.238281 258.203125 629.109375 260.621094 C 626.703125 265.777344 612.203125 273.929688 604.453125 276.925781 C 594.019531 280.957031 581.96875 282.476563 569.820313 282.328125 C 540.078125 281.972656 527.007813 275.878906 501.796875 268.964844 L 501.980469 310.128906 C 535.933594 320.007813 564.332031 326.96875 602.789063 319.1875 C 633.503906 312.972656 663.96875 297.785156 669.265625 269.753906 C 671.925781 255.671875 671.484375 227.832031 664.527344 217.601563 C 649.75 195.863281 607.40625 190.753906 580.808594 185.300781 C 564.316406 181.917969 550.484375 177.808594 535.65625 173.398438 "/>
<path style=" stroke:none;fill-rule:evenodd;fill:rgb(23.143005%,27.830505%,31.37207%);fill-opacity:1;" d="M 1313.75 268.992188 L 1313.769531 310.160156 C 1348.75 319.964844 1374.621094 326.832031 1413.921875 319.398438 C 1445.328125 313.457031 1474.910156 298.117188 1481.039063 270.480469 C 1484.019531 257.023438 1483.109375 228.144531 1476.988281 218.097656 C 1463.640625 196.148438 1418.488281 190.824219 1393.628906 185.53125 C 1376.960938 181.988281 1362.601563 177.761719 1347.589844 173.433594 C 1346.980469 153.25 1343.691406 151.085938 1361.289063 140.742188 C 1384.011719 127.394531 1414.328125 128.445313 1439.820313 133.359375 C 1449.878906 135.300781 1473.421875 142.953125 1475.5 143.140625 L 1475.488281 102.691406 C 1435.25 85.558594 1377.71875 85.921875 1340.269531 104.742188 C 1323.75 113.046875 1307.628906 127.789063 1307.179688 152.238281 C 1306.609375 183.4375 1307.179688 197.703125 1330.609375 209.46875 C 1351.21875 219.824219 1399.160156 226.515625 1427.140625 233.984375 C 1431.109375 235.046875 1439.96875 236.308594 1441.398438 239.632813 C 1442.261719 241.621094 1442.109375 257.738281 1441.371094 259.90625 C 1439.71875 264.785156 1425.238281 273.480469 1417.941406 276.382813 C 1407.609375 280.496094 1395.21875 282.410156 1382.820313 282.339844 C 1348.601563 282.140625 1340.988281 276.269531 1313.75 268.992188 "/>
<path style=" stroke:none;fill-rule:evenodd;fill:rgb(23.143005%,27.830505%,31.37207%);fill-opacity:1;" d="M 729.726563 93.367188 C 721.886719 93.671875 715.671875 94.011719 710.464844 97.914063 C 701.902344 104.328125 699.214844 120.027344 710.863281 129.25 C 716.359375 133.601563 721.460938 133.1875 729.636719 133.46875 C 730.492188 158.410156 727.097656 257.433594 732.308594 272.785156 C 742.195313 301.929688 786.796875 319.890625 826.800781 318.96875 C 850.183594 318.425781 854.613281 288.230469 834.628906 280.4375 C 828.859375 278.1875 812.027344 278.394531 802.960938 276.078125 C 793.484375 273.65625 785.882813 269.855469 778.914063 265.191406 C 766.859375 257.121094 769.644531 255.1875 769.644531 238.285156 C 769.644531 205.730469 768.609375 163.863281 769.746094 133.394531 L 847.445313 132.953125 L 847.328125 93.496094 L 769.644531 93.472656 C 769.644531 75.410156 769.644531 57.347656 769.644531 39.285156 C 769.648438 30.453125 770.808594 22.480469 766.667969 15.46875 C 758.453125 1.550781 739.175781 3.5625 732.351563 15.808594 C 728.644531 22.460938 729.726563 32.035156 729.726563 40.28125 C 729.726563 57.976563 729.726563 75.671875 729.726563 93.367188 "/>
<path style=" stroke:none;fill-rule:evenodd;fill:rgb(23.143005%,27.830505%,31.37207%);fill-opacity:1;" d="M 1693.128906 308.285156 L 1693.128906 269.066406 C 1679.710938 271.933594 1671.96875 277.339844 1649.96875 280.453125 C 1626.300781 283.808594 1601.730469 283.972656 1580.648438 272.445313 C 1576.820313 270.355469 1566.621094 263.4375 1565.589844 260.644531 L 1565.449219 152.722656 C 1567.949219 144.796875 1588.96875 135.175781 1599.269531 132.710938 C 1621.488281 127.390625 1649.421875 130.570313 1671.53125 136.554688 C 1678.949219 138.5625 1686.25 141.84375 1693.109375 143.382813 L 1693.121094 102.21875 C 1667.089844 95.132813 1661.320313 91.4375 1630.859375 90.320313 C 1595.5 89.027344 1541.96875 99.84375 1528.078125 135.550781 C 1523.25 147.964844 1525.199219 190.980469 1525.199219 207.285156 C 1525.199219 259.878906 1515.660156 291.085938 1568.011719 312.09375 C 1597.820313 324.054688 1632.609375 324.503906 1664.738281 318.21875 L 1686.859375 312.335938 C 1691.089844 310.949219 1691.960938 310.820313 1693.128906 308.285156 "/>
<path style=" stroke:none;fill-rule:evenodd;fill:rgb(23.143005%,27.830505%,31.37207%);fill-opacity:1;" d="M 1131.308594 318.796875 L 1170.679688 319.015625 C 1171.859375 310.691406 1171.28125 176.660156 1171.019531 155.257813 C 1170.871094 143.9375 1171.539063 146.242188 1180.808594 141.277344 C 1203.109375 129.332031 1232.949219 127.199219 1259.601563 134.523438 C 1271.21875 137.71875 1284.621094 139.035156 1289.679688 123.144531 C 1304.890625 75.414063 1149.679688 78.820313 1133.050781 133.503906 C 1129.230469 146.042969 1131.109375 245.828125 1131.109375 272.285156 C 1131.109375 286.578125 1130.109375 305.007813 1131.308594 318.796875 "/>
</g>
</svg>
