<svg xmlns="http://www.w3.org/2000/svg" width="174" height="34.607"><g data-name="Group 11"><g data-name="Group 7"><g data-name="Group 95"><path data-name="Path 52" d="M46.978 28.057h-5.2V10.283a17.081 17.081 0 017.656-1.777 12.641 12.641 0 013.965.547v5.059a9.461 9.461 0 00-3.828-.684 7.96 7.96 0 00-2.6.41z" fill="#171717"/><path data-name="Path 53" d="M65.294 15.482c0-1.912-1.367-2.595-3.281-2.595a10.079 10.079 0 00-5.605 1.639v-4.509a13.531 13.531 0 016.422-1.5c4.375 0 7.656 1.775 7.656 6.828v12.427a37.821 37.821 0 01-7.246.819c-4.922 0-8.613-1.5-8.613-5.872 0-3.96 3.281-5.872 8.613-5.872h2.051m.137 3.141h-1.775c-2.461 0-3.828.683-3.828 2.322s1.367 2.322 3.418 2.322a6.4 6.4 0 002.187-.273z" fill="#171717"/><path data-name="Path 54" d="M73.77 9.998a23.909 23.909 0 018.477-1.641c6.289 0 10.523 3.555 10.523 9.707 0 6.699-3.961 10.393-10.66 10.393a8.315 8.315 0 01-3.008-.41v6.56H73.77zm5.332 13.535a6.891 6.891 0 002.6.41c3.281 0 5.879-1.777 5.879-5.742 0-3.281-2.187-5.2-5.332-5.2a11.654 11.654 0 00-3.145.41" fill="#171717"/><path data-name="Path 55" d="M94.824 9.998a23.909 23.909 0 018.476-1.641c6.289 0 10.527 3.555 10.527 9.707 0 6.7-3.965 10.391-10.664 10.391a8.315 8.315 0 01-3.008-.41v6.562h-5.2m5.2-11.074a7.681 7.681 0 002.734.41c3.281 0 5.879-1.777 5.879-5.742 0-3.281-2.187-5.2-5.332-5.2a11.654 11.654 0 00-3.145.41" fill="#171717"/><path data-name="Path 56" d="M125.996 8.38a9.76 9.76 0 0110.117 10.106 10.117 10.117 0 01-20.234 0c.137-6.006 4.375-10.106 10.117-10.106zm0 4.507c-2.871 0-4.785 2.048-4.785 5.6 0 3.414 2.051 5.6 4.785 5.6 2.871 0 4.785-2.048 4.785-5.6.137-3.552-1.914-5.6-4.785-5.6z" fill="#171717"/><path data-name="Path 57" d="M143.637 28.057h-5.2V10.283a17.081 17.081 0 017.656-1.777 12.641 12.641 0 013.965.547v5.059a9.461 9.461 0 00-3.828-.684 7.96 7.96 0 00-2.6.41l.007 14.219z" fill="#171717"/><path data-name="Path 58" d="M152.246 5.235l5.2-2.187v5.879h5.469l-2.187 4.375h-3.282v7.793c0 2.187 1.094 2.871 2.6 2.871a6.776 6.776 0 003.555-1.094v4.785a10.894 10.894 0 01-4.922 1.094c-3.281 0-6.289-1.641-6.289-6.289" fill="#171717"/><g data-name="Group 97"><path data-name="Path 59" d="M168.691 12.129h-.983V9.572h-.983v-.786h2.949v.786h-.983zm2.753 0l-.59-1.966-.393 1.966h-.786l.59-3.146h.983l.59 1.966.59-1.966h.983l.59 3.146h-.983l-.393-1.966-.59 1.966z" fill="#171717"/></g></g><path d="M23.975 9.148c8.328 3.7.206-8.117-.411-9.042h-.051c-.463 7.6-12.389 3.082-13.983 2.466-.463-.205-.977-.462-1.491-.668C-5.174-4.055 1.15 5.5 4.337 9.662a30.9 30.9 0 002.416 2.98c.514.565 1.131 1.284 1.131 1.284s12.441 13.768 4.061 18.341c-.051 0-.051.051 0 .051 1.337.462 17.222 6.627 9.459-3.442 0 0-18.4-24.2-6.323-22.553a35.175 35.175 0 017.865 2.363" fill="#e3248b"/></g></g></svg>