<svg width="1003" height="572" viewBox="0 0 1003 572" fill="none" xmlns="http://www.w3.org/2000/svg">
<path fill-rule="evenodd" clip-rule="evenodd" d="M140.549 453.178H76V419.92C77.1688 419.336 78.1184 418.606 78.8432 417.736C79.5752 416.857 80.2334 415.759 80.8139 414.446C81.2551 413.139 81.6936 411.824 82.1243 410.511C82.57 409.198 82.9297 407.814 83.2205 406.354C83.2205 406.064 83.2595 405.764 83.3266 405.476C83.4066 405.185 83.5174 404.894 83.6572 404.604C83.6572 404.457 83.6572 404.312 83.6572 404.167C83.6572 404.019 83.7327 403.873 83.8798 403.728C83.8798 403.583 83.8798 403.432 83.8798 403.291C83.8798 403.144 83.8798 403 83.8798 402.851C83.8798 402.564 83.9132 402.229 83.9876 401.873C84.062 401.496 84.1695 401.176 84.3138 400.882C84.3138 400.588 84.3529 400.299 84.4256 400.007C84.4999 399.716 84.6051 399.423 84.7549 399.127L109.485 265.65H192.636L219.984 401.54C219.984 401.973 219.984 402.343 219.984 402.632C219.984 402.922 220.06 403.219 220.207 403.511C220.207 403.943 220.241 404.312 220.315 404.604C220.385 404.894 220.5 405.185 220.644 405.476C220.644 405.764 220.672 406.064 220.752 406.354C220.826 406.646 220.937 406.934 221.081 407.223C221.231 407.664 221.339 408.028 221.408 408.322C221.486 408.614 221.592 408.906 221.737 409.198C222.034 410.511 222.433 411.714 222.94 412.813C223.456 413.903 224.001 415.033 224.583 416.199C225.312 417.22 226.113 418.094 226.987 418.828C227.86 419.557 228.813 420.066 229.837 420.358V453.178H156.097V419.92C157.256 419.776 158.242 419.377 159.043 418.714C159.848 418.065 160.546 417.289 161.128 416.419C161.709 415.541 162.146 414.596 162.435 413.575C162.73 412.554 162.877 411.386 162.877 410.075C162.877 409.775 162.877 409.524 162.877 409.304C162.877 409.092 162.877 408.833 162.877 408.542C162.73 408.396 162.655 408.177 162.655 407.888C162.655 407.591 162.655 407.373 162.655 407.223C162.508 406.794 162.401 406.354 162.325 405.914C162.252 405.476 162.146 405.039 161.997 404.604L133.771 404.167C133.625 404.604 133.515 404.932 133.436 405.153C133.372 405.371 133.334 405.623 133.334 405.914C133.334 406.064 133.334 406.173 133.334 406.239C133.334 406.319 133.334 406.422 133.334 406.577C133.184 406.719 133.114 406.824 133.114 406.903C133.114 406.972 133.114 407.084 133.114 407.223C133.114 407.373 133.114 407.521 133.114 407.664C133.114 407.814 133.114 407.958 133.114 408.098C132.97 408.246 132.896 408.358 132.896 408.431C132.896 408.504 132.896 408.614 132.896 408.761C132.896 408.906 132.896 409.092 132.896 409.304C132.896 409.524 132.896 409.775 132.896 410.075C132.896 411.386 133.078 412.592 133.436 413.685C133.807 414.781 134.282 415.759 134.868 416.64C135.598 417.506 136.397 418.276 137.27 418.934C138.148 419.589 139.24 420.066 140.549 420.358V419.92V453.178ZM156.743 367.624L147.121 312.043H146.68L137.489 367.624H156.743ZM311.24 442.677C311.093 442.968 310.982 443.15 310.908 443.223C310.838 443.297 310.797 443.406 310.797 443.553C310.656 443.698 310.544 443.808 310.47 443.879C310.397 443.955 310.289 443.987 310.142 443.987C309.995 444.139 309.848 444.246 309.706 444.316C309.56 444.392 309.414 444.502 309.264 444.645C306.641 446.689 304.011 448.475 301.394 450.01C298.761 451.538 296.137 452.596 293.508 453.178C290.741 454.056 287.858 454.749 284.863 455.262C281.876 455.77 278.699 456.026 275.351 456.026C269.367 456.026 263.968 455.186 259.15 453.512C254.341 451.831 250.182 449.245 246.683 445.738C243.182 442.24 240.557 438.122 238.806 433.378C237.053 428.638 236.18 423.201 236.18 417.074C236.18 410.216 237.126 404.349 239.022 399.459C240.919 394.574 243.693 390.745 247.342 387.972C251.131 385.057 255.401 382.429 260.141 380.097C264.882 377.76 270.171 375.645 276.005 373.748L309.264 362.586V357.774C309.264 356.318 309.123 354.859 308.829 353.399C308.54 351.94 308.103 350.48 307.516 349.023C306.935 347.564 306.022 346.471 304.783 345.742C303.542 345.012 302.048 344.646 300.294 344.646C298.252 344.646 296.576 345.012 295.259 345.742C293.951 346.471 292.928 347.564 292.203 349.023C291.614 350.48 291.141 351.975 290.772 353.505C290.408 355.036 290.229 356.608 290.229 358.211V363.464H241.872V329.539C245.662 327.067 249.565 324.877 253.573 322.978C257.589 321.09 261.783 319.482 266.159 318.17C270.538 316.858 274.985 315.796 279.51 314.994C284.031 314.197 288.547 313.643 293.074 313.352C293.508 313.352 293.951 313.352 294.387 313.352C294.824 313.352 295.259 313.279 295.697 313.132C295.991 313.132 296.356 313.132 296.793 313.132C297.23 313.132 297.668 313.132 298.109 313.132C298.543 313.132 298.984 313.132 299.418 313.132C299.856 313.132 300.294 313.063 300.735 312.915C301.172 312.915 301.614 312.915 302.048 312.915C302.481 312.915 302.918 312.915 303.357 312.915C304.67 312.915 306.022 312.949 307.404 313.021C308.793 313.099 310.219 313.206 311.672 313.352C312.409 313.352 313.134 313.391 313.863 313.462C314.588 313.535 315.393 313.643 316.27 313.789C317.002 313.789 317.73 313.828 318.461 313.899C319.188 313.973 319.917 314.081 320.647 314.229C322.98 314.668 325.279 315.177 327.54 315.762C329.803 316.344 332.098 317 334.43 317.731C336.62 318.46 338.733 319.339 340.777 320.36C342.822 321.373 344.717 322.543 346.467 323.854C350.114 326.631 352.999 329.654 355.107 332.938C357.226 336.219 358.576 339.611 359.161 343.115C359.89 346.612 360.362 350.264 360.583 354.054C360.8 357.847 360.908 361.713 360.908 365.651V403.728C360.908 404.019 360.908 404.275 360.908 404.492C360.908 404.713 360.908 404.894 360.908 405.039C360.908 405.185 360.908 405.33 360.908 405.476C360.908 405.623 360.908 405.764 360.908 405.914C360.908 407.521 360.982 409.092 361.125 410.619C361.278 412.149 361.42 413.645 361.567 415.101C361.859 416.564 362.482 417.912 363.426 419.151C364.374 420.392 365.652 421.595 367.257 422.764V453.178H311.24V442.677ZM309.264 394.539C309.123 394.826 308.938 395.012 308.72 395.086C308.504 395.156 308.317 395.269 308.174 395.411C307.883 395.558 307.663 395.664 307.516 395.744C307.368 395.815 307.159 395.851 306.855 395.851C306.423 395.995 305.983 396.142 305.548 396.29C305.112 396.432 304.74 396.576 304.457 396.724C304.306 396.871 304.163 396.941 304.011 396.941H303.798L303.58 397.165C301.683 397.743 299.786 398.481 297.887 399.352C295.991 400.227 294.237 401.104 292.64 401.973C291.037 403 289.831 404.204 289.027 405.589C288.22 406.972 287.822 408.614 287.822 410.511C287.822 410.652 287.822 410.766 287.822 410.84C287.822 410.91 287.822 411.023 287.822 411.165C287.822 411.313 287.822 411.459 287.822 411.603C287.822 412.625 288.008 413.575 288.365 414.446C288.732 415.323 289.208 416.127 289.793 416.857C290.374 417.736 291.037 418.352 291.764 418.714C292.492 419.084 293.37 419.187 294.387 419.043C294.538 419.043 294.678 419.043 294.824 419.043H295.043H295.259C296.428 419.043 297.562 418.968 298.657 418.828C299.745 418.679 300.884 418.389 302.048 417.946C303.21 417.506 304.417 416.966 305.66 416.311C306.896 415.647 308.103 414.887 309.264 414.011V413.575V394.539ZM434.873 357.774L444.062 347.056C444.792 346.319 445.486 345.556 446.145 344.756C446.8 343.953 447.348 343.185 447.785 342.457C448.227 341.73 448.659 340.958 449.092 340.158C449.533 339.354 449.828 338.59 449.972 337.862C450.265 336.986 450.516 336.001 450.736 334.91C450.956 333.812 451.064 332.757 451.064 331.735C451.064 331.154 451.064 330.564 451.064 329.988C451.064 329.403 451.138 328.817 451.287 328.232C451.287 327.651 451.287 327.03 451.287 326.373C451.287 325.718 451.287 325.025 451.287 324.291C451.287 324.002 451.287 323.745 451.287 323.528C451.287 323.31 451.287 323.129 451.287 322.978C451.287 322.69 451.287 322.398 451.287 322.108C451.287 321.809 451.287 321.524 451.287 321.232V315.323H509.053V346.18C508.762 346.471 508.36 346.799 507.85 347.167C507.337 347.526 506.721 347.851 505.99 348.144C505.697 348.292 505.371 348.474 505.004 348.691C504.642 348.911 504.315 349.094 504.022 349.24C503.584 349.535 503.181 349.824 502.817 350.114C502.448 350.406 502.118 350.7 501.837 350.988C501.681 351.137 501.54 351.282 501.397 351.429C501.252 351.573 501.098 351.647 500.961 351.647C500.815 351.797 500.665 351.94 500.527 352.087C500.374 352.228 500.23 352.375 500.081 352.526C499.936 352.665 499.828 352.815 499.755 352.962C499.685 353.108 499.569 353.177 499.425 353.177C499.284 353.329 499.166 353.474 499.099 353.617C499.022 353.767 498.915 353.909 498.774 354.054L482.796 373.748L497.243 403.511C497.243 403.943 497.276 404.275 497.349 404.492C497.417 404.713 497.529 404.969 497.672 405.258C497.822 405.406 497.925 405.551 498.004 405.695C498.077 405.844 498.184 405.988 498.332 406.135C498.332 406.28 498.332 406.422 498.332 406.577C498.332 406.719 498.404 406.793 498.547 406.793C499.284 408.396 500.048 409.963 500.849 411.497C501.651 413.025 502.488 414.525 503.365 415.985C504.241 417.438 505.371 418.714 506.759 419.809C508.143 420.905 509.785 421.892 511.681 422.764V453.178H465.067L435.312 393.224H434.873V404.167C434.873 404.457 434.873 404.713 434.873 404.932C434.873 405.153 434.873 405.33 434.873 405.476C434.873 405.623 434.873 405.764 434.873 405.914C434.873 406.064 434.873 406.207 434.873 406.354C434.873 408.098 434.942 409.709 435.093 411.165C435.235 412.625 435.384 414.011 435.529 415.323C435.821 416.64 436.435 417.912 437.389 419.151C438.337 420.392 439.613 421.595 441.224 422.764V453.178H376.883V422.329C377.033 422.473 377.136 422.546 377.211 422.546C377.288 422.546 377.393 422.473 377.543 422.329C377.688 422.179 377.802 422.071 377.87 421.995C377.939 421.926 378.052 421.821 378.2 421.671C379.368 420.501 380.349 419.336 381.153 418.17C381.954 417.004 382.425 415.834 382.576 414.669C382.866 413.503 383.048 412.189 383.122 410.726C383.19 409.27 383.226 407.735 383.226 406.135V405.914C383.226 405.764 383.226 405.623 383.226 405.476V314.668C383.226 314.811 383.226 314.811 383.226 314.668C383.226 314.522 383.226 314.375 383.226 314.229C383.226 314.081 383.226 313.937 383.226 313.789C383.226 313.643 383.226 313.506 383.226 313.352C383.226 311.743 383.154 310.178 383.014 308.647C382.866 307.115 382.645 305.695 382.357 304.382C382.208 303.07 381.659 301.792 380.711 300.553C379.765 299.311 378.493 298.112 376.883 296.941V265.65H434.873V357.774ZM595.71 442.677C595.563 442.968 595.455 443.15 595.379 443.223C595.304 443.297 595.27 443.406 595.27 443.553C595.13 443.698 595.02 443.808 594.947 443.879C594.868 443.955 594.762 443.987 594.618 443.987C594.471 444.139 594.325 444.246 594.178 444.316C594.03 444.392 593.884 444.502 593.74 444.645C591.109 446.689 588.483 448.475 585.858 450.01C583.234 451.538 580.607 452.596 577.983 453.178C575.209 454.056 572.334 454.749 569.339 455.262C566.35 455.77 563.176 456.026 559.823 456.026C553.841 456.026 548.44 455.186 543.632 453.512C538.813 451.831 534.655 449.245 531.158 445.738C527.66 442.24 525.028 438.122 523.28 433.378C521.526 428.638 520.651 423.201 520.651 417.074C520.651 410.216 521.6 404.349 523.493 399.459C525.392 394.574 528.172 390.745 531.81 387.972C535.607 385.057 539.872 382.429 544.612 380.097C549.357 377.76 554.642 375.645 560.478 373.748L593.74 362.586V357.774C593.74 356.318 593.59 354.859 593.303 353.399C593.011 351.94 592.577 350.48 591.987 349.023C591.402 347.564 590.496 346.471 589.252 345.742C588.012 345.012 586.522 344.646 584.771 344.646C582.726 344.646 581.047 345.012 579.733 345.742C578.43 346.471 577.402 347.564 576.676 349.023C576.091 350.48 575.61 351.975 575.249 353.505C574.886 355.036 574.702 356.608 574.702 358.211V363.464H526.341V329.539C530.132 327.067 534.035 324.877 538.047 322.978C542.065 321.09 546.256 319.482 550.633 318.17C555.007 316.858 559.46 315.796 563.977 314.994C568.502 314.197 573.023 313.643 577.546 313.352C577.983 313.352 578.43 313.352 578.861 313.352C579.296 313.352 579.733 313.279 580.171 313.132C580.467 313.132 580.829 313.132 581.263 313.132C581.707 313.132 582.141 313.132 582.577 313.132C583.019 313.132 583.458 313.132 583.892 313.132C584.33 313.132 584.771 313.063 585.207 312.915C585.643 312.915 586.08 312.915 586.522 312.915C586.956 312.915 587.398 312.915 587.828 312.915C589.143 312.915 590.496 312.949 591.881 313.021C593.267 313.099 594.683 313.206 596.148 313.352C596.874 313.352 597.605 313.391 598.329 313.462C599.065 313.535 599.863 313.643 600.745 313.789C601.472 313.789 602.201 313.828 602.935 313.899C603.659 313.973 604.391 314.081 605.115 314.229C607.452 314.668 609.753 315.177 612.012 315.762C614.273 316.344 616.572 317 618.902 317.731C621.092 318.46 623.21 319.339 625.249 320.36C627.295 321.373 629.188 322.543 630.937 323.854C634.588 326.631 637.469 329.654 639.587 332.938C641.702 336.219 643.045 339.611 643.629 343.115C644.359 346.612 644.834 350.264 645.058 354.054C645.274 357.847 645.384 361.713 645.384 365.651V403.728C645.384 404.019 645.384 404.275 645.384 404.492C645.384 404.713 645.384 404.894 645.384 405.039C645.384 405.185 645.384 405.33 645.384 405.476C645.384 405.623 645.384 405.764 645.384 405.914C645.384 407.521 645.456 409.092 645.601 410.619C645.749 412.149 645.891 413.645 646.037 415.101C646.337 416.564 646.953 417.912 647.892 419.151C648.844 420.392 650.12 421.595 651.732 422.764V453.178H595.71V442.677ZM593.74 394.539C593.59 394.826 593.411 395.012 593.195 395.086C592.974 395.156 592.792 395.269 592.641 395.411C592.352 395.558 592.13 395.664 591.987 395.744C591.843 395.815 591.623 395.851 591.334 395.851C590.897 395.995 590.456 396.142 590.019 396.29C589.58 396.432 589.22 396.576 588.923 396.724C588.782 396.871 588.63 396.941 588.483 396.941H588.271L588.047 397.165C586.154 397.743 584.256 398.481 582.358 399.352C580.467 400.227 578.714 401.104 577.112 401.973C575.501 403 574.297 404.204 573.5 405.589C572.696 406.972 572.294 408.614 572.294 410.511C572.294 410.652 572.294 410.766 572.294 410.84C572.294 410.91 572.294 411.023 572.294 411.165C572.294 411.313 572.294 411.459 572.294 411.603C572.294 412.625 572.478 413.575 572.84 414.446C573.206 415.323 573.683 416.127 574.263 416.857C574.848 417.736 575.501 418.352 576.235 418.714C576.964 419.084 577.838 419.187 578.861 419.043C579.004 419.043 579.154 419.043 579.296 419.043H579.513H579.733C580.904 419.043 582.03 418.968 583.126 418.828C584.224 418.679 585.349 418.389 586.522 417.946C587.688 417.506 588.883 416.966 590.129 416.311C591.37 415.647 592.577 414.887 593.74 414.011V413.575V394.539ZM711.907 405.039C711.907 405.331 711.907 405.589 711.907 405.805C711.907 406.026 711.907 406.207 711.907 406.354C711.907 406.494 711.907 406.719 711.907 407.012C711.907 407.443 711.907 407.849 711.907 408.211C711.907 408.575 711.907 408.906 711.907 409.198C711.907 409.491 711.907 409.775 711.907 410.075C711.907 410.366 711.907 410.652 711.907 410.946C711.907 412.698 712.083 414.344 712.455 415.871C712.816 417.401 713.293 418.828 713.872 420.142C714.458 421.595 715.446 422.658 716.826 423.311C718.218 423.967 720.003 424.298 722.192 424.298C723.505 424.298 724.747 424.04 725.908 423.533C727.077 423.021 728.172 422.256 729.194 421.237C730.066 420.212 730.76 419.084 731.27 417.843C731.782 416.6 732.039 415.254 732.039 413.791C732.039 411.603 731.596 409.709 730.722 408.098C729.849 406.494 728.607 405.185 727.003 404.167C725.402 403 723.725 402.049 721.974 401.323C720.223 400.588 718.324 399.931 716.278 399.352C715.844 399.203 715.446 399.093 715.076 399.023C714.714 398.947 714.381 398.844 714.093 398.694C713.651 398.694 713.253 398.655 712.893 398.584C712.524 398.512 712.126 398.404 711.689 398.25C710.958 398.113 710.264 397.967 709.607 397.819C708.951 397.674 708.332 397.526 707.75 397.381C707.594 397.381 707.524 397.309 707.524 397.165H707.304H707.089C706.801 397.165 706.508 397.126 706.214 397.053C705.927 396.98 705.63 396.871 705.339 396.724C705.048 396.724 704.76 396.685 704.466 396.618C704.176 396.545 703.882 396.432 703.587 396.29C697.755 394.97 692.319 393.403 687.287 391.581C682.25 389.761 677.622 387.678 673.389 385.346C669.307 383.014 666.208 379.474 664.089 374.734C661.98 369.992 660.921 364.046 660.921 356.897C660.921 353.25 661.21 349.787 661.794 346.507C662.377 343.223 663.18 340.192 664.202 337.425C665.368 334.508 666.975 331.806 669.016 329.329C671.055 326.846 673.682 324.516 676.888 322.323C678.5 321.159 680.253 320.137 682.15 319.259C684.038 318.39 686.08 317.655 688.273 317.074C690.313 316.344 692.431 315.72 694.616 315.215C696.804 314.704 698.998 314.299 701.185 314.011C702.496 313.719 703.806 313.535 705.12 313.462C706.434 313.389 707.75 313.279 709.06 313.132C709.792 313.132 710.446 313.132 711.028 313.132C711.609 313.132 712.268 313.063 712.998 312.915C713.583 312.915 714.204 312.915 714.857 312.915C715.518 312.915 716.138 312.915 716.717 312.915C717.454 312.915 718.138 312.915 718.799 312.915C719.455 312.915 720.074 312.915 720.659 312.915C720.95 312.915 721.28 312.915 721.646 312.915C722.009 312.915 722.333 312.915 722.626 312.915C722.919 313.063 723.249 313.132 723.61 313.132C723.975 313.132 724.306 313.132 724.599 313.132C729.411 313.279 734.191 313.789 738.932 314.668C743.67 315.538 748.375 316.634 753.042 317.949C757.713 319.259 762.197 321.015 766.503 323.202C770.805 325.386 774.926 327.944 778.868 330.86V363.245H730.947V358.211C730.947 358.357 730.947 358.357 730.947 358.211C730.947 358.069 730.947 357.924 730.947 357.774C730.947 357.627 730.947 357.521 730.947 357.447C730.947 357.373 730.947 357.264 730.947 357.115C730.947 356.971 730.947 356.824 730.947 356.678C730.797 355.215 730.507 353.836 730.066 352.526C729.63 351.212 729.046 349.967 728.316 348.803C727.586 347.635 726.569 346.725 725.253 346.066C723.942 345.413 722.405 345.082 720.659 345.082C719.201 345.082 717.886 345.337 716.717 345.849C715.556 346.362 714.458 347.056 713.434 347.925C712.42 348.803 711.689 349.787 711.25 350.883C710.811 351.975 710.59 353.177 710.59 354.491C710.59 356.24 710.923 357.774 711.573 359.09C712.232 360.401 713.219 361.494 714.532 362.372C715.844 363.245 717.269 363.976 718.799 364.558C720.329 365.139 721.824 365.578 723.282 365.871C723.575 366.017 723.907 366.126 724.269 366.202C724.63 366.27 725.029 366.384 725.47 366.531C725.77 366.67 726.096 366.78 726.461 366.856C726.82 366.928 727.15 366.962 727.441 366.962C727.734 366.962 728.027 367.001 728.316 367.077C728.607 367.148 728.977 367.181 729.411 367.181C729.701 367.33 729.998 367.438 730.287 367.512C730.577 367.585 730.871 367.624 731.161 367.624C731.453 367.768 731.747 367.874 732.039 367.949C732.325 368.024 732.619 368.059 732.915 368.059C733.062 368.059 733.203 368.059 733.351 368.059C733.497 368.059 733.638 368.059 733.784 368.059C733.934 368.202 734.081 368.28 734.224 368.28C734.365 368.28 734.521 368.28 734.663 368.28C741.082 369.733 747.065 371.412 752.605 373.307C758.148 375.204 763.329 377.398 768.148 379.874C772.958 382.212 776.57 385.997 778.972 391.258C781.383 396.5 782.589 403.219 782.589 411.386C782.589 420.286 781.129 427.76 778.208 433.812C775.288 439.869 770.843 444.355 764.862 447.267C759.025 450.333 752.643 452.563 745.714 453.945C738.786 455.334 731.453 456.026 723.725 456.026C721.824 456.026 719.969 455.987 718.138 455.918C716.312 455.841 714.381 455.662 712.344 455.367C711.319 455.225 710.3 455.116 709.278 455.041C708.259 454.968 707.304 454.861 706.434 454.711C705.412 454.564 704.397 454.422 703.371 454.279C702.344 454.126 701.331 453.985 700.305 453.838C696.804 453.4 693.379 452.745 690.025 451.869C686.663 450.994 683.309 449.896 679.957 448.586C676.747 447.267 673.754 445.711 670.985 443.879C668.217 442.058 665.663 440.052 663.326 437.861V401.76H711.907V405.039ZM851.734 321.447C852.465 321.301 853.195 321.046 853.922 320.687C854.652 320.323 855.381 319.923 856.111 319.482C856.84 319.188 857.604 318.863 858.407 318.492C859.213 318.129 859.98 317.805 860.702 317.508C862.896 316.634 865.079 315.871 867.27 315.215C869.462 314.557 871.641 314.081 873.832 313.789C876.022 313.506 878.212 313.279 880.402 313.132C882.59 312.991 884.702 312.915 886.745 312.915C889.371 313.063 891.923 313.352 894.403 313.789C896.888 314.229 899.22 314.883 901.41 315.762C903.592 316.634 905.604 317.585 907.423 318.607C909.247 319.629 910.814 320.796 912.131 322.108C914.468 324.44 916.363 326.814 917.817 329.222C919.274 331.627 920.296 334.071 920.878 336.549C921.461 339.026 921.901 341.655 922.198 344.426C922.488 347.196 922.633 350.036 922.633 352.962V404.167C922.633 404.457 922.633 404.713 922.633 404.932C922.633 405.153 922.633 405.33 922.633 405.476C922.633 405.623 922.633 405.764 922.633 405.914C922.633 406.064 922.633 406.207 922.633 406.354C922.633 406.494 922.633 406.646 922.633 406.793C922.633 406.934 922.633 407.048 922.633 407.117C922.633 407.189 922.633 407.3 922.633 407.443C922.633 407.591 922.633 407.735 922.633 407.888C922.633 408.028 922.633 408.176 922.633 408.322C922.633 409.775 922.707 411.203 922.852 412.592C922.995 413.971 923.215 415.323 923.505 416.64C923.794 417.946 924.388 419.116 925.256 420.142C926.134 421.158 927.299 422.036 928.757 422.764V453.178H873.832C873.397 451.283 873.03 449.317 872.741 447.267C872.445 445.228 872.157 443.115 871.869 440.927C871.717 439.761 871.607 438.665 871.54 437.643C871.465 436.621 871.426 435.534 871.426 434.36C871.282 433.341 871.211 432.286 871.211 431.188C871.211 430.092 871.211 429.035 871.211 428.015C871.065 426.849 870.992 425.648 870.992 424.409C870.992 423.169 870.992 421.964 870.992 420.795C870.992 419.627 870.992 418.425 870.992 417.183C870.992 415.946 870.992 414.669 870.992 413.355C870.992 413.065 870.992 412.813 870.992 412.592C870.992 412.37 870.992 412.188 870.992 412.043C870.992 411.747 870.992 411.497 870.992 411.277C870.992 411.059 870.992 410.881 870.992 410.726V370.032C870.992 369.733 870.992 369.521 870.992 369.375C870.992 369.081 870.992 368.644 870.992 368.059C870.992 367.474 870.992 366.821 870.992 366.088C870.992 365.359 870.953 364.593 870.878 363.791C870.81 362.99 870.621 362.149 870.333 361.277C870.333 361.127 870.333 360.983 870.333 360.833C870.333 360.69 870.262 360.546 870.112 360.401C869.97 360.105 869.896 359.89 869.896 359.747C869.896 359.597 869.862 359.453 869.786 359.305C869.714 359.157 869.675 359.017 869.675 358.868C869.531 358.868 869.462 358.795 869.462 358.651C869.462 358.505 869.462 358.357 869.462 358.211C868.876 357.335 868.184 356.46 867.379 355.589C866.577 354.71 865.74 353.979 864.864 353.399C863.836 352.665 862.783 352.156 861.689 351.866C860.594 351.573 859.467 351.429 858.298 351.429C857.714 351.429 857.166 351.463 856.656 351.54C856.144 351.608 855.599 351.719 855.013 351.866C854.432 352.014 853.887 352.156 853.373 352.307C852.866 352.453 852.314 352.665 851.734 352.962V404.167C851.734 404.457 851.734 404.713 851.734 404.932C851.734 405.153 851.734 405.33 851.734 405.476C851.734 405.623 851.734 405.844 851.734 406.135C851.734 406.28 851.734 406.46 851.734 406.683C851.734 406.903 851.734 407.154 851.734 407.443C851.734 407.591 851.734 407.735 851.734 407.888C851.734 408.028 851.734 408.176 851.734 408.322C851.734 409.775 851.806 411.203 851.953 412.592C852.096 413.971 852.314 415.323 852.608 416.64C852.899 417.946 853.519 419.116 854.471 420.142C855.415 421.158 856.617 422.036 858.083 422.764V453.178H793.739V422.329C795.348 421.595 796.623 420.689 797.574 419.589C798.52 418.496 799.069 417.22 799.213 415.759C799.509 414.446 799.724 413.025 799.874 411.497C800.018 409.963 800.088 408.322 800.088 406.577C800.088 406.422 800.088 406.28 800.088 406.135C800.088 405.988 800.088 405.877 800.088 405.805C800.088 405.729 800.088 405.623 800.088 405.476V314.668V314.883C800.088 314.742 800.088 314.593 800.088 314.446C800.088 314.299 800.088 314.197 800.088 314.12C800.088 314.045 800.088 313.937 800.088 313.789C800.088 313.643 800.088 313.506 800.088 313.352C800.088 313.206 800.088 313.063 800.088 312.915C800.088 311.318 800.018 309.741 799.874 308.207C799.724 306.678 799.509 305.182 799.213 303.723C798.922 302.269 798.303 300.99 797.354 299.899C796.408 298.8 795.127 297.819 793.527 296.941V265.65H851.734V321.447Z" fill="#009EE0"/>
<path fill-rule="evenodd" clip-rule="evenodd" d="M502.005 0C569.755 0 625.002 55.2578 625.002 123.008C625.002 190.743 569.755 246 502.005 246C434.254 246 379 190.743 379 123.008C379 55.2578 434.254 0 502.005 0ZM502.005 14.2159C561.918 14.2159 610.793 63.0883 610.793 123.008C610.793 182.919 561.918 231.781 502.005 231.781C442.085 231.781 393.221 182.919 393.221 123.008C393.221 63.0883 442.085 14.2159 502.005 14.2159Z" fill="#009EE0"/>
<path fill-rule="evenodd" clip-rule="evenodd" d="M502 28.1367C509.18 28.1367 515 33.9542 515 41.1342C515 48.3073 509.18 54.1367 502 54.1367C494.817 54.1367 489 48.3073 489 41.1342C489 33.9542 494.817 28.1367 502 28.1367Z" fill="#009EE0"/>
<path fill-rule="evenodd" clip-rule="evenodd" d="M448.739 176.834C441.407 180.199 432.73 177.013 429.349 169.711C425.966 162.406 429.165 153.757 436.499 150.391C449.666 144.922 462.494 136.068 470.979 124.792C479.37 114.178 486.243 100.124 487.412 80.1495V80.1376C487.469 79.1487 487.622 78.1839 487.865 77.2552L487.882 77.2051C487.904 77.1112 487.933 77.0089 487.958 76.9156L487.981 76.8526C488.003 76.7587 488.031 76.6755 488.061 76.5833L488.101 76.4776C488.118 76.4017 488.146 76.3342 488.17 76.2566L488.21 76.138C488.227 76.074 488.261 76.011 488.279 75.9379L488.348 75.7608L488.399 75.6304C488.427 75.5618 488.457 75.4898 488.486 75.4094L488.525 75.3234C488.559 75.2385 488.605 75.1519 488.637 75.0642L488.659 75.0215C488.704 74.9192 488.747 74.8196 488.797 74.7246C489.197 73.8712 489.68 73.065 490.236 72.3217L490.248 72.3116C490.375 72.1311 490.511 71.9602 490.655 71.7887L490.7 71.7348C490.756 71.6617 490.813 71.5942 490.873 71.5256L490.939 71.4536C490.978 71.3969 491.032 71.3412 491.08 71.2839L491.19 71.1652L491.322 71.0146L491.422 70.9151C491.467 70.8712 491.51 70.8229 491.558 70.7779L491.675 70.6531L491.801 70.5333L491.942 70.3984L492.04 70.305L492.19 70.1628L492.31 70.0605C492.366 70.0138 492.422 69.9593 492.474 69.9115L492.549 69.857C492.62 69.7929 492.687 69.7355 492.758 69.676L492.814 69.6287C492.984 69.4944 493.159 69.3611 493.34 69.2233L493.351 69.2206C494.099 68.6701 494.908 68.1917 495.761 67.7807C495.851 67.7408 495.958 67.6941 496.059 67.6503L496.099 67.6267C496.188 67.5918 496.281 67.5536 496.361 67.5125L496.456 67.4805C496.532 67.4484 496.598 67.4203 496.675 67.3928L496.804 67.3371L496.985 67.277C497.05 67.2477 497.116 67.2303 497.179 67.2055L497.299 67.16C497.375 67.1409 497.449 67.1145 497.521 67.0881L497.625 67.0588C497.716 67.0324 497.81 67.0003 497.894 66.9784L497.96 66.9582C498.06 66.9272 498.156 66.9025 498.248 66.8789L498.299 66.8626C499.236 66.6231 500.204 66.469 501.199 66.4123H501.204C501.316 66.4061 501.425 66.3976 501.532 66.3976H501.603C501.686 66.3931 501.765 66.3932 501.846 66.3932L502.005 66.3887L502.161 66.3932C502.244 66.3932 502.324 66.3931 502.412 66.3976H502.473C502.583 66.3976 502.69 66.4061 502.805 66.4123H502.816C503.803 66.469 504.774 66.6231 505.706 66.8626L505.752 66.8789C505.854 66.9025 505.952 66.9272 506.049 66.9582L506.115 66.9784C506.205 67.0003 506.293 67.0324 506.374 67.0588L506.484 67.0881C506.556 67.1145 506.634 67.1409 506.707 67.16L506.828 67.2055C506.895 67.2303 506.962 67.2477 507.031 67.277L507.211 67.3371L507.335 67.3928C507.413 67.4203 507.483 67.4484 507.552 67.4805L507.646 67.5125C507.73 67.5536 507.821 67.5918 507.905 67.6267L507.95 67.6503C508.048 67.6941 508.147 67.7408 508.249 67.7807C509.099 68.1917 509.905 68.6701 510.654 69.2206L510.665 69.2233C510.844 69.3611 511.019 69.4944 511.186 69.6287L511.246 69.676C511.32 69.7355 511.391 69.7929 511.46 69.857L511.529 69.9115C511.586 69.9593 511.643 70.0138 511.698 70.0605L511.811 70.1628L511.962 70.305L512.063 70.3984C512.12 70.4394 512.16 70.4866 512.209 70.5333L512.331 70.6531L512.45 70.7779L512.589 70.9151L512.682 71.0146L512.824 71.1652L512.925 71.2839C512.976 71.3412 513.024 71.3969 513.078 71.4536L513.135 71.5256C513.191 71.5942 513.257 71.6617 513.316 71.7348L513.361 71.7887C513.497 71.9602 513.629 72.1311 513.757 72.3116L513.769 72.3217C514.32 73.065 514.804 73.8712 515.205 74.7246C515.256 74.8196 515.304 74.9192 515.347 75.0215L515.363 75.0642C515.397 75.1519 515.437 75.2385 515.476 75.3234L515.51 75.4094C515.544 75.4898 515.573 75.5618 515.603 75.6304L515.653 75.7608L515.718 75.9379C515.746 76.011 515.769 76.074 515.793 76.138L515.838 76.2566C515.861 76.3342 515.883 76.4017 515.911 76.4776L515.94 76.5833C515.968 76.6755 515.99 76.7587 516.025 76.8526L516.042 76.9156C516.07 77.0089 516.092 77.1112 516.126 77.2051L516.137 77.2552C516.382 78.1839 516.541 79.1487 516.59 80.1376V80.1495C517.764 100.124 524.85 113.96 533.238 124.577C541.253 135.785 553.653 145.204 567.502 150.603C574.834 153.971 578.033 162.62 574.653 169.919C571.266 177.225 562.586 180.414 555.264 177.048C537.901 169.625 519.546 154.601 508.511 138.912C506.095 135.855 503.854 132.62 501.784 129.167C499.727 132.62 497.48 135.855 495.064 138.912C483.266 154.645 465.705 169.374 448.745 176.834H448.739Z" fill="#009EE0"/>
<path fill-rule="evenodd" clip-rule="evenodd" d="M1002 480.287H2V474.287H1002V480.287Z" fill="#1B1918"/>
<path fill-rule="evenodd" clip-rule="evenodd" d="M285.177 571.812V492.962H291.177V571.812H285.177Z" fill="#1B1918"/>
<mask id="path-7-outside-1_5_531" maskUnits="userSpaceOnUse" x="0" y="498.826" width="273" height="67" fill="black">
<rect fill="white" y="498.826" width="273" height="67"/>
<path fill-rule="evenodd" clip-rule="evenodd" d="M18.8641 544.971C18.8641 548.884 19.0286 552.162 19.3389 554.8C19.6667 557.455 20.2326 560.174 21.0463 562.977H14.181H7.29112C8.09028 560.23 8.63213 557.534 8.9565 554.882C9.26688 552.242 9.42857 548.941 9.42857 544.971V508.285L3 500.826H10.2959H17.5918C17.6198 501.648 17.8772 502.573 18.352 503.627C18.8268 504.669 19.4479 505.645 20.2063 506.577L39.7978 530.772H39.8091L57.6915 508C58.7614 506.688 59.6142 505.361 60.2797 504.059C60.9391 502.746 61.2667 501.679 61.2667 500.826H67.8989H74.5589C72.6518 503.627 71.3242 506.35 70.5787 509.001C69.8221 511.641 69.4419 514.919 69.4419 518.83V544.971C69.4419 548.884 69.6063 552.162 69.9167 554.8C70.2411 557.455 70.8086 560.174 71.6223 562.977H64.7587H57.8677C58.6668 560.23 59.2098 557.534 59.5313 554.882C59.844 552.242 60.0073 548.941 60.0073 544.971V518.194H59.9961L39.4573 544.971L18.8641 519.586V544.971ZM99.7026 563.925C93.7584 563.925 88.8701 561.934 85.0678 557.955C81.2643 553.976 79.3545 548.871 79.3545 542.629C79.3545 535.833 81.0312 530.175 84.3766 525.667C87.722 521.157 91.9028 518.912 96.9265 518.912H97.0093C101.922 518.912 105.713 520.615 108.38 524.03C111.035 527.44 112.361 532.301 112.361 538.623V542.508H88.4786C88.8997 546.421 90.036 549.67 91.8921 552.268C94.246 555.546 97.4399 557.183 101.49 557.183C103.318 557.183 105.104 556.94 106.878 556.466C108.652 555.992 110.249 555.314 111.683 554.448L108.271 562.693C106.391 563.196 104.873 563.533 103.736 563.68C102.585 563.844 101.231 563.925 99.7026 563.925ZM105.292 536.523C105.264 532.76 104.576 529.892 103.221 527.913C101.854 525.926 99.8654 524.934 97.2392 524.934H97.2782C94.4205 524.934 92.2127 526.154 90.658 528.591C89.4115 530.541 88.653 533.194 88.3985 536.523H105.292ZM136.337 563.925C131.031 563.925 126.818 562.259 123.706 558.929C120.607 555.598 119.048 551.091 119.048 545.403C119.048 537.812 121.199 531.503 125.492 526.466C129.783 521.43 135.171 518.912 141.658 518.912C143.403 518.912 145.028 519.155 146.532 519.628V516.258C146.532 513.456 146.396 511.125 146.137 509.272C145.868 507.417 145.395 505.55 144.704 503.64L150.743 502.408L156.806 501.133C156.169 502.88 155.735 504.955 155.492 507.362C155.261 509.775 155.142 513.158 155.142 517.519V550.36C155.142 553.717 155.275 556.317 155.558 558.16C155.831 560 156.318 561.597 157.009 562.977H151.77H146.532V557.1L141.412 562.897C139.436 563.614 137.745 563.952 136.337 563.925ZM138.72 525.016C134.887 525.016 132.127 526.316 130.433 528.929C128.741 531.527 127.89 535.78 127.89 541.668C127.89 546.38 128.917 550.117 130.96 552.879C133.006 555.641 135.78 557.021 139.275 557.021C140.967 557.021 142.537 556.71 143.999 556.072L146.532 554.718V527.523C144.527 525.857 141.914 525.016 138.72 525.016ZM165.89 550.36V532.477C165.89 530.15 165.756 528.063 165.497 526.208C165.226 524.354 164.751 522.242 164.06 519.86H170.222H176.367C175.677 521.238 175.191 522.851 174.921 524.693C174.636 526.546 174.499 529.146 174.499 532.477V550.36C174.499 553.717 174.636 556.317 174.921 558.16C175.191 560 175.677 561.597 176.367 562.977H170.222H164.06C164.751 561.651 165.226 560.067 165.497 558.212C165.756 556.372 165.89 553.743 165.89 550.36ZM169.98 501.854C171.59 501.854 172.958 502.503 174.08 503.801C175.204 505.087 175.758 506.673 175.758 508.554C175.758 510.435 175.204 512.006 174.08 513.293C172.958 514.579 171.59 515.216 169.98 515.216C168.355 515.216 166.986 514.579 165.865 513.293C164.739 512.006 164.185 510.435 164.185 508.554C164.185 506.673 164.739 505.087 165.865 503.801C166.986 502.503 168.355 501.854 169.98 501.854ZM211.378 562.693C209.416 563.196 207.844 563.533 206.64 563.68C205.435 563.844 204.013 563.925 202.373 563.925C196.662 563.925 191.91 561.922 188.106 557.901C184.315 553.88 182.42 548.83 182.42 542.752C182.42 535.928 184.519 530.244 188.729 525.708C192.927 521.172 198.193 518.912 204.515 518.912C206.207 518.912 207.681 518.963 208.94 519.088C210.186 519.209 211.932 519.466 214.153 519.86L213.721 529.808C212.134 528.089 210.552 526.857 208.984 526.086C207.4 525.316 205.679 524.934 203.799 524.934C199.991 524.934 196.974 526.371 194.74 529.24C192.507 532.111 191.383 535.982 191.383 540.883C191.383 545.881 192.575 549.845 194.943 552.782C197.299 555.723 200.494 557.183 204.515 557.183C205.893 557.183 207.317 556.981 208.792 556.586C210.281 556.196 212.271 555.477 214.789 554.448L211.378 562.693ZM232.795 563.925C228.585 563.925 225.349 563.031 223.075 561.231C220.801 559.43 219.663 556.86 219.663 553.528C219.663 551.308 220.462 549.223 222.059 547.258C223.659 545.31 225.822 543.756 228.543 542.617L241.245 537.39V533.465C241.245 531.109 240.514 529.24 239.062 527.86C237.601 526.466 235.651 525.776 233.188 525.776C231.604 525.776 230.075 526.046 228.585 526.587C227.111 527.128 225.483 528.021 223.71 529.257L226.093 520.969C227.786 520.251 229.424 519.736 231.006 519.412C232.593 519.074 234.204 518.912 235.839 518.912C240.496 518.912 244.003 520.13 246.347 522.566C248.69 524.991 249.855 528.632 249.855 533.465V550.36C249.855 553.963 249.963 556.684 250.192 558.511C250.407 560.351 250.815 561.84 251.396 562.977H246.32H241.245V558.847L234.542 563.844L232.795 563.925ZM241.245 556.426V544.567H230.128C229.869 544.567 229.533 545.366 229.114 546.962C228.706 548.559 228.504 549.915 228.504 550.996C228.504 553.027 229.166 554.559 230.492 555.573C231.807 556.586 233.797 557.1 236.437 557.1C238.075 557.1 239.661 556.872 241.163 556.426H241.245ZM260.291 550.36V516.258C260.291 513.456 260.155 511.125 259.898 509.272C259.629 507.417 259.154 505.55 258.465 503.64L264.623 502.408L270.771 501.133C270.079 503.098 269.593 505.281 269.319 507.675C269.037 510.083 268.902 513.361 268.902 517.519V550.36C268.902 553.717 269.037 556.317 269.319 558.16C269.593 560 270.079 561.597 270.771 562.977H264.623H258.465C259.154 561.651 259.629 560.067 259.898 558.212C260.155 556.372 260.291 553.743 260.291 550.36Z"/>
</mask>
<path fill-rule="evenodd" clip-rule="evenodd" d="M18.8641 544.971C18.8641 548.884 19.0286 552.162 19.3389 554.8C19.6667 557.455 20.2326 560.174 21.0463 562.977H14.181H7.29112C8.09028 560.23 8.63213 557.534 8.9565 554.882C9.26688 552.242 9.42857 548.941 9.42857 544.971V508.285L3 500.826H10.2959H17.5918C17.6198 501.648 17.8772 502.573 18.352 503.627C18.8268 504.669 19.4479 505.645 20.2063 506.577L39.7978 530.772H39.8091L57.6915 508C58.7614 506.688 59.6142 505.361 60.2797 504.059C60.9391 502.746 61.2667 501.679 61.2667 500.826H67.8989H74.5589C72.6518 503.627 71.3242 506.35 70.5787 509.001C69.8221 511.641 69.4419 514.919 69.4419 518.83V544.971C69.4419 548.884 69.6063 552.162 69.9167 554.8C70.2411 557.455 70.8086 560.174 71.6223 562.977H64.7587H57.8677C58.6668 560.23 59.2098 557.534 59.5313 554.882C59.844 552.242 60.0073 548.941 60.0073 544.971V518.194H59.9961L39.4573 544.971L18.8641 519.586V544.971ZM99.7026 563.925C93.7584 563.925 88.8701 561.934 85.0678 557.955C81.2643 553.976 79.3545 548.871 79.3545 542.629C79.3545 535.833 81.0312 530.175 84.3766 525.667C87.722 521.157 91.9028 518.912 96.9265 518.912H97.0093C101.922 518.912 105.713 520.615 108.38 524.03C111.035 527.44 112.361 532.301 112.361 538.623V542.508H88.4786C88.8997 546.421 90.036 549.67 91.8921 552.268C94.246 555.546 97.4399 557.183 101.49 557.183C103.318 557.183 105.104 556.94 106.878 556.466C108.652 555.992 110.249 555.314 111.683 554.448L108.271 562.693C106.391 563.196 104.873 563.533 103.736 563.68C102.585 563.844 101.231 563.925 99.7026 563.925ZM105.292 536.523C105.264 532.76 104.576 529.892 103.221 527.913C101.854 525.926 99.8654 524.934 97.2392 524.934H97.2782C94.4205 524.934 92.2127 526.154 90.658 528.591C89.4115 530.541 88.653 533.194 88.3985 536.523H105.292ZM136.337 563.925C131.031 563.925 126.818 562.259 123.706 558.929C120.607 555.598 119.048 551.091 119.048 545.403C119.048 537.812 121.199 531.503 125.492 526.466C129.783 521.43 135.171 518.912 141.658 518.912C143.403 518.912 145.028 519.155 146.532 519.628V516.258C146.532 513.456 146.396 511.125 146.137 509.272C145.868 507.417 145.395 505.55 144.704 503.64L150.743 502.408L156.806 501.133C156.169 502.88 155.735 504.955 155.492 507.362C155.261 509.775 155.142 513.158 155.142 517.519V550.36C155.142 553.717 155.275 556.317 155.558 558.16C155.831 560 156.318 561.597 157.009 562.977H151.77H146.532V557.1L141.412 562.897C139.436 563.614 137.745 563.952 136.337 563.925ZM138.72 525.016C134.887 525.016 132.127 526.316 130.433 528.929C128.741 531.527 127.89 535.78 127.89 541.668C127.89 546.38 128.917 550.117 130.96 552.879C133.006 555.641 135.78 557.021 139.275 557.021C140.967 557.021 142.537 556.71 143.999 556.072L146.532 554.718V527.523C144.527 525.857 141.914 525.016 138.72 525.016ZM165.89 550.36V532.477C165.89 530.15 165.756 528.063 165.497 526.208C165.226 524.354 164.751 522.242 164.06 519.86H170.222H176.367C175.677 521.238 175.191 522.851 174.921 524.693C174.636 526.546 174.499 529.146 174.499 532.477V550.36C174.499 553.717 174.636 556.317 174.921 558.16C175.191 560 175.677 561.597 176.367 562.977H170.222H164.06C164.751 561.651 165.226 560.067 165.497 558.212C165.756 556.372 165.89 553.743 165.89 550.36ZM169.98 501.854C171.59 501.854 172.958 502.503 174.08 503.801C175.204 505.087 175.758 506.673 175.758 508.554C175.758 510.435 175.204 512.006 174.08 513.293C172.958 514.579 171.59 515.216 169.98 515.216C168.355 515.216 166.986 514.579 165.865 513.293C164.739 512.006 164.185 510.435 164.185 508.554C164.185 506.673 164.739 505.087 165.865 503.801C166.986 502.503 168.355 501.854 169.98 501.854ZM211.378 562.693C209.416 563.196 207.844 563.533 206.64 563.68C205.435 563.844 204.013 563.925 202.373 563.925C196.662 563.925 191.91 561.922 188.106 557.901C184.315 553.88 182.42 548.83 182.42 542.752C182.42 535.928 184.519 530.244 188.729 525.708C192.927 521.172 198.193 518.912 204.515 518.912C206.207 518.912 207.681 518.963 208.94 519.088C210.186 519.209 211.932 519.466 214.153 519.86L213.721 529.808C212.134 528.089 210.552 526.857 208.984 526.086C207.4 525.316 205.679 524.934 203.799 524.934C199.991 524.934 196.974 526.371 194.74 529.24C192.507 532.111 191.383 535.982 191.383 540.883C191.383 545.881 192.575 549.845 194.943 552.782C197.299 555.723 200.494 557.183 204.515 557.183C205.893 557.183 207.317 556.981 208.792 556.586C210.281 556.196 212.271 555.477 214.789 554.448L211.378 562.693ZM232.795 563.925C228.585 563.925 225.349 563.031 223.075 561.231C220.801 559.43 219.663 556.86 219.663 553.528C219.663 551.308 220.462 549.223 222.059 547.258C223.659 545.31 225.822 543.756 228.543 542.617L241.245 537.39V533.465C241.245 531.109 240.514 529.24 239.062 527.86C237.601 526.466 235.651 525.776 233.188 525.776C231.604 525.776 230.075 526.046 228.585 526.587C227.111 527.128 225.483 528.021 223.71 529.257L226.093 520.969C227.786 520.251 229.424 519.736 231.006 519.412C232.593 519.074 234.204 518.912 235.839 518.912C240.496 518.912 244.003 520.13 246.347 522.566C248.69 524.991 249.855 528.632 249.855 533.465V550.36C249.855 553.963 249.963 556.684 250.192 558.511C250.407 560.351 250.815 561.84 251.396 562.977H246.32H241.245V558.847L234.542 563.844L232.795 563.925ZM241.245 556.426V544.567H230.128C229.869 544.567 229.533 545.366 229.114 546.962C228.706 548.559 228.504 549.915 228.504 550.996C228.504 553.027 229.166 554.559 230.492 555.573C231.807 556.586 233.797 557.1 236.437 557.1C238.075 557.1 239.661 556.872 241.163 556.426H241.245ZM260.291 550.36V516.258C260.291 513.456 260.155 511.125 259.898 509.272C259.629 507.417 259.154 505.55 258.465 503.64L264.623 502.408L270.771 501.133C270.079 503.098 269.593 505.281 269.319 507.675C269.037 510.083 268.902 513.361 268.902 517.519V550.36C268.902 553.717 269.037 556.317 269.319 558.16C269.593 560 270.079 561.597 270.771 562.977H264.623H258.465C259.154 561.651 259.629 560.067 259.898 558.212C260.155 556.372 260.291 553.743 260.291 550.36Z" fill="#E30016"/>
<path fill-rule="evenodd" clip-rule="evenodd" d="M18.8641 544.971C18.8641 548.884 19.0286 552.162 19.3389 554.8C19.6667 557.455 20.2326 560.174 21.0463 562.977H14.181H7.29112C8.09028 560.23 8.63213 557.534 8.9565 554.882C9.26688 552.242 9.42857 548.941 9.42857 544.971V508.285L3 500.826H10.2959H17.5918C17.6198 501.648 17.8772 502.573 18.352 503.627C18.8268 504.669 19.4479 505.645 20.2063 506.577L39.7978 530.772H39.8091L57.6915 508C58.7614 506.688 59.6142 505.361 60.2797 504.059C60.9391 502.746 61.2667 501.679 61.2667 500.826H67.8989H74.5589C72.6518 503.627 71.3242 506.35 70.5787 509.001C69.8221 511.641 69.4419 514.919 69.4419 518.83V544.971C69.4419 548.884 69.6063 552.162 69.9167 554.8C70.2411 557.455 70.8086 560.174 71.6223 562.977H64.7587H57.8677C58.6668 560.23 59.2098 557.534 59.5313 554.882C59.844 552.242 60.0073 548.941 60.0073 544.971V518.194H59.9961L39.4573 544.971L18.8641 519.586V544.971ZM99.7026 563.925C93.7584 563.925 88.8701 561.934 85.0678 557.955C81.2643 553.976 79.3545 548.871 79.3545 542.629C79.3545 535.833 81.0312 530.175 84.3766 525.667C87.722 521.157 91.9028 518.912 96.9265 518.912H97.0093C101.922 518.912 105.713 520.615 108.38 524.03C111.035 527.44 112.361 532.301 112.361 538.623V542.508H88.4786C88.8997 546.421 90.036 549.67 91.8921 552.268C94.246 555.546 97.4399 557.183 101.49 557.183C103.318 557.183 105.104 556.94 106.878 556.466C108.652 555.992 110.249 555.314 111.683 554.448L108.271 562.693C106.391 563.196 104.873 563.533 103.736 563.68C102.585 563.844 101.231 563.925 99.7026 563.925ZM105.292 536.523C105.264 532.76 104.576 529.892 103.221 527.913C101.854 525.926 99.8654 524.934 97.2392 524.934H97.2782C94.4205 524.934 92.2127 526.154 90.658 528.591C89.4115 530.541 88.653 533.194 88.3985 536.523H105.292ZM136.337 563.925C131.031 563.925 126.818 562.259 123.706 558.929C120.607 555.598 119.048 551.091 119.048 545.403C119.048 537.812 121.199 531.503 125.492 526.466C129.783 521.43 135.171 518.912 141.658 518.912C143.403 518.912 145.028 519.155 146.532 519.628V516.258C146.532 513.456 146.396 511.125 146.137 509.272C145.868 507.417 145.395 505.55 144.704 503.64L150.743 502.408L156.806 501.133C156.169 502.88 155.735 504.955 155.492 507.362C155.261 509.775 155.142 513.158 155.142 517.519V550.36C155.142 553.717 155.275 556.317 155.558 558.16C155.831 560 156.318 561.597 157.009 562.977H151.77H146.532V557.1L141.412 562.897C139.436 563.614 137.745 563.952 136.337 563.925ZM138.72 525.016C134.887 525.016 132.127 526.316 130.433 528.929C128.741 531.527 127.89 535.78 127.89 541.668C127.89 546.38 128.917 550.117 130.96 552.879C133.006 555.641 135.78 557.021 139.275 557.021C140.967 557.021 142.537 556.71 143.999 556.072L146.532 554.718V527.523C144.527 525.857 141.914 525.016 138.72 525.016ZM165.89 550.36V532.477C165.89 530.15 165.756 528.063 165.497 526.208C165.226 524.354 164.751 522.242 164.06 519.86H170.222H176.367C175.677 521.238 175.191 522.851 174.921 524.693C174.636 526.546 174.499 529.146 174.499 532.477V550.36C174.499 553.717 174.636 556.317 174.921 558.16C175.191 560 175.677 561.597 176.367 562.977H170.222H164.06C164.751 561.651 165.226 560.067 165.497 558.212C165.756 556.372 165.89 553.743 165.89 550.36ZM169.98 501.854C171.59 501.854 172.958 502.503 174.08 503.801C175.204 505.087 175.758 506.673 175.758 508.554C175.758 510.435 175.204 512.006 174.08 513.293C172.958 514.579 171.59 515.216 169.98 515.216C168.355 515.216 166.986 514.579 165.865 513.293C164.739 512.006 164.185 510.435 164.185 508.554C164.185 506.673 164.739 505.087 165.865 503.801C166.986 502.503 168.355 501.854 169.98 501.854ZM211.378 562.693C209.416 563.196 207.844 563.533 206.64 563.68C205.435 563.844 204.013 563.925 202.373 563.925C196.662 563.925 191.91 561.922 188.106 557.901C184.315 553.88 182.42 548.83 182.42 542.752C182.42 535.928 184.519 530.244 188.729 525.708C192.927 521.172 198.193 518.912 204.515 518.912C206.207 518.912 207.681 518.963 208.94 519.088C210.186 519.209 211.932 519.466 214.153 519.86L213.721 529.808C212.134 528.089 210.552 526.857 208.984 526.086C207.4 525.316 205.679 524.934 203.799 524.934C199.991 524.934 196.974 526.371 194.74 529.24C192.507 532.111 191.383 535.982 191.383 540.883C191.383 545.881 192.575 549.845 194.943 552.782C197.299 555.723 200.494 557.183 204.515 557.183C205.893 557.183 207.317 556.981 208.792 556.586C210.281 556.196 212.271 555.477 214.789 554.448L211.378 562.693ZM232.795 563.925C228.585 563.925 225.349 563.031 223.075 561.231C220.801 559.43 219.663 556.86 219.663 553.528C219.663 551.308 220.462 549.223 222.059 547.258C223.659 545.31 225.822 543.756 228.543 542.617L241.245 537.39V533.465C241.245 531.109 240.514 529.24 239.062 527.86C237.601 526.466 235.651 525.776 233.188 525.776C231.604 525.776 230.075 526.046 228.585 526.587C227.111 527.128 225.483 528.021 223.71 529.257L226.093 520.969C227.786 520.251 229.424 519.736 231.006 519.412C232.593 519.074 234.204 518.912 235.839 518.912C240.496 518.912 244.003 520.13 246.347 522.566C248.69 524.991 249.855 528.632 249.855 533.465V550.36C249.855 553.963 249.963 556.684 250.192 558.511C250.407 560.351 250.815 561.84 251.396 562.977H246.32H241.245V558.847L234.542 563.844L232.795 563.925ZM241.245 556.426V544.567H230.128C229.869 544.567 229.533 545.366 229.114 546.962C228.706 548.559 228.504 549.915 228.504 550.996C228.504 553.027 229.166 554.559 230.492 555.573C231.807 556.586 233.797 557.1 236.437 557.1C238.075 557.1 239.661 556.872 241.163 556.426H241.245ZM260.291 550.36V516.258C260.291 513.456 260.155 511.125 259.898 509.272C259.629 507.417 259.154 505.55 258.465 503.64L264.623 502.408L270.771 501.133C270.079 503.098 269.593 505.281 269.319 507.675C269.037 510.083 268.902 513.361 268.902 517.519V550.36C268.902 553.717 269.037 556.317 269.319 558.16C269.593 560 270.079 561.597 270.771 562.977H264.623H258.465C259.154 561.651 259.629 560.067 259.898 558.212C260.155 556.372 260.291 553.743 260.291 550.36Z" stroke="#E30016" stroke-width="2" mask="url(#path-7-outside-1_5_531)"/>
<mask id="path-8-outside-2_5_531" maskUnits="userSpaceOnUse" x="594.022" y="499.307" width="409" height="66" fill="black">
<rect fill="white" x="594.022" y="499.307" width="409" height="66"/>
<path fill-rule="evenodd" clip-rule="evenodd" d="M598.169 544.772V519.034C598.169 515.212 598.01 511.997 597.7 509.384C597.381 506.787 596.838 504.091 596.022 501.307H607.456H629.487L627.144 506.307L624.771 511.345C622.401 510.09 620.08 509.211 617.827 508.704C615.562 508.198 612.829 507.946 609.656 507.946H607.456V527.977H627.263L624.452 532.934L621.638 537.893C619.653 536.692 617.601 535.854 615.47 535.362C613.335 534.865 610.658 534.615 607.456 534.615V544.772C607.456 548.622 607.616 551.846 607.923 554.446C608.244 557.058 608.804 559.737 609.604 562.497H602.847H596.065C596.852 559.79 597.381 557.14 597.7 554.527C598.01 551.927 598.169 548.676 598.169 544.772ZM652.92 563.43C647.562 563.43 643.096 561.442 639.524 557.475C635.965 553.515 634.181 548.528 634.181 542.546C634.181 535.826 636.165 530.244 640.137 525.792C644.108 521.339 649.068 519.113 655.039 519.113C660.423 519.113 664.888 521.102 668.446 525.084C672.003 529.069 673.776 534.053 673.776 540.038C673.776 546.756 671.804 552.326 667.847 556.765C663.886 561.202 658.916 563.43 652.92 563.43ZM657.489 557.496C659.782 556.537 661.596 554.768 662.941 552.208C664.285 549.648 664.955 546.636 664.955 543.196C664.955 537.787 663.647 533.44 661.047 530.175C658.45 526.911 654.917 525.206 650.466 525.047C648.175 525.978 646.362 527.75 645.017 530.337C643.669 532.922 643.004 535.949 643.004 539.372C643.004 544.794 644.31 549.13 646.91 552.382C649.508 555.631 653.038 557.338 657.489 557.496ZM689.424 532.47V548.274C689.424 550.727 689.984 552.543 691.117 553.726C692.251 554.914 693.98 555.499 696.3 555.499C698.141 555.499 700.353 554.993 702.936 553.979L704.338 553.433V532.47C704.338 530.15 704.206 528.082 703.951 526.256C703.684 524.431 703.217 522.367 702.54 520.048H708.603H714.653C713.973 521.406 713.493 522.991 713.225 524.806C712.949 526.633 712.816 529.19 712.816 532.47V550.078C712.816 553.379 712.949 555.938 713.225 557.751C713.493 559.565 713.973 561.137 714.653 562.497H709.736H704.763V555.274L698.087 562.536C695.675 563.162 693.848 563.469 692.622 563.469C688.797 563.469 685.891 562.455 683.92 560.418C681.933 558.392 680.947 555.432 680.947 551.553V532.47C680.947 530.175 680.813 528.11 680.562 526.297C680.295 524.473 679.829 522.391 679.15 520.048H685.215H691.262C690.583 521.406 690.102 522.991 689.81 524.806C689.557 526.633 689.424 529.19 689.424 532.47ZM724.448 550.078V532.47C724.448 530.15 724.317 528.082 724.063 526.256C723.797 524.431 723.328 522.367 722.652 520.048H727.767H732.926V527.431L739.364 520.008C741.549 519.406 743.376 519.113 744.827 519.113C748.678 519.113 751.611 520.314 753.61 522.725C755.623 525.139 756.622 528.642 756.622 533.254V550.078C756.622 553.62 756.731 556.298 756.955 558.099C757.169 559.908 757.567 561.377 758.143 562.497H752.251H746.346C747.027 561.191 747.492 559.63 747.761 557.805C748.011 555.993 748.147 553.405 748.147 550.078V534.427C748.147 531.948 747.572 530.108 746.426 528.895C745.282 527.684 743.521 527.083 741.162 527.083C739.549 527.083 737.444 527.684 734.831 528.883L732.926 529.737V550.078C732.926 553.379 733.059 555.938 733.337 557.751C733.605 559.565 734.085 561.137 734.764 562.497H728.714H722.652C723.328 561.191 723.797 559.63 724.063 557.805C724.317 555.993 724.448 553.405 724.448 550.078ZM782.264 563.43C777.043 563.43 772.897 561.789 769.831 558.513C766.78 555.231 765.247 550.796 765.247 545.195C765.247 537.72 767.367 531.509 771.59 526.552C775.814 521.592 781.118 519.113 787.502 519.113C789.222 519.113 790.821 519.355 792.302 519.822V516.5C792.302 513.743 792.168 511.451 791.914 509.624C791.648 507.798 791.182 505.959 790.501 504.081L796.446 502.867L802.419 501.615C801.793 503.333 801.365 505.374 801.123 507.745C800.896 510.119 800.778 513.45 800.778 517.74V550.078C800.778 553.379 800.913 555.938 801.191 557.751C801.457 559.565 801.935 561.137 802.617 562.497H797.459H792.302V556.712L787.264 562.417C785.319 563.124 783.652 563.456 782.264 563.43ZM784.609 525.127C780.84 525.127 778.12 526.404 776.455 528.977C774.788 531.533 773.948 535.72 773.948 541.518C773.948 546.158 774.961 549.836 776.975 552.554C778.986 555.274 781.72 556.633 785.157 556.633C786.822 556.633 788.37 556.324 789.808 555.7L792.302 554.365V527.592C790.329 525.952 787.757 525.127 784.609 525.127ZM821.195 563.43C817.051 563.43 813.864 562.55 811.628 560.776C809.386 559.003 808.267 556.471 808.267 553.193C808.267 551.008 809.054 548.956 810.627 547.022C812.2 545.103 814.331 543.569 817.011 542.453L829.51 537.306V533.44C829.51 531.123 828.793 529.283 827.366 527.923C825.928 526.552 824.007 525.872 821.582 525.872C820.023 525.872 818.517 526.138 817.051 526.671C815.599 527.204 813.996 528.082 812.252 529.296L814.598 521.139C816.264 520.433 817.879 519.928 819.437 519.608C820.996 519.275 822.581 519.113 824.195 519.113C828.779 519.113 832.233 520.314 834.537 522.715C836.844 525.099 837.99 528.685 837.99 533.44V550.078C837.99 553.62 838.096 556.298 838.322 558.099C838.537 559.908 838.935 561.377 839.507 562.497H834.51H829.51V558.432L822.916 563.349L821.195 563.43ZM829.51 556.046V544.37H818.572C818.317 544.37 817.985 545.158 817.57 546.73C817.172 548.302 816.972 549.635 816.972 550.702C816.972 552.7 817.624 554.206 818.93 555.206C820.223 556.205 822.182 556.712 824.781 556.712C826.395 556.712 827.954 556.485 829.431 556.046H829.51ZM858.807 563.43C855.476 563.43 853.049 562.441 851.517 560.457C849.997 558.485 849.238 555.312 849.238 550.967V525.898H843.227L857.674 510.679H857.713V520.048H867.591V525.898H857.713V547.409C857.713 550.276 858.208 552.42 859.179 553.832C860.152 555.26 861.619 555.968 863.565 555.968C864.763 555.968 865.871 555.817 866.868 555.541C867.869 555.245 869.067 554.739 870.481 554.018L867.123 562.176C865.642 562.668 864.338 563.003 863.232 563.177C862.124 563.349 860.66 563.43 858.807 563.43ZM874.774 550.078V532.47C874.774 530.175 874.641 528.125 874.388 526.297C874.121 524.473 873.655 522.391 872.975 520.048H879.038H885.091C884.41 521.406 883.931 522.991 883.665 524.806C883.382 526.633 883.251 529.19 883.251 532.47V550.078C883.251 553.379 883.382 555.938 883.665 557.751C883.931 559.565 884.41 561.137 885.091 562.497H879.038H872.975C873.655 561.191 874.121 559.63 874.388 557.805C874.641 555.993 874.774 553.405 874.774 550.078ZM878.798 502.323C880.384 502.323 881.732 502.96 882.835 504.24C883.944 505.506 884.491 507.067 884.491 508.92C884.491 510.769 883.944 512.319 882.835 513.581C881.732 514.851 880.384 515.477 878.798 515.477C877.2 515.477 875.855 514.851 874.747 513.581C873.639 512.319 873.093 510.769 873.093 508.92C873.093 507.067 873.639 505.506 874.747 504.24C875.855 502.96 877.2 502.323 878.798 502.323ZM909.479 563.43C904.12 563.43 899.659 561.442 896.085 557.475C892.525 553.515 890.741 548.528 890.741 542.546C890.741 535.826 892.728 530.244 896.698 525.792C900.669 521.339 905.629 519.113 911.597 519.113C916.984 519.113 921.45 521.102 925.007 525.084C928.565 529.069 930.337 534.053 930.337 540.038C930.337 546.756 928.363 552.326 924.405 556.765C920.448 561.202 915.478 563.43 909.479 563.43ZM914.052 557.496C916.342 556.537 918.157 554.768 919.5 552.208C920.849 549.648 921.513 546.636 921.513 543.196C921.513 537.787 920.208 533.44 917.609 530.175C915.011 526.911 911.478 525.206 907.026 525.047C904.733 525.978 902.922 527.75 901.575 530.337C900.228 532.922 899.561 535.949 899.561 539.372C899.561 544.794 900.868 549.13 903.47 552.382C906.07 555.631 909.6 557.338 914.052 557.496ZM938.255 550.078V532.47C938.255 530.15 938.119 528.082 937.869 526.256C937.601 524.431 937.134 522.367 936.454 520.048H941.574H946.73V527.431L953.17 520.008C955.353 519.406 957.179 519.113 958.634 519.113C962.484 519.113 965.417 520.314 967.416 522.725C969.429 525.139 970.427 528.642 970.427 533.254V550.078C970.427 553.62 970.534 556.298 970.76 558.099C970.973 559.908 971.374 561.377 971.946 562.497H966.055H960.15C960.831 561.191 961.299 559.63 961.565 557.805C961.817 555.993 961.951 553.405 961.951 550.078V534.427C961.951 531.948 961.379 530.108 960.23 528.895C959.085 527.684 957.326 527.083 954.968 527.083C953.355 527.083 951.248 527.684 948.637 528.883L946.73 529.737V550.078C946.73 553.379 946.865 555.938 947.145 557.751C947.409 559.565 947.893 561.137 948.568 562.497H942.517H936.454C937.134 561.191 937.601 559.63 937.869 557.805C938.119 555.993 938.255 553.405 938.255 550.078ZM1000.48 529.11C999.283 527.699 998.069 526.671 996.817 526.019C995.564 525.365 994.176 525.047 992.645 525.047C990.953 525.047 989.54 525.485 988.432 526.379C987.313 527.258 986.754 528.364 986.754 529.696C986.754 530.99 987.128 532.164 987.888 533.2C988.605 534.254 990.004 535.56 992.058 537.146C995.524 539.84 997.948 542.185 999.363 544.224C1000.73 546.221 1001.43 548.393 1001.43 550.742C1001.43 554.381 1000.16 557.406 997.616 559.817C995.072 562.232 991.871 563.43 988.019 563.43C985.915 563.43 984.103 563.309 982.608 563.056C981.117 562.817 979.264 562.335 977.076 561.629V551.515C978.715 553.499 980.356 554.965 982.008 555.924C983.649 556.898 985.33 557.378 987.048 557.378C988.711 557.378 990.1 556.885 991.193 555.913C992.286 554.938 992.833 553.714 992.833 552.22C992.833 551.02 992.392 549.874 991.498 548.756C990.645 547.648 988.978 546.158 986.512 544.263C983.397 541.84 981.197 539.653 979.917 537.695C978.664 535.774 978.039 533.628 978.039 531.255C978.039 527.763 979.426 524.873 982.197 522.566C984.969 520.26 988.445 519.113 992.632 519.113C994.176 519.113 995.497 519.248 996.616 519.5C997.735 519.765 999.029 520.234 1000.48 520.914V529.11Z"/>
</mask>
<path fill-rule="evenodd" clip-rule="evenodd" d="M598.169 544.772V519.034C598.169 515.212 598.01 511.997 597.7 509.384C597.381 506.787 596.838 504.091 596.022 501.307H607.456H629.487L627.144 506.307L624.771 511.345C622.401 510.09 620.08 509.211 617.827 508.704C615.562 508.198 612.829 507.946 609.656 507.946H607.456V527.977H627.263L624.452 532.934L621.638 537.893C619.653 536.692 617.601 535.854 615.47 535.362C613.335 534.865 610.658 534.615 607.456 534.615V544.772C607.456 548.622 607.616 551.846 607.923 554.446C608.244 557.058 608.804 559.737 609.604 562.497H602.847H596.065C596.852 559.79 597.381 557.14 597.7 554.527C598.01 551.927 598.169 548.676 598.169 544.772ZM652.92 563.43C647.562 563.43 643.096 561.442 639.524 557.475C635.965 553.515 634.181 548.528 634.181 542.546C634.181 535.826 636.165 530.244 640.137 525.792C644.108 521.339 649.068 519.113 655.039 519.113C660.423 519.113 664.888 521.102 668.446 525.084C672.003 529.069 673.776 534.053 673.776 540.038C673.776 546.756 671.804 552.326 667.847 556.765C663.886 561.202 658.916 563.43 652.92 563.43ZM657.489 557.496C659.782 556.537 661.596 554.768 662.941 552.208C664.285 549.648 664.955 546.636 664.955 543.196C664.955 537.787 663.647 533.44 661.047 530.175C658.45 526.911 654.917 525.206 650.466 525.047C648.175 525.978 646.362 527.75 645.017 530.337C643.669 532.922 643.004 535.949 643.004 539.372C643.004 544.794 644.31 549.13 646.91 552.382C649.508 555.631 653.038 557.338 657.489 557.496ZM689.424 532.47V548.274C689.424 550.727 689.984 552.543 691.117 553.726C692.251 554.914 693.98 555.499 696.3 555.499C698.141 555.499 700.353 554.993 702.936 553.979L704.338 553.433V532.47C704.338 530.15 704.206 528.082 703.951 526.256C703.684 524.431 703.217 522.367 702.54 520.048H708.603H714.653C713.973 521.406 713.493 522.991 713.225 524.806C712.949 526.633 712.816 529.19 712.816 532.47V550.078C712.816 553.379 712.949 555.938 713.225 557.751C713.493 559.565 713.973 561.137 714.653 562.497H709.736H704.763V555.274L698.087 562.536C695.675 563.162 693.848 563.469 692.622 563.469C688.797 563.469 685.891 562.455 683.92 560.418C681.933 558.392 680.947 555.432 680.947 551.553V532.47C680.947 530.175 680.813 528.11 680.562 526.297C680.295 524.473 679.829 522.391 679.15 520.048H685.215H691.262C690.583 521.406 690.102 522.991 689.81 524.806C689.557 526.633 689.424 529.19 689.424 532.47ZM724.448 550.078V532.47C724.448 530.15 724.317 528.082 724.063 526.256C723.797 524.431 723.328 522.367 722.652 520.048H727.767H732.926V527.431L739.364 520.008C741.549 519.406 743.376 519.113 744.827 519.113C748.678 519.113 751.611 520.314 753.61 522.725C755.623 525.139 756.622 528.642 756.622 533.254V550.078C756.622 553.62 756.731 556.298 756.955 558.099C757.169 559.908 757.567 561.377 758.143 562.497H752.251H746.346C747.027 561.191 747.492 559.63 747.761 557.805C748.011 555.993 748.147 553.405 748.147 550.078V534.427C748.147 531.948 747.572 530.108 746.426 528.895C745.282 527.684 743.521 527.083 741.162 527.083C739.549 527.083 737.444 527.684 734.831 528.883L732.926 529.737V550.078C732.926 553.379 733.059 555.938 733.337 557.751C733.605 559.565 734.085 561.137 734.764 562.497H728.714H722.652C723.328 561.191 723.797 559.63 724.063 557.805C724.317 555.993 724.448 553.405 724.448 550.078ZM782.264 563.43C777.043 563.43 772.897 561.789 769.831 558.513C766.78 555.231 765.247 550.796 765.247 545.195C765.247 537.72 767.367 531.509 771.59 526.552C775.814 521.592 781.118 519.113 787.502 519.113C789.222 519.113 790.821 519.355 792.302 519.822V516.5C792.302 513.743 792.168 511.451 791.914 509.624C791.648 507.798 791.182 505.959 790.501 504.081L796.446 502.867L802.419 501.615C801.793 503.333 801.365 505.374 801.123 507.745C800.896 510.119 800.778 513.45 800.778 517.74V550.078C800.778 553.379 800.913 555.938 801.191 557.751C801.457 559.565 801.935 561.137 802.617 562.497H797.459H792.302V556.712L787.264 562.417C785.319 563.124 783.652 563.456 782.264 563.43ZM784.609 525.127C780.84 525.127 778.12 526.404 776.455 528.977C774.788 531.533 773.948 535.72 773.948 541.518C773.948 546.158 774.961 549.836 776.975 552.554C778.986 555.274 781.72 556.633 785.157 556.633C786.822 556.633 788.37 556.324 789.808 555.7L792.302 554.365V527.592C790.329 525.952 787.757 525.127 784.609 525.127ZM821.195 563.43C817.051 563.43 813.864 562.55 811.628 560.776C809.386 559.003 808.267 556.471 808.267 553.193C808.267 551.008 809.054 548.956 810.627 547.022C812.2 545.103 814.331 543.569 817.011 542.453L829.51 537.306V533.44C829.51 531.123 828.793 529.283 827.366 527.923C825.928 526.552 824.007 525.872 821.582 525.872C820.023 525.872 818.517 526.138 817.051 526.671C815.599 527.204 813.996 528.082 812.252 529.296L814.598 521.139C816.264 520.433 817.879 519.928 819.437 519.608C820.996 519.275 822.581 519.113 824.195 519.113C828.779 519.113 832.233 520.314 834.537 522.715C836.844 525.099 837.99 528.685 837.99 533.44V550.078C837.99 553.62 838.096 556.298 838.322 558.099C838.537 559.908 838.935 561.377 839.507 562.497H834.51H829.51V558.432L822.916 563.349L821.195 563.43ZM829.51 556.046V544.37H818.572C818.317 544.37 817.985 545.158 817.57 546.73C817.172 548.302 816.972 549.635 816.972 550.702C816.972 552.7 817.624 554.206 818.93 555.206C820.223 556.205 822.182 556.712 824.781 556.712C826.395 556.712 827.954 556.485 829.431 556.046H829.51ZM858.807 563.43C855.476 563.43 853.049 562.441 851.517 560.457C849.997 558.485 849.238 555.312 849.238 550.967V525.898H843.227L857.674 510.679H857.713V520.048H867.591V525.898H857.713V547.409C857.713 550.276 858.208 552.42 859.179 553.832C860.152 555.26 861.619 555.968 863.565 555.968C864.763 555.968 865.871 555.817 866.868 555.541C867.869 555.245 869.067 554.739 870.481 554.018L867.123 562.176C865.642 562.668 864.338 563.003 863.232 563.177C862.124 563.349 860.66 563.43 858.807 563.43ZM874.774 550.078V532.47C874.774 530.175 874.641 528.125 874.388 526.297C874.121 524.473 873.655 522.391 872.975 520.048H879.038H885.091C884.41 521.406 883.931 522.991 883.665 524.806C883.382 526.633 883.251 529.19 883.251 532.47V550.078C883.251 553.379 883.382 555.938 883.665 557.751C883.931 559.565 884.41 561.137 885.091 562.497H879.038H872.975C873.655 561.191 874.121 559.63 874.388 557.805C874.641 555.993 874.774 553.405 874.774 550.078ZM878.798 502.323C880.384 502.323 881.732 502.96 882.835 504.24C883.944 505.506 884.491 507.067 884.491 508.92C884.491 510.769 883.944 512.319 882.835 513.581C881.732 514.851 880.384 515.477 878.798 515.477C877.2 515.477 875.855 514.851 874.747 513.581C873.639 512.319 873.093 510.769 873.093 508.92C873.093 507.067 873.639 505.506 874.747 504.24C875.855 502.96 877.2 502.323 878.798 502.323ZM909.479 563.43C904.12 563.43 899.659 561.442 896.085 557.475C892.525 553.515 890.741 548.528 890.741 542.546C890.741 535.826 892.728 530.244 896.698 525.792C900.669 521.339 905.629 519.113 911.597 519.113C916.984 519.113 921.45 521.102 925.007 525.084C928.565 529.069 930.337 534.053 930.337 540.038C930.337 546.756 928.363 552.326 924.405 556.765C920.448 561.202 915.478 563.43 909.479 563.43ZM914.052 557.496C916.342 556.537 918.157 554.768 919.5 552.208C920.849 549.648 921.513 546.636 921.513 543.196C921.513 537.787 920.208 533.44 917.609 530.175C915.011 526.911 911.478 525.206 907.026 525.047C904.733 525.978 902.922 527.75 901.575 530.337C900.228 532.922 899.561 535.949 899.561 539.372C899.561 544.794 900.868 549.13 903.47 552.382C906.07 555.631 909.6 557.338 914.052 557.496ZM938.255 550.078V532.47C938.255 530.15 938.119 528.082 937.869 526.256C937.601 524.431 937.134 522.367 936.454 520.048H941.574H946.73V527.431L953.17 520.008C955.353 519.406 957.179 519.113 958.634 519.113C962.484 519.113 965.417 520.314 967.416 522.725C969.429 525.139 970.427 528.642 970.427 533.254V550.078C970.427 553.62 970.534 556.298 970.76 558.099C970.973 559.908 971.374 561.377 971.946 562.497H966.055H960.15C960.831 561.191 961.299 559.63 961.565 557.805C961.817 555.993 961.951 553.405 961.951 550.078V534.427C961.951 531.948 961.379 530.108 960.23 528.895C959.085 527.684 957.326 527.083 954.968 527.083C953.355 527.083 951.248 527.684 948.637 528.883L946.73 529.737V550.078C946.73 553.379 946.865 555.938 947.145 557.751C947.409 559.565 947.893 561.137 948.568 562.497H942.517H936.454C937.134 561.191 937.601 559.63 937.869 557.805C938.119 555.993 938.255 553.405 938.255 550.078ZM1000.48 529.11C999.283 527.699 998.069 526.671 996.817 526.019C995.564 525.365 994.176 525.047 992.645 525.047C990.953 525.047 989.54 525.485 988.432 526.379C987.313 527.258 986.754 528.364 986.754 529.696C986.754 530.99 987.128 532.164 987.888 533.2C988.605 534.254 990.004 535.56 992.058 537.146C995.524 539.84 997.948 542.185 999.363 544.224C1000.73 546.221 1001.43 548.393 1001.43 550.742C1001.43 554.381 1000.16 557.406 997.616 559.817C995.072 562.232 991.871 563.43 988.019 563.43C985.915 563.43 984.103 563.309 982.608 563.056C981.117 562.817 979.264 562.335 977.076 561.629V551.515C978.715 553.499 980.356 554.965 982.008 555.924C983.649 556.898 985.33 557.378 987.048 557.378C988.711 557.378 990.1 556.885 991.193 555.913C992.286 554.938 992.833 553.714 992.833 552.22C992.833 551.02 992.392 549.874 991.498 548.756C990.645 547.648 988.978 546.158 986.512 544.263C983.397 541.84 981.197 539.653 979.917 537.695C978.664 535.774 978.039 533.628 978.039 531.255C978.039 527.763 979.426 524.873 982.197 522.566C984.969 520.26 988.445 519.113 992.632 519.113C994.176 519.113 995.497 519.248 996.616 519.5C997.735 519.765 999.029 520.234 1000.48 520.914V529.11Z" fill="#E30016"/>
<path fill-rule="evenodd" clip-rule="evenodd" d="M598.169 544.772V519.034C598.169 515.212 598.01 511.997 597.7 509.384C597.381 506.787 596.838 504.091 596.022 501.307H607.456H629.487L627.144 506.307L624.771 511.345C622.401 510.09 620.08 509.211 617.827 508.704C615.562 508.198 612.829 507.946 609.656 507.946H607.456V527.977H627.263L624.452 532.934L621.638 537.893C619.653 536.692 617.601 535.854 615.47 535.362C613.335 534.865 610.658 534.615 607.456 534.615V544.772C607.456 548.622 607.616 551.846 607.923 554.446C608.244 557.058 608.804 559.737 609.604 562.497H602.847H596.065C596.852 559.79 597.381 557.14 597.7 554.527C598.01 551.927 598.169 548.676 598.169 544.772ZM652.92 563.43C647.562 563.43 643.096 561.442 639.524 557.475C635.965 553.515 634.181 548.528 634.181 542.546C634.181 535.826 636.165 530.244 640.137 525.792C644.108 521.339 649.068 519.113 655.039 519.113C660.423 519.113 664.888 521.102 668.446 525.084C672.003 529.069 673.776 534.053 673.776 540.038C673.776 546.756 671.804 552.326 667.847 556.765C663.886 561.202 658.916 563.43 652.92 563.43ZM657.489 557.496C659.782 556.537 661.596 554.768 662.941 552.208C664.285 549.648 664.955 546.636 664.955 543.196C664.955 537.787 663.647 533.44 661.047 530.175C658.45 526.911 654.917 525.206 650.466 525.047C648.175 525.978 646.362 527.75 645.017 530.337C643.669 532.922 643.004 535.949 643.004 539.372C643.004 544.794 644.31 549.13 646.91 552.382C649.508 555.631 653.038 557.338 657.489 557.496ZM689.424 532.47V548.274C689.424 550.727 689.984 552.543 691.117 553.726C692.251 554.914 693.98 555.499 696.3 555.499C698.141 555.499 700.353 554.993 702.936 553.979L704.338 553.433V532.47C704.338 530.15 704.206 528.082 703.951 526.256C703.684 524.431 703.217 522.367 702.54 520.048H708.603H714.653C713.973 521.406 713.493 522.991 713.225 524.806C712.949 526.633 712.816 529.19 712.816 532.47V550.078C712.816 553.379 712.949 555.938 713.225 557.751C713.493 559.565 713.973 561.137 714.653 562.497H709.736H704.763V555.274L698.087 562.536C695.675 563.162 693.848 563.469 692.622 563.469C688.797 563.469 685.891 562.455 683.92 560.418C681.933 558.392 680.947 555.432 680.947 551.553V532.47C680.947 530.175 680.813 528.11 680.562 526.297C680.295 524.473 679.829 522.391 679.15 520.048H685.215H691.262C690.583 521.406 690.102 522.991 689.81 524.806C689.557 526.633 689.424 529.19 689.424 532.47ZM724.448 550.078V532.47C724.448 530.15 724.317 528.082 724.063 526.256C723.797 524.431 723.328 522.367 722.652 520.048H727.767H732.926V527.431L739.364 520.008C741.549 519.406 743.376 519.113 744.827 519.113C748.678 519.113 751.611 520.314 753.61 522.725C755.623 525.139 756.622 528.642 756.622 533.254V550.078C756.622 553.62 756.731 556.298 756.955 558.099C757.169 559.908 757.567 561.377 758.143 562.497H752.251H746.346C747.027 561.191 747.492 559.63 747.761 557.805C748.011 555.993 748.147 553.405 748.147 550.078V534.427C748.147 531.948 747.572 530.108 746.426 528.895C745.282 527.684 743.521 527.083 741.162 527.083C739.549 527.083 737.444 527.684 734.831 528.883L732.926 529.737V550.078C732.926 553.379 733.059 555.938 733.337 557.751C733.605 559.565 734.085 561.137 734.764 562.497H728.714H722.652C723.328 561.191 723.797 559.63 724.063 557.805C724.317 555.993 724.448 553.405 724.448 550.078ZM782.264 563.43C777.043 563.43 772.897 561.789 769.831 558.513C766.78 555.231 765.247 550.796 765.247 545.195C765.247 537.72 767.367 531.509 771.59 526.552C775.814 521.592 781.118 519.113 787.502 519.113C789.222 519.113 790.821 519.355 792.302 519.822V516.5C792.302 513.743 792.168 511.451 791.914 509.624C791.648 507.798 791.182 505.959 790.501 504.081L796.446 502.867L802.419 501.615C801.793 503.333 801.365 505.374 801.123 507.745C800.896 510.119 800.778 513.45 800.778 517.74V550.078C800.778 553.379 800.913 555.938 801.191 557.751C801.457 559.565 801.935 561.137 802.617 562.497H797.459H792.302V556.712L787.264 562.417C785.319 563.124 783.652 563.456 782.264 563.43ZM784.609 525.127C780.84 525.127 778.12 526.404 776.455 528.977C774.788 531.533 773.948 535.72 773.948 541.518C773.948 546.158 774.961 549.836 776.975 552.554C778.986 555.274 781.72 556.633 785.157 556.633C786.822 556.633 788.37 556.324 789.808 555.7L792.302 554.365V527.592C790.329 525.952 787.757 525.127 784.609 525.127ZM821.195 563.43C817.051 563.43 813.864 562.55 811.628 560.776C809.386 559.003 808.267 556.471 808.267 553.193C808.267 551.008 809.054 548.956 810.627 547.022C812.2 545.103 814.331 543.569 817.011 542.453L829.51 537.306V533.44C829.51 531.123 828.793 529.283 827.366 527.923C825.928 526.552 824.007 525.872 821.582 525.872C820.023 525.872 818.517 526.138 817.051 526.671C815.599 527.204 813.996 528.082 812.252 529.296L814.598 521.139C816.264 520.433 817.879 519.928 819.437 519.608C820.996 519.275 822.581 519.113 824.195 519.113C828.779 519.113 832.233 520.314 834.537 522.715C836.844 525.099 837.99 528.685 837.99 533.44V550.078C837.99 553.62 838.096 556.298 838.322 558.099C838.537 559.908 838.935 561.377 839.507 562.497H834.51H829.51V558.432L822.916 563.349L821.195 563.43ZM829.51 556.046V544.37H818.572C818.317 544.37 817.985 545.158 817.57 546.73C817.172 548.302 816.972 549.635 816.972 550.702C816.972 552.7 817.624 554.206 818.93 555.206C820.223 556.205 822.182 556.712 824.781 556.712C826.395 556.712 827.954 556.485 829.431 556.046H829.51ZM858.807 563.43C855.476 563.43 853.049 562.441 851.517 560.457C849.997 558.485 849.238 555.312 849.238 550.967V525.898H843.227L857.674 510.679H857.713V520.048H867.591V525.898H857.713V547.409C857.713 550.276 858.208 552.42 859.179 553.832C860.152 555.26 861.619 555.968 863.565 555.968C864.763 555.968 865.871 555.817 866.868 555.541C867.869 555.245 869.067 554.739 870.481 554.018L867.123 562.176C865.642 562.668 864.338 563.003 863.232 563.177C862.124 563.349 860.66 563.43 858.807 563.43ZM874.774 550.078V532.47C874.774 530.175 874.641 528.125 874.388 526.297C874.121 524.473 873.655 522.391 872.975 520.048H879.038H885.091C884.41 521.406 883.931 522.991 883.665 524.806C883.382 526.633 883.251 529.19 883.251 532.47V550.078C883.251 553.379 883.382 555.938 883.665 557.751C883.931 559.565 884.41 561.137 885.091 562.497H879.038H872.975C873.655 561.191 874.121 559.63 874.388 557.805C874.641 555.993 874.774 553.405 874.774 550.078ZM878.798 502.323C880.384 502.323 881.732 502.96 882.835 504.24C883.944 505.506 884.491 507.067 884.491 508.92C884.491 510.769 883.944 512.319 882.835 513.581C881.732 514.851 880.384 515.477 878.798 515.477C877.2 515.477 875.855 514.851 874.747 513.581C873.639 512.319 873.093 510.769 873.093 508.92C873.093 507.067 873.639 505.506 874.747 504.24C875.855 502.96 877.2 502.323 878.798 502.323ZM909.479 563.43C904.12 563.43 899.659 561.442 896.085 557.475C892.525 553.515 890.741 548.528 890.741 542.546C890.741 535.826 892.728 530.244 896.698 525.792C900.669 521.339 905.629 519.113 911.597 519.113C916.984 519.113 921.45 521.102 925.007 525.084C928.565 529.069 930.337 534.053 930.337 540.038C930.337 546.756 928.363 552.326 924.405 556.765C920.448 561.202 915.478 563.43 909.479 563.43ZM914.052 557.496C916.342 556.537 918.157 554.768 919.5 552.208C920.849 549.648 921.513 546.636 921.513 543.196C921.513 537.787 920.208 533.44 917.609 530.175C915.011 526.911 911.478 525.206 907.026 525.047C904.733 525.978 902.922 527.75 901.575 530.337C900.228 532.922 899.561 535.949 899.561 539.372C899.561 544.794 900.868 549.13 903.47 552.382C906.07 555.631 909.6 557.338 914.052 557.496ZM938.255 550.078V532.47C938.255 530.15 938.119 528.082 937.869 526.256C937.601 524.431 937.134 522.367 936.454 520.048H941.574H946.73V527.431L953.17 520.008C955.353 519.406 957.179 519.113 958.634 519.113C962.484 519.113 965.417 520.314 967.416 522.725C969.429 525.139 970.427 528.642 970.427 533.254V550.078C970.427 553.62 970.534 556.298 970.76 558.099C970.973 559.908 971.374 561.377 971.946 562.497H966.055H960.15C960.831 561.191 961.299 559.63 961.565 557.805C961.817 555.993 961.951 553.405 961.951 550.078V534.427C961.951 531.948 961.379 530.108 960.23 528.895C959.085 527.684 957.326 527.083 954.968 527.083C953.355 527.083 951.248 527.684 948.637 528.883L946.73 529.737V550.078C946.73 553.379 946.865 555.938 947.145 557.751C947.409 559.565 947.893 561.137 948.568 562.497H942.517H936.454C937.134 561.191 937.601 559.63 937.869 557.805C938.119 555.993 938.255 553.405 938.255 550.078ZM1000.48 529.11C999.283 527.699 998.069 526.671 996.817 526.019C995.564 525.365 994.176 525.047 992.645 525.047C990.953 525.047 989.54 525.485 988.432 526.379C987.313 527.258 986.754 528.364 986.754 529.696C986.754 530.99 987.128 532.164 987.888 533.2C988.605 534.254 990.004 535.56 992.058 537.146C995.524 539.84 997.948 542.185 999.363 544.224C1000.73 546.221 1001.43 548.393 1001.43 550.742C1001.43 554.381 1000.16 557.406 997.616 559.817C995.072 562.232 991.871 563.43 988.019 563.43C985.915 563.43 984.103 563.309 982.608 563.056C981.117 562.817 979.264 562.335 977.076 561.629V551.515C978.715 553.499 980.356 554.965 982.008 555.924C983.649 556.898 985.33 557.378 987.048 557.378C988.711 557.378 990.1 556.885 991.193 555.913C992.286 554.938 992.833 553.714 992.833 552.22C992.833 551.02 992.392 549.874 991.498 548.756C990.645 547.648 988.978 546.158 986.512 544.263C983.397 541.84 981.197 539.653 979.917 537.695C978.664 535.774 978.039 533.628 978.039 531.255C978.039 527.763 979.426 524.873 982.197 522.566C984.969 520.26 988.445 519.113 992.632 519.113C994.176 519.113 995.497 519.248 996.616 519.5C997.735 519.765 999.029 520.234 1000.48 520.914V529.11Z" stroke="#E30016" stroke-width="2" mask="url(#path-8-outside-2_5_531)"/>
<path d="M311.649 500.226H310.982L311.17 500.866C311.99 503.667 312.539 506.377 312.859 508.988C313.166 511.615 313.332 514.857 313.332 518.732V544.874C313.332 548.856 313.166 552.136 312.859 554.723C312.539 557.348 312.002 560.018 311.211 562.738L311.025 563.378H311.691H318.582H325.445H326.112L325.926 562.738C325.117 559.96 324.558 557.265 324.236 554.642C323.929 552.028 323.763 548.773 323.763 544.874V518.732C323.763 514.779 323.929 511.495 324.235 508.896C324.558 506.294 325.095 503.611 325.887 500.864L326.071 500.226H325.406H318.513H311.649Z" fill="#E30016" stroke="#E30016"/>
<path d="M337.116 500.226H336.448L336.636 500.866C337.455 503.666 338.003 506.376 338.326 508.988C338.632 511.615 338.795 514.857 338.795 518.732V544.874C338.795 548.856 338.632 552.136 338.326 554.723C338.003 557.349 337.467 560.018 336.675 562.738L336.489 563.378H337.155H344.046H350.91H351.575L351.39 562.739C350.585 559.96 350.02 557.264 349.701 554.641C349.392 552.028 349.23 548.774 349.23 544.874V518.732C349.23 514.778 349.392 511.494 349.701 508.896C350.021 506.294 350.56 503.612 351.35 500.864L351.534 500.226H350.87H343.978H337.116Z" fill="#E30016" stroke="#E30016"/>
<path d="M369.761 508.64C371.969 508.309 374.592 508.087 377.635 507.949V544.874C377.635 548.527 377.46 551.67 377.125 554.284C376.776 556.893 376.159 559.714 375.273 562.737L375.085 563.378H375.753H382.886H389.994H390.66L390.474 562.738C389.571 559.645 388.957 556.784 388.608 554.162L388.608 554.16C388.247 551.55 388.07 548.447 388.07 544.874V507.704C390.215 507.804 392.314 508.075 394.366 508.51C396.896 509.084 399.986 510.054 403.614 511.415L404.118 511.603L404.269 511.088L405.771 505.984L405.772 505.981L407.249 500.864L407.433 500.226H406.768H382.859H362.039H361.681L361.566 500.565L359.738 505.952L359.737 505.953L357.91 511.312L357.505 512.499L358.615 511.916C361.517 510.393 365.22 509.296 369.758 508.641L369.761 508.64Z" fill="#E30016" stroke="#E30016"/>
<path d="M411.134 532.229L410.44 531.936V532.689V542.76V543.469L411.108 543.231C411.782 542.991 412.757 542.767 414.067 542.595L414.067 542.595L414.073 542.594C415.363 542.408 416.601 542.312 417.763 542.312H422.596C423.641 542.312 424.815 542.43 426.087 542.683L426.087 542.683L426.093 542.684C427.387 542.925 428.431 543.213 429.227 543.547L429.92 543.837V543.086V533.014V532.303L429.251 532.543C428.58 532.784 427.602 533.007 426.294 533.182L426.294 533.182L426.289 533.183C424.997 533.369 423.762 533.462 422.596 533.462H417.763C416.72 533.462 415.546 533.343 414.273 533.093L414.273 533.093L414.268 533.092C412.974 532.852 411.927 532.563 411.134 532.229Z" fill="#E30016" stroke="#E30016"/>
<path d="M454.902 559.184L454.903 559.183C458.769 555.557 460.651 550.189 460.651 543.15V521.918V518.321C460.651 515.004 460.873 511.644 461.3 508.266C461.731 504.879 462.261 502.435 462.874 500.911L463.15 500.225H462.41H449.703H438.686H438.343L438.22 500.544L434.83 509.297L434.496 510.159L435.4 509.967C438.749 509.256 441.527 508.797 443.701 508.572C445.322 508.405 447.188 508.287 449.29 508.225V511.127V511.735V514.42V521.917V540.171C449.29 548.098 446.903 554.086 442.191 558.225C439.695 560.394 436.673 561.982 433.105 563.005L432.998 563.035L432.914 563.109L432.869 563.148L432.131 563.792L433.086 564.012C434.639 564.37 436.253 564.554 437.941 564.554C445.356 564.554 451.043 562.785 454.902 559.184Z" fill="#E30016" stroke="#E30016"/>
<path d="M472.018 562.739L471.833 563.378H472.499H484.073H505.53H505.864L505.992 563.07L508.605 556.802L508.606 556.8L511.193 550.533L511.747 549.191L510.484 549.908C506.815 551.989 502.591 553.475 497.834 554.333L497.834 554.333C494.349 554.967 489.932 555.367 484.573 555.541V535.056C487.764 535.063 490.398 535.32 492.49 535.801C494.603 536.289 496.652 537.123 498.609 538.315L499.05 538.583L499.304 538.134L502.162 533.096L502.162 533.096L505.017 528.062L505.441 527.316H504.583H484.573V507.966H486.619C489.843 507.966 492.595 508.222 494.836 508.726L494.837 508.726C497.087 509.229 499.387 510.105 501.734 511.362L502.198 511.611L502.422 511.135L504.833 506.017L504.833 506.016L507.214 500.938L507.547 500.226H506.761H484.073H472.46H471.793L471.98 500.865C472.796 503.667 473.345 506.377 473.666 508.988C473.976 511.615 474.137 514.856 474.137 518.732V544.874C474.137 548.827 473.976 552.11 473.666 554.723C473.345 557.349 472.808 560.018 472.018 562.739Z" fill="#E30016" stroke="#E30016"/>
<path d="M516.954 562.739L516.768 563.378H517.434H529.005H550.466H550.799L550.927 563.07L553.537 556.802L553.538 556.8L556.125 550.533L556.679 549.191L555.416 549.908C551.747 551.989 547.525 553.475 542.766 554.333L542.765 554.333C539.284 554.968 534.867 555.367 529.505 555.541V535.056C532.698 535.063 535.333 535.319 537.422 535.801C539.535 536.289 541.584 537.123 543.545 538.315L543.985 538.583L544.239 538.134L547.094 533.096L547.094 533.096L549.953 528.062L550.377 527.316H549.518H529.505V507.966H531.551C534.775 507.966 537.527 508.222 539.767 508.726L539.768 508.726C542.019 509.229 544.319 510.105 546.666 511.363L547.13 511.611L547.355 511.135L549.766 506.017L549.767 506.016L552.15 500.938L552.484 500.226H551.697H529.005H517.39H516.723L516.91 500.866C517.731 503.667 518.28 506.377 518.6 508.988C518.908 511.615 519.072 514.856 519.072 518.732V544.874C519.072 548.827 518.908 552.11 518.6 554.723C518.28 557.349 517.743 560.018 516.954 562.739Z" fill="#E30016" stroke="#E30016"/>
<path fill-rule="evenodd" clip-rule="evenodd" d="M570.072 571.812V492.962H576.072V571.812H570.072Z" fill="#1B1918"/>
</svg>
