<?xml version="1.0" encoding="UTF-8" standalone="no"?>
<svg
   xmlns:dc="http://purl.org/dc/elements/1.1/"
   xmlns:cc="http://creativecommons.org/ns#"
   xmlns:rdf="http://www.w3.org/1999/02/22-rdf-syntax-ns#"
   xmlns:svg="http://www.w3.org/2000/svg"
   xmlns="http://www.w3.org/2000/svg"
   xmlns:sodipodi="http://sodipodi.sourceforge.net/DTD/sodipodi-0.dtd"
   xmlns:inkscape="http://www.inkscape.org/namespaces/inkscape"
   id="svg5102"
   width="264.58331mm"
   height="183.04565mm"
   version="1.1"
   viewBox="0 0 93.750327 64.860304"
   sodipodi:docname="Colors_2016.svg"
   inkscape:version="1.0.2 (e86c870879, 2021-01-15)">
  <sodipodi:namedview
     pagecolor="#ffffff"
     bordercolor="#666666"
     borderopacity="1"
     objecttolerance="10"
     gridtolerance="10"
     guidetolerance="10"
     inkscape:pageopacity="0"
     inkscape:pageshadow="2"
     inkscape:window-width="1366"
     inkscape:window-height="705"
     id="namedview44"
     showgrid="false"
     inkscape:zoom="0.40901023"
     inkscape:cx="434.92623"
     inkscape:cy="462.01445"
     inkscape:window-x="-8"
     inkscape:window-y="-8"
     inkscape:window-maximized="1"
     inkscape:current-layer="svg5102" />
  <defs
     id="defs5104">
    <radialGradient
       id="radialGradient4383"
       cx="316.37"
       cy="330.67001"
       r="12.506"
       gradientTransform="matrix(0.9117,0.90347,-1.9543,1.9721,418.39159,-912.8997)"
       gradientUnits="userSpaceOnUse">
      <stop
         id="stop6296"
         stop-color="#ee277c"
         offset="0" />
      <stop
         id="stop6302"
         stop-color="#f16476"
         offset=".46666" />
      <stop
         id="stop4385"
         stop-color="#f6a358"
         offset=".7891" />
      <stop
         id="stop4387"
         stop-color="#fbc42b"
         offset=".91524" />
      <stop
         id="stop6298"
         stop-color="#fbce13"
         offset="1" />
    </radialGradient>
  </defs>
  <metadata
     id="metadata5107">
    <rdf:RDF>
      <cc:Work
         rdf:about="">
        <dc:format>image/svg+xml</dc:format>
        <dc:type
           rdf:resource="http://purl.org/dc/dcmitype/StillImage" />
        <dc:title />
      </cc:Work>
    </rdf:RDF>
  </metadata>
  <g
     id="g183">
    <g
       id="g154"
       transform="matrix(1.0958455,0,0,1.0958455,8.5879384e-5,0)">
      <path
         id="path5-9"
         d="m 84.771592,0.7803 c -1.1125,0.3349 -2.2919,0.25634 -3.4384,0.31944 -2.3715,0.0428 -4.7517,0.10775 -7.099,0.47656 -2.1997,0.34946 -4.38,0.95232 -6.3603,1.9871 -1.0348,0.56107 -2.0424,1.2076 -2.8908,2.026 -1.6658,1.4309 -2.8763,3.3374 -3.6956,5.3614 -0.95328,2.39 -1.3707,4.9614 -1.4921,7.5212 -0.10388,2.3434 0.0223,4.6944 0.31352,7.0213 3.3335,0.38247 6.7243,0.51157 10.052,0 2.2647,-0.35335 4.5023,-1.0241 6.4933,-2.1754 1.2824,-0.75427 2.4812,-1.6842 3.4364,-2.8297 1.5522,-1.7172 2.5773,-3.8625 3.2209,-6.0748 1.0105,-3.4335 1.1019,-7.0428 1.1562,-10.595 0.0515,-1.0144 0.0112,-2.0531 0.3038,-3.0384 z"
         fill="#da2e76" />
      <g
         id="g132"
         transform="matrix(1.25,0,0,-1.25,8.4015916,32.4303)">
        <path
           id="path134"
           d="M 0,0 C 2.116,0 3.486,-0.822 4.158,-1.344 4.581,-1.618 4.606,-2.042 4.307,-2.465 L 4.058,-2.838 c -0.299,-0.448 -0.647,-0.473 -1.12,-0.199 -0.523,0.373 -1.494,0.946 -2.813,0.946 -2.54,0 -4.382,-1.892 -4.382,-4.482 0,-2.564 1.842,-4.531 4.431,-4.531 1.519,0 2.614,0.697 3.212,1.146 0.448,0.298 0.821,0.248 1.12,-0.225 l 0.199,-0.373 C 4.954,-10.979 4.88,-11.378 4.481,-11.651 3.784,-12.224 2.266,-13.195 0,-13.195 c -3.958,0 -6.722,2.813 -6.722,6.598 C -6.722,-2.863 -3.934,0 0,0"
           fill="#8b1b8e" />
      </g>
      <g
         id="g136"
         transform="matrix(1.25,0,0,-1.25,24.801592,46.3103)">
        <path
           id="path138"
           d="M 0,0 C 2.39,0 4.332,1.892 4.332,4.531 4.332,7.145 2.39,9.012 0,9.012 -2.365,9.012 -4.332,7.145 -4.332,4.531 -4.332,1.892 -2.365,0 0,0 m 0,11.104 c 3.759,0 6.797,-2.764 6.797,-6.573 0,-3.834 -3.038,-6.622 -6.797,-6.622 -3.759,0 -6.772,2.788 -6.772,6.622 0,3.809 3.013,6.573 6.772,6.573"
           fill="#8b1b8e" />
      </g>
      <g
         id="g140"
         transform="matrix(1.25,0,0,-1.25,36.621592,27.6103)">
        <path
           id="path142"
           d="M 0,0 C 0,0.548 0.274,0.822 0.822,0.822 H 1.593 C 2.116,0.822 2.415,0.548 2.415,0 v -13.021 c 0,-1.419 0.622,-1.618 1.145,-1.668 0.374,-0.05 0.647,-0.249 0.647,-0.722 v -0.597 c 0,-0.523 -0.224,-0.847 -0.846,-0.847 -1.344,0 -3.361,0.374 -3.361,3.536"
           fill="#8b1b8e" />
      </g>
      <g
         id="g144"
         transform="matrix(1.25,0,0,-1.25,52.121592,46.3103)">
        <path
           id="path146"
           d="M 0,0 C 2.39,0 4.332,1.892 4.332,4.531 4.332,7.145 2.39,9.012 0,9.012 -2.365,9.012 -4.332,7.145 -4.332,4.531 -4.332,1.892 -2.365,0 0,0 m 0,11.104 c 3.759,0 6.797,-2.764 6.797,-6.573 0,-3.834 -3.038,-6.622 -6.797,-6.622 -3.759,0 -6.772,2.788 -6.772,6.622 0,3.809 3.013,6.573 6.772,6.573"
           fill="#8b1b8e" />
      </g>
      <g
         id="g148"
         transform="matrix(1.25,0,0,-1.25,63.951592,33.8303)">
        <path
           id="path150"
           d="M 0,0 C 0,0.548 0.299,0.822 0.822,0.822 H 1.519 C 2.067,0.822 2.34,0.548 2.34,0 V -1.444 C 2.34,-1.967 2.266,-2.39 2.266,-2.39 h 0.049 c 0.548,1.668 1.967,3.311 3.859,3.311 0.573,0 0.797,-0.274 0.797,-0.821 v -0.697 c 0,-0.548 -0.324,-0.822 -0.896,-0.822 -2.465,0 -3.66,-2.664 -3.66,-5.153 v -4.382 c 0,-0.548 -0.274,-0.822 -0.822,-0.822 H 0.822 C 0.299,-11.776 0,-11.502 0,-10.954"
           fill="#8b1b8e" />
      </g>
      <g
         id="g152"
         transform="matrix(1.25,0,0,-1.25,74.091592,45.8103)">
        <path
           id="path154"
           d="m 0,0 0.249,0.349 c 0.324,0.423 0.647,0.448 1.145,0.174 0.573,-0.374 1.618,-1.021 3.087,-1.021 1.245,0 2.141,0.598 2.141,1.668 0,2.465 -6.497,1.643 -6.497,5.901 0,2.39 2.091,3.635 4.556,3.635 1.742,0 2.887,-0.598 3.485,-0.971 C 8.614,9.51 8.689,9.087 8.44,8.639 L 8.216,8.265 C 7.967,7.817 7.593,7.768 7.12,7.992 6.597,8.29 5.751,8.714 4.556,8.714 3.361,8.714 2.44,8.191 2.44,7.12 c 0,-2.514 6.498,-1.618 6.498,-5.9 0,-2.141 -1.818,-3.71 -4.531,-3.71 -2.092,0 -3.536,0.847 -4.233,1.37 C -0.249,-0.846 -0.274,-0.423 0,0"
           fill="#8b1b8e" />
      </g>
      <path
         id="path5"
         d="m 85.551592,3e-4 c -1.1125,0.3349 -2.2919,0.25634 -3.4384,0.31944 -2.3715,0.0428 -4.7517,0.10775 -7.099,0.47656 -2.1997,0.34946 -4.38,0.95232 -6.3603,1.9871 -1.0348,0.56107 -2.0424,1.2076 -2.8908,2.026 -1.6658,1.4309 -2.8763,3.3374 -3.6956,5.3614 -0.95328,2.39 -1.3707,4.9614 -1.4921,7.5212 -0.10388,2.3434 0.0223,4.6944 0.31352,7.0213 3.3335,0.38247 6.7243,0.51157 10.052,0 2.2647,-0.35335 4.5023,-1.0241 6.4933,-2.1754 1.2824,-0.75427 2.4812,-1.6842 3.4364,-2.8297 1.5522,-1.7172 2.5773,-3.8625 3.2209,-6.0748 1.0105,-3.4335 1.1019,-7.0428 1.1562,-10.595 0.0515,-1.0144 0.0112,-2.0531 0.3038,-3.0384 z"
         fill="url(#radialGradient4383)"
         style="fill:url(#radialGradient4383)" />
    </g>
    <g
       id="g510"
       transform="matrix(0.0716033,0,0,0.0716033,70.922877,61.516431)"
       style="clip-rule:evenodd;display:inline;fill-rule:evenodd;image-rendering:optimizeQuality;shape-rendering:geometricPrecision;text-rendering:geometricPrecision">
      <g
         id="g492">
        <path
           d="m 86.542888,17.755226 v 0 c 9.431203,0 14.944832,-6.798101 14.944832,-16.84326595 0,-10.65008965 -5.881204,-16.84326605 -14.944832,-16.84326605 -9.653683,0 -15.099598,6.7226109 -15.099598,16.84326605 0,9.66771695 5.300819,16.84326595 15.099598,16.84326595 z m 0,-45.468968 v 0 c 17.624262,0 30.179852,9.969676 30.179852,28.62570205 0,17.82463295 -11.60764,28.70104895 -30.179852,28.70104895 -18.146603,0 -30.266908,-10.423478 -30.266908,-28.70104895 0,-18.05210805 11.97521,-28.62570205 30.266908,-28.62570205 z"
           style="fill:#0044aa;fill-opacity:1;fill-rule:nonzero;stroke:none;stroke-width:0.986721"
           id="path480"
           inkscape:connector-curvature="0" />
        <path
           d="m -19.628278,7.9365301 v 0 c 0,5.5882519 -2.466622,9.9696759 -9.721394,9.9696759 h -7.544962 c -5.30082,0 -8.415535,-1.510801 -8.415535,-5.966708 0,-4.3059333 2.901908,-6.0432034 8.415535,-6.0432034 h 17.266356 z M -26.66057,-27.109824 v 0 h -29.682656 v 4.304927 c 0,3.776499 1.882371,7.477508 7.038096,7.477508 2.253816,0 18.93979,0 18.93979,0 7.980249,0 10.737062,2.719643 10.737062,9.2902687 v 0.9823729 h -20.023169 c -14.954503,0 -20.39268,7.174543 -20.39268,16.9187564 0,11.857724 7.624282,17.069242 20.39268,17.069242 h 13.34878 c 17.4888358,0 21.2613171,-9.139098 21.2613171,-21.1487068 V -6.11261 c 0,-12.991278 -4.6430539,-20.997214 -21.6192201,-20.997214 z"
           style="fill:#0044aa;fill-opacity:1;fill-rule:nonzero;stroke:none;stroke-width:0.986721"
           id="path476"
           inkscape:connector-curvature="0" />
        <path
           id="path474"
           d="m 36.755808,-15.327389 v 0 h 7.399867 c 5.30082,0 8.425208,-2.039228 8.425208,-7.023563 v -4.758872 H 31.532372 c -17.556547,0 -25.9817553,10.801069 -25.9817553,28.02178405 0,21.45025295 12.8457823,28.02129095 25.9817553,28.02129095 h 21.048511 v -4.833869 c 0,-4.909851 -3.269484,-6.94908 -8.057633,-6.94908 h -7.767442 c -8.338151,0 -16.105593,-3.096085 -16.105593,-16.23834195 0,-11.40498705 5.881201,-16.23934905 16.105593,-16.23934905 z"
           style="fill:#0044aa;fill-opacity:1;fill-rule:nonzero;stroke:none;stroke-width:0.986721"
           inkscape:connector-curvature="0" />
        <path
           id="path472"
           d="m -122.01439,13.600272 v 0 c 0,0 -12.48111,-33.987485 -13.20755,-35.951224 -0.94312,-2.644153 -2.24898,-4.758872 -7.0381,-4.758872 H -153 l 22.13286,56.043075 h 16.10946 l 22.929915,-56.043075 h -9.505685 c -4.06364,0 -5.65969,1.81276 -6.67633,4.532403 l -13.78696,36.177693 z"
           style="fill:#0044aa;fill-opacity:1;fill-rule:nonzero;stroke:none;stroke-width:0.986721"
           inkscape:connector-curvature="0" />
        <path
           id="path470"
           d="m 165.63924,13.071844 v 0 c 0,0 -9.15068,-27.26588 -10.89183,-32.402201 -1.08337,-3.47454 -2.67942,-7.779467 -10.15668,-7.779467 h -17.05355 v 56.043075 h 5.73611 c 4.42057,0 7.17739,-2.03934 7.17739,-6.797708 v -39.124712 h 0.22248 l 16.61826,45.92242 h 15.52521 l 16.61827,-45.92242 h 0.22248 v 39.200302 c 0,3.927478 2.03133,6.722118 7.17738,6.722118 h 7.18706 v -56.043075 h -16.03788 c -5.65872,0 -9.14101,1.66178 -10.88216,6.873591 -1.16076,3.47454 -11.17234,33.308077 -11.17234,33.308077 z"
           style="fill:#0044aa;fill-opacity:1;fill-rule:nonzero;stroke:none;stroke-width:0.986721"
           inkscape:connector-curvature="0" />
        <path
           id="path4200"
           d="m -85.151441,-27.109824 v 0 49.396447 c 0,3.851988 2.177399,6.646628 6.966516,6.646628 h 7.546897 v -56.043075 z"
           style="fill:#0044aa;fill-opacity:1;fill-rule:nonzero;stroke:none;stroke-width:0.986721"
           inkscape:connector-curvature="0" />
      </g>
      <g
         id="g497">
        <path
           style="fill:#ff0000"
           id="path297"
           d="m 224.74996,-46 v 92.7 h 89.8 v -65.5 c 0,-15 -11.8,-27.2 -26.3,-27.2"
           class="st15"
           inkscape:connector-curvature="0" />
        <polyline
           style="clip-rule:evenodd;fill:#ffffff;fill-rule:evenodd"
           transform="translate(-51.850036,-478.9)"
           id="polyline299"
           points="307.5,452 307.5,509.4 294.5,509.4 294.5,465.3 285.7,465.3 285.7,452 "
           class="st16" />
        <path
           style="clip-rule:evenodd;fill:#ffffff;fill-rule:evenodd"
           id="path301"
           d="m 274.64996,11.7 c 0.1,1.9 0.7,3.5 1.9,4.8 1.1,1.3 2.6,2 4.3,2 1.7,0 3.2,-0.5 4.3,-1.6 1.4,-1.2 2.1,-2.9 2.1,-5.1 0,-1.9 -0.6,-3.5 -1.8,-4.8 -1.2,-1.4 -2.8,-2.1 -4.7,-2.1 -1.8,0 -3.3,0.7 -4.5,2.1 -1.1,1.5 -1.7,3 -1.6,4.7 m 11.8,-22.6 c 0,-2 -0.7,-3.4 -1.8,-4.3 -1.1,-0.9 -2.4,-1.3 -4,-1.2 -1.5,0.1 -2.7,0.7 -3.7,1.7 -1,1 -1.5,2.2 -1.5,3.7 0,1.8 0.4,3.2 1.4,4.3 1,1.1 2.3,1.7 4,1.7 1.5,0.1 2.9,-0.5 4,-1.6 1.1,-1.2 1.7,-2.6 1.6,-4.3 m -17.7,10.2 c -3.9,-2.5 -5.8,-6.2 -5.9,-11 0,-4.2 1.6,-7.9 4.8,-11.2 3.2,-3.3 7.5,-4.9 12.9,-4.9 5.5,0 9.9,1.6 13.3,4.9 3.1,3 4.7,6.6 4.7,10.9 0,5.1 -1.9,8.9 -5.7,11.4 5.1,2.9 7.7,7.4 7.7,13.6 0,3.2 -0.8,6.2 -2.5,9.1 -1.6,2.9 -4,5.2 -7.1,7 -3,1.7 -6.4,2.6 -10.3,2.5 -6,-0.1 -10.7,-1.9 -14.3,-5.6 -3.7,-3.8 -5.5,-8 -5.5,-12.7 0,-2.6 0.7,-5.2 2.1,-7.9 1.5,-2.6 3.3,-4.6 5.8,-6.1"
           class="st16"
           inkscape:connector-curvature="0" />
      </g>
    </g>
  </g>
</svg>
