<svg width="173" height="80" viewBox="0 0 173 80" fill="none" xmlns="http://www.w3.org/2000/svg">
<path d="M173 0H0V66H173V0Z" fill="#ED1B2D"/>
<path fill-rule="evenodd" clip-rule="evenodd" d="M66.3251 25.8347C66.1658 22.8891 64.69 21.3558 61.8853 21.2226C60.3037 21.1428 57.087 21.1025 52.2619 21.1025L43.3821 21.1428C40.391 21.1957 38.2643 21.6488 36.9883 22.5157C35.5394 23.502 34.7288 25.4479 34.5828 28.3672C34.4762 30.0865 34.4229 31.7656 34.4229 33.4055C34.3966 35.5511 34.5026 37.4707 34.7288 39.19C35.1006 42.5756 36.6561 44.401 39.4073 44.6549C40.5771 44.8147 42.372 44.8945 44.7779 44.8945H50.4669L60.1708 44.8544C64.4776 44.8368 66.581 43.4242 66.7508 40.6295L66.878 38.5329H60.1111L51.0382 29.5518L42.1931 38.185L34.5085 33.4314L27.6052 38.0004L20.1702 33.0674H6V29.4807L21.8172 29.5327L27.5614 33.6934L34.4998 29.4124L42.0931 33.7651L51.0925 24.7487L60.1824 33.7107L60.211 29.5398H81V31.2192C81 39.2434 80.854 44.2818 80.5749 46.334C80.2559 48.5737 79.2191 50.6658 77.4513 52.6259C75.8958 54.3448 73.8489 55.4379 71.3102 55.9044C69.7147 56.2375 67.9737 56.4641 66.046 56.5708C61.9253 56.8775 56.3825 57.0239 49.417 56.9968L39.4869 56.9172C35.2605 56.8638 32.1365 56.5436 30.1426 55.9441C26.7666 54.9578 24.3205 53.0922 22.8185 50.3594C21.3695 47.8804 20.5452 44.2947 20.3728 39.5765C20.2393 35.8313 20.1729 32.0855 20.1729 28.3271C20.1466 26.7406 20.1597 25.5814 20.213 24.8615C20.2393 23.062 20.5717 21.2094 21.2229 19.3168C22.9382 13.9717 26.9521 10.7999 33.253 9.78646C35.234 9.44021 36.9218 9.25352 38.3179 9.20006C40.7633 9.09375 44.6846 9.02653 50.0816 9C56.914 9 62.0715 9.05346 65.581 9.15976C75.3912 9.38675 80.3887 13.8919 80.5749 22.6752V25.8347H66.3251Z" fill="white"/>
<path fill-rule="evenodd" clip-rule="evenodd" d="M85 9H108.15L124.823 39.2114L141.85 9H165V56H150.445V21.7155L130.594 56H119.093L99.5546 21.5682V56H85V9Z" fill="white"/>
<path d="M0 77.7823L1.17675 77.2265C1.28886 77.6397 1.49433 77.9553 1.7905 78.171C2.08831 78.3895 2.46989 78.4982 2.93158 78.4982C3.36962 78.4982 3.71839 78.3723 3.97685 78.1237C4.23511 77.8749 4.36455 77.5425 4.36455 77.1253C4.36455 76.5801 3.92222 76.094 3.03696 75.6674C2.91221 75.6052 2.81886 75.5581 2.75139 75.5298C1.75259 75.0306 1.08604 74.5805 0.753788 74.1769C0.421534 73.774 0.253573 73.2796 0.253573 72.6984C0.253573 71.9408 0.505719 71.3296 1.00736 70.8606C1.509 70.3918 2.16699 70.1582 2.98172 70.1582C3.65092 70.1582 4.21188 70.2896 4.66276 70.5533C5.11324 70.8173 5.4243 71.1981 5.59858 71.6906L4.44506 72.2974C4.26263 72.0062 4.06389 71.7941 3.84517 71.6602C3.62951 71.5241 3.37981 71.4568 3.09832 71.4568C2.70308 71.4568 2.38733 71.5626 2.15415 71.7724C1.91994 71.9841 1.80334 72.267 1.80334 72.6216C1.80334 73.1795 2.31518 73.6981 3.3419 74.1783C3.42038 74.2173 3.48133 74.2476 3.52597 74.2674C4.42387 74.6906 5.03925 75.1041 5.37639 75.5055C5.71048 75.9104 5.87804 76.4133 5.87804 77.0164C5.87804 77.8945 5.60673 78.5923 5.06514 79.1094C4.52273 79.6257 3.79238 79.8855 2.86961 79.8855C2.09768 79.8855 1.46457 79.704 0.969243 79.3399C0.475755 78.9772 0.152062 78.458 0 77.7821L0 77.7823ZM6.41127 70.3668H7.86911L9.58623 75.047C9.69814 75.3564 9.7917 75.6268 9.86936 75.8585C9.946 76.089 10.011 76.3076 10.0703 76.5107C10.2149 76.0201 10.3645 75.5427 10.5239 75.0735C10.5422 75.0133 10.5571 74.9736 10.5663 74.9527L12.388 70L14.3126 75.047C14.4029 75.2921 14.4883 75.5377 14.5688 75.7827C14.6495 76.0269 14.7252 76.2734 14.7947 76.5241C14.8373 76.3342 14.8929 76.1242 14.9624 75.8975C15.0315 75.6672 15.1232 75.398 15.2354 75.0862L16.9413 70.3668H18.4103L14.8945 80L12.824 74.7125C12.7335 74.4748 12.6493 74.2476 12.5751 74.0309C12.5011 73.8128 12.4353 73.6075 12.378 73.4129C12.3058 73.6616 12.2363 73.8948 12.166 74.1134C12.0963 74.3297 12.0243 74.5397 11.9483 74.7364L9.91645 80L6.41127 70.3668ZM19.4407 70.3668H20.9161V79.639H19.4407V70.3668ZM25.9698 71.6469V79.639H24.4957V71.6469H22.0824V70.3668H28.3702V71.6469H25.9698ZM36.3335 72.6218C35.9168 72.2585 35.4747 71.9862 35.011 71.8047C34.5454 71.6234 34.0562 71.5324 33.5436 71.5324C32.5513 71.5324 31.7451 71.8569 31.1222 72.5073C30.5003 73.1589 30.1892 74.001 30.1892 75.0344C30.1892 76.0353 30.4917 76.8617 31.0973 77.5119C31.7025 78.1624 32.4661 78.4868 33.389 78.4868C33.9249 78.4868 34.4368 78.3895 34.9237 78.1955C35.4087 78.0009 35.8744 77.7086 36.3206 77.3153V79.0189C35.9256 79.3101 35.4912 79.5266 35.0257 79.669C34.5581 79.8141 34.0517 79.8857 33.5056 79.8857C32.8114 79.8857 32.1701 79.7685 31.5792 79.538C30.9907 79.3045 30.4723 78.9624 30.0261 78.5103C29.5836 78.0679 29.2448 77.5439 29.0064 76.9442C28.7685 76.3425 28.6496 75.7007 28.6496 75.0219C28.6496 74.3403 28.7685 73.7033 29.0064 73.1066C29.2448 72.5073 29.5875 71.9843 30.0382 71.5326C30.4901 71.0769 31.0056 70.7311 31.5904 70.4975C32.1717 70.2613 32.8032 70.1447 33.4806 70.1447C34.0138 70.1447 34.522 70.225 35.0063 70.3818C35.4892 70.54 35.9586 70.7796 36.4142 71.1004L36.3335 72.6218ZM38.1627 79.639V70.3668H39.6383V73.7872H44.1043V70.3668H45.5799V79.639H44.1043V75.1361H39.6383V79.639H38.1627ZM54.4289 71.6469V79.639H52.9543V71.6469H50.5411V70.3668H56.8292V71.6469H54.4289ZM65.2748 75.0219C65.2748 74.5549 65.1906 74.1096 65.0229 73.6862C64.8563 73.2646 64.6164 72.8885 64.3019 72.5593C63.9963 72.2331 63.6408 71.9843 63.2391 71.8099C62.8349 71.6338 62.4117 71.5461 61.9645 71.5461C61.5185 71.5461 61.0925 71.6321 60.6901 71.8047C60.2883 71.9779 59.9282 72.2285 59.6153 72.5593C59.3016 72.8839 59.0608 73.258 58.8953 73.6797C58.7304 74.103 58.6479 74.5505 58.6479 75.0219C58.6479 75.4907 58.7304 75.9341 58.8953 76.3529C59.0608 76.7708 59.3016 77.1446 59.6153 77.4733C59.9282 77.8037 60.2863 78.0548 60.6881 78.228C61.0878 78.4006 61.5138 78.4868 61.9645 78.4868C62.4072 78.4868 62.8284 78.4008 63.226 78.228C63.6241 78.0548 63.9843 77.8037 64.3019 77.4733C64.6164 77.1446 64.8563 76.7708 65.0229 76.349C65.1906 75.9297 65.2748 75.4863 65.2748 75.0219ZM66.814 75.0219C66.814 75.6809 66.6927 76.3034 66.4522 76.889C66.2086 77.4769 65.8568 78.0009 65.3932 78.4607C64.9258 78.9216 64.3989 79.2743 63.8123 79.5181C63.226 79.7618 62.6096 79.8855 61.9645 79.8855C61.31 79.8855 60.6881 79.7618 60.0957 79.5162C59.5005 79.2674 58.9785 78.9166 58.5229 78.4607C58.0594 78.0009 57.7084 77.4798 57.4689 76.8954C57.23 76.314 57.1087 75.6893 57.1087 75.0219C57.1087 74.3582 57.23 73.7332 57.4689 73.1472C57.7084 72.5591 58.0594 72.0347 58.5229 71.5694C58.9866 71.109 59.5117 70.7586 60.0978 70.519C60.6846 70.2788 61.3065 70.1582 61.9645 70.1582C62.6188 70.1582 63.2364 70.2788 63.8204 70.519C64.4075 70.7586 64.9305 71.109 65.3932 71.5694C65.8568 72.0383 66.2086 72.5679 66.4522 73.1558C66.6927 73.7468 66.814 74.3667 66.814 75.0219ZM74.2536 75.9965H76.7832L75.8539 73.8827C75.8013 73.7466 75.7436 73.5904 75.6872 73.4158C75.6297 73.2397 75.5706 73.046 75.5131 72.8297C75.4623 73.0329 75.4112 73.223 75.3549 73.3975C75.2997 73.5736 75.2418 73.7332 75.1855 73.8829L74.2536 75.9965ZM78.3346 79.639L77.3044 77.25H73.7102L72.6557 79.639H71.1045L75.5003 70L79.8905 79.639H78.3346ZM86.0268 74.2824H86.5896C87.292 74.2824 87.79 74.1854 88.0815 73.9885C88.3715 73.7917 88.5177 73.4609 88.5177 72.9961C88.5177 72.49 88.3844 72.1338 88.1159 71.9277C87.8466 71.7227 87.3393 71.6211 86.5896 71.6211H86.0268V74.2824ZM86.0268 78.3787H86.5345C87.0515 78.3787 87.4382 78.3573 87.6948 78.3163C87.95 78.2725 88.1518 78.1993 88.302 78.0933C88.4843 77.9721 88.6241 77.806 88.7231 77.601C88.823 77.3932 88.8711 77.1661 88.8711 76.9154C88.8711 76.6217 88.8118 76.3615 88.6916 76.1431C88.5705 75.9228 88.399 75.7528 88.1769 75.6316C88.037 75.5581 87.876 75.5055 87.6964 75.4709C87.5168 75.4386 87.2773 75.4216 86.9812 75.4216H86.0268V78.3787ZM84.5806 79.639V70.367H86.869C87.5236 70.367 88.0056 70.4039 88.3165 70.4759C88.6277 70.5469 88.8944 70.666 89.1127 70.8302C89.3944 71.0419 89.6117 71.3192 89.7666 71.6602C89.9209 72.0012 89.9994 72.3799 89.9994 72.7927C89.9994 73.2882 89.8877 73.701 89.6657 74.0309C89.4402 74.3617 89.1165 74.5934 88.6916 74.725C89.2201 74.8101 89.6378 75.0562 89.9421 75.4622C90.2448 75.871 90.3975 76.3833 90.3975 77.0045C90.3975 77.3797 90.3337 77.7371 90.2048 78.0733C90.078 78.4126 89.896 78.7014 89.659 78.9366C89.4109 79.1939 89.1045 79.375 88.7362 79.481C88.3674 79.5872 87.749 79.639 86.8821 79.639H84.5806ZM91.8981 79.639V70.3668H96.9651V71.6469H93.3737V73.9708H96.9651V75.2944H93.3737V78.2896H96.9651V79.639H91.8981ZM101.59 71.6469V79.639H100.115V71.6469H97.7015V70.3668H103.989V71.6469H101.59ZM108.051 71.6469V79.639H106.577V71.6469H104.164V70.3668H110.452V71.6469H108.051ZM111.58 79.639V70.3668H116.647V71.6469H113.056V73.9708H116.647V75.2944H113.056V78.2896H116.647V79.639H111.58ZM119.814 74.3193H120.08C120.861 74.3193 121.38 74.226 121.636 74.0403C121.891 73.8544 122.021 73.5255 122.021 73.0525C122.021 72.5423 121.883 72.1829 121.609 71.9729C121.334 71.7641 120.823 71.66 120.08 71.66H119.814V74.3193ZM119.72 75.4907V79.6388H118.338V70.3668H120.396C120.998 70.3668 121.469 70.4082 121.801 70.4886C122.133 70.5683 122.417 70.7005 122.654 70.8858C122.935 71.1108 123.151 71.401 123.306 71.7558C123.458 72.1101 123.535 72.4967 123.535 72.9203C123.535 73.6614 123.359 74.2427 123.007 74.6642C122.656 75.0843 122.135 75.3377 121.449 75.4216L124.576 79.6388H122.908L119.888 75.4907H119.72ZM128.204 70.3668H129.661L131.379 75.047C131.491 75.3564 131.584 75.6268 131.662 75.8585C131.739 76.089 131.803 76.3076 131.863 76.5107C132.007 76.0201 132.157 75.5427 132.316 75.0735C132.335 75.0133 132.349 74.9736 132.359 74.9527L134.18 70L136.105 75.047C136.196 75.2921 136.281 75.5377 136.361 75.7827C136.442 76.0269 136.518 76.2734 136.587 76.5241C136.63 76.3342 136.685 76.1242 136.755 75.8975C136.824 75.6672 136.915 75.398 137.028 75.0862L138.734 70.3668H140.202L136.687 80L134.617 74.7125C134.526 74.4748 134.441 74.2476 134.367 74.0309C134.293 73.8128 134.228 73.6075 134.17 73.4129C134.098 73.6616 134.029 73.8948 133.958 74.1134C133.889 74.3297 133.817 74.5397 133.741 74.7364L131.709 80L128.204 70.3668ZM148.978 75.0219C148.978 74.5549 148.894 74.1096 148.726 73.6862C148.559 73.2646 148.32 72.8885 148.005 72.5593C147.7 72.2331 147.344 71.9843 146.942 71.8099C146.538 71.6338 146.115 71.5461 145.668 71.5461C145.222 71.5461 144.796 71.6321 144.393 71.8047C143.991 71.9779 143.631 72.2285 143.318 72.5593C143.005 72.8839 142.764 73.258 142.598 73.6797C142.434 74.103 142.351 74.5505 142.351 75.0219C142.351 75.4907 142.434 75.9341 142.598 76.3529C142.764 76.7708 143.005 77.1446 143.318 77.4733C143.631 77.8037 143.989 78.0548 144.391 78.228C144.791 78.4006 145.217 78.4868 145.668 78.4868C146.11 78.4868 146.531 78.4008 146.929 78.228C147.327 78.0548 147.688 77.8037 148.005 77.4733C148.32 77.1446 148.559 76.7708 148.726 76.349C148.894 75.9297 148.978 75.4863 148.978 75.0219ZM150.517 75.0219C150.517 75.6809 150.396 76.3034 150.155 76.889C149.912 77.4769 149.56 78.0009 149.096 78.4607C148.629 78.9216 148.102 79.2743 147.515 79.5181C146.929 79.7618 146.313 79.8855 145.668 79.8855C145.013 79.8855 144.391 79.7618 143.799 79.5162C143.204 79.2674 142.682 78.9166 142.226 78.4607C141.762 78.0009 141.411 77.4798 141.172 76.8954C140.933 76.314 140.812 75.6893 140.812 75.0219C140.812 74.3582 140.933 73.7332 141.172 73.1472C141.411 72.5591 141.762 72.0347 142.226 71.5694C142.69 71.109 143.215 70.7586 143.801 70.519C144.388 70.2788 145.01 70.1582 145.668 70.1582C146.322 70.1582 146.94 70.2788 147.523 70.519C148.111 70.7586 148.634 71.109 149.096 71.5694C149.56 72.0383 149.912 72.5679 150.155 73.1558C150.396 73.7468 150.517 74.3667 150.517 75.0219ZM153.684 74.3193H153.95C154.732 74.3193 155.25 74.2262 155.507 74.0405C155.762 73.8544 155.892 73.5255 155.892 73.0527C155.892 72.5423 155.754 72.1829 155.479 71.9731C155.204 71.7643 154.693 71.6602 153.95 71.6602H153.684V74.3193ZM153.59 75.4907V79.6388H152.208V70.3668H154.266C154.869 70.3668 155.339 70.4082 155.671 70.4886C156.003 70.5683 156.287 70.7005 156.525 70.8858C156.806 71.1108 157.022 71.401 157.176 71.7558C157.328 72.1101 157.405 72.4967 157.405 72.9203C157.405 73.6614 157.229 74.2427 156.877 74.6642C156.526 75.0843 156.005 75.3379 155.319 75.4216L158.446 79.639H156.778L153.758 75.4907H153.59ZM159.32 79.639V70.3668H160.795V78.2896H164.095V79.639H159.32ZM166.767 78.2769H168.007C168.688 78.2769 169.201 78.2311 169.542 78.1385C169.883 78.0458 170.179 77.8882 170.432 77.6699C170.776 77.3693 171.031 76.9975 171.204 76.5522C171.375 76.1071 171.462 75.5881 171.462 74.9952C171.462 74.4052 171.375 73.8865 171.204 73.441C171.031 72.9961 170.776 72.6245 170.432 72.3237C170.177 72.1053 169.868 71.9475 169.512 71.8546C169.154 71.7614 168.593 71.7158 167.833 71.7158H166.767V78.2767V78.2769ZM165.291 79.639V70.367H167.281C168.577 70.367 169.486 70.4343 170.014 70.5665C170.541 70.7007 171.002 70.9231 171.399 71.2339C171.924 71.6452 172.323 72.1709 172.594 72.8129C172.865 73.4547 173 74.1873 173 75.009C173 75.8323 172.865 76.5628 172.594 77.1981C172.323 77.8345 171.924 78.3575 171.399 78.7724C171.002 79.0832 170.551 79.3064 170.046 79.4406C169.537 79.5722 168.75 79.639 167.679 79.639H165.291Z" fill="#231F20"/>
</svg>
