<svg width="716" height="526" viewBox="0 0 716 526" fill="none" xmlns="http://www.w3.org/2000/svg">
<mask id="mask0_8791_58573" style="mask-type:luminance" maskUnits="userSpaceOnUse" x="0" y="0" width="716" height="526">
<path d="M261.15 131.83C253.94 132.78 246.64 133.85 239.27 135.07L227.85 159.67C227.85 159.67 192.51 166.87 187.9 167.93C181.97 169.28 174.5 171.07 170.06 172.24C161.14 174.59 138.57 181.03 134.55 182.28L127.03 184.62L107.76 227.72L120.59 245.37L71.29 366.45L82.26 374.34L0.640015 484.99H260.04L358 525.45L455.96 484.99H715.36L639.79 382.54L650.82 375.2C650.82 375.2 627.7 323.14 622.91 312.05C618.12 300.96 613.71 292.64 613.71 292.64C606.02 279.91 597.1 272.28 597.1 272.28L602.26 265.68C602.26 265.68 588.94 235.66 580.05 215.36C571.16 195.06 553.83 184.21 553.83 184.21C543.32 176.44 527.99 173.2 527.99 173.2L488.95 163.61L476.11 135.78C473.31 135.24 466.12 133.92 455.28 132.41L358 0.540039L261.15 131.83Z" fill="white"/>
</mask>
<g mask="url(#mask0_8791_58573)">
<path d="M715.36 0.550049H0.640015V525.46H715.36V0.550049Z" fill="url(#paint0_linear_8791_58573)"/>
<path d="M616.31 384.5L638.29 370.05L614.59 316.57C609.97 305.31 606.61 299.09 606.61 299.09C598.21 283.96 582.55 272.35 582.55 272.35L590.51 262.19C590.51 262.19 577.79 233.46 571.17 218.42C564.55 203.38 550.69 189.72 533.43 184.5C516.17 179.28 485.3 173.15 485.3 173.15L477.37 196C470.41 194.66 451.32 191.82 451.32 191.82L446.8 208.6L436.56 189.85C436.56 189.85 392.34 182.79 330.99 184.63C272.35 186.39 220.4 195.6 220.4 195.6L210.93 172.79C176.42 179.02 133.89 192.37 133.89 192.37L119.69 224.15L132.49 241.76L83.83 361.27L105.66 376.41L40.42 464.85H264.86L358.01 502.17L451.16 464.85H675.59L616.31 384.49V384.5ZM138.83 377.86C135.52 378.73 123.11 382.15 122.7 382.26L95.03 363.07C101.22 361.26 113.59 357.81 130.77 353.76L154.64 373.85C152.68 374.33 142.13 376.99 138.82 377.86M207.44 364.72C203.57 365.39 193.91 367.18 191.99 367.55L171.2 345.2C178.49 343.83 186.17 342.47 194.2 341.15C198.49 340.45 202.79 339.78 207.11 339.13L223.84 362.01C222.49 362.22 211.53 364 207.44 364.72ZM276.95 356.16C273.57 356.45 262.87 357.5 260.9 357.7L248.4 333.78C255.42 333.03 262.43 332.36 269.44 331.77C274.69 331.33 280.07 330.89 285.56 330.49L293.92 354.84C291.64 355 280.33 355.87 276.95 356.16ZM331.15 352.88C323.63 353.03 316.24 353.4 315.3 353.44L309.39 328.91C315.66 328.6 322.02 328.35 328.5 328.21C334.25 328.09 340.22 328.05 346.43 328.08L348.09 352.74C347.88 352.74 339.43 352.7 331.14 352.87M404.89 354.35C403.98 354.29 396.5 353.69 388.79 353.3C381.09 352.91 373.16 352.73 371.95 352.69L373.35 328.69C379.52 328.92 385.92 329.2 392.58 329.56C398.76 329.89 404.7 330.25 410.44 330.64L404.89 354.35ZM447.09 359.03C438.79 358.01 419.97 356.07 414.88 355.79L421.58 331.64C434.79 332.65 446.77 334.05 457.87 335.32L447.09 359.03ZM503.65 366.74C503.17 366.65 479.14 362.43 473.75 361.52L487.06 338.83C499.49 340.7 510.73 342.68 521.28 344.68L503.66 366.75L503.65 366.74ZM540.36 374.76C539.48 374.55 538.65 374.24 537.8 374C531.11 372.17 525.88 369.47 522.02 366.93L542.61 342.56C542.61 342.56 542.68 342.62 542.72 342.64C542.95 342.82 543.2 342.99 543.43 343.16C546.83 345.72 550.68 348.05 554.93 350.06C555.97 350.55 566 354.44 569.69 355.43C570.46 355.62 620.53 369.61 625.79 371.28C626.2 371.41 626.61 371.54 627.02 371.67L602.25 387.89C594.51 386.29 555.73 378.48 540.35 374.75" fill="#0A1C33"/>
<path d="M243.9 182.25C250.87 181.28 257.83 180.39 264.79 179.6C266.95 173.09 269.1 166.59 271.22 160.08C268.11 160.44 265 160.82 261.89 161.21C260.52 165.01 259.13 168.81 257.75 172.61C255.5 172.9 253.24 173.19 250.99 173.5C249.53 173.7 249.08 173.14 249.61 171.8C251.51 166.99 253.4 162.18 255.29 157.36C255.82 156.02 256.73 155.27 258.09 155.09C261.79 154.58 265.49 154.11 269.2 153.66C270.33 152.7 271.45 151.75 272.56 150.8C273.18 148.93 273.79 147.07 274.41 145.2C268.88 145.86 263.35 146.58 257.82 147.36C255.65 147.67 253.61 148.61 251.68 150.18C249.73 151.77 248.29 153.69 247.32 155.96C244.5 162.63 241.65 169.29 238.78 175.95C237.8 178.22 237.77 179.92 238.73 181.05C239.69 182.19 241.43 182.58 243.9 182.23" fill="#0A1C33"/>
<path d="M281.89 178.29C286.54 177.86 291.18 177.47 295.82 177.11C298.35 176.92 300.51 176.11 302.29 174.67C304.06 173.23 305.15 171.42 305.57 169.2C307.31 160.08 309.03 150.96 310.74 141.84C307.82 142.04 304.9 142.25 301.98 142.48C300.16 150.73 298.31 158.98 296.44 167.23C296.15 168.54 295.28 169.24 293.83 169.36C291.84 169.52 289.85 169.69 287.86 169.87C286.44 170 285.89 169.42 286.24 168.1C288.43 159.83 289.92 151.56 292.06 143.28C289.13 143.55 286.2 143.84 283.27 144.15C280.58 153.34 278.52 162.54 275.76 171.73C275.08 173.97 275.31 175.67 276.42 176.86C277.54 178.06 279.37 178.53 281.9 178.29" fill="#0A1C33"/>
<path d="M319.75 167.68C316.96 167.82 314.17 167.96 311.39 168.13C310.93 170.81 310.48 173.48 310.02 176.16C314.23 175.91 318.45 175.7 322.66 175.52C325.14 175.41 327.22 174.67 328.84 173.29C330.46 171.91 331.37 170.12 331.58 167.91C332.44 158.83 333.29 149.75 334.14 140.66C331.21 140.76 328.28 140.87 325.36 141.01C324.31 149.22 323.25 157.42 322.17 165.63C322 166.94 321.2 167.61 319.75 167.68Z" fill="#0A1C33"/>
<path d="M449.35 154.1C452.52 162.94 455.72 171.78 458.96 180.62C462.3 181.04 465.63 181.47 468.98 181.93C465.43 173.05 461.9 164.18 458.43 155.3C460.7 155.62 467.92 156.36 467.92 156.36C467.57 155.56 467.22 154.76 466.87 153.97C466.87 153.97 465.31 150.29 464.52 148.45C455.39 147.06 446.27 145.85 437.15 144.81C438.02 147.53 438.89 150.24 439.77 152.96C442.96 153.32 446.16 153.7 449.35 154.11" fill="#0A1C33"/>
<path d="M348.48 140.33C345.05 150.34 341.24 160.37 337.04 170.43C336.94 171.81 336.84 173.18 336.73 174.56C340.06 174.48 343.38 174.41 346.71 174.37C347.25 172.42 347.79 170.47 348.31 168.51C351.93 168.47 355.55 168.45 359.17 168.46C359.64 170.41 360.12 172.35 360.6 174.3C363.93 174.31 367.27 174.35 370.61 174.4C370.54 173.02 370.47 171.65 370.41 170.27C366.46 160.25 362.89 150.25 359.69 140.28C355.95 140.27 352.22 140.28 348.48 140.33ZM350.39 160.97C351.56 156.67 352.67 152.36 353.73 148.07C353.9 148.07 354.07 148.07 354.25 148.07C355.2 152.36 356.2 156.65 357.26 160.94C354.97 160.94 352.68 160.95 350.4 160.97" fill="#0A1C33"/>
<path d="M398.91 175.35C402.25 175.52 408.93 175.92 408.93 175.92C408.83 174.63 408.73 173.33 408.64 172.04C405.98 168.9 403.32 165.77 400.68 162.63C400.68 162.63 400.98 162.55 401.12 162.51C401.81 162.36 402.65 161.75 403.43 160.95C404.18 160.17 404.66 158.62 404.33 156.81C403.86 154.21 403.38 151.61 402.92 149.01C402.51 146.79 401.52 144.96 399.92 143.54C398.32 142.12 396.45 141.36 394.29 141.24C387.95 140.91 381.61 140.66 375.27 140.5C376.11 151.85 376.96 163.2 377.82 174.54C381.16 174.62 384.49 174.73 387.83 174.85C387.39 170.95 386.96 167.06 386.52 163.16C388.2 163.22 389.88 163.29 391.56 163.37C393.93 167.35 396.38 171.34 398.92 175.35M385.62 155.16C385.39 153.05 385.15 150.93 384.92 148.82C387.26 148.91 389.61 149.01 391.95 149.12C393.3 149.18 394.06 149.88 394.26 151.22C394.38 152.02 394.5 152.82 394.61 153.62C394.81 154.93 394.21 155.54 392.83 155.47C390.43 155.36 388.03 155.25 385.62 155.16Z" fill="#0A1C33"/>
<path d="M414.08 172.14C414.21 173.52 414.33 174.91 414.46 176.29C414.46 176.29 421.12 176.78 424.45 177.05C424.45 175.13 424.42 173.2 424.4 171.28C428.02 171.59 431.65 171.92 435.28 172.27C436.3 174.28 437.33 176.3 438.37 178.32C441.71 178.65 448.4 179.38 448.4 179.38C447.94 177.98 447.48 176.58 447.02 175.19C440.64 164.73 434.35 154.28 428.15 143.83C424.33 143.48 420.5 143.13 416.68 142.79C415.83 152.58 414.96 162.36 414.08 172.15M424.62 151.16C426.77 155.59 428.97 160.03 431.24 164.48C428.95 164.26 426.66 164.05 424.36 163.85C424.32 159.61 424.23 155.36 424.1 151.12C424.27 151.14 424.44 151.15 424.62 151.17" fill="#0A1C33"/>
<path d="M428.09 129.34L358 34.3201L288.21 129.34C308.43 127.28 332.43 126.09 358.16 126.09C383.89 126.09 407.88 127.28 428.1 129.34" fill="#0A1C33"/>
<path d="M429.32 389.5C434.52 392.74 439.68 396.02 444.8 399.31C415.9 397.49 379.71 396.5 358 396.49C336.28 396.49 300.09 397.48 271.18 399.31C276.31 396.01 281.47 392.74 286.67 389.5C236.51 397.64 132.99 412.75 132.99 412.75C132.99 412.75 209.17 410.39 244.77 406.73C238.64 410.23 232.56 413.77 226.51 417.35C270.24 413.2 325.08 411.06 357.99 411.06C390.9 411.06 445.74 413.2 489.47 417.35C483.43 413.77 477.34 410.23 471.21 406.73C506.81 410.39 582.99 412.75 582.99 412.75C582.99 412.75 479.47 397.64 429.31 389.5" fill="white"/>
<path d="M265.22 219.53C265.09 220.3 246.89 328.88 246.84 329.23C250.69 328.84 261.06 327.81 265.8 327.39C270.54 326.98 284.78 325.94 284.78 325.94L296.18 216.8C298.19 216.66 306.32 216.18 308.22 216.08C310.23 215.97 319.56 215.57 320.27 215.54C320.39 213.45 321.57 192.46 321.68 190.49C289.19 191.05 246.56 196.9 246.56 196.9C246.1 199.02 244.49 206.47 243.8 209.66C243.11 212.86 241.17 221.84 241.03 222.47C241.14 222.45 252.45 220.99 253.13 220.91C255.15 220.66 263.22 219.75 265.24 219.53" fill="white"/>
<path d="M440.56 328.63C445.19 329.1 455.98 330.31 459.06 330.68C459 330.33 448.05 269.33 448.05 269.33C448.05 269.33 487.98 334.06 488.18 334.37C489.03 334.5 501.46 336.5 505.88 337.26C510.31 338.02 521.42 340.08 523.56 340.49C523.46 340.12 487.42 213.94 484.21 202.68C483.41 202.53 472.1 200.49 469.68 200.08C467.26 199.67 457.55 198.13 455.12 197.78C456.25 202.7 468.45 255.96 468.78 257.37C468.43 256.8 434.5 197.41 433.13 194.86C430.82 194.59 422.74 193.7 419.27 193.37C415.81 193.03 405.4 192.14 405.4 192.14C406.63 202.06 422.02 326.63 422.06 326.97C425.01 327.21 435.95 328.18 440.57 328.64" fill="white"/>
<path d="M168.76 340.97C168.76 340.97 190.75 336.76 205.28 334.65C205.36 334.29 236.86 199.98 237.25 198.32C225.03 200.07 208.96 203.11 208.96 203.11C207.81 207.04 168.88 340.6 168.77 340.97H168.76Z" fill="white"/>
<path d="M199.9 204.71C200.14 203.93 207.56 179.94 207.89 178.87C180.27 184.11 137.65 196.81 137.65 196.81C137.29 197.61 126.72 221.06 125.72 223.32C127.6 222.74 146.27 217.67 148.16 217.15C148 217.55 90.3 359.27 90.14 359.67C90.14 359.67 115.88 352.57 129.1 349.61C129.22 349.27 176.9 210.11 176.9 210.11C176.9 210.11 197.99 205.1 199.9 204.71Z" fill="white"/>
<path d="M609.84 318.46C604.27 305.5 602.44 302.33 602.44 302.33C597.44 293.42 592.27 288.25 586.89 283C582.64 278.85 575.43 273.47 572.58 271.37C566.39 266.67 542.09 248.22 542.09 248.22C539.57 246.22 538.29 244.35 537.66 243.15C537.52 242.89 537.27 242.27 536.99 241.54C536.69 240.71 526.39 212.68 526.27 212.34L536.46 214.96C539.34 215.57 540.28 217.85 540.28 217.85L546.66 233.92L584.54 261.59C584.63 261.65 584.69 261.7 584.69 261.7C584.69 261.7 584.59 261.57 584.42 261.33L567.69 223.46C567.69 223.46 563.82 212.03 552.33 201.33C540.84 190.63 527.79 188.45 527.79 188.45L488.7 179.26C488.7 179.26 500.3 216.52 504.92 231.38C504.92 231.38 507.02 238.53 507.95 240.55C510.19 245.56 514.72 253.13 523.65 260.69C523.65 260.69 525.42 262.54 533.96 268.6C535.49 269.72 562.73 289.85 565.37 291.62C570.58 295.11 571.84 300.02 571.84 300.02C571.84 300.02 582.61 327.5 583.24 329.11L569.77 325.55C569.77 325.55 567.09 324.87 566.16 322.68C566.16 322.68 560.57 307.64 560.06 306.28C557.82 304.72 519.67 278.43 519.6 278.38C519.58 278.37 530.79 314.48 532.05 318.84C533.27 322.62 535.75 330.06 544.77 337.71C549.42 341.65 555.64 345.61 564.07 348.75C564.07 348.75 570.33 351.34 583.14 354.72C595.39 357.96 630.95 368.1 631.95 368.43C631.88 368.27 615.21 331.02 609.82 318.46" fill="white"/>
<path d="M382.22 190.1C373.61 189.71 365.09 189.6 357.54 189.62C348.56 189.64 333.86 190 333.86 190C332.51 198.13 309.53 321.12 308.82 324.26C308.82 324.26 331.01 323.39 346.67 323.47C346.68 323.38 349.26 294.03 349.26 294.03L368.31 294.3C368.64 296.61 372.72 323.89 372.77 324.23C372.77 324.23 393.68 324.99 410.61 326.16C410.53 325.82 382.31 190.56 382.23 190.1M365.24 267.6L351.7 267.41L357.42 211.74L365.31 267.59H365.24V267.6Z" fill="white"/>
</g>
<defs>
<linearGradient id="paint0_linear_8791_58573" x1="-8.34998" y1="259.1" x2="789.39" y2="259.1" gradientUnits="userSpaceOnUse">
<stop stop-color="#F3DC8A"/>
<stop offset="0.07" stop-color="#F3DC8A"/>
<stop offset="0.21" stop-color="#EFD887"/>
<stop offset="0.35" stop-color="#E5CC7F"/>
<stop offset="0.48" stop-color="#D4B971"/>
<stop offset="0.61" stop-color="#BD9E5E"/>
<stop offset="0.64" stop-color="#C3A563"/>
<stop offset="0.85" stop-color="#F3DC8A"/>
<stop offset="0.91" stop-color="#DEC479"/>
<stop offset="1" stop-color="#BD9E5E"/>
</linearGradient>
</defs>
</svg>
