<svg width="265" height="75" viewBox="0 0 265 75" fill="none" xmlns="http://www.w3.org/2000/svg">
<path d="M246.394 0.666016H18.6061C8.33022 0.666016 0 9.14157 0 19.5967V55.3076C0 65.7627 8.33022 74.2383 18.6061 74.2383H246.394C256.67 74.2383 265 65.7627 265 55.3076V19.5967C265 9.14157 256.67 0.666016 246.394 0.666016Z" fill="white"/>
<path d="M228.019 45.915H36.9805V46.2583H228.019V45.915Z" fill="#25326C"/>
<path d="M41.7604 52.5585L45.475 52.4912V53.3359L44.2445 53.7162L44.433 53.2956V58.3538C44.433 58.7712 44.3966 59.1683 44.3272 59.5519C44.2577 59.9356 44.132 60.2822 43.96 60.6053C43.788 60.9284 43.5598 61.2077 43.2786 61.4433C42.9975 61.6789 42.6468 61.864 42.2234 61.9953C41.8001 62.1265 41.3039 62.1938 40.7316 62.1938C40.0172 62.1938 39.435 62.103 38.9819 61.9212C38.5287 61.7395 38.1748 61.5039 37.9201 61.2145C37.6654 60.925 37.4868 60.6121 37.3776 60.2755C37.2717 59.939 37.2056 59.6193 37.1824 59.3096C37.1593 59 37.1494 58.7375 37.1494 58.5221V53.2989L37.3379 53.7061L36.1074 53.4066V52.5619L39.822 52.4946V53.3393L38.6048 53.7196L38.7768 53.2989V58.5221C38.7768 58.7577 38.7867 58.9899 38.8098 59.2221C38.833 59.451 38.876 59.6697 38.9422 59.8683C39.0083 60.0669 39.1142 60.2486 39.2564 60.4068C39.3986 60.5649 39.5905 60.6895 39.8319 60.7736C40.0734 60.8611 40.381 60.9015 40.7548 60.9015C41.1286 60.9015 41.4527 60.8577 41.6975 60.7669C41.9423 60.676 42.1407 60.5481 42.2929 60.3798C42.4451 60.2116 42.5542 60.0197 42.627 59.801C42.6998 59.5822 42.7461 59.3534 42.7659 59.1077C42.7891 58.862 42.799 58.613 42.799 58.3606V53.3023L42.9578 53.6826L41.7537 53.41V52.5653L41.7604 52.5585Z" fill="#25326C"/>
<path d="M53.6319 52.5599L57.0819 52.4926V53.3374L55.7985 53.7311L56.04 53.3643V62.0404H54.1545L49.7552 54.2595L49.9835 54.246V61.1957L49.7288 60.8423L51.0254 61.1957V62.0404H47.5754V61.1957L48.8721 60.8423L48.6174 61.1957V53.3744L48.7927 53.6874L47.5754 53.4013V52.5566L50.5689 52.4893L54.912 60.1322H54.6706V53.3609L54.9252 53.7143L53.6286 53.4013V52.5566L53.6319 52.5599Z" fill="#25326C"/>
<path d="M63.0557 53.334L61.8252 53.7143L62.0138 53.4417V61.1116L61.8252 60.8659L63.0557 61.1923V62.0371H59.3279V61.1923L60.5451 60.8659L60.3698 61.1116V53.4417L60.5981 53.7143L59.3279 53.4013V52.5566L63.0557 52.4893V53.334Z" fill="#25326C"/>
<path d="M68.4537 62.0505L65.5925 53.4148L65.9796 53.7143L64.7358 53.4013V52.5566L68.5596 52.4893V53.334L67.1968 53.6874L67.3986 53.2801L69.5784 60.5832H69.3369L71.7019 53.3744L71.8343 53.7008L70.5509 53.4013V52.5566L74.0405 52.4893V53.334L72.81 53.6739L73.1971 53.3744L70.1903 62.0505H68.4537Z" fill="#25326C"/>
<path d="M81.6616 59.5898H82.6374L82.6242 62.0365H75.7275V61.1918L76.9977 60.8519L76.7695 61.1918V53.3705L76.9977 53.7104L75.7275 53.3974V52.5527L78.387 52.4854H82.4786V54.8378H81.4896L81.2349 53.4512L81.5558 53.6969H78.1488L78.4167 53.4243V56.8503L78.1488 56.5777H81.4499V57.7456H78.1488L78.4167 57.446V61.0908L78.1488 60.8182H81.7179L81.397 61.0908L81.6649 59.5797L81.6616 59.5898Z" fill="#25326C"/>
<path d="M85.2571 62.0365V61.1918L86.5273 60.8519L86.299 61.1918V53.3705L86.6066 53.7373L85.2571 53.3974V52.5527L88.0091 52.4854H89.3984C90.4403 52.4854 91.2309 52.7075 91.7634 53.1517C92.2993 53.596 92.5639 54.2354 92.5639 55.07C92.5639 55.8306 92.3357 56.4566 91.8759 56.9479C91.4161 57.4359 90.7049 57.7321 89.7457 57.8331V57.6412C90.093 57.6581 90.3775 57.722 90.6024 57.8331C90.824 57.9408 91.0092 58.0888 91.1581 58.2739C91.3036 58.459 91.4459 58.6845 91.5782 58.947L92.6598 61.111L92.1934 60.8115L93.3842 61.1918V62.0365H91.3797L90.1625 59.398C90.0037 59.0345 89.8582 58.7552 89.7292 58.56C89.6002 58.3648 89.4381 58.2302 89.2495 58.1528C89.0577 58.0754 88.7898 58.0417 88.4424 58.0518H87.6684L87.9496 57.8061V61.1918L87.7214 60.8519L89.1371 61.1918V62.0365H85.2604H85.2571ZM87.943 57.3047L87.6618 56.884H88.8261C89.5042 56.884 90.0169 56.7393 90.3709 56.4566C90.7215 56.1705 90.9001 55.7498 90.9001 55.1979C90.9001 54.7167 90.7579 54.3464 90.48 54.0839C90.1989 53.8214 89.7688 53.6902 89.19 53.6902H87.6651L87.9463 53.431V57.3081L87.943 57.3047Z" fill="#25326C"/>
<path d="M97.38 54.8716C97.38 55.1611 97.4693 55.4 97.6479 55.5851C97.8265 55.7702 98.0614 55.9284 98.3492 56.0563C98.6402 56.1842 98.9611 56.302 99.3117 56.4164C99.6623 56.5274 100.01 56.6553 100.354 56.79C100.698 56.9246 101.012 57.0996 101.303 57.3082C101.594 57.5169 101.826 57.7828 102.004 58.1025C102.183 58.4256 102.272 58.8261 102.272 59.3073C102.272 59.9703 102.103 60.5121 101.769 60.9396C101.435 61.3636 100.989 61.6833 100.433 61.892C99.8773 62.1006 99.2621 62.205 98.5939 62.205C98.1308 62.205 97.6545 62.1579 97.1716 62.0603C96.6854 61.966 96.2124 61.8213 95.7493 61.6328L95.8154 59.1559H96.778L97.0327 60.842L96.8706 60.5424C97.1551 60.6771 97.4528 60.7814 97.767 60.8487C98.0779 60.916 98.3822 60.9497 98.6766 60.9497C99.0405 60.9497 99.3746 60.8992 99.6723 60.7948C99.97 60.6905 100.208 60.5323 100.387 60.3203C100.565 60.1083 100.655 59.8424 100.655 59.5261C100.655 59.2097 100.569 58.9674 100.393 58.7722C100.221 58.577 99.9865 58.4155 99.6987 58.2808C99.4076 58.1496 99.0901 58.0318 98.7428 57.9275C98.3955 57.8232 98.0481 57.7054 97.7008 57.5741C97.3535 57.4429 97.036 57.2746 96.7449 57.0693C96.4538 56.864 96.2223 56.6049 96.0503 56.2952C95.8783 55.9822 95.789 55.5818 95.789 55.0904C95.789 54.4745 95.9345 53.9663 96.2289 53.5591C96.5233 53.1553 96.9235 52.8524 97.4329 52.6471C97.9423 52.4418 98.5112 52.3408 99.143 52.3408C99.5896 52.3408 100.053 52.3879 100.539 52.4855C101.025 52.5798 101.508 52.7278 101.988 52.9264L101.855 55.225H100.866L100.612 53.687L100.813 53.8923C100.572 53.7913 100.317 53.7173 100.046 53.6634C99.7748 53.6096 99.5003 53.5827 99.2257 53.5827C98.9049 53.5827 98.6005 53.6264 98.3161 53.7106C98.0316 53.7981 97.8034 53.936 97.6347 54.1245C97.466 54.3163 97.38 54.5654 97.38 54.8716Z" fill="#25326C"/>
<path d="M110.614 59.5898H111.59L111.577 62.0365H104.68V61.1918L105.95 60.8519L105.722 61.1918V53.3705L105.95 53.7104L104.68 53.3974V52.5527L107.34 52.4854H111.431V54.8378H110.442L110.188 53.4512L110.508 53.6969H107.101L107.369 53.4243V56.8503L107.101 56.5777H110.403V57.7456H107.101L107.369 57.446V61.0908L107.101 60.8182H110.671L110.35 61.0908L110.618 59.5797L110.614 59.5898Z" fill="#25326C"/>
<path d="M122.254 62.1876C121.434 62.1876 120.716 62.0059 120.101 61.6424C119.486 61.2789 119.006 60.7405 118.665 60.0236C118.321 59.3068 118.149 58.4217 118.149 57.3716C118.149 56.537 118.255 55.8067 118.47 55.174C118.685 54.5447 118.986 54.0196 119.38 53.5956C119.774 53.1749 120.233 52.8586 120.763 52.6499C121.292 52.4412 121.877 52.3369 122.519 52.3369C123.161 52.3369 123.71 52.4379 124.222 52.6432C124.735 52.8485 125.175 53.148 125.546 53.5485C125.916 53.949 126.204 54.4403 126.415 55.0326C126.624 55.6216 126.73 56.3082 126.73 57.0856C126.73 58.1558 126.541 59.0678 126.161 59.8251C125.784 60.5823 125.258 61.1645 124.59 61.5717C123.921 61.9789 123.141 62.1842 122.251 62.1842L122.254 62.1876ZM122.373 60.8953C122.853 60.8953 123.29 60.7741 123.677 60.5284C124.064 60.2828 124.378 59.889 124.613 59.3438C124.848 58.7986 124.967 58.075 124.967 57.1663C124.967 56.325 124.858 55.6418 124.639 55.1201C124.421 54.5985 124.123 54.2182 123.749 53.9826C123.376 53.747 122.939 53.6292 122.44 53.6292C121.967 53.6292 121.537 53.747 121.15 53.9826C120.763 54.2182 120.458 54.6052 120.24 55.1471C120.022 55.6855 119.912 56.4091 119.912 57.3178C119.912 58.1591 120.015 58.8457 120.22 59.3707C120.425 59.8957 120.713 60.2828 121.083 60.5284C121.454 60.7741 121.884 60.8953 122.373 60.8953Z" fill="#25326C"/>
<path d="M129.22 62.0365V61.1918L130.451 60.8653L130.262 61.111V53.3705L130.504 53.7238L129.22 53.3974V52.5527L131.88 52.4854H135.876L135.889 54.8513H134.9L134.658 53.5051L134.966 53.6969H131.638L131.906 53.4243V56.8907L131.638 56.6451H134.86V57.8566H131.638L131.906 57.584V61.1077L131.691 60.862L133.203 61.1884V62.0332H129.22V62.0365Z" fill="#25326C"/>
<path d="M147.853 59.5898H148.829L148.816 62.0365H141.919V61.1918L143.189 60.8519L142.961 61.1918V53.3705L143.189 53.7104L141.919 53.3974V52.5527L144.578 52.4854H148.67V54.8378H147.681L147.426 53.4512L147.747 53.6969H144.34L144.608 53.4243V56.8503L144.34 56.5777H147.641V57.7456H144.34L144.608 57.446V61.0908L144.34 60.8182H147.909L147.588 61.0908L147.856 59.5797L147.853 59.5898Z" fill="#25326C"/>
<path d="M155.593 52.4887C156.225 52.4887 156.804 52.5829 157.323 52.7748C157.846 52.9632 158.292 53.2527 158.666 53.6363C159.04 54.0234 159.331 54.5046 159.536 55.0801C159.741 55.6556 159.844 56.3287 159.844 57.0994C159.844 58.1797 159.655 59.0816 159.275 59.812C158.894 60.5423 158.368 61.0942 157.69 61.4711C157.012 61.8481 156.225 62.0365 155.325 62.0365H151.448V61.1918L152.732 60.8519L152.49 61.1918V53.3705L152.745 53.7238L151.448 53.3974V52.5527L154.31 52.4854H155.593V52.4887ZM155.405 60.825C155.735 60.825 156.056 60.7745 156.367 60.6701C156.678 60.5658 156.962 60.3841 157.224 60.1249C157.482 59.8658 157.69 59.5023 157.846 59.0312C158.001 58.56 158.081 57.9509 158.081 57.2071C158.081 56.4633 158.008 55.8912 157.859 55.4335C157.713 54.9758 157.515 54.6224 157.27 54.3734C157.025 54.1243 156.754 53.9493 156.453 53.8484C156.155 53.7474 155.851 53.7003 155.537 53.7003H153.866L154.134 53.4277V61.0976L153.866 60.825H155.405Z" fill="#25326C"/>
<path d="M167.742 52.5585L171.46 52.4912V53.3359L170.23 53.7162L170.418 53.2956V58.3538C170.418 58.7712 170.382 59.1683 170.313 59.5519C170.24 59.9322 170.117 60.2822 169.945 60.6053C169.773 60.9284 169.545 61.2077 169.264 61.4433C168.983 61.6789 168.632 61.864 168.209 61.9953C167.785 62.1265 167.289 62.1938 166.717 62.1938C166.003 62.1938 165.42 62.103 164.967 61.9212C164.514 61.7395 164.16 61.5039 163.905 61.2145C163.651 60.925 163.472 60.6121 163.363 60.2755C163.257 59.939 163.191 59.6193 163.168 59.3096C163.145 59 163.135 58.7375 163.135 58.5221V53.2989L163.323 53.7061L162.093 53.4066V52.5619L165.807 52.4946V53.3393L164.59 53.7196L164.765 53.2989V58.5221C164.765 58.7577 164.775 58.9899 164.799 59.2221C164.822 59.451 164.865 59.6697 164.931 59.8683C164.997 60.0669 165.103 60.2486 165.245 60.4068C165.387 60.5649 165.579 60.6895 165.821 60.7736C166.062 60.8611 166.37 60.9015 166.743 60.9015C167.117 60.9015 167.441 60.8577 167.686 60.7669C167.931 60.676 168.129 60.5481 168.282 60.3798C168.434 60.2116 168.543 60.0197 168.616 59.801C168.688 59.5822 168.735 59.3534 168.755 59.1077C168.778 58.862 168.788 58.613 168.788 58.3606V53.3023L168.95 53.6826L167.746 53.41V52.5653L167.742 52.5585Z" fill="#25326C"/>
<path d="M177.672 62.1867C176.951 62.1867 176.29 62.0016 175.688 61.6382C175.086 61.2713 174.606 60.7261 174.252 59.9992C173.895 59.2756 173.716 58.3804 173.716 57.3203C173.716 56.2602 173.892 55.3851 174.246 54.6414C174.596 53.8976 175.096 53.3289 175.734 52.9351C176.376 52.5413 177.123 52.3428 177.98 52.3428C178.443 52.3428 178.919 52.4 179.402 52.511C179.889 52.6255 180.401 52.8005 180.947 53.0361L180.841 55.3885H179.865L179.571 53.7563L179.852 54.0423C179.521 53.9077 179.204 53.8034 178.896 53.7361C178.589 53.6688 178.301 53.6351 178.033 53.6351C177.49 53.6351 177.027 53.7731 176.65 54.0491C176.27 54.325 175.982 54.7255 175.78 55.2472C175.579 55.7688 175.479 56.3881 175.479 57.1049C175.479 57.9294 175.592 58.6194 175.813 59.1713C176.035 59.7232 176.346 60.1372 176.743 60.4165C177.14 60.6925 177.586 60.8305 178.086 60.8305C178.45 60.8305 178.84 60.7497 179.25 60.5915C179.66 60.4333 180.064 60.1843 180.467 59.8511L181.083 60.8305C180.54 61.2848 179.975 61.6247 179.392 61.8502C178.81 62.0757 178.235 62.1901 177.676 62.1901L177.672 62.1867Z" fill="#25326C"/>
<path d="M191.32 61.2348L190.88 60.841L192.071 61.1944V62.0391H188.353V61.1944L189.597 60.8679L189.438 61.1136L188.836 59.2088L189.104 59.4275H185.389L185.604 59.2222L184.963 61.0867L184.91 60.9117L186.074 61.1978V62.0425H182.65V61.1978L183.801 60.8579L183.428 61.1978L186.623 52.5216L188.293 52.4678L191.327 61.2382L191.32 61.2348ZM185.813 58.4886L185.693 58.2564H188.823L188.664 58.529L187.152 53.4034L187.526 53.4168L185.816 58.4886H185.813Z" fill="#25326C"/>
<path d="M194.406 62.0365V61.1918L195.918 60.8384L195.61 61.2591V53.4243L195.944 53.6969H193.632L194.006 53.3705L193.685 55.0969H192.696V52.4854H200.168V55.0969H199.179L198.872 53.4243L199.232 53.6969H196.92L197.254 53.4243V61.2591L196.96 60.8384L198.458 61.1918V62.0365H194.406Z" fill="#25326C"/>
<path d="M205.811 53.334L204.581 53.7143L204.769 53.4417V61.1116L204.581 60.8659L205.811 61.1923V62.0371H202.083V61.1923L203.301 60.8659L203.129 61.1116V53.4417L203.357 53.7143L202.087 53.4013V52.5566L205.815 52.4893V53.334H205.811Z" fill="#25326C"/>
<path d="M212.427 62.1876C211.606 62.1876 210.889 62.0059 210.273 61.6424C209.658 61.2789 209.178 60.7405 208.838 60.0236C208.494 59.3068 208.322 58.4217 208.322 57.3716C208.322 56.537 208.428 55.8067 208.643 55.174C208.858 54.5447 209.159 54.0196 209.552 53.5956C209.946 53.1749 210.406 52.8586 210.935 52.6499C211.464 52.4412 212.05 52.3369 212.691 52.3369C213.333 52.3369 213.882 52.4379 214.395 52.6432C214.907 52.8485 215.347 53.148 215.718 53.5485C216.088 53.949 216.376 54.4403 216.588 55.0326C216.796 55.6216 216.902 56.3082 216.902 57.0856C216.902 58.1558 216.714 59.0678 216.333 59.8251C215.956 60.5823 215.43 61.1645 214.762 61.5717C214.094 61.9789 213.313 62.1842 212.423 62.1842L212.427 62.1876ZM212.546 60.8953C213.025 60.8953 213.462 60.7741 213.849 60.5284C214.236 60.2828 214.55 59.889 214.785 59.3438C215.02 58.7986 215.139 58.075 215.139 57.1663C215.139 56.325 215.03 55.6418 214.812 55.1201C214.593 54.5985 214.296 54.2182 213.922 53.9826C213.548 53.747 213.111 53.6292 212.612 53.6292C212.139 53.6292 211.709 53.747 211.322 53.9826C210.935 54.2182 210.631 54.6052 210.412 55.1471C210.194 55.6855 210.085 56.4091 210.085 57.3178C210.085 58.1591 210.187 58.8457 210.392 59.3707C210.598 59.8957 210.885 60.2828 211.256 60.5284C211.626 60.7741 212.056 60.8953 212.546 60.8953Z" fill="#25326C"/>
<path d="M225.446 52.5599L228.896 52.4926V53.3374L227.613 53.7311L227.854 53.3643V62.0404H225.969L221.573 54.2595L221.801 54.246V61.1957L221.546 60.8423L222.843 61.1957V62.0404H219.393V61.1957L220.69 60.8423L220.435 61.1957V53.3744L220.607 53.6874L219.39 53.4013V52.5566L222.383 52.4893L226.726 60.1322H226.485V53.3609L226.739 53.7143L225.443 53.4013V52.5566L225.446 52.5599Z" fill="#25326C"/>
<path d="M164.332 40.5269C171.882 40.5269 178.003 34.2994 178.003 26.6174C178.003 18.9355 171.882 12.708 164.332 12.708C156.782 12.708 150.661 18.9355 150.661 26.6174C150.661 34.2994 156.782 40.5269 164.332 40.5269Z" fill="#25326C"/>
<path d="M163.75 25.3994L161.444 27.7451C161.444 27.7451 161.474 27.7148 161.487 27.698C162.242 26.9307 162.996 26.1667 163.747 25.3994H163.75Z" fill="white"/>
<path d="M164.236 31.8009C164.206 31.8312 164.173 31.8581 164.137 31.8884C163.938 31.3533 163.69 30.835 163.393 30.3403C163.26 30.1181 163.297 29.8321 163.479 29.647C166.283 26.783 169.049 23.9594 171.814 21.1357C172.472 21.7651 172.677 22.5627 172.337 23.3603C172.234 23.5993 172.079 23.818 171.903 23.9997C169.353 26.6046 166.796 29.2027 164.243 31.8009H164.236Z" fill="white"/>
<path d="M160.416 27.3115C159.939 27.0154 159.443 26.7663 158.93 26.5711C158.97 26.5139 159.01 26.4567 159.059 26.4096C161.573 23.8485 164.091 21.2874 166.614 18.733C167.319 18.0195 168.265 17.9185 169.095 18.4436C169.234 18.5311 169.36 18.6556 169.436 18.7162C166.651 21.5566 163.879 24.3802 161.09 27.2274C160.912 27.4091 160.634 27.4461 160.416 27.3115Z" fill="white"/>
<path d="M157.836 26.2281C157.154 26.0632 156.46 25.9791 155.765 25.9757C157.101 24.5521 158.401 23.0983 159.79 21.7386C160.386 21.1564 161.365 21.4391 162.218 22.2771C161.484 23.0208 160.75 23.7646 160.019 24.5084C159.519 25.0166 159.01 25.5113 158.52 26.0296C158.345 26.2147 158.084 26.2887 157.839 26.2281H157.836Z" fill="white"/>
<path d="M164.706 35.1899C164.712 34.4326 164.63 33.6788 164.451 32.9384C164.392 32.6927 164.461 32.4335 164.636 32.2552C165.824 31.0369 167.021 29.8287 168.215 28.6205C168.252 28.5835 168.318 28.57 168.367 28.5498C169.161 29.3743 169.39 30.4345 168.791 31.0739C167.484 32.4605 166.112 33.7865 164.706 35.1932V35.1899Z" fill="white"/>
<path d="M160.267 34.5476H156.949C156.579 34.5476 156.281 34.2413 156.281 33.8677V30.4922C158.484 30.4922 160.267 32.3095 160.267 34.5476Z" fill="#E53F3D"/>
<path d="M165.509 26.7053L162.794 29.4683C162.575 29.1856 162.337 28.9096 162.079 28.6471C161.821 28.3846 161.553 28.1423 161.272 27.9202L163.988 25.1572C166.168 22.9393 168.351 20.7248 170.541 18.5171C170.765 18.2916 171.083 18.0897 171.417 18.0661C172.089 18.0157 172.634 18.6921 172.482 19.3349C172.433 19.5537 172.323 19.7623 172.175 19.9104C169.955 22.1787 167.732 24.4437 165.509 26.7053Z" fill="white"/>
<path d="M58.9076 37.4537L57.4456 36.3095L60.6707 37.3023V40.0485H50.0197V37.3023L52.871 36.3095L52.7585 37.2249L46.3448 27.2261L47.7705 28.293H42.8948L43.7218 27.1857V37.3763L43.047 36.1917L46.3481 37.2989V40.0451H35.5847V37.2989L38.9222 36.3061L38.3599 37.3763V15.9653L38.9222 16.9951L35.5847 16.1168V13.3705L46.3481 13.1787V15.8509L43.047 16.9951L43.7218 15.8509V25.2405L42.8948 24.3621H48.1475L46.7583 25.2001L52.0837 16.0427L52.4972 16.8437L49.3449 16.1168V13.3705L59.4732 13.1787V15.9249L56.1357 16.9918L57.3001 16.0764L50.8103 26.7617V25.3482L58.9109 37.447L58.9076 37.4537Z" fill="#25326C"/>
<path d="M77.9999 32.8739H81.1885L81.1125 40.0491H61.5703V37.3028L65.06 36.273L64.3455 37.3802V16.0096L65.0203 17.0764L61.5703 16.1207V13.3744L69.5982 13.1826H80.7023V20.0515H77.5136L76.7628 16.3495L77.775 17.1135H68.8837L69.7107 16.2755V25.3218L68.8837 24.4838H77.775V28.2632H68.8837L69.7107 27.3074V36.9629L68.8837 36.1216H78.2248L77.2126 36.9629L77.9999 32.8806V32.8739Z" fill="#25326C"/>
<path d="M88.9882 40.0491V37.3028L92.5903 36.236L91.8758 37.3802V29.4815L92.3257 31.3527L84.5624 16.2014L85.5382 17.0394L82.5745 16.124V13.3778L93.0402 13.186V15.9322L89.7026 16.8476L90.1161 15.8918L95.5177 27.5329H94.5055L99.9831 16.1207L100.397 17.0764L96.9466 16.1207V13.3744L106.698 13.1826V15.9288L103.698 16.8442L104.746 16.0433L96.8308 31.346L97.2443 29.4748V37.3735L96.4934 36.2293L100.096 37.2961V40.0423H88.9915L88.9882 40.0491Z" fill="#25326C"/>
<path d="M112.883 19.9367C112.883 20.6737 113.131 21.2862 113.634 21.7675C114.134 22.2521 114.785 22.6627 115.586 23.0093C116.386 23.3526 117.273 23.6824 118.249 24.0021C119.224 24.3219 120.187 24.6752 121.136 25.069C122.086 25.4628 122.969 25.9608 123.779 26.5565C124.593 27.1556 125.241 27.9128 125.731 28.8282C126.217 29.7436 126.462 30.8879 126.462 32.2643C126.462 34.1456 125.979 35.7005 125.016 36.9188C124.054 38.1404 122.774 39.0491 121.173 39.6482C119.572 40.2472 117.795 40.5434 115.847 40.5434C114.521 40.5434 113.165 40.4087 111.779 40.1429C110.389 39.877 109.023 39.4765 107.67 38.9414L107.859 31.6889H110.972L111.759 36.3063L111.273 35.3909C112.023 35.7476 112.817 36.0202 113.654 36.212C114.491 36.4039 115.311 36.4981 116.112 36.4981C117.038 36.4981 117.888 36.3702 118.662 36.1178C119.436 35.8654 120.051 35.4683 120.501 34.9331C120.951 34.398 121.176 33.7384 121.176 32.9475C121.176 32.1566 120.938 31.5105 120.461 31.0023C119.985 30.4941 119.343 30.0667 118.53 29.7234C117.716 29.3801 116.836 29.0604 115.887 28.7676C114.938 28.4748 113.978 28.1383 113.019 27.7546C112.056 27.3743 111.167 26.8897 110.356 26.3041C109.543 25.7185 108.898 24.9748 108.425 24.0728C107.948 23.1709 107.71 22.03 107.71 20.6569C107.71 18.8496 108.133 17.3688 108.987 16.2111C109.837 15.0534 110.988 14.1817 112.437 13.5962C113.886 13.0106 115.526 12.7178 117.349 12.7178C118.649 12.7178 119.998 12.8591 121.401 13.1385C122.8 13.4178 124.203 13.8385 125.602 14.3971L125.188 21.0742H122L121.212 16.9145L121.811 17.5236C121.186 17.2679 120.518 17.0727 119.803 16.9313C119.089 16.7933 118.371 16.7227 117.647 16.7227C116.796 16.7227 116.009 16.8304 115.285 17.0458C114.56 17.2611 113.978 17.6044 113.542 18.0756C113.105 18.5467 112.887 19.1626 112.887 19.9266L112.883 19.9367Z" fill="#25326C"/>
<path d="M132.65 40.0491V37.3028L136.815 36.236L135.839 37.6091V16.2755L136.927 17.1135H130.815L132.015 16.0466L131.003 20.8929H127.814V13.1826H149.268V20.8929H146.08L145.14 16.2755L146.265 17.1135H140.152L141.241 16.2755V37.6091L140.301 36.236L144.426 37.3028V40.0491H132.647H132.65Z" fill="#25326C"/>
<path d="M197.615 13.3739L207.554 13.1821V15.9283L204.028 17.1096L204.816 15.9653V40.0451H198.627L187.298 18.9404H188.049V37.373L187.261 36.2287L190.824 37.2956V40.0418H180.848V37.2956L184.41 36.2287L183.623 37.373V16.0023L184.149 16.9951L180.848 16.1168V13.3705L190 13.1787L201.141 33.8628H200.353V15.9653L201.177 17.0725L197.615 16.1168V13.3705V13.3739Z" fill="#25326C"/>
<path d="M226.233 32.8739H229.422L229.346 40.0491H209.804V37.3028L213.293 36.273L212.579 37.3802V16.0096L213.254 17.0764L209.804 16.1207V13.3744L217.832 13.1826H228.936V20.0515H225.747L224.996 16.3495L226.008 17.1135H217.117L217.944 16.2755V25.3218L217.117 24.4838H226.008V28.2632H217.117L217.944 27.3074V36.9629L217.117 36.1216H226.458L225.446 36.9629L226.233 32.8806V32.8739Z" fill="#25326C"/>
</svg>
