<?xml version="1.0" encoding="UTF-8" standalone="no"?>
<svg
   xmlns:dc="http://purl.org/dc/elements/1.1/"
   xmlns:cc="http://creativecommons.org/ns#"
   xmlns:rdf="http://www.w3.org/1999/02/22-rdf-syntax-ns#"
   xmlns:svg="http://www.w3.org/2000/svg"
   xmlns="http://www.w3.org/2000/svg"
   xmlns:sodipodi="http://sodipodi.sourceforge.net/DTD/sodipodi-0.dtd"
   xmlns:inkscape="http://www.inkscape.org/namespaces/inkscape"
   version="1.1"
   width="841.88977"
   height="595.27557"
   id="svg13"
   viewBox="0 0 841.88977 595.27557"
   sodipodi:docname="Kohinoor Optics Logo.cdr">
  <metadata
     id="metadata19">
    <rdf:RDF>
      <cc:Work
         rdf:about="">
        <dc:format>image/svg+xml</dc:format>
        <dc:type
           rdf:resource="http://purl.org/dc/dcmitype/StillImage" />
      </cc:Work>
    </rdf:RDF>
  </metadata>
  <defs
     id="defs17" />
  <sodipodi:namedview
     pagecolor="#ffffff"
     bordercolor="#666666"
     borderopacity="1"
     objecttolerance="10"
     gridtolerance="10"
     guidetolerance="10"
     inkscape:pageopacity="0"
     inkscape:pageshadow="2"
     inkscape:window-width="640"
     inkscape:window-height="480"
     id="namedview15" />
  <g
     id="Layer1000">
    <path
       d="m 406.5741,320.8076 c 0,-12.8889 3.4757,-22.9901 10.4092,-30.2852 6.9329,-7.2956 15.8755,-10.9339 26.8457,-10.9339 7.1867,0 13.649,1.7197 19.4239,5.1411 5.7565,3.4215 10.1554,8.2005 13.1784,14.337 3.023,6.1186 4.5437,13.0699 4.5437,20.8356 0,7.8746 -1.5934,14.9344 -4.779,21.1435 -3.1862,6.2271 -7.6935,10.9339 -13.5226,14.1201 -5.847,3.2041 -12.1467,4.7969 -18.8986,4.7969 -7.3319,0 -13.8663,-1.7739 -19.6412,-5.3038 -5.7565,-3.5299 -10.1375,-8.3452 -13.1063,-14.4638 -2.9688,-6.1007 -4.4532,-12.5631 -4.4532,-19.3875 z m 10.6444,0.181 c 0,9.359 2.5161,16.7262 7.5488,22.1026 5.0322,5.3765 11.3498,8.0736 18.9528,8.0736 7.7477,0 14.1016,-2.715 19.1164,-8.1457 4.9959,-5.4306 7.4941,-13.1426 7.4941,-23.1348 0,-6.3176 -1.068,-11.8388 -3.2041,-16.5456 -2.136,-4.7064 -5.268,-8.3631 -9.3769,-10.9519 -4.1273,-2.5887 -8.7436,-3.892 -13.8663,-3.892 -7.2772,0 -13.5406,2.4982 -18.7901,7.4946 -5.2496,4.9958 -7.8747,13.3231 -7.8747,24.9992 z m 75.7948,59.2849 v -77.985 h 8.6889 v 7.4041 c 2.0455,-2.8604 4.3626,-5.0143 6.9513,-6.4445 2.5703,-1.4301 5.7023,-2.1539 9.3769,-2.1539 4.8153,0 9.0511,1.2307 12.7257,3.711 3.6752,2.4618 6.4445,5.9554 8.3273,10.4449 1.8644,4.5073 2.8056,9.4311 2.8056,14.8075 0,5.7386 -1.0317,10.916 -3.0951,15.5318 -2.0639,4.5979 -5.069,8.1278 -9.0153,10.5902 -3.9278,2.4435 -8.0736,3.6747 -12.4177,3.6747 -3.1862,0 -6.0465,-0.6701 -8.5626,-2.0098 -2.5345,-1.3391 -4.5979,-3.0229 -6.2271,-5.0684 v 27.4974 z m 8.6889,-49.4553 c 0,7.2224 1.4665,12.5631 4.3805,16.0203 2.933,3.4578 6.4807,5.1954 10.6444,5.1954 4.2358,0 7.8562,-1.7924 10.8613,-5.3765 3.023,-3.5841 4.5258,-9.1237 4.5258,-16.6361 0,-7.1682 -1.4665,-12.5268 -4.4174,-16.093 -2.9503,-3.5657 -6.4623,-5.3401 -10.5533,-5.3401 -4.0553,0 -7.6394,1.9008 -10.7529,5.6844 -3.1314,3.8015 -4.6884,9.3048 -4.6884,16.5456 z m 72.4638,19.3149 1.3033,8.4357 c -2.6793,0.5612 -5.0869,0.8507 -7.1867,0.8507 -3.4577,0 -6.1365,-0.5427 -8.0557,-1.6471 -1.9007,-1.1043 -3.2403,-2.5345 -4.0183,-4.3263 -0.7785,-1.7923 -1.1586,-5.5575 -1.1586,-11.296 v -32.4754 h -7.0603 v -7.3862 h 7.0603 v -13.9384 l 9.558,-5.7386 v 19.677 h 9.558 v 7.3862 h -9.558 v 33.0186 c 0,2.7335 0.1626,4.4895 0.5069,5.2675 0.3258,0.7785 0.8685,1.3938 1.6291,1.8649 0.7601,0.4522 1.8466,0.6875 3.2583,0.6875 1.0501,0 2.444,-0.1264 4.1637,-0.3801 z m 9.4316,-58.38 v -10.8613 h 9.558 v 10.8613 z m 0,66.9063 v -56.3709 h 9.558 v 56.3709 z m 60.9503,-20.6367 9.3406,1.3034 c -1.0317,6.4265 -3.6389,11.4408 -7.8562,15.0791 -4.2179,3.6388 -9.4132,5.4491 -15.5502,5.4491 -7.6936,0 -13.8843,-2.5161 -18.5549,-7.5488 -4.6884,-5.0327 -7.0234,-12.2373 -7.0234,-21.6141 0,-6.0823 1.0138,-11.3866 3.023,-15.9482 2.0092,-4.5437 5.0685,-7.9652 9.1958,-10.2276 4.1094,-2.2813 8.5805,-3.4214 13.4321,-3.4214 6.1002,0 11.1145,1.5386 14.9886,4.6342 3.892,3.0951 6.3902,7.4941 7.4761,13.1784 l -9.2321,1.4118 c -0.8869,-3.7831 -2.444,-6.6256 -4.7063,-8.5442 -2.245,-1.9008 -4.9601,-2.8603 -8.1463,-2.8603 -4.8153,0 -8.7252,1.7196 -11.7482,5.1595 -3.0051,3.4573 -4.5079,8.8879 -4.5079,16.3461 0,7.5667 1.4486,13.0521 4.3447,16.473 2.9146,3.4215 6.6982,5.1412 11.3503,5.1412 3.7652,0 6.8971,-1.1402 9.3948,-3.4394 2.5166,-2.2808 4.1094,-5.8107 4.7795,-10.5718 z m 13.6853,3.8015 9.449,-1.5207 c 0.5253,3.7836 2.0097,6.6798 4.4353,8.7074 2.4255,2.0092 5.8291,3.023 10.1733,3.023 4.3989,0 7.6572,-0.887 9.7938,-2.6793 2.1176,-1.7739 3.1856,-3.8736 3.1856,-6.2813 0,-2.1544 -0.9591,-3.8557 -2.8598,-5.0869 -1.3396,-0.8506 -4.5984,-1.9186 -9.7754,-3.2404 -6.9876,-1.7554 -11.8208,-3.2761 -14.5364,-4.5615 -2.6972,-1.3034 -4.7427,-3.0773 -6.1365,-5.3586 -1.3939,-2.2623 -2.0997,-4.779 -2.0997,-7.5303 0,-2.5161 0.579,-4.8332 1.7196,-6.9693 1.1586,-2.136 2.7151,-3.9104 4.6885,-5.3222 1.4844,-1.0859 3.512,-2.0092 6.0644,-2.7698 2.5703,-0.7601 5.3038,-1.1401 8.2362,-1.1401 4.4174,0 8.291,0.6332 11.6219,1.9186 3.3488,1.267 5.8107,3.0051 7.404,5.1775 1.5744,2.1902 2.6788,5.1048 3.2762,8.7615 l -9.3406,1.3034 c -0.4163,-2.9325 -1.6475,-5.2317 -3.6746,-6.8793 -2.0276,-1.647 -4.888,-2.4618 -8.5989,-2.4618 -4.3626,0 -7.4941,0.7243 -9.359,2.1723 -1.8644,1.4481 -2.8056,3.1499 -2.8056,5.0869 0,1.2307 0.38,2.3535 1.1585,3.3488 0.7786,1.0138 1.9913,1.8645 3.6568,2.5346 0.9591,0.3621 3.7468,1.1764 8.4173,2.4434 6.734,1.7923 11.4408,3.2767 14.1201,4.4174 2.6787,1.1401 4.779,2.824 6.2991,4.9958 1.5392,2.1908 2.2993,4.9059 2.2993,8.1641 0,3.1683 -0.9233,6.155 -2.7877,8.9611 -1.8645,2.8056 -4.5437,4.9779 -8.0373,6.5165 -3.512,1.5386 -7.4767,2.2993 -11.8935,2.2993 -7.3135,0 -12.9068,-1.5207 -16.7446,-4.5437 -3.8378,-3.0414 -6.2813,-7.5309 -7.3493,-13.4864 z"
       style="fill:#102a83;fill-rule:evenodd"
       id="path2" />
    <path
       d="m 118.6188,212.22 46.2206,-42.9366 6.4916,5.9727 -40.7676,38.6893 48.0382,48.5572 -6.4917,5.9727 -53.4911,-53.7449 v 50.6286 h -8.8283 V 144.1825 h 8.8283 z m 105.2933,-23.7215 c 23.3831,0 42.4557,17.8472 42.4557,39.7297 0,21.8809 -19.0726,39.7273 -42.4557,39.7273 -23.3815,0 -42.4541,-17.8464 -42.4541,-39.7273 0,-21.8825 19.0726,-39.7297 42.4541,-39.7297 z m 0,7.5305 c 18.9499,0 34.4063,14.4633 34.4063,32.1992 0,17.7335 -15.4564,32.1969 -34.4063,32.1969 -18.9483,0 -34.4047,-14.4634 -34.4047,-32.1969 0,-17.7359 15.4564,-32.1992 34.4047,-32.1992 z m 367.9421,-9.3252 c 23.3831,0 42.4557,17.8471 42.4557,39.7296 0,21.881 -19.0726,39.7281 -42.4557,39.7281 -23.3816,0 -42.4542,-17.8471 -42.4542,-39.7281 0,-21.8825 19.0726,-39.7296 42.4542,-39.7296 z m 0,7.5304 c 18.9499,0 34.4062,14.4641 34.4062,32.1992 0,17.7336 -15.4563,32.1977 -34.4062,32.1977 -18.9484,0 -34.4048,-14.4641 -34.4048,-32.1977 0,-17.7351 15.4564,-32.1992 34.4048,-32.1992 z m 35.8322,37.2748 c -4.277,-1.874 -10.6688,-2.8114 -16.8732,-2.8137 -2.7886,9.5188 -7.2721,16.057 -17.0187,17.0218 -9.7565,0.9648 -17.1612,-8.1142 -18.171,-17.4432 -5.9597,0.0472 -11.921,1.6423 -17.8837,3.9386 l -1.1531,-2.5318 c 6.9421,-7.5189 24.4401,-10.0034 38.5057,-9.8472 12.1808,0.1357 21.8276,2.8838 31.5849,6.1891 z M 497.8736,186.7038 c 23.3831,0 42.455,17.8471 42.455,39.7296 0,21.881 -19.0719,39.7281 -42.455,39.7281 -23.3823,0 -42.4549,-17.8471 -42.4549,-39.7281 0,-21.8825 19.0726,-39.7296 42.4549,-39.7296 z m 0,7.5304 c 18.9492,0 34.4056,14.4641 34.4056,32.1992 0,17.7336 -15.4564,32.1977 -34.4056,32.1977 -18.9491,0 -34.4055,-14.4641 -34.4055,-32.1977 0,-17.7351 15.4564,-32.1992 34.4055,-32.1992 z m 35.8315,37.2748 c -4.277,-1.874 -10.6688,-2.8114 -16.8724,-2.8137 -2.7886,9.5188 -7.2728,16.057 -17.0195,17.0218 -9.7565,0.9648 -17.1612,-8.1142 -18.171,-17.4432 -5.9597,0.0472 -11.9202,1.6423 -17.8837,3.9386 l -1.1531,-2.5318 c 6.9429,-7.5189 24.4402,-10.0034 38.5065,-9.8472 12.1808,0.1357 21.8268,2.8838 31.5841,6.1891 z M 279.8953,144.3067 h 8.573 v 56.8528 c 20.1144,-19.8134 52.3654,-15.8595 52.3654,9.0851 V 266.81 h -7.7491 v -52.6939 c 0,-28.2103 -32.645,-20.8841 -44.6163,-1.4533 v 54.2623 h -8.573 z m 101.4538,46.5407 h 8.5738 v 10.3121 c 20.1144,-19.8134 53.2479,-15.8595 53.2479,9.0851 V 266.81 h -7.7484 v -52.6939 c 0,-28.2103 -33.5283,-20.8841 -45.4995,-1.4533 v 54.2623 h -8.5738 z m -24.261,-0.782 h 8.7658 v 76.1967 h -8.7658 z m 322.0042,49.6318 25.9514,18.8516 -5.3858,6.6097 -42.8444,-31.0926 h 14.7217 c 9.8831,0 19.9772,-3.9416 22.7368,-17.8722 2.7589,-13.9307 -6.6944,-22.2796 -22.2795,-22.2796 h -18.6123 v 69.7774 h -9.5706 v -75.6563 h 33.0802 c 16.3076,0 26.6731,10.9401 26.196,26.1998 -0.4412,14.0991 -11.1611,23.0958 -23.9935,25.4622 z"
       style="fill:#e30016;fill-rule:evenodd"
       id="path4" />
    <path
       d="m 716.327,156.8258 c 2.6495,0 5.2342,0.6796 7.7624,2.0424 2.5207,1.3563 4.4908,3.3059 5.8971,5.8341 1.4064,2.5337 2.1128,5.1759 2.1128,7.9182 0,2.72 -0.6925,5.3399 -2.084,7.8468 -1.3851,2.5124 -3.3273,4.4629 -5.8341,5.848 -2.5059,1.3915 -5.1259,2.0841 -7.8542,2.0841 -2.734,0 -5.3549,-0.6926 -7.8607,-2.0841 -2.5069,-1.3851 -4.4556,-3.3356 -5.8481,-5.848 -1.3924,-2.5069 -2.0924,-5.1268 -2.0924,-7.8468 0,-2.7423 0.7074,-5.3845 2.1212,-7.9182 1.4212,-2.5282 3.3922,-4.4778 5.9129,-5.8341 2.5272,-1.3628 5.111,-2.0424 7.7671,-2.0424 z m 0,2.6144 c -2.2204,0 -4.3842,0.5701 -6.4822,1.7058 -2.0998,1.1357 -3.7417,2.7636 -4.9274,4.8765 -1.1848,2.1137 -1.7772,4.3127 -1.7772,6.598 0,2.2778 0.585,4.4555 1.7485,6.5405 1.1644,2.0841 2.7923,3.712 4.8847,4.8765 2.0915,1.1644 4.2757,1.7493 6.5536,1.7493 2.2713,0 4.4555,-0.5849 6.5488,-1.7493 2.0915,-1.1645 3.7186,-2.7924 4.8765,-4.8765 1.156,-2.085 1.7345,-4.2627 1.7345,-6.5405 0,-2.2853 -0.5924,-4.4843 -1.7707,-6.598 -1.1774,-2.1129 -2.8202,-3.7408 -4.9265,-4.8765 -2.1072,-1.1357 -4.2627,-1.7058 -6.4626,-1.7058 z m -6.9327,21.8911 v -16.9655 h 5.8415 c 1.9978,0 3.4404,0.1576 4.3331,0.4718 0.9002,0.3143 1.6067,0.8557 2.1425,1.6419 0.5275,0.7787 0.7927,1.6066 0.7927,2.4846 0,1.2358 -0.4432,2.3205 -1.3359,3.2355 -0.8845,0.9206 -2.0628,1.4342 -3.5341,1.5482 0.5999,0.2512 1.0847,0.5498 1.4426,0.9002 0.686,0.6647 1.5213,1.7846 2.5124,3.3634 l 2.071,3.3199 h -3.3272 l -1.514,-2.6709 c -1.1848,-2.1054 -2.1489,-3.4274 -2.8767,-3.9549 -0.4997,-0.3857 -1.2284,-0.5795 -2.1916,-0.5711 h -1.614 v 7.1969 z m 2.7423,-9.5545 h 3.3263 c 1.5927,0 2.6783,-0.2345 3.2559,-0.7064 0.5785,-0.471 0.8724,-1.0995 0.8724,-1.8699 0,-0.5006 -0.1437,-0.9503 -0.4227,-1.3424 -0.2782,-0.4005 -0.6638,-0.6926 -1.1561,-0.8863 -0.4988,-0.1919 -1.4138,-0.292 -2.7562,-0.292 h -3.1196 z"
       style="fill:#e30016;fill-rule:evenodd"
       id="path6" />
  </g>
  <text
     x="300.30069"
     y="173.4333"
     id="text11"><tspan
       font-family="Arial"
       font-size="21px"
       fill="#1b1918"
       id="tspan9">SINCE 1965</tspan></text>
</svg>
