<?xml version="1.0" encoding="UTF-8"?>
<!DOCTYPE svg PUBLIC "-//W3C//DTD SVG 1.1//EN" "http://www.w3.org/Graphics/SVG/1.1/DTD/svg11.dtd">
<!-- Creator: CorelDRAW -->
<svg xmlns="http://www.w3.org/2000/svg" xml:space="preserve" width="76px" height="81px" style="shape-rendering:geometricPrecision; text-rendering:geometricPrecision; image-rendering:optimizeQuality; fill-rule:evenodd; clip-rule:evenodd"
viewBox="0 0 76 80.7055"
 xmlns:xlink="http://www.w3.org/1999/xlink">
 <defs>
  <style type="text/css">
   <![CDATA[
    .fil1 {fill:none}
    .fil0 {fill:#0093DD}
   ]]>
  </style>
 </defs>
 <g id="Layer_x0020_1">
  <metadata id="CorelCorpID_0Corel-Layer"/>
  <g id="_84556664">
   <path id="_84557024" class="fil0" d="M23.5275 47.6502l0.0623806 0.153381c0.0459446,0.106168 0.113021,0.260501 0.205862,0.453291 0.47658,0.991363 1.58845,2.93779 3.32991,4.22037 1.74152,1.27268 4.1248,1.97467 7.38579,0.412994 4.76777,-2.29482 10.8511,-9.67502 19.2009,-27.1738l0.718487 0.578432c-8.38895,17.5544 -14.4922,25.0542 -19.4947,27.4772 -3.40631,1.65705 -6.15563,0.938565 -8.12934,-0.525952 -1.97251,-1.45995 -3.16199,-3.57708 -3.68674,-4.6616 -0.207068,-0.423845 -0.310126,-0.694563 -0.315393,-0.708524l0.722803 -0.225725z"/>
   <path id="_84556976" class="fil0" d="M22.1021 44.5512l0.0692342 0.166771c0.0502598,0.114862 0.122604,0.282521 0.223187,0.492699 0.514783,1.06904 1.71759,3.17748 3.60259,4.56413 1.88398,1.37916 4.46443,2.13826 7.99151,0.448023 5.15995,-2.48076 11.9828,-10.3813 21.0169,-29.3171l0.779916 0.628756c-9.07914,18.9938 -15.925,27.0192 -21.338,29.6412 -3.68788,1.79431 -6.65956,1.01783 -8.79662,-0.5672 -2.13458,-1.57944 -3.42148,-3.86988 -3.98906,-5.04382 -0.222298,-0.461413 -0.334114,-0.751359 -0.340587,-0.767859l0.780868 -0.245588z"/>
   <path id="_84556928" class="fil0" d="M20.6788 41.4542l0.0723437 0.179463c0.0536867,0.123873 0.132567,0.305874 0.240892,0.531282 0.554254,1.14906 1.8468,3.41964 3.87547,4.9115 2.02499,1.48317 4.80286,2.29698 8.59824,0.478801 5.55206,-2.66955 13.057,-11.1374 22.778,-31.5079l0.83703 0.6747c-9.76589,20.4351 -17.2964,29.0402 -23.1211,31.8606 -3.96831,1.92872 -7.16565,1.09417 -9.46262,-0.613526 -2.29913,-1.69862 -3.6823,-4.16199 -4.29366,-5.42286 -0.239686,-0.498347 -0.359244,-0.811646 -0.365717,-0.826813l0.841091 -0.265197z"/>
   <path id="_84556880" class="fil0" d="M19.2537 38.3577l0.0788166 0.192536c0.0568596,0.134724 0.141261,0.326626 0.256186,0.567517 0.593599,1.23016 1.9793,3.65843 4.14898,5.25526 2.16999,1.58814 5.14377,2.45994 9.20523,0.51694 5.94323,-2.85643 14.0736,-11.9269 24.4782,-33.7346l0.89573 0.718487c-10.4558,21.8779 -18.6104,31.094 -24.8449,34.1137 -4.24651,2.06687 -7.66958,1.17203 -10.1295,-0.655155 -2.46032,-1.81913 -3.94102,-4.45669 -4.59611,-5.80819 -0.257391,-0.53033 -0.385326,-0.865332 -0.39091,-0.88399l0.898268 -0.282521z"/>
   <path id="_84556832" class="fil0" d="M17.8292 35.2591l0.0819896 0.207068c0.0623806,0.141261 0.153381,0.347123 0.277254,0.605466 0.629644,1.31025 2.10634,3.89933 4.41849,5.59921 2.31557,1.69557 5.4853,2.62455 9.81285,0.551145 6.33414,-3.04491 14.9994,-12.7134 26.0905,-35.9558l0.95627 0.76659c-11.1448,23.3182 -19.8383,33.141 -26.4827,36.3601 -4.52681,2.20255 -8.17528,1.24875 -10.7977,-0.69983 -2.62106,-1.93773 -4.20051,-4.74949 -4.89691,-6.18761 -0.273827,-0.568216 -0.412042,-0.926507 -0.418515,-0.942943l0.958427 -0.303336z"/>
   <path id="_84556784" class="fil0" d="M16.4053 32.1605l0.0878278 0.217983c0.0646017,0.152112 0.162075,0.372253 0.292484,0.645192 0.672479,1.39312 2.23644,4.14123 4.69232,5.94976 2.45658,1.79616 5.82158,2.78193 10.4195,0.581542 6.72632,-3.23338 15.9272,-13.4998 27.7029,-38.1774l1.01313 0.815073c-11.8316,24.7607 -21.062,35.187 -28.1168,38.6064 -4.80629,2.33759 -8.68144,1.32637 -11.4658,-0.742665 -2.78193,-2.05913 -4.46012,-5.04261 -5.20063,-6.57293 -0.290263,-0.601087 -0.436855,-0.979306 -0.443327,-1.00006l1.0184 -0.322945z"/>
   <path id="_84556736" class="fil0" d="M71.9666 79.2229l0.298069 0c0.421624,0 0.742665,-0.0285567 0.961537,-0.084401 0.219189,-0.0568596 0.418515,-0.149066 0.59709,-0.278206 0.240892,-0.175148 0.425051,-0.397764 0.549812,-0.666006 0.124825,-0.269512 0.187269,-0.578115 0.187269,-0.927713 0,-0.342808 -0.0614922,-0.64957 -0.18289,-0.919019 -0.122667,-0.268306 -0.303336,-0.492762 -0.541182,-0.669116 -0.184096,-0.138151 -0.397446,-0.235625 -0.640813,-0.294642 -0.243113,-0.0593345 -0.575958,-0.0887797 -0.997582,-0.0887797l-1.07151 0 0 3.92788 0.840203 0zm0 -3.21473l0.466617 0c0.440281,0 0.761322,0.101852 0.9616,0.30213 0.201801,0.201801 0.302384,0.518146 0.302384,0.951003 0,0.434633 -0.100583,0.752311 -0.302384,0.952843 -0.200278,0.200278 -0.521319,0.299909 -0.9616,0.299909l-0.466617 0 0 -2.50589zm-1.66391 3.21473l0 -0.714109 -1.47296 0 0 -0.984827 1.47296 0 0 -0.712903 -1.47296 0 0 -0.808473 1.47296 0 0 -0.707572 -2.31214 0 0 3.92788 2.31214 0zm-2.86202 -3.21473l0 -0.713157 -2.76455 0 0 0.713157 0.961854 0 0 3.21473 0.84236 0 0 -3.21473 0.960331 0zm-3.32407 -0.713157l-0.840139 0 0 3.92788 0.840139 0 0 -3.92788zm-5.28071 3.92788l0.284742 -2.36926 0.00215762 -0.010915c0.0319835,-0.263864 0.0484195,-0.488384 0.0484195,-0.670322l0 -0.116131c0.0425813,0.202753 0.0767224,0.355817 0.100647,0.462302 0.024178,0.104962 0.0406775,0.169564 0.0471503,0.192853l0.818119 2.51147 0.472265 0 0.832397 -2.51147c0.0195455,-0.0571135 0.0403602,-0.141578 0.0646017,-0.253076 0.0251299,-0.111752 0.0503233,-0.244319 0.0776109,-0.398652 -0.00215762,0.0161821 -0.00310951,0.0338239 -0.00431524,0.0546385 -0.000951891,0.0208147 -0.000951891,0.051529 -0.000951891,0.0931584 0,0.0767224 0.00310951,0.159918 0.00964583,0.248697 0.00774205,0.0897316 0.0220204,0.222298 0.0440408,0.397446l0.285694 2.36926 0.797621 0 -0.601405 -3.92788 -0.866602 0 -0.769953 2.30783c-0.0152303,0.0437235 -0.0329354,0.11391 -0.0512752,0.210495 -0.0177052,0.0949987 -0.0341412,0.204593 -0.0484195,0.325039 -0.0152303,-0.119177 -0.0329354,-0.225408 -0.051529,-0.318503 -0.0183398,-0.0931584 -0.0360449,-0.163345 -0.0524809,-0.212716l-0.755738 -2.31214 -0.880499 0 -0.598295 3.92788 0.796352 0zm-1.35149 -3.92788l-0.840203 0 0 3.92788 0.840203 0 0 -3.92788zm-1.3857 3.92788l0 -0.714109 -1.34064 0 0 -3.21377 -0.840203 0 0 3.92788 2.18085 0zm-7.64844 0l0 -2.24323c0,-0.175402 -0.0043787,-0.321041 -0.0133265,-0.435903 -0.00869394,-0.115179 -0.0230358,-0.228835 -0.0425813,-0.341856 0.0658074,0.162075 0.128251,0.302384 0.187205,0.419467 0.0593345,0.117336 0.113973,0.208337 0.164296,0.272939l1.78651 2.32858 0.823703 0 0 -3.92788 -0.802888 0 0 2.19728c0,0.171975 0.00558443,0.314188 0.0142784,0.429366 0.00869394,0.113973 0.0229723,0.230104 0.0428351,0.346235 -0.064919,-0.158966 -0.12603,-0.298069 -0.186317,-0.415151 -0.060223,-0.116131 -0.115179,-0.207068 -0.165439,-0.27167l-1.73809 -2.28606 -0.873075 0 0 3.92788 0.802888 0zm-4.49426 -1.01529c-0.230992,-0.248697 -0.345854,-0.561933 -0.345854,-0.94104 0,-0.373522 0.117019,-0.686821 0.351438,-0.940786 0.234419,-0.252124 0.530013,-0.379106 0.884878,-0.379106 0.35055,0 0.64424,0.126982 0.877453,0.381264 0.234419,0.254028 0.351755,0.567264 0.351755,0.938628 0,0.37568 -0.115179,0.688979 -0.34744,0.937676 -0.232198,0.249586 -0.525634,0.37441 -0.881768,0.37441 -0.362353,0 -0.659153,-0.123555 -0.890462,-0.371047zm2.8282 -1.73498c-0.10401,-0.248697 -0.255234,-0.470044 -0.453291,-0.662833 -0.198438,-0.191584 -0.427209,-0.339381 -0.685869,-0.445866 -0.258343,-0.104962 -0.524746,-0.15776 -0.798573,-0.15776 -0.274779,0 -0.54207,0.0527982 -0.802571,0.15776 -0.260818,0.106485 -0.488701,0.254282 -0.685869,0.445866 -0.200278,0.19279 -0.352707,0.414136 -0.456717,0.661628 -0.103122,0.247428 -0.155539,0.512625 -0.155539,0.795146 0,0.315457 0.0658074,0.609147 0.198374,0.882974 0.130092,0.273573 0.319772,0.509198 0.567264,0.705161 0.190632,0.152429 0.402079,0.269449 0.632119,0.350486 0.228835,0.0810377 0.464206,0.122667 0.70294,0.122667 0.273827,0 0.539024,-0.0524809 0.794258,-0.155539 0.256439,-0.10401 0.486163,-0.253965 0.690184,-0.448975 0.197168,-0.189363 0.347123,-0.408615 0.452339,-0.65947 0.10401,-0.250538 0.156491,-0.51694 0.156491,-0.797304 0,-0.280364 -0.051529,-0.545561 -0.155539,-0.793941zm-4.7625 -1.17762l-0.840139 0 0 3.92788 0.840139 0 0 -3.92788zm-1.4062 0.713157l-0.959697 0 0 3.21473 -0.84236 0 0 -3.21473 -0.960268 0 0 -0.713157 2.76232 0 0 0.713157zm-5.60918 3.21473l0.272622 -0.834555 1.52138 0 0.319772 0.834555 0.955381 0 -1.51611 -3.92788 -0.960648 0 -1.49402 3.92788 0.901631 0zm0.509198 -1.49529l0.424099 -1.25186c0.010915,-0.0350931 0.0260818,-0.101789 0.0481657,-0.203641 0.0217031,-0.1009 0.0437235,-0.214874 0.0676477,-0.341856 0.0208147,0.132567 0.0419467,0.244319 0.0614922,0.336271 0.0198628,0.0909373 0.0350931,0.155539 0.0481022,0.19279l0.440281 1.2683 -1.08979 0zm-1.69557 -2.25287c-0.193742,-0.0930949 -0.388689,-0.161123 -0.587126,-0.207068 -0.199326,-0.0449927 -0.403919,-0.0667593 -0.617523,-0.0667593 -0.635229,0 -1.15344,0.193742 -1.55647,0.582811 -0.402079,0.387483 -0.602611,0.880499 -0.602611,1.47759 0,0.59893 0.200532,1.0929 0.601405,1.48286 0.402079,0.388689 0.915592,0.5837 1.54213,0.5837 0.215825,0 0.422893,-0.0260818 0.617904,-0.0776109 0.195899,-0.0524809 0.383422,-0.131361 0.561933,-0.236577l0.00526713 -0.861906c-0.166391,0.152112 -0.345854,0.266974 -0.540865,0.342744 -0.196216,0.0754532 -0.406394,0.113973 -0.634277,0.113973 -0.398652,0 -0.71322,-0.121715 -0.944213,-0.362671 -0.230992,-0.243113 -0.346171,-0.570627 -0.346171,-0.984509 0,-0.421942 0.123873,-0.758213 0.37257,-1.00907 0.249649,-0.249649 0.582811,-0.37568 1.00101,-0.37568 0.203705,0 0.395542,0.0362988 0.574117,0.106485 0.1794,0.0698688 0.353596,0.182827 0.523413,0.33405l0.0295086 -0.84236zm-4.08875 -0.179717l-0.840139 0 0 3.92788 0.840139 0 0 -3.92788zm-4.63641 3.92788l0 -2.24323c0,-0.175402 -0.0043787,-0.321041 -0.0130726,-0.435903 -0.00901124,-0.115179 -0.0229723,-0.228835 -0.0428351,-0.341856 0.0658074,0.162075 0.128251,0.302384 0.187205,0.419467 0.0593345,0.117336 0.113973,0.208337 0.164233,0.272939l1.78657 2.32858 0.823703 0 0 -3.92788 -0.802952 0 0 2.19728c0,0.171975 0.00558443,0.314188 0.0142784,0.429366 0.00869394,0.113973 0.0230358,0.230104 0.0428986,0.346235 -0.0646017,-0.158966 -0.126094,-0.298069 -0.186317,-0.415151 -0.060223,-0.116131 -0.114862,-0.207068 -0.165502,-0.27167l-1.73809 -2.28606 -0.871805 0 0 3.92788 0.801683 0zm-2.505 -3.92788l0 2.31214c0,0.323199 -0.0745013,0.566312 -0.220141,0.730545 -0.146845,0.163345 -0.363559,0.24654 -0.649507,0.24654 -0.284742,0 -0.498347,-0.0822434 -0.641765,-0.245271 -0.143799,-0.163345 -0.214874,-0.407346 -0.214874,-0.731814l0 -2.31214 -0.834618 0 0 2.44382c0,0.533376 0.141324,0.930823 0.421688,1.1938 0.281569,0.263864 0.708842,0.395225 1.28258,0.395225 0.565423,0 0.987936,-0.131361 1.26957,-0.395225 0.280364,-0.262976 0.420736,-0.660422 0.420736,-1.1938l0.000888432 -2.44382 -0.834555 0zm-6.96848 3.92788l0.28379 -2.36926 0.00336335 -0.010915c0.0316662,-0.263864 0.0481657,-0.488384 0.0481657,-0.670322l0 -0.116131c0.0425178,0.202753 0.076659,0.355817 0.100583,0.462302 0.0242415,0.104962 0.0406775,0.169564 0.0472138,0.192853l0.818119 2.51147 0.472201 0 0.83246 -2.51147c0.0195455,-0.0571135 0.0403602,-0.141578 0.0645382,-0.253076 0.0242415,-0.111752 0.0503233,-0.244319 0.0767224,-0.398652 -0.00126919,0.0161821 -0.00222108,0.0338239 -0.0043787,0.0546385 0,0.0208147 -0.00120573,0.051529 -0.00120573,0.0931584 0,0.0767224 0.00431524,0.159918 0.0111689,0.248697 0.00742475,0.0897316 0.0217031,0.222298 0.0425178,0.397446l0.2869 2.36926 0.797621 0 -0.601405 -3.92788 -0.866538 0 -0.770016 2.30783c-0.016436,0.0437235 -0.0326181,0.11391 -0.0512117,0.210495 -0.0177052,0.0949987 -0.0329354,0.204593 -0.0472138,0.325039 -0.016436,-0.119177 -0.0338239,-0.225408 -0.0524809,-0.318503 -0.0185936,-0.0931584 -0.0362988,-0.163345 -0.0527982,-0.212716l-0.756626 -2.31214 -0.879611 0 -0.597978 3.92788 0.796098 0zm-4.87958 0l0.28379 -2.36926 0.00215762 -0.010915c0.0329354,-0.263864 0.0481657,-0.488384 0.0481657,-0.670322l0 -0.116131c0.0437235,0.202753 0.0776109,0.355817 0.1009,0.462302 0.0238607,0.104962 0.0403602,0.169564 0.046833,0.192853l0.818182 2.51147 0.473153 0 0.831445 -2.51147c0.0199263,-0.0571135 0.0416294,-0.141578 0.0658709,-0.253076 0.0238607,-0.111752 0.0490541,-0.244319 0.076659,-0.398652 -0.00215762,0.0161821 -0.00342681,0.0338239 -0.00431524,0.0546385 0,0.0208147 -0.00126919,0.051529 -0.00126919,0.0931584 0,0.0767224 0.00342681,0.159918 0.0108516,0.248697 0.00653632,0.0897316 0.0208147,0.222298 0.0428351,0.397446l0.2869 2.36926 0.796416 0 -0.600199 -3.92788 -0.86749 0 -0.769953 2.30783c-0.0155476,0.0437235 -0.0329354,0.11391 -0.0506406,0.210495 -0.0173879,0.0949987 -0.0338239,0.204593 -0.0481022,0.325039 -0.0164994,-0.119177 -0.0338873,-0.225408 -0.0524809,-0.318503 -0.0186571,-0.0931584 -0.0362988,-0.163345 -0.051529,-0.212716l-0.756944 -2.31214 -0.880563 0 -0.597978 3.92788 0.797304 0zm-4.14898 -1.01529c-0.230104,-0.248697 -0.344965,-0.561933 -0.344965,-0.94104 0,-0.373522 0.115813,-0.686821 0.350232,-0.940786 0.234419,-0.252124 0.53033,-0.379106 0.886147,-0.379106 0.350486,0 0.642971,0.126982 0.87739,0.381264 0.233467,0.254028 0.35055,0.567264 0.35055,0.938628 0,0.37568 -0.114862,0.688979 -0.347123,0.937676 -0.23131,0.249586 -0.524746,0.37441 -0.880817,0.37441 -0.363622,0 -0.660422,-0.123555 -0.891414,-0.371047zm2.82788 -1.73498c-0.10401,-0.248697 -0.253965,-0.470044 -0.453291,-0.662833 -0.198438,-0.191584 -0.427272,-0.339381 -0.684664,-0.445866 -0.259549,-0.104962 -0.524682,-0.15776 -0.79851,-0.15776 -0.276048,0 -0.543086,0.0527982 -0.80384,0.15776 -0.260818,0.106485 -0.488384,0.254282 -0.685552,0.445866 -0.200595,0.19279 -0.351819,0.414136 -0.455829,0.661628 -0.10401,0.247428 -0.155539,0.512625 -0.155539,0.795146 0,0.315457 0.0658074,0.609147 0.197168,0.882974 0.131298,0.273573 0.319772,0.509198 0.567264,0.705161 0.190632,0.152429 0.402079,0.269449 0.632119,0.350486 0.230104,0.0810377 0.464523,0.122667 0.704209,0.122667 0.273827,0 0.538072,-0.0524809 0.794194,-0.155539 0.255234,-0.10401 0.485274,-0.253965 0.688979,-0.448975 0.197168,-0.189363 0.347123,-0.408615 0.452339,-0.65947 0.105279,-0.250538 0.156491,-0.51694 0.156491,-0.797304 0,-0.280364 -0.0512117,-0.545561 -0.155539,-0.793941zm-4.61661 -0.997899c-0.193995,-0.0930949 -0.388689,-0.161123 -0.588332,-0.207068 -0.19812,-0.0449927 -0.403919,-0.0667593 -0.616635,-0.0667593 -0.635229,0 -1.15439,0.193742 -1.55647,0.582811 -0.402967,0.387483 -0.603245,0.880499 -0.603245,1.47759 0,0.59893 0.200278,1.0929 0.602357,1.48286 0.40081,0.388689 0.915592,0.5837 1.54092,0.5837 0.217031,0 0.422893,-0.0260818 0.61911,-0.0776109 0.195899,-0.0524809 0.383104,-0.131361 0.561679,-0.236577l0.00558443 -0.861906c-0.166454,0.152112 -0.347123,0.266974 -0.542134,0.342744 -0.195011,0.0754532 -0.406394,0.113973 -0.633071,0.113973 -0.398652,0 -0.713157,-0.121715 -0.944213,-0.362671 -0.23131,-0.243113 -0.346171,-0.570627 -0.346171,-0.984509 0,-0.421942 0.123873,-0.758213 0.372253,-1.00907 0.248697,-0.249649 0.582811,-0.37568 1.00133,-0.37568 0.203705,0 0.395289,0.0362988 0.5738,0.106485 0.178511,0.0698688 0.353913,0.182827 0.523794,0.33405l0.0294452 -0.84236z"/>
   <path id="_84556688" class="fil0" d="M66.5472 71.7996l0.955318 0c1.35251,0 2.38017,-0.0884624 3.08222,-0.270401 0.701988,-0.17978 1.33937,-0.477532 1.91349,-0.888305 0.772174,-0.564154 1.36019,-1.27611 1.76138,-2.13706 0.40081,-0.863111 0.602293,-1.85327 0.602293,-2.97161 0,-1.1007 -0.196216,-2.0809 -0.59049,-2.94306 -0.392179,-0.865332 -0.968137,-1.57824 -1.73066,-2.14575 -0.590236,-0.441233 -1.27484,-0.757896 -2.05475,-0.94637 -0.779662,-0.188157 -1.8468,-0.283473 -3.19924,-0.283473l-3.4296 0 0 12.586 2.69004 0zm0 -10.2981l1.49618 0c1.40994,0 2.43729,0.32193 3.08248,0.966233 0.644874,0.645128 0.967185,1.66137 0.967185,3.04796 0,1.39224 -0.32231,2.41 -0.967185,3.05056 -0.645192,0.64424 -1.67254,0.964012 -3.08248,0.964012l-1.49618 0 0 -8.02876zm-18.6641 10.2981l0.954112 0c1.35276,0 2.3789,-0.0884624 3.08095,-0.270401 0.702305,-0.17978 1.34191,-0.477532 1.91349,-0.888305 0.775601,-0.564154 1.36146,-1.27611 1.76259,-2.13706 0.401825,-0.863111 0.602357,-1.85327 0.602357,-2.97161 0,-1.1007 -0.196216,-2.0809 -0.588078,-2.94306 -0.394273,-0.865332 -0.971754,-1.57824 -1.73403,-2.14575 -0.589284,-0.441233 -1.27484,-0.757896 -2.05386,-0.94637 -0.779599,-0.188157 -1.84641,-0.283473 -3.19918,-0.283473l-3.4296 0 0 12.586 2.69125 0zm0 -10.2981l1.49529 0c1.41051,0 2.43697,0.32193 3.08311,0.966233 0.645192,0.645128 0.966233,1.66137 0.966233,3.04796 0,1.39224 -0.321993,2.41 -0.966233,3.05056 -0.646144,0.64424 -1.6726,0.964012 -3.08311,0.964012l-1.49529 0 0 -8.02876zm-14.8054 10.2981l0 -7.18735c0,-0.560727 -0.0130092,-1.02741 -0.0425178,-1.3975 -0.0285567,-0.369143 -0.0745648,-0.733971 -0.138151,-1.09664 0.212335,0.522588 0.41293,0.9715 0.602293,1.34629 0.189744,0.37568 0.362671,0.666006 0.524746,0.873075l5.72531 7.46213 2.63972 0 0 -12.586 -2.5708 0 0 7.0405c0,0.549876 0.0130726,1.01002 0.0428351,1.37701 0.0295086,0.365717 0.0745013,0.735812 0.137897,1.10845 -0.207132,-0.510467 -0.406457,-0.951955 -0.596772,-1.32859 -0.194059,-0.375997 -0.369143,-0.666006 -0.529061,-0.873075l-5.57193 -7.32429 -2.79437 0 0 12.586 2.5708 0zm-13.7299 0l0.877453 -2.67354 4.87521 0 1.02208 2.67354 3.06141 0 -4.85788 -12.586 -3.07873 0 -4.7889 12.586 2.88937 0zm1.63224 -4.78858l1.36019 -4.01419c0.0341412,-0.108706 0.0866221,-0.32542 0.154651,-0.648619 0.0689169,-0.324151 0.139991,-0.689931 0.215762,-1.09632 0.0677112,0.422893 0.133519,0.780868 0.197168,1.07335 0.0623806,0.292484 0.113973,0.498283 0.155539,0.619998l1.40835 4.06578 -3.49166 0zm-17.1505 4.78858l0 -6.58499 4.23008 6.58499 3.24208 0 -4.66941 -6.85203 4.50638 -5.734 -3.11414 0 -4.19498 5.69986 0 -5.69986 -2.69125 0 0 12.586 2.69125 0z"/>
  </g>
  <rect class="fil1" x="2.53974e-005" y="-1.89896e-005" width="75.9999" height="80.7056"/>
 </g>
</svg>
