<?xml version="1.0" encoding="utf-8"?>
<!-- Generator: Adobe Illustrator 16.0.0, SVG Export Plug-In . SVG Version: 6.00 Build 0)  -->
<!DOCTYPE svg PUBLIC "-//W3C//DTD SVG 1.1//EN" "http://www.w3.org/Graphics/SVG/1.1/DTD/svg11.dtd">
<svg version="1.1" id="Layer_1" xmlns="http://www.w3.org/2000/svg" xmlns:xlink="http://www.w3.org/1999/xlink" x="0px" y="0px"
	 width="968.089px" height="785.936px" viewBox="0 0 968.089 785.936" enable-background="new 0 0 968.089 785.936"
	 xml:space="preserve">
<g>
	<path fill="#0C3544" d="M238.178,370.36c2.133-11.115,3.601-21.638,6.252-31.854c3.346-12.891,6.73-25.909,11.754-38.196
		c9.321-22.796,26.496-37.119,51.017-41.387c9.242-1.608,15.98-6.459,21.97-12.917c4.038-4.353,7.753-9.014,11.468-13.653
		c6.391-7.981,13.251-15.402,23.902-20.316c-2.764-0.954-4.399-1.552-6.055-2.085c-20.892-6.72-32.68-21.423-36.318-42.608
		c-5.521-32.153,15.11-62.611,54.549-63.525c17.524-0.406,34.053,3.77,50.203,10.017c10.941,4.232,21.95,4.645,32.921,0.331
		c15.873-6.24,25.781-23.357,22.149-37.989c-3.068-12.363-12.05-18.68-23.467-21.821c-9.443-2.599-19.183-3.332-29.854-1.221
		c2.265,3.18,4.271,5.995,6.247,8.769c-20.876,3.029-45.408-20.131-40.638-47.789c12.321,11.858,28.304,10.915,43.267,13.488
		c3.118,0.537,6.301,1.1,9.231,2.23c3.871,1.493,4.499,3.643,2.019,6.882c-1.762,2.301-4.192,4.09-7.536,7.253
		c6.967,0,12.552-0.638,17.946,0.109c25.274,3.497,45.471,31.04,40.863,55.797c-2.524,13.56-11.161,22.547-23.387,28.323
		c-15.432,7.29-31.959,8.916-48.547,7.551c-16.87-1.388-33.648-4.172-50.362-6.965c-4.887-0.816-9.097-0.724-13.515,1.317
		c-18.691,8.635-22.581,31.06-7.708,45.31c8.89,8.517,20.1,11.673,31.93,12.608c26.608,2.103,51.955-3.945,76.459-13.487
		c23.179-9.026,46.493-17.292,71.179-21.147c4.926-0.77,9.776-2.019,16.03-3.335c-5.917,10.652-4.299,20.28-2.246,29.782
		c4.367,20.213,14.577,37.271,29.555,51.723c-0.882-1.772-1.804-3.526-2.639-5.32c-5.63-12.094-11.329-24.157-16.8-36.323
		c-1.378-3.064-2.37-6.403-2.919-9.719c-1.826-11.015-0.967-21.271,9.471-28.231c5.743-3.83,3.942-9.688,4.293-15.387
		c-1.446-0.439-2.793-0.854-4.144-1.257c-5.438-1.625-10.029-3.738-11.798-10.166c-1.146-4.164-4.02-7.91-6.396-11.667
		c-6.61-10.451-6.613-20.866,0.349-30.996c3.473-5.054,7.421-9.838,11.576-14.357c11.315-12.31,22.599-24.606,29.714-40.299
		c0.999,1.344,1.73,2.328,2.536,3.411c0.333-0.382,0.764-0.645,0.77-0.916c0.156-7.931,4.889-12.748,11.104-16.681
		c4.986-3.156,10.638-5.7,12.473-13.649c1.91,3.419,3.165,5.666,4.622,8.273c9.338-1.565,19.052-3.192,29.126-4.88
		c0,1.97,0,3.55,0,5.514c5.732,0.298,11.193,0.581,16.653,0.865c0.185,0.3,0.369,0.6,0.554,0.899
		c-2.839,1.828-5.679,3.656-9.744,6.271c20.853,3.179,39.275,8.993,54.169,23.189c-5.295-0.667-10.591-1.333-15.886-2
		c21.791,12.096,41.369,26.127,51.325,51.965c-4.615-2.013-8.108-3.537-11.601-5.061c9.928,14.349,18.897,29.014,20.56,47.96
		c-3.732-3.207-6.709-5.764-9.686-8.322c5.732,26.531,5.278,51.983-7.121,77.096c-1.298-6.644-2.458-12.58-3.66-18.733
		c-4.777,8.781-8.849,17.119-13.713,24.966c-4.891,7.89-10.571,15.29-16.75,24.108c-2.389-12.839-4.503-24.202-6.778-36.429
		c-8.57,29.194-16.882,57.508-25.194,85.822c0.361,0.138,0.723,0.275,1.083,0.413c4.868-11.647,9.735-23.294,14.603-34.942
		c0.369-0.102,0.737-0.203,1.105-0.305c1.578,7.633,3.612,15.206,4.638,22.912c2.142,16.083,6.16,31.569,12.625,46.463
		c6.907,15.915,18.003,26.381,35.719,29.083c14.091,2.15,24.276,9.707,29.532,23.178c1.366,3.5,3.368,4.541,7.111,4.701
		c37.531,1.605,75.052,3.455,112.576,5.237c0.986,0.047,1.972,0.105,2.939,0.825c-274.623,0-549.245,0-823.867,0
		c-0.005-0.204-0.01-0.408-0.015-0.612C127.173,375.768,182.377,373.078,238.178,370.36z M579.125,158.823
		c-0.369,3.488-0.738,6.976-1.148,10.851c-6.116-0.28-13.148,1.4-15.728-8.244c-3.244,10.624,2.7,17.333,12.955,16.612
		c4.113-0.289,8.475-1.275,12.125-3.124c12.023-6.088,19.199-16.851,25.521-28.217c1.579-2.839,2.664-5.954,3.977-8.942
		c-0.227-0.078-0.453-0.157-0.679-0.235c-7.18,7.612-14.36,15.225-21.541,22.837c2.614-5.018,5.229-10.036,7.32-14.051
		c-1.967-2.024-3.277-3.746-4.951-4.967c-1.157-0.844-3.118-1.768-4.205-1.343c-11.258,4.407-19.684,12.18-25.482,22.712
		c-0.591,1.074,0.354,2.994,0.587,4.522c1.615-0.514,3.573-0.621,4.774-1.629C575.031,163.608,576.992,161.113,579.125,158.823z
		 M438.227,271.75c-0.33-0.322-0.659-0.644-0.989-0.966c-3.933,4.626-7.743,9.365-11.821,13.859
		c-12.939,14.258-27.974,25.34-47.038,29.97c-15.632,3.796-31.17,2.248-46.653-1.177c-8.483-1.876-16.955-3.876-25.52-5.292
		c-7.555-1.249-14.644,0.219-18.933,7.347c-5.333,8.863-5.556,18.777-5.53,28.766c30.018-0.474,36.17,2.549,44.552,21.833
		c28.793-1.392,57.715-2.79,87.21-4.216c-8.583-15.035-16.621-29.117-24.962-43.728C412.108,309.2,428.568,293.926,438.227,271.75z
		 M622.472,285.19c-7.413,7.182-14.131,14.182-21.393,20.563c-5.4,4.745-11.571,8.604-17.282,13.007
		c-7.444,5.741-14.142,12.207-18.54,20.683c-1.001,1.928-1.718,4.002-2.924,6.858c4.122-0.419,7.037-0.86,9.966-0.99
		c13.993-0.621,23.933,3.419,27.496,13.612c1.764,5.047,4.685,6.043,9.317,6.215c17.585,0.655,35.157,1.679,52.742,2.367
		c7.099,0.278,14.218,0.046,21.34,0.046C677.975,337.173,654.007,308.729,622.472,285.19z M647.017,41.458
		c-16.944-3.018-31.794-0.555-46.578,5.741c0.26-1.295,0.433-1.878,0.481-2.471c0.06-0.717,0.015-1.442,0.015-2.879
		c-10.192,5.341-18.185,11.928-25.193,21.09c1.436,0.54,2.448,0.92,3.699,1.391c-7.258,5.107-15.41,6.985-20.458,13.19
		c0.159,0.625,0.318,1.249,0.477,1.874c7.606,1.34,15.211,2.681,23.778,4.191c-3.641,1.963-6.488,3.268-9.091,4.952
		c-5.457,3.529-10.985,7.491-9.889,14.971c1.079,7.358,7.296,10.114,13.544,11.855c8.76,2.441,17.674,4.337,26.539,6.392
		c0.933,0.216,1.982-0.069,3.937-0.173c-4.835-6.573-11.386-9.538-17.109-14.059c7.802,1.224,15.604,2.448,23.407,3.672
		c0.179-0.495,0.358-0.99,0.538-1.484c-5.264-3.426-10.528-6.852-14.642-9.529c8.374,1.558,17.854,3.781,27.462,4.939
		c5.95,0.717,9.47-2.513,9.954-8.306c0.934-11.167-2.532-21.562-6.323-33.521c-4.215,7.949-9.923,8.49-16.441,7.037
		c-6.156-1.372-12.129-0.592-17.818,2.827c0.568-2.635,1.047-4.85,1.631-7.56c19.339-3.474,39.486-6.25,58.796-12.652
		c0.064-0.637,0.128-1.273,0.192-1.91c-6.603-1.762-13.205-3.524-20.387-5.441C640.38,44.354,642.989,43.216,647.017,41.458z
		 M551.35,260.033c-0.367-0.291-0.734-0.583-1.101-0.873c-1.673,1.221-3.488,2.291-4.991,3.695
		c-2.941,2.747-5.928,5.496-8.496,8.578c-3.8,4.562-7.183,9.468-10.865,14.131c-7.406,9.378-13.839,11.784-25.091,7.723
		c-7.919-2.858-15.283-7.253-22.891-10.972c-1.544-0.755-3.067-1.551-4.601-2.329c1.109,2.517,2.846,4.062,4.549,5.643
		c3.73,3.461,7.709,6.703,11.091,10.479c3.563,3.979,3.543,7.394,0.167,11.427c-5.012,5.986-11.541,9.959-19.006,13.806
		c1.68-4.076,3.009-7.301,4.457-10.812c-6.426,3.512-12.035,7.388-18.225,9.735c-6.377,2.417-13.319,3.344-20.977,5.15
		c2.298,5.572,4.121,11.23,6.89,16.379c3.219,5.987,8.778,8.354,15.59,7.533c2.95-0.355,5.896-0.756,8.853-1.041
		c6.263-0.604,11.202,1.472,14.532,7.059c0.802,1.344,2.127,3.225,3.348,3.333c8.556,0.764,17.147,1.127,25.747,1.62
		C515.564,322.659,527.113,288.751,551.35,260.033z M609.857,160.648c-3.663,9.652-9.65,16.905-19.221,21.044
		c-9.763,4.223-19.265,2.67-29.415-1.999c1.587,9.841,4.463,17.578,12.667,22.951c0.657-1.922,1.13-3.306,1.761-5.151
		c6.014,6.901,12.054,12.608,19.01,15.587c2.885-8.182,5.477-15.917,8.355-23.543c1.49-3.948,3.723-7.616,5.203-11.566
		C610.283,172.461,611.246,166.731,609.857,160.648z M557.165,112.141c4.446-1.48,4.603-5.395,5.457-9.11
		c1.896-8.247-3.481-14.35-5.567-21.695C549.962,89.15,550.119,101.149,557.165,112.141z M586.594,133.571
		c1.635-5.315,2.967-9.649,4.777-15.534c-3.613,1.269-7.481,1.437-8.463,3.206C580.446,125.683,583.466,129.477,586.594,133.571z
		 M563.595,117.32c-2.303,0.613-4.786,0.565-5.753,1.752c-0.788,0.966-0.299,3.757,0.58,5.125c1.606,2.499,3.92,4.543,5.938,6.776
		c0.338-0.227,0.676-0.453,1.013-0.68C564.845,126.442,564.317,122.591,563.595,117.32z"/>
	<g>
		<path fill="#930F22" d="M805.52,484.67c0-11.886,0.018-23.772-0.006-35.658c-0.019-8.861,2.474-16.637,9.094-22.926
			c5.842-5.55,11.394-11.405,17.15-17.047c5.565-5.455,12.311-8.12,20.109-8.119c20.17,0.002,40.34,0.017,60.51-0.008
			c7.813-0.01,14.582,2.702,20.176,8.029c6.147,5.854,12.045,11.97,18.055,17.969c6.289,6.28,8.253,14.228,8.298,22.701
			c0.125,23.559,0.083,47.12,0.023,70.68c-0.025,9.786-3.374,18.182-10.659,24.975c-4.811,4.485-9.359,9.252-13.993,13.925
			c-6.636,6.69-14.66,9.739-24.065,9.687c-18.684-0.103-37.368-0.115-56.051,0.005c-9.67,0.062-17.792-3.142-24.487-10.169
			c-4.538-4.763-9.145-9.479-13.973-13.943c-7.183-6.641-10.264-14.816-10.199-24.443C805.581,508.442,805.52,496.556,805.52,484.67
			z M857.681,484.393c0,6.146,0.526,12.348-0.107,18.428c-1.394,13.375,10.169,23.665,20.937,24.15
			c15.809,0.712,26.754-5.014,27.573-20.15c0.742-13.714,0.591-27.482,0.631-41.227c0.033-11.396-5.442-18.445-16.326-22.229
			c-17.078-5.939-35.929,8.102-32.852,24.525C858.534,473.213,857.693,478.882,857.681,484.393z"/>
		<path fill="#930F22" d="M471.929,524.145c-2.98,14.341-5.661,27.798-8.724,41.167c-0.329,1.434-2.809,2.479-4.438,3.46
			c-0.625,0.377-1.662,0.075-2.512,0.075c-39.075,0-78.15,0.005-117.225-0.016c-1.657-0.001-3.313-0.236-5.842-0.429
			c0.43-2.359,0.845-4.303,1.13-6.266c1.064-7.32,2.919-14.639,2.981-21.971c0.31-36.301,0.329-72.607-0.005-108.908
			c-0.074-7.966-1.989-15.917-3.094-23.869c-0.254-1.831-0.665-3.641-1.146-6.227c2.661-0.162,4.695-0.395,6.728-0.393
			c37.587,0.033,75.174,0.087,112.762,0.158c6.203,0.012,6.146,0.067,7.111,6.199c1.976,12.557,4.021,25.104,6.167,38.461
			c-2.087-0.407-3.798-0.872-5.54-1.059c-10.728-1.158-21.44-2.74-32.201-3.234c-11.01-0.505-22.071,0.236-33.106,0.102
			c-4.125-0.05-5.82,1.246-5.604,5.45c0.24,4.658,0.181,9.343,0.017,14.008c-0.127,3.602,1.49,5.018,4.938,4.887
			c17.766-0.675,35.677,2.061,53.295-2.257c0.773-0.189,1.652,0.055,3.189,0.134c0.272,1.805,0.76,3.578,0.772,5.354
			c0.074,10.402,0.08,20.805,0.022,31.208c-0.034,6.116-0.262,5.735-6.108,5.416c-14.809-0.809-29.644-1.331-44.474-1.494
			c-12.406-0.137-11.68-2.828-11.576,11.239c0.106,14.436-2.161,12.753,12.846,12.83c12.739,0.065,25.494,0.407,38.211-0.122
			c8.624-0.359,17.193-2.01,25.786-3.093C467.748,524.772,469.199,524.54,471.929,524.145z"/>
		<path fill="#930F22" d="M491.448,401.196c2.212-0.11,3.875-0.263,5.539-0.266c37.369-0.069,74.738-0.131,112.107-0.171
			c8.628-0.009,8.76,0.227,10.032,8.611c1.399,9.22,3.015,18.407,4.441,27.624c0.408,2.64,0.488,5.331,0.788,8.804
			c-23.729-7.496-47.21-3.276-70.417-4.391c-3.731-0.179-5.568,1.146-5.458,5.057c0.131,4.666,0.136,9.342-0.005,14.008
			c-0.112,3.752,1.374,5.431,5.244,5.295c17.979-0.631,36.094,1.895,53.922-2.339c0.384-0.091,0.832,0.094,1.25,0.153
			c2.102,4.906,2.219,36.827-0.039,42.865c-17.644-4.43-35.708-2.013-53.67-2.431c-6.318-0.147-6.575,0.115-6.667,6.211
			c-0.067,4.457,0.045,8.916-0.014,13.372c-0.043,3.187,1.379,4.689,4.605,4.577c24.105-0.833,48.423,2.774,72.275-3.495
			c1.34-0.352,2.854-0.046,4.772-0.046c0,1.756,0.244,3.218-0.039,4.57c-2.385,11.41-4.96,22.781-7.265,34.207
			c-0.742,3.677-2.249,5.501-6.301,5.491c-40.555-0.101-81.11-0.066-121.666-0.091c-0.817,0-1.634-0.256-2.68-0.43
			c1.215-6.551,2.588-12.883,3.505-19.281c0.629-4.39,0.855-8.87,0.865-13.311c0.069-31.612-0.06-63.225,0.083-94.837
			C496.718,427.554,496.068,414.297,491.448,401.196z"/>
		<path fill="#930F22" d="M9.756,523.024c27.055,8.025,53.919,4.467,80.542,5.125c3.735,0.092,6.697-1.296,7.545-5.359
			c0.922-4.42-1.647-6.873-5.282-8.257c-11.091-4.221-22.255-8.25-33.381-12.381c-6.16-2.287-12.181-5.034-18.471-6.867
			c-20.01-5.831-28.046-20.096-29.627-39.761c-2.073-25.778,14.034-42.619,32.673-51.978c3.627-1.821,8.172-2.469,12.307-2.516
			c24.416-0.28,48.837-0.241,73.255-0.266c7.687-0.008,8.063,0.496,9.148,8.073c1.384,9.654,2.982,19.277,4.439,28.921
			c0.37,2.448,0.556,4.923,0.914,8.187c-6.098-1.171-11.401-2.768-16.783-3.106c-12.471-0.783-24.979-1.024-37.476-1.347
			c-5.302-0.137-10.623-0.1-15.919,0.172c-4.787,0.246-7.814,2.8-8.273,6.465c-0.586,4.671,2.652,6.276,6.199,7.561
			c17.339,6.278,34.691,12.521,52.022,18.819c3.182,1.156,6.367,2.352,9.418,3.808c11.402,5.439,17.347,14.72,17.994,27.16
			c0.429,8.255,0.222,16.552,0.05,24.826c-0.128,6.187-2.492,11.653-6.967,15.924c-5.829,5.563-11.751,11.054-17.94,16.209
			c-5.585,4.652-12.404,6.381-19.592,6.394c-26.968,0.047-53.937-0.039-80.905,0.08c-4.208,0.019-6.959-1.143-7.828-5.541
			C15.239,550.295,12.601,537.235,9.756,523.024z"/>
		<path fill="#930F22" d="M650.86,401.264c42.038,0,83.37,0,125.741,0c2.301,15.188,4.627,30.542,7.125,47.029
			c-25.453-7.544-50.429-3.274-76.234-4.489c0,8.908-0.184,16.909,0.213,24.881c0.055,1.103,3.018,3.006,4.572,2.945
			c17.329-0.678,34.798,2.331,52.004-1.835c1.337-0.324,2.821-0.043,4.547-0.043c0,15.067,0,29.576,0,44.827
			c-4.68-0.645-8.81-1.63-12.957-1.709c-14.631-0.282-29.268-0.208-43.9-0.377c-3.272-0.038-4.694,1.373-4.633,4.532
			c0.299,15.428-1.657,30.995,3.243,46.128c1.608,4.969,0.916,5.782-4.097,5.8c-16.781,0.058-33.562,0.048-50.343,0.006
			c-5.054-0.013-5.177-0.683-4.34-5.61c1.379-8.118,3.081-16.318,3.156-24.498c0.336-36.739,0.29-73.484,0.017-110.223
			c-0.049-6.702-1.77-13.394-2.767-20.083C651.874,406.315,651.39,404.106,650.86,401.264z"/>
		<path fill="#930F22" d="M313.699,449.069c-14.112-6.416-28.065-4.793-41.776-5.295c-5.206-0.19-6.355,0.956-6.366,6.326
			c-0.059,31.832-0.149,63.665,0.133,95.495c0.046,5.192,1.901,10.366,2.905,15.552c0.431,2.22,0.825,4.447,1.341,7.242
			c-20.5,0-40.29,0-60.554,0c0.19-1.628,0.312-2.799,0.467-3.966c1.312-9.83,3.575-19.642,3.765-29.493
			c0.524-27.15,0.184-54.317,0.18-81.477c-0.001-9.651-0.042-9.549-9.509-9.528c-12.903,0.029-25.858-0.637-38.922,5.052
			c2.255-14.896,4.327-28.892,6.522-42.868c0.524-3.332,2.566-5.266,6.152-5.179c1.061,0.026,2.122-0.008,3.184-0.009
			c38.846-0.056,77.69-0.12,116.536-0.162c8.754-0.01,9.088,0.49,10.241,9.081C309.686,422.427,311.637,434.979,313.699,449.069z"/>
	</g>
	<path fill="#0C3544" d="M584.134,629.341c0.659-4.182,1.256-9.006,2.224-13.756c0.657-3.224,2.649-4.827,6.313-4.949
		c7.778-0.257,15.538-1.063,23.31-1.582c0.804-0.054,1.633,0.445,2.456,0.464c4.982,0.113,9.967,0.256,14.949,0.206
		c7.824-0.077,15.784-1.262,23.429-0.173c6.81,0.97,13.272,1.735,19.959-0.057c1.298-0.347,2.831,0.047,4.231,0.262
		c1.24,0.19,2.461,0.924,3.666,0.87c9.496-0.416,18.984-0.999,28.479-1.445c2.089-0.098,4.192,0.178,6.29,0.224
		c6.242,0.137,12.485,0.261,18.729,0.358c1.618,0.025,3.251-0.215,4.853-0.067c2.287,0.211,4.567,1.055,6.82,0.953
		c8.859-0.401,17.703-1.118,26.56-1.592c1.86-0.099,3.745,0.455,5.624,0.499c6.048,0.14,12.098,0.186,18.147,0.261
		c1.814,0.022,3.638-0.079,5.441,0.067c1.239,0.1,2.467,0.824,3.675,0.766c9.493-0.454,18.978-1.097,28.472-1.518
		c2.269-0.101,4.57,0.374,6.846,0.667c1.872,0.241,3.724,0.834,5.593,0.875c8.729,0.192,17.417-0.689,26.204-0.184
		c8.149,0.469,16.399-1.082,24.619-1.436c3.528-0.152,7.198,0.052,10.59,0.924c1.654,0.426,3.54,2.529,4.086,4.261
		c3.336,10.586,3.263,21.306,0.047,31.922c-1.039,3.432-3.315,4.316-7.281,4.231c-13.271-0.287-26.56,0.303-39.843,0.509
		c-1.419,0.022-2.842-0.391-4.264-0.395c-4.811-0.017-9.62,0.067-14.431,0.096c-1.624,0.01-3.248-0.054-4.871-0.037
		c-5.005,0.051-10.009,0.123-15.014,0.2c-0.2,0.003-0.398,0.212-0.595,0.209c-9.119-0.168-18.238-0.401-27.358-0.505
		c-4.808-0.055-9.618,0.132-14.428,0.174c-1.625,0.014-3.251-0.135-4.876-0.118c-5.01,0.051-10.02,0.144-15.029,0.234
		c-0.2,0.004-0.399,0.21-0.596,0.205c-9.329-0.233-18.657-0.565-27.987-0.686c-4.599-0.06-9.201,0.283-13.803,0.416
		c-1.422,0.041-2.847-0.02-4.27-0.01c-5.209,0.034-10.418,0.113-15.627,0.098c-1.628-0.005-3.256-0.38-4.884-0.375
		c-5.874,0.015-11.747,0.127-17.621,0.184c-1.62,0.016-3.242-0.059-4.863-0.042c-5.007,0.052-10.014,0.14-15.021,0.189
		c-1.419,0.014-2.839-0.102-4.258-0.088c-5.211,0.05-10.423,0.207-15.634,0.181c-9.123-0.047-18.244-0.249-27.367-0.287
		c-5.003-0.021-10.109-0.437-14.989,0.389c-8.16,1.381-13.573-1.541-15.205-9.542C584.874,637.681,584.675,633.855,584.134,629.341z
		 M808.919,626.292c3.308-4.099,6.617-8.198,9.925-12.296c-7.863,2.539-11.902,8.657-15.663,15.037
		c0.384,0.406,0.768,0.812,1.151,1.219c1.606-1.4,3.212-2.799,4.817-4.198c-0.187,1.195-0.373,2.39-0.683,4.368
		c3.203-0.436,7.112,0.209,8.643-1.403c4.168-4.388,7.332-9.731,10.893-14.695c-0.34-0.456-0.68-0.911-1.02-1.367
		c-3.021,1.578-6.313,2.798-8.996,4.824C814.699,620.265,811.919,623.424,808.919,626.292z M853.49,623.81
		c2.683-3.225,5.365-6.45,8.048-9.675c-8.379,2.038-11.633,8.846-15.891,14.711c0.483,0.477,0.968,0.954,1.452,1.432
		c2.208-2.236,4.417-4.471,6.625-6.707c-0.871,1.985-1.742,3.97-3.267,7.443c4.248-1.033,8.112-0.814,9.856-2.63
		c4.021-4.187,7.013-9.363,10.422-14.137c-3.024-0.107-5.835,0.518-8.064,2.01C859.394,618.45,856.53,621.262,853.49,623.81z
		 M727.342,626.335c3.178-4.091,6.356-8.182,9.714-12.504c-6.419,1.509-13.468,9.286-15.005,16.924
		c2.203-1.857,3.861-3.256,5.52-4.654c-0.238,1.187-0.476,2.373-0.875,4.361c3.302-0.47,7.199,0.15,8.748-1.471
		c4.185-4.38,7.371-9.713,10.954-14.669c-0.329-0.445-0.659-0.891-0.988-1.336c-2.869,1.416-6.043,2.435-8.532,4.346
		C733.429,619.981,730.496,623.302,727.342,626.335z M891.754,625.114c4.453-4.742,8.906-9.484,13.022-13.866
		c-6.07-0.7-18.782,11.345-18.732,19.296c2.185-2.084,4.059-3.87,5.932-5.656c-0.605,1.504-1.211,3.007-1.979,4.917
		c4.609,0.303,8.76,0.575,13.153,0.864c0.456-3.712,1.088-8.729,1.666-13.752c0.064-0.557-0.184-1.149-0.52-3.031
		C899.719,617.983,895.737,621.548,891.754,625.114z M870.545,627.375c1.688,3.289,7.047,4.146,9.386,1.176
		c3.626-4.604,6.873-9.506,10.471-14.55c-6.562-1.169-9.667,4.125-14.135,6.477c1.631-2.094,3.261-4.187,4.918-6.315
		c-5.487,0.253-13.004,7.896-15.581,16.432C867.663,629.254,869.104,628.314,870.545,627.375z M687.225,623.407
		c-1.056,1.985-2.113,3.969-3.966,7.449c4.262-0.889,8.201-0.525,9.92-2.305c4.099-4.246,7.149-9.503,10.963-14.827
		c-5.379-0.408-8.555,2.543-11.99,4.865c0.781-1.502,1.562-3.004,2.561-4.926c-7.026,1.873-14.551,10.438-13.705,17.334
		C683.082,628.468,685.154,625.938,687.225,623.407z M788.926,626.775c1.184,3.805,6.788,4.995,9.368,1.728
		c3.604-4.565,6.828-9.431,10.568-14.663c-6.092-0.697-9.436,3.383-13.372,6.116c1.286-1.926,2.573-3.852,4.076-6.102
		c-6.601,1.306-13.869,9.237-15.295,17.068C786.271,629.141,787.599,627.958,788.926,626.775z M621.982,626.664
		c1.113,3.598,6.418,5.246,8.875,2.317c3.897-4.646,7.194-9.796,10.745-14.732c-0.335-0.458-0.67-0.916-1.006-1.375
		c-3.948,2.002-7.896,4.004-11.845,6.005c1.277-1.522,2.554-3.044,4.068-4.848c-6.45,0.671-14.396,9.207-15.312,16.784
		C619.357,629.1,620.669,627.882,621.982,626.664z M756.103,617.104c0.162-1.075,0.324-2.15,0.523-3.465
		c-6.669,2.01-13.199,9.265-15.148,17.555c2.844-2.977,4.751-4.972,6.657-6.967c-0.548,1.725-1.096,3.45-2.112,6.649
		c3.887-0.941,7.715-0.72,9.454-2.519c4.029-4.167,7.047-9.31,10.475-14.057c-0.194-0.406-0.387-0.811-0.581-1.216
		C762.282,614.424,759.192,615.764,756.103,617.104z M666.52,624.312c-0.632,1.72-1.264,3.439-2.356,6.415
		c3.82-0.756,7.762-0.348,9.468-2.107c4.138-4.265,7.234-9.539,10.75-14.407c-0.247-0.428-0.493-0.856-0.739-1.285
		c-3.075,1.442-6.149,2.884-9.223,4.326c0.169-1.112,0.339-2.225,0.539-3.534c-6.638,1.695-13.838,9.81-13.866,17.068
		C662.902,628.629,664.71,626.47,666.52,624.312z M641.915,626.283c3.322-4.09,6.644-8.18,9.966-12.271
		c-8.014,2.386-11.758,8.779-15.778,14.91c0.434,0.455,0.868,0.909,1.302,1.365c1.58-1.414,3.159-2.828,4.738-4.242
		c-0.163,1.207-0.325,2.414-0.552,4.099c2.978,0,5.711,0.183,8.403-0.071c1.544-0.146,3.595-0.55,4.431-1.614
		c3.583-4.556,6.799-9.401,10.266-14.306c-6.193-1.753-10.651,0.714-14.68,4.393C647.255,621.063,644.609,623.7,641.915,626.283z
		 M837.757,616.998c0.279-0.937,0.559-1.874,0.899-3.014c-6.293,0.896-13.653,8.793-15.372,17.004
		c2.993-3.011,5.226-5.259,7.459-7.507c-0.891,2.01-1.781,4.021-3.141,7.089c4.936-0.523,10.056,0.459,12.498-1.653
		c4.562-3.946,7.569-9.688,11.387-14.904C844.414,613.421,844.414,613.421,837.757,616.998z M773.728,618.552
		c0.854-1.484,1.706-2.967,2.784-4.842c-6.822,1.644-14.319,10.022-15.086,16.812c1.76-1.447,3.167-2.604,4.573-3.761
		c0.579,1.098,1.195,3.159,1.732,3.139c3.645-0.138,8.443,0.578,10.659-1.426c4.338-3.921,7.231-9.437,10.781-14.374
		C782.753,612.236,778.215,615.309,773.728,618.552z M703.356,630.144c3.407,0,6.123,0.18,8.798-0.069
		c1.537-0.143,3.58-0.533,4.411-1.588c3.594-4.561,6.825-9.408,10.265-14.26C717.365,612.878,709.236,618.226,703.356,630.144z
		 M585.868,630.633c2.969-0.84,5.239-0.777,6.103-1.849c3.765-4.67,7.121-9.67,11.071-15.172c-4.142,0-7.534-0.285-10.839,0.128
		c-1.51,0.189-3.779,1.519-4.093,2.743C587.041,620.652,586.69,625.003,585.868,630.633z M622.429,613.94
		c-8.188,0.193-16.86,7.37-19.967,17.04c3.704-1.087,7.562-1.088,9.473-3.017C615.87,623.992,618.763,618.99,622.429,613.94z
		 M910.753,641.996c2.797-7.935,2.968-15.846,0.006-23.729C908.03,626.15,908.21,634.063,910.753,641.996z M714.124,614.154
		c-5.683,0.323-13.823,8.898-14.925,15.733c0.41-0.042,1.003,0.077,1.205-0.15C705.002,624.565,709.559,619.356,714.124,614.154z"/>
	<path fill="#0C3544" d="M53.939,629.102c0.603-3.775,1.238-8.806,2.261-13.758c0.602-2.913,2.398-4.561,5.827-4.692
		c7.985-0.307,15.947-1.27,23.931-1.52c3.068-0.096,6.192,1.578,9.26,1.48c8.859-0.282,17.699-1.111,26.554-1.592
		c1.857-0.101,3.741,0.509,5.619,0.555c6.048,0.149,12.1,0.224,18.15,0.243c1.422,0.004,3.025-0.834,4.239-0.409
		c5.646,1.977,11.153,1.896,16.773-0.055c1.044-0.363,2.418,0.156,3.628,0.35c1.86,0.298,3.917,1.365,5.526,0.885
		c7.117-2.122,14.077-0.457,21.144,0.027c8.063,0.553,16.082-0.957,24.302-0.195c8.306,0.771,16.828-1.153,25.266-1.302
		c4.771-0.084,9.551,1.323,14.348,1.498c3.315,0.121,6.659-0.789,10.003-1.094c1.402-0.128,2.851,0.02,4.252,0.224
		c1.027,0.149,2.024,0.901,3.013,0.86c9.703-0.405,19.401-0.948,29.104-1.382c2.087-0.094,4.187,0.131,6.28,0.155
		c6.446,0.074,12.892,0.12,19.338,0.18c1.419,0.014,2.839,0.054,4.258,0.064c4.986,0.035,9.973,0.085,14.96,0.081
		c1.418-0.001,2.837-0.231,4.256-0.24c4.103-0.029,8.207-0.068,12.308,0.027c4.575,0.106,9.216-0.029,13.682,0.766
		c1.434,0.255,2.945,2.972,3.491,4.835c2.925,9.987,2.994,20.101,0.05,30.092c-1.541,5.227-2.792,4.969-8.417,4.887
		c-12.875-0.188-25.761,0.443-38.643,0.692c-1.618,0.031-3.242-0.345-4.861-0.334c-4.811,0.033-9.62,0.172-14.431,0.256
		c-1.423,0.025-2.847-0.002-4.271,0.01c-5.204,0.047-10.408,0.141-15.611,0.129c-1.625-0.004-3.249-0.423-4.874-0.42
		c-5.875,0.013-11.749,0.133-17.624,0.194c-1.617,0.017-3.234-0.054-4.851-0.039c-5.013,0.047-10.024,0.145-15.037,0.161
		c-1.625,0.005-3.252-0.277-4.877-0.267c-4.804,0.031-9.608,0.139-14.413,0.23c-0.2,0.004-0.398,0.207-0.596,0.205
		c-9.119-0.122-18.238-0.314-27.358-0.366c-5.01-0.029-10.021,0.218-15.031,0.254c-1.624,0.012-3.251-0.369-4.876-0.358
		c-4.806,0.032-9.611,0.167-14.417,0.275c-0.199,0.004-0.397,0.216-0.593,0.213c-9.126-0.138-18.252-0.357-27.379-0.411
		c-5.005-0.03-10.012,0.26-15.02,0.312c-1.622,0.017-3.248-0.399-4.871-0.387c-4.809,0.033-9.617,0.179-14.425,0.294
		c-0.199,0.005-0.396,0.218-0.593,0.214c-9.127-0.159-18.253-0.363-27.38-0.491c-4.605-0.065-9.374-0.762-13.783,0.173
		c-9.369,1.987-14.634-0.797-16.421-10.07C54.473,637.228,54.401,633.81,53.939,629.102z M278.633,626.292
		c3.318-4.094,6.636-8.187,9.954-12.281c-0.331-0.304-0.662-0.607-0.993-0.911c-6.755,3.561-10.989,9.495-14.679,15.943
		c0.406,0.418,0.813,0.836,1.219,1.255c1.577-1.416,3.154-2.831,4.731-4.247c-0.184,1.196-0.368,2.392-0.673,4.37
		c3.214-0.438,7.113,0.204,8.644-1.404c4.172-4.385,7.344-9.721,10.912-14.681c-0.379-0.492-0.759-0.983-1.139-1.475
		c-3.15,1.749-6.54,3.182-9.389,5.331C284.099,620.548,281.475,623.564,278.633,626.292z M197.062,626.339
		c3.186-4.092,6.371-8.183,9.557-12.274c-7.887,2.516-11.597,8.809-15.495,14.931c0.417,0.415,0.833,0.83,1.249,1.245
		c1.64-1.38,3.281-2.759,4.921-4.139c-0.22,1.19-0.44,2.38-0.804,4.348c3.229-0.458,7.127,0.163,8.677-1.458
		c4.186-4.38,7.373-9.714,10.956-14.669c-0.318-0.442-0.637-0.885-0.955-1.327c-2.709,1.296-5.735,2.183-8.054,3.981
		C203.51,619.771,200.388,623.187,197.062,626.339z M323.85,623.46c-1.031,1.984-2.063,3.969-3.869,7.446
		c4.306-0.93,8.218-0.598,9.932-2.379c4.085-4.247,7.131-9.492,10.775-14.583c-5.243,0.156-5.243,0.156-11.772,4.606
		c0.765-1.493,1.53-2.986,2.516-4.909c-7.023,1.917-14.416,10.314-14.868,16.239c0.412,0.418,0.823,0.837,1.235,1.255
		C319.815,628.577,321.833,626.018,323.85,623.46z M258.692,626.664c0.564,1.135,1.179,3.262,1.684,3.237
		c2.589-0.132,6.115,0.067,7.535-1.48c3.917-4.269,6.948-9.349,10.538-14.4c-5.821-1.122-8.978,3.15-12.938,5.503
		c1.197-1.778,2.395-3.556,3.709-5.508c-6.326,0.843-14.318,9.529-14.96,16.764C256.065,629.103,257.378,627.884,258.692,626.664z
		 M91.706,626.664c1.115,3.607,6.404,5.251,8.876,2.316c3.906-4.639,7.208-9.786,11.027-15.079
		c-6.019-0.872-9.003,3.367-12.957,5.405c1.197-1.688,2.394-3.377,3.604-5.084c-5.851,0.179-13.902,8.611-15.098,16.646
		C89.072,629.099,90.389,627.882,91.706,626.664z M156.949,623.407c-1.057,1.985-2.113,3.969-3.964,7.445
		c4.289-0.891,8.211-0.526,9.917-2.296c4.097-4.252,7.153-9.506,10.883-14.709c-5.346-0.651-8.439,2.503-11.908,4.743
		c0.839-1.49,1.678-2.98,2.704-4.802c-6.592,1.369-13.161,8.373-15.782,17.355C152.156,627.957,154.552,625.682,156.949,623.407z
		 M218.375,624.501c-0.768,1.602-1.535,3.203-2.302,4.804c0.26,0.449,0.519,0.899,0.779,1.348c2.864-0.711,6.671-0.515,8.401-2.314
		c4.022-4.184,7.044-9.331,10.47-14.088c-0.209-0.406-0.418-0.811-0.627-1.217c-3.116,1.387-6.231,2.775-9.347,4.162
		c0.205-1.089,0.409-2.177,0.655-3.491c-6.751,1.827-14.199,10.32-14.592,16.747C214.211,628.277,216.293,626.389,218.375,624.501z
		 M136.244,624.312c-0.633,1.719-1.266,3.438-2.362,6.412c3.797-0.748,7.753-0.338,9.471-2.104c4.144-4.258,7.24-9.534,10.759-14.4
		c-0.25-0.431-0.499-0.861-0.748-1.292c-3.074,1.442-6.148,2.883-9.222,4.324c0.171-1.111,0.342-2.223,0.544-3.538
		c-6.718,1.797-13.86,9.845-13.864,17.074C132.63,628.63,134.437,626.471,136.244,624.312z M369.751,617.238
		c1.898-1.998,3.795-3.995,5.776-6.081c-7.117-0.252-17.807,9.58-19.667,19.148c1.932-1.85,3.862-3.699,5.793-5.549
		c-0.526,1.642-1.051,3.284-1.592,4.971c4.625,0.428,8.73,0.809,12.959,1.201c0.493-4.866,1.037-10.235,1.662-16.396
		C372.569,615.692,371.16,616.465,369.751,617.238z M111.638,626.283c3.322-4.09,6.644-8.18,9.965-12.271
		c-8.042,2.358-11.723,8.81-15.779,14.908c0.442,0.454,0.885,0.907,1.327,1.361c1.572-1.412,3.143-2.824,4.715-4.236
		c-0.119,1.208-0.237,2.415-0.449,4.569c4.43-0.594,9.637,0.236,12.251-1.984c4.442-3.774,7.25-9.47,10.841-14.493
		c-6.222-1.712-10.728,0.689-14.774,4.406C116.986,621.068,114.334,623.7,111.638,626.283z M307.481,616.998
		c0.279-0.936,0.559-1.873,0.898-3.011c-6.292,0.888-13.664,8.801-15.351,16.996c2.986-3.011,5.212-5.256,7.439-7.502
		c-0.89,2.011-1.779,4.022-3.123,7.057c4.916-0.486,10.072,0.542,12.504-1.569c4.561-3.956,7.545-9.728,11.272-14.865
		C315.704,612.581,311.511,614.438,307.481,616.998z M235.719,626.768c0.584,1.096,1.207,3.155,1.747,3.134
		c3.647-0.145,8.438,0.559,10.665-1.446c4.343-3.91,7.248-9.416,10.64-14.11c-6.102-2.751-10.261,1.597-15.079,3.298
		c0.86-1.125,1.722-2.25,2.723-3.559c-6.188,0.46-14.387,9.169-15.268,16.436C232.907,629.076,234.313,627.922,235.719,626.768z
		 M173.224,630.573c4.768-0.513,9.875,0.458,12.293-1.652c4.539-3.961,7.523-9.704,11.336-14.955
		C186.599,613.197,177.869,619.202,173.224,630.573z M56.592,630.676c2.288-0.885,4.464-1.048,5.393-2.208
		c3.639-4.545,6.884-9.405,10.345-14.245c-16.98-1.689-14.262-1.251-16.289,12.602C55.927,627.604,56.256,628.448,56.592,630.676z
		 M91.952,614.146c-7.348-0.401-15.379,5.903-20.094,16.647c3.866-0.915,7.813-0.67,9.616-2.516
		C85.52,624.137,88.5,618.956,91.952,614.146z M340.171,630.539c3.472-0.605,7.406-0.104,9.049-1.81
		c4.134-4.292,7.235-9.579,10.862-14.621C352.551,613.928,344.308,620.55,340.171,630.539z M380.692,641.993
		c2.07-7.969,3.243-15.882-0.288-23.703C377.791,626.201,377.883,634.119,380.692,641.993z M168.143,629.157
		c0.405,0.393,0.81,0.786,1.214,1.179c4.835-5.354,9.67-10.708,14.505-16.063c-0.425-0.409-0.85-0.819-1.275-1.228
		C176.193,616.914,171.642,622.535,168.143,629.157z M334.943,629.017c0.481,0.45,0.961,0.901,1.442,1.351
		c4.816-5.368,9.633-10.737,14.449-16.105c-0.364-0.378-0.729-0.755-1.093-1.133C343.057,616.648,338.823,622.653,334.943,629.017z"
		/>
	<g>
		<path fill="#930F22" d="M238.866,736.126c8.325,6.72,10.514,13.359,7.24,23.387c-4.071,12.472-12.572,21.38-25.66,22.668
			c-16.772,1.65-33.752,1.19-51.674,1.667c2.007-9.631,3.737-18.022,5.507-26.405c3.891-18.426,7.894-36.828,11.635-55.283
			c0.881-4.343,2.394-6.386,7.364-6.228c12.284,0.391,24.589,0.105,36.885,0.09c0.212,0,0.424-0.002,0.636,0.001
			c11.727,0.193,18.65,4.088,21.051,11.843c2.859,9.235-1.25,20.226-9.789,26.157C241.209,734.615,240.33,735.165,238.866,736.126z
			 M189.68,767.896c9.525,0,18.168,0.388,26.755-0.137c5.706-0.348,9.51-4.107,11.498-9.571c2.629-7.224-0.133-12.519-7.795-13.055
			c-8.383-0.586-16.838-0.133-25.561-0.133C192.951,752.603,191.412,759.796,189.68,767.896z M197.965,729.544
			c9.182,0,17.845,0.456,26.41-0.255c2.874-0.239,6.21-2.916,8.095-5.414c4.318-5.725,1.738-11.673-5.363-12.36
			c-7.362-0.712-14.815-0.62-22.226-0.551c-1.242,0.011-3.258,1.48-3.565,2.635C199.963,718.667,199.107,723.865,197.965,729.544z"
			/>
		<path fill="#930F22" d="M967.939,722.858c-5.922,0-11.401,0-17.084,0c-0.856-2.074-1.513-4.306-2.638-6.269
			c-3.839-6.698-11.648-9.405-20.666-7.156c-6.352,1.584-11.722,4.901-15.89,9.988c-7.443,9.084-10.566,19.821-10.807,31.276
			c-0.262,12.448,7.519,19.717,19.978,19.592c11.013-0.111,21.324-7.911,24.746-19.191c-3.301,0-6.425,0-9.549,0
			c-3.133,0-6.266,0-9.897,0c1.132-5.218,2.108-9.716,3.141-14.476c12.153,0,23.969,0,36.501,0
			c-1.379,6.654-2.671,13.019-4.022,19.371c-1.543,7.253-3.47,14.445-4.591,21.761c-0.696,4.543-2.549,6.393-7.049,5.749
			c-1.841-0.263-3.718-0.274-6.069-0.433c0-3.17,0-6.027,0-9.869c-2.416,1.871-4.04,3.11-5.643,4.374
			c-9.447,7.449-20.307,9.526-31.842,7.518c-14.519-2.528-23.718-12.73-24.32-28.484c-0.822-21.514,6.411-40.135,24.002-53.501
			c13.043-9.911,28.077-11.656,43.583-7.623C962.764,698.85,969.174,708.943,967.939,722.858z"/>
		<path fill="#930F22" d="M789.313,783.024c6.266-29.426,12.342-57.964,18.51-86.936c5.84,0,11.122,0.124,16.394-0.042
			c3.618-0.114,3.937,2.675,4.756,4.948c5.676,15.754,11.271,31.537,16.914,47.303c0.762,2.128,1.64,4.214,3.64,6.25
			c2.209-10.206,4.427-20.409,6.623-30.617c1.694-7.875,3.514-15.729,4.964-23.65c0.569-3.11,1.853-4.416,5.002-4.303
			c4.181,0.15,8.372,0.037,13.122,0.037c-6.296,29.536-12.384,58.094-18.631,87.397c-5.456,0-10.741,0.365-15.92-0.222
			c-1.549-0.176-3.392-2.789-4.089-4.661c-6.285-16.887-12.341-33.859-18.479-50.802c-0.564-1.559-1.225-3.084-2.886-4.693
			c-4.287,19.89-8.574,39.781-12.93,59.991C800.812,783.024,795.613,783.024,789.313,783.024z"/>
		<path fill="#930F22" d="M681.894,783.17c-6.082,0-12.371,0-19.986,0c0.831-6.208,1.291-12.021,2.432-17.696
			c2.791-13.881,1.008-16.291-13.025-16.423c-5.471-0.051-10.942-0.008-16.568-0.008c-2.538,11.638-4.92,22.567-7.393,33.909
			c-5.77,0-11.345,0-17.821,0c6.183-29.114,12.238-57.625,18.345-86.381c1.995-0.189,3.643-0.474,5.292-0.481
			c13.155-0.052,26.312-0.076,39.467-0.043c2.326,0.006,4.683,0.132,6.97,0.523c9.624,1.644,15.379,8.229,15.505,18.023
			c0.132,10.292-4.204,18.408-12.699,24.25c-1.381,0.95-2.875,1.734-4.695,2.82c6.593,3.529,7.306,9.195,6.34,15.425
			c-0.617,3.972-1.75,7.887-2.079,11.875C681.612,773.413,681.894,777.916,681.894,783.17z M637.866,734.363
			c8.702,0,16.51,0.109,24.312-0.074c2.054-0.048,4.196-0.747,6.107-1.583c5.191-2.269,8.918-9.444,7.876-14.719
			c-0.895-4.53-4.276-6.805-11.343-7.084c-5.928-0.233-11.872-0.04-17.808-0.105c-2.565-0.028-4.494,0.426-5.056,3.494
			C640.777,720.716,639.362,727.096,637.866,734.363z"/>
		<path fill="#930F22" d="M699.12,750.188c0.98-15.054,5.562-31.191,18.971-43.355c13.19-11.965,28.904-15.744,46.162-11.562
			c13.428,3.254,21,12.672,21.783,26.39c0.979,17.16-3.226,32.998-14.352,46.281c-11.821,14.114-27.609,19.576-45.614,17.257
			C708.058,782.88,698.564,770.837,699.12,750.188z M767.729,729.871c-0.128-15.655-10.804-23.718-25.139-19.841
			c-7.081,1.915-12.516,6.063-16.553,12.059c-5.727,8.506-8.317,18.107-8.401,28.2c-0.115,13.673,9.315,22.306,21.912,19.604
			c5.323-1.141,10.876-3.934,14.976-7.519C764.409,753.731,766.739,741.545,767.729,729.871z"/>
		<path fill="#930F22" d="M530.698,721.551c-5.404,0-10.861,0-16.996,0c0.492-6.514-2.375-10.953-8.653-12.119
			c-7.459-1.386-15.011-1.415-20.944,4.356c-5.652,5.498-3.73,12.339,3.861,14.429c7.963,2.193,16.047,3.966,23.951,6.345
			c14.007,4.216,18.242,12.341,13.746,26.189c-4.913,15.131-16.584,22.229-31.364,24.161c-7.417,0.97-15.327,0.522-22.688-0.937
			c-13.618-2.699-19.051-12.084-16.636-27.04c5.315,0,10.725,0,16.635,0c0.109,0.609,0.396,1.554,0.431,2.507
			c0.211,5.706,3.32,9.081,8.672,10.276c6.745,1.505,13.519,1.429,19.927-1.456c2.052-0.924,4.064-2.431,5.484-4.17
			c4.272-5.232,2.94-10.808-3.374-13.122c-5.545-2.032-11.389-3.248-17.089-4.862c-3.863-1.094-7.833-1.947-11.535-3.448
			c-8.539-3.463-11.459-8.162-10.931-17.249c0.696-11.977,6.451-21.014,16.94-26.625c11.59-6.201,24.087-6.699,36.481-3.24
			C528.404,698.838,534.239,710.253,530.698,721.551z"/>
		<path fill="#930F22" d="M334.225,721.798c-4.536,0-8.753,0.02-12.97-0.012c-1.241-0.009-2.482-0.163-3.65-0.246
			c-1.455-8.429-3.608-11.405-9.947-12.265c-7.936-1.077-15.984-1.246-21.442,6.137c-4.066,5.5-2.068,10.775,4.602,12.652
			c7.55,2.124,15.225,3.805,22.778,5.915c16.294,4.552,20.947,14.351,14.292,29.929c-2.836,6.639-7.306,11.97-13.679,15.444
			c-13.814,7.531-28.3,8.282-43.104,3.546c-10.158-3.249-16.709-14.409-12.274-26.25c5.205,0,10.484,0,15.011,0
			c1.848,3.821,2.665,8.47,5.404,10.415c3.31,2.349,8.254,3.261,12.479,3.227c4.715-0.037,9.646-1.261,14.056-3.031
			c4.151-1.667,6.396-5.609,6.046-10.312c-0.33-4.439-4.107-5.766-7.508-6.773c-6.905-2.044-13.936-3.663-20.919-5.441
			c-16.322-4.155-21.127-13.423-14.022-30.98c2.976-7.354,8.584-12.6,15.807-15.889c10.854-4.943,22.245-5.509,33.615-2.635
			C331.167,698.355,336.757,708.106,334.225,721.798z"/>
		<path fill="#930F22" d="M1.021,756.629c5.566,0,10.844,0,16.095,0c2.127,11.247,5.298,14.153,16.569,13.771
			c4.755-0.161,9.65-1.247,14.135-2.871c4.246-1.537,6.591-5.382,6.529-10.049c-0.064-4.813-4.031-6.24-7.663-7.312
			c-6.908-2.04-13.941-3.655-20.919-5.459c-15.068-3.897-21.293-12.001-14.125-30.497c2.777-7.165,8.106-12.413,15.005-15.84
			c11.151-5.54,22.953-6.052,34.749-3.088c12.342,3.102,17.891,12.973,15.298,26.143c-5.344,0-10.775,0-16.946,0
			c0.268-5.644-1.967-10.244-7.935-11.705c-7.224-1.768-14.364-1.62-20.709,2.985c-3.141,2.281-4.714,5.565-4.281,9.405
			c0.46,4.08,3.83,5.264,7.215,6.158c7.788,2.056,15.641,3.887,23.365,6.159c14.36,4.224,18.573,12.401,14.011,26.591
			c-2.655,8.258-7.705,14.665-15.36,18.702c-13.454,7.095-27.616,8.013-41.932,3.267C2.488,779.133-2.275,769.299,1.021,756.629z"/>
		<path fill="#930F22" d="M407.922,767.938c-1.145,5.485-2.127,10.193-3.149,15.09c-22.179,0-43.926,0-66.443,0
			c6.18-29.105,12.235-57.626,18.378-86.558c21.344,0,42.467,0,63.544,0c0.225,0.446,0.594,0.821,0.543,1.126
			c-2.296,13.776-2.3,13.77-16.18,13.761c-10.801-0.007-21.602-0.001-33.003-0.001c-1.32,6.028-2.571,11.741-3.971,18.13
			c14.17,0,27.868,0,42.638,0c-1.163,5.564-2.163,10.356-3.281,15.707c-14.281,0-28.223,0-42.628,0
			c-1.626,7.659-3.142,14.798-4.828,22.744C375.998,767.938,391.616,767.938,407.922,767.938z"/>
		<path fill="#930F22" d="M144.865,696.031c4.09,29.193,8.083,57.69,12.169,86.856c-6.632,0-12.811,0-19.612,0
			c-0.754-5.608-1.527-11.367-2.365-17.596c-10.017,0-19.539-0.125-29.05,0.129c-1.496,0.04-3.442,1.475-4.323,2.824
			c-2.426,3.716-4.552,7.652-6.492,11.649c-1.293,2.665-3.078,3.683-5.988,3.575c-4.633-0.172-9.277-0.046-14.9-0.046
			c1.223-2.495,1.936-4.166,2.827-5.736c14.548-25.622,29.193-51.19,43.601-76.891c2.053-3.663,4.401-5.13,8.538-4.843
			C134.108,696.289,138.987,696.031,144.865,696.031z M130.183,718.272c-0.519-0.107-1.039-0.215-1.558-0.323
			c-5.609,10.433-11.218,20.865-17.161,31.921c7.816,0,14.637,0,21.996,0C132.333,739.002,131.257,728.637,130.183,718.272z"/>
		<path fill="#930F22" d="M553.81,783.426c5.206-24.627,10.132-47.935,15.215-71.982c-9.069,0-17.262,0-26.282,0
			c1.051-5.178,1.955-9.637,2.994-14.758c23.376,0,46.742,0,71.158,0c-0.935,4.735-1.846,9.351-2.877,14.575
			c-8.977,0-17.558,0-26.51,0c-3.185,14.818-6.248,29.045-9.298,43.275c-1.729,8.07-3.611,16.113-5.071,24.232
			c-0.599,3.33-1.857,4.851-5.336,4.703C563.406,783.284,558.997,783.426,553.81,783.426z"/>
	</g>
	<g>
		<path fill="#0C3544" d="M518.737,601.265c-4.194,17.918-8.133,34.742-12.127,51.801c-3.739,0-7.045,0-11.062,0
			c2.979-13.003,5.875-25.642,8.771-38.281c-0.34-0.118-0.68-0.236-1.02-0.354c-4.941,10.239-9.881,20.477-14.822,30.716
			c-4.34,8.995-4.34,8.995-15.708,7.74c0-12.48,0-25.074,0-37.669c-0.545-0.074-1.09-0.148-1.635-0.222
			c-3.045,12.613-6.091,25.226-9.193,38.075c-3.648,0-6.954,0-10.988,0c2.738-11.859,5.37-23.31,8.03-34.754
			c1.055-4.539,2.309-9.036,3.209-13.604c0.516-2.619,1.873-3.514,4.381-3.462c4.215,0.088,8.433,0.024,13.829,0.024
			c0,13.226,0,26.018,0,38.81c0.619,0.122,1.238,0.244,1.857,0.366c1.929-3.84,3.903-7.657,5.78-11.522
			c3.793-7.811,7.655-15.592,11.236-23.5c1.43-3.159,3.333-4.5,6.838-4.229C509.885,601.49,513.698,601.265,518.737,601.265z"/>
		<path fill="#0C3544" d="M414.978,652.948c3.307-14.359,6.42-27.884,9.729-42.255c-6.115,0-11.326,0-16.571,0
			c0.818-9.421,0.818-9.425,9.123-9.429c10.605-0.004,21.21,0,31.815,0c2.078,0,4.155,0,7.042,0
			c-0.703,3.406-1.243,6.021-1.888,9.144c-5.583,0-11.02,0-17.185,0c-1.864,7.649-3.664,14.96-5.425,22.281
			c-1.188,4.939-2.755,9.84-3.357,14.853c-0.604,5.024-3.101,6.469-7.633,5.885C418.987,653.215,417.328,653.142,414.978,652.948z"
			/>
		<path fill="#0C3544" d="M552.708,610.444c-3.481,14.566-6.809,28.495-10.17,42.558c-3.979,0-7.477,0-11.787,0
			c3.237-14.083,6.346-27.609,9.689-42.156c-5.841,0-11.151,0-17.217,0c0.837-3.676,1.432-6.287,2.098-9.209
			c15.416,0,30.606,0,46.625,0c-0.66,2.908-1.247,5.494-2,8.808C564.293,610.444,558.681,610.444,552.708,610.444z"/>
	</g>
</g>
</svg>
