<?xml version="1.0" encoding="UTF-8"?>
<!DOCTYPE svg PUBLIC "-//W3C//DTD SVG 1.1//EN" "http://www.w3.org/Graphics/SVG/1.1/DTD/svg11.dtd">
<!-- Creator: CorelDRAW X8 -->
<svg xmlns="http://www.w3.org/2000/svg" xml:space="preserve" width="737px" height="150px" version="1.1" style="shape-rendering:geometricPrecision; text-rendering:geometricPrecision; image-rendering:optimizeQuality; fill-rule:evenodd; clip-rule:evenodd"
viewBox="0 0 737 150"
 xmlns:xlink="http://www.w3.org/1999/xlink">
 <defs>
  <style type="text/css">
   <![CDATA[
    .fil1 {fill:#58595B}
    .fil0 {fill:#7B1618}
   ]]>
  </style>
 </defs>
 <g id="Layer_x0020_1">
  <metadata id="CorelCorpID_0Corel-Layer"/>
  <g id="_2461623161152">
   <path class="fil0" d="M54 43l109 0 0 -43 -109 0 0 43zm-54 54l109 0 0 -43 -109 0 0 43z"/>
   <path class="fil1" d="M714 97l23 0 0 -97 -23 0 0 97zm-435 -80l-63 0 0 5 0 6 0 10 60 0c9,0 16,1 19,5 4,3 5,9 5,18l0 13c0,9 -1,15 -5,18 -3,3 -10,5 -19,5l-60 0c-9,0 -16,-2 -19,-5 -3,-3 -5,-9 -5,-18l0 -1 20 0 0 5 68 0 0 -22 -60 0c-9,0 -16,-1 -19,-4 -3,-4 -5,-10 -5,-18l0 -11c0,-9 2,-15 5,-18 3,-3 10,-5 19,-5l55 0c9,0 15,2 19,5 3,3 5,8 5,16l0 1 -20 0 0 -5 0 0zm74 80l-38 -97 24 0 24 65 26 -65 16 0 26 65 23 -65 20 0 -37 97 -15 0 -27 -67 -27 67 -15 0zm148 -39l42 0 -20 -39 -22 39zm-43 39l55 -97 21 0 56 97 -26 0 -11 -21 -61 0 -12 21 -22 0zm187 -80l0 80 -23 0 0 -80 -44 0 0 -17 112 0 0 17 -45 0z"/>
   <path class="fil1" d="M715 149l-6 -22 3 0 5 18 5 -18 3 0 5 18 4 -18 3 0 -6 22 -3 0 -5 -18 -5 18 -3 0zm-42 -11c0,-3 1,-6 3,-8 2,-2 4,-3 8,-3 3,0 6,1 7,3 2,2 3,5 3,8 0,4 -1,7 -3,9 -1,2 -4,3 -7,3 -4,0 -6,-1 -8,-3 -2,-2 -3,-5 -3,-9zm3 0c0,3 1,5 2,7 2,2 3,2 6,2 2,0 4,0 5,-2 1,-2 2,-4 2,-7 0,-2 -1,-5 -2,-6 -1,-2 -3,-3 -5,-3 -3,0 -4,1 -6,3 -1,1 -2,4 -2,6zm-36 -11l9 0c1,0 2,0 3,0 0,1 1,1 2,1 0,1 1,1 2,2 0,1 0,2 0,3 0,2 0,3 0,3 -1,1 -2,2 -3,2 1,1 2,1 2,2 1,0 1,1 1,3l0 3c0,1 0,2 0,2 1,0 1,1 1,1l0 0 -3 0c-1,0 -1,-1 -1,-3l0 0 0 -3c0,-1 -1,-2 -1,-2 -1,-1 -2,-1 -4,-1l-5 0 0 9 -3 0 0 -22 0 0zm3 3l0 7 5 0c2,0 3,0 4,-1 1,0 1,-1 1,-3 0,-1 0,-2 -1,-2 -1,-1 -2,-1 -4,-1l-5 0 0 0zm-37 -3l9 0c1,0 2,0 3,0 0,1 1,1 1,1 1,1 2,1 3,2 0,1 0,2 0,3 0,2 0,3 0,3 -1,1 -2,2 -3,2 1,1 2,1 2,2 0,0 1,1 1,3l0 3c0,1 0,2 0,2 0,0 1,1 1,1l0 0 -3 0c-1,0 -1,-1 -1,-3l0 0 0 -3c0,-1 -1,-2 -1,-2 -1,-1 -2,-1 -4,-1l-5 0 0 9 -3 0 0 -22 0 0zm3 3l0 7 5 0c2,0 3,0 4,-1 1,0 1,-1 1,-3 0,-1 0,-2 -1,-2 -1,-1 -2,-1 -4,-1l-5 0 0 0zm-41 8c0,-3 1,-6 2,-8 2,-2 5,-3 8,-3 3,0 6,1 8,3 2,2 3,5 3,8 0,4 -1,7 -3,9 -2,2 -5,3 -8,3 -3,0 -6,-1 -8,-3 -1,-2 -2,-5 -2,-9zm3 0c0,3 0,5 2,7 1,2 3,2 5,2 2,0 4,0 5,-2 2,-2 2,-4 2,-7 0,-2 0,-5 -2,-6 -1,-2 -3,-3 -5,-3 -2,0 -4,1 -5,3 -2,1 -2,4 -2,6zm-39 -7l0 18 -3 0 0 -22 5 0 5 17c0,1 0,1 0,1 1,1 1,1 1,1 0,0 0,-1 0,-1 0,0 0,-1 0,-1l6 -17 4 0 0 22 -3 0 0 -18c0,0 0,0 0,1 0,0 0,0 0,1l-6 16 -3 0 -5 -16c0,-1 -1,-1 -1,-1 0,-1 0,-1 0,-1zm-41 7c0,-3 1,-6 3,-8 2,-2 4,-3 7,-3 4,0 6,1 8,3 2,2 3,5 3,8 0,4 -1,7 -3,9 -2,2 -4,3 -8,3 -3,0 -5,-1 -7,-3 -2,-2 -3,-5 -3,-9zm3 0c0,3 1,5 2,7 1,2 3,2 5,2 3,0 5,0 6,-2 1,-2 2,-4 2,-7 0,-2 -1,-5 -2,-6 -1,-2 -3,-3 -6,-3 -2,0 -4,1 -5,3 -1,1 -2,4 -2,6zm-28 11l0 -19 -7 0 0 -3 17 0 0 3 -7 0 0 19 -3 0zm-43 -3c-1,2 -2,3 -3,3 -1,1 -3,1 -4,1 -3,0 -6,-1 -8,-3 -1,-2 -2,-5 -2,-9 0,-3 1,-6 3,-8 1,-2 4,-3 7,-3 3,0 5,0 7,2 1,1 2,3 2,5l-2 0c-1,-2 -1,-3 -3,-3 -1,-1 -2,-2 -4,-2 -2,0 -4,1 -5,3 -2,1 -2,3 -2,6 0,3 0,5 2,7 1,1 3,2 5,2 2,0 4,0 5,-2 1,-1 2,-3 2,-5l0 0 -7 0 0 -3 10 0 0 12 -2 0 -1 -3zm-52 3l0 -22 3 0 10 16c1,1 1,1 1,1 0,1 0,1 0,1l0 -18 3 0 0 22 -3 0 -11 -16c0,0 0,0 0,-1 0,0 0,0 0,-1l0 18 -3 0zm-22 0l0 -22 3 0 0 22 -3 0zm-35 0l0 -22 8 0c3,0 6,1 7,3 2,2 3,5 3,8 0,4 -1,6 -3,8 -1,2 -4,3 -7,3l-8 0 0 0zm8 -19l-5 0 0 17 5 0c2,0 4,-1 5,-2 1,-2 2,-4 2,-7 0,-3 -1,-5 -2,-6 -1,-1 -3,-2 -5,-2zm-38 19l0 -22 3 0 0 20 11 0 0 2 -14 0zm-22 0l0 -22 3 0 0 22 -3 0zm-36 -8l0 -14 3 0 0 14c0,2 1,4 2,5 1,1 2,1 4,1 2,0 3,0 4,-1 1,-1 2,-3 2,-5l0 -14 3 0 0 14c0,3 -1,5 -2,7 -2,1 -4,2 -7,2 -3,0 -5,-1 -6,-2 -2,-2 -3,-4 -3,-7zm-30 6l6 0c1,0 2,-1 3,-1 1,-1 1,-2 1,-3 0,-2 0,-2 -1,-3 -1,-1 -2,-1 -4,-1l-5 0 0 8 0 0zm0 -10l5 0c1,0 3,-1 3,-1 1,-1 1,-2 1,-3 0,-1 0,-2 -1,-2 0,-1 -1,-1 -3,-1l-5 0 0 7zm-3 12l0 -22 8 0c3,0 4,1 6,2 1,1 1,2 1,4 0,1 0,2 0,3 -1,0 -2,1 -3,1 2,1 3,1 3,2 1,1 1,2 1,4 0,2 0,3 -2,5 -1,1 -3,1 -5,1l-9 0z"/>
  </g>
 </g>
</svg>
